<svg width="400" height="91" viewBox="0 0 400 91" fill="none" xmlns="http://www.w3.org/2000/svg">
<rect width="400" height="91" fill="white"/>
<path d="M93.104 21.088C92.96 21.136 92.84 21.152 92.744 21.136C92.648 21.12 92.568 21.08 92.504 21.016C92.424 20.968 92.36 20.92 92.312 20.872C92.264 20.808 92.24 20.728 92.24 20.632C92.208 20.568 92.2 20.496 92.216 20.416C92.248 20.336 92.288 20.248 92.336 20.152C92.384 20.088 92.448 20.032 92.528 19.984C92.608 19.936 92.712 19.888 92.84 19.84C92.904 19.84 92.968 19.832 93.032 19.816C93.112 19.8 93.192 19.784 93.272 19.768C93.336 19.752 93.4 19.736 93.464 19.72C93.544 19.704 93.624 19.688 93.704 19.672C93.832 19.672 93.96 19.664 94.088 19.648C94.232 19.632 94.376 19.608 94.52 19.576C94.584 19.576 94.648 19.576 94.712 19.576C94.776 19.56 94.848 19.552 94.928 19.552C94.992 19.536 95.056 19.528 95.12 19.528C95.2 19.512 95.28 19.496 95.36 19.48C95.424 19.48 95.488 19.48 95.552 19.48C95.616 19.464 95.688 19.456 95.768 19.456C95.832 19.44 95.896 19.432 95.96 19.432C96.04 19.416 96.12 19.4 96.2 19.384C96.776 19.336 97.24 19.376 97.592 19.504C97.944 19.632 98.192 19.84 98.336 20.128C98.464 20.448 98.464 20.824 98.336 21.256C98.224 21.688 97.976 22.168 97.592 22.696C97.544 22.776 97.496 22.848 97.448 22.912C97.4 22.976 97.352 23.04 97.304 23.104C97.256 23.168 97.208 23.232 97.16 23.296C97.128 23.36 97.088 23.416 97.04 23.464L99.944 25.408C100.008 25.472 100.064 25.544 100.112 25.624C100.16 25.688 100.192 25.752 100.208 25.816C100.208 25.912 100.192 26 100.16 26.08C100.144 26.16 100.12 26.232 100.088 26.296C100.04 26.376 99.976 26.44 99.896 26.488C99.832 26.52 99.768 26.544 99.704 26.56C99.608 26.592 99.52 26.6 99.44 26.584C99.36 26.568 99.28 26.52 99.2 26.44L96.224 24.496C96.16 24.56 96.096 24.632 96.032 24.712C95.984 24.776 95.936 24.832 95.888 24.88C95.6 25.216 95.288 25.552 94.952 25.888C94.632 26.224 94.296 26.552 93.944 26.872C93.848 26.968 93.752 27.04 93.656 27.088C93.576 27.12 93.496 27.128 93.416 27.112C93.32 27.112 93.24 27.104 93.176 27.088C93.112 27.056 93.056 27.008 93.008 26.944C92.944 26.896 92.896 26.84 92.864 26.776C92.848 26.696 92.84 26.608 92.84 26.512C92.84 26.432 92.856 26.352 92.888 26.272C92.936 26.176 93.008 26.08 93.104 25.984C93.184 25.904 93.264 25.824 93.344 25.744C93.424 25.664 93.504 25.576 93.584 25.48C93.664 25.4 93.744 25.32 93.824 25.24C93.904 25.16 93.992 25.072 94.088 24.976C94.232 24.832 94.376 24.68 94.52 24.52C94.664 24.36 94.808 24.192 94.952 24.016C95.016 23.952 95.08 23.88 95.144 23.8C95.224 23.72 95.296 23.632 95.36 23.536C95.424 23.456 95.488 23.376 95.552 23.296C95.632 23.216 95.712 23.128 95.792 23.032C95.856 22.968 95.92 22.896 95.984 22.816C96.048 22.72 96.112 22.632 96.176 22.552C96.24 22.456 96.304 22.36 96.368 22.264C96.448 22.168 96.528 22.072 96.608 21.976C96.8 21.72 96.928 21.496 96.992 21.304C97.072 21.112 97.096 20.96 97.064 20.848C97.016 20.752 96.928 20.688 96.8 20.656C96.672 20.624 96.512 20.608 96.32 20.608C96.032 20.64 95.752 20.672 95.48 20.704C95.208 20.736 94.952 20.768 94.712 20.8C94.44 20.848 94.168 20.896 93.896 20.944C93.64 20.992 93.376 21.04 93.104 21.088ZM102.92 18.28C102.92 18.152 102.928 18.04 102.944 17.944C102.976 17.832 103.016 17.728 103.064 17.632C103.112 17.568 103.176 17.52 103.256 17.488C103.336 17.44 103.44 17.416 103.568 17.416C103.664 17.416 103.752 17.44 103.832 17.488C103.928 17.52 104.016 17.568 104.096 17.632C104.144 17.728 104.184 17.832 104.216 17.944C104.248 18.04 104.264 18.152 104.264 18.28V28.456C104.264 28.6 104.248 28.728 104.216 28.84C104.184 28.952 104.144 29.032 104.096 29.08C104.016 29.16 103.928 29.216 103.832 29.248C103.752 29.264 103.664 29.272 103.568 29.272C103.44 29.272 103.336 29.264 103.256 29.248C103.176 29.216 103.112 29.16 103.064 29.08C103.016 29.032 102.976 28.952 102.944 28.84C102.928 28.728 102.92 28.6 102.92 28.456V18.28ZM112.138 20.392C112.138 20.28 112.122 20.16 112.09 20.032C112.074 19.904 112.058 19.776 112.042 19.648C111.994 19.552 111.938 19.448 111.874 19.336C111.826 19.224 111.778 19.112 111.73 19C111.65 18.904 111.562 18.824 111.466 18.76C111.37 18.68 111.266 18.608 111.154 18.544C111.026 18.496 110.89 18.464 110.746 18.448C110.618 18.416 110.482 18.4 110.338 18.4C110.162 18.4 110.002 18.424 109.858 18.472C109.714 18.504 109.57 18.552 109.426 18.616C109.266 18.696 109.114 18.792 108.97 18.904C108.842 19 108.722 19.104 108.61 19.216C108.466 19.36 108.346 19.52 108.25 19.696C108.154 19.856 108.082 20.024 108.034 20.2C107.954 20.392 107.898 20.592 107.866 20.8C107.85 21.008 107.842 21.224 107.842 21.448C107.842 21.592 107.842 21.728 107.842 21.856C107.858 21.968 107.89 22.072 107.938 22.168C107.954 22.28 107.994 22.384 108.058 22.48C108.122 22.56 108.202 22.632 108.298 22.696C108.362 22.792 108.434 22.872 108.514 22.936C108.61 22.984 108.706 23.016 108.802 23.032C108.898 23.08 108.994 23.112 109.09 23.128C109.202 23.128 109.322 23.128 109.45 23.128C109.594 23.128 109.746 23.12 109.906 23.104C110.066 23.072 110.226 23.016 110.386 22.936C110.53 22.888 110.674 22.816 110.818 22.72C110.978 22.624 111.13 22.504 111.274 22.36C111.418 22.248 111.538 22.12 111.634 21.976C111.746 21.816 111.842 21.648 111.922 21.472C111.986 21.328 112.034 21.168 112.066 20.992C112.114 20.8 112.138 20.6 112.138 20.392ZM109.45 24.4C109.21 24.4 108.986 24.392 108.778 24.376C108.57 24.344 108.386 24.288 108.226 24.208C108.034 24.16 107.858 24.08 107.698 23.968C107.538 23.856 107.402 23.728 107.29 23.584C107.146 23.472 107.018 23.336 106.906 23.176C106.81 23.016 106.738 22.84 106.69 22.648C106.61 22.488 106.554 22.312 106.522 22.12C106.506 21.912 106.498 21.688 106.498 21.448C106.498 21.112 106.522 20.8 106.57 20.512C106.618 20.208 106.69 19.92 106.786 19.648C106.882 19.408 107.002 19.176 107.146 18.952C107.29 18.712 107.458 18.496 107.65 18.304C107.842 18.112 108.034 17.944 108.226 17.8C108.434 17.656 108.658 17.528 108.898 17.416C109.106 17.32 109.33 17.248 109.57 17.2C109.81 17.152 110.066 17.128 110.338 17.128C110.578 17.128 110.802 17.152 111.01 17.2C111.234 17.248 111.442 17.304 111.634 17.368C111.826 17.464 112.002 17.568 112.162 17.68C112.338 17.792 112.498 17.92 112.642 18.064C112.658 18.112 112.674 18.16 112.69 18.208C112.722 18.24 112.754 18.272 112.786 18.304C112.802 18.352 112.818 18.392 112.834 18.424C112.866 18.456 112.898 18.488 112.93 18.52L117.322 18.328V17.224C117.322 17.096 117.33 16.984 117.346 16.888C117.378 16.776 117.418 16.672 117.466 16.576C117.514 16.512 117.578 16.464 117.658 16.432C117.738 16.384 117.842 16.36 117.97 16.36C118.066 16.36 118.154 16.384 118.234 16.432C118.33 16.464 118.418 16.512 118.498 16.576C118.546 16.672 118.586 16.776 118.618 16.888C118.65 16.984 118.666 17.096 118.666 17.224V24.856C118.666 25 118.65 25.128 118.618 25.24C118.586 25.352 118.546 25.432 118.498 25.48C118.418 25.56 118.33 25.616 118.234 25.648C118.154 25.664 118.066 25.672 117.97 25.672C117.842 25.672 117.738 25.664 117.658 25.648C117.578 25.616 117.514 25.56 117.466 25.48C117.418 25.432 117.378 25.352 117.346 25.24C117.33 25.128 117.322 25 117.322 24.856V22.456L112.858 22.648H112.738C112.658 22.744 112.578 22.84 112.498 22.936C112.434 23.032 112.354 23.128 112.258 23.224C112.034 23.432 111.81 23.608 111.586 23.752C111.378 23.896 111.162 24.016 110.938 24.112C110.698 24.208 110.45 24.28 110.194 24.328C109.954 24.376 109.706 24.4 109.45 24.4ZM113.434 19.768C113.434 19.864 113.442 19.968 113.458 20.08C113.474 20.192 113.482 20.296 113.482 20.392C113.482 20.568 113.466 20.736 113.434 20.896C113.418 21.056 113.394 21.208 113.362 21.352L117.322 21.184V19.6L113.434 19.768ZM111.586 27.256C111.57 27.352 111.562 27.448 111.562 27.544C111.562 27.64 111.562 27.72 111.562 27.784C111.546 27.88 111.538 27.968 111.538 28.048C111.538 28.128 111.538 28.2 111.538 28.264C111.538 28.344 111.538 28.424 111.538 28.504C111.538 28.568 111.546 28.632 111.562 28.696C111.562 28.776 111.562 28.856 111.562 28.936C111.562 29 111.57 29.064 111.586 29.128C111.586 29.224 111.594 29.304 111.61 29.368C111.642 29.432 111.682 29.48 111.73 29.512C111.762 29.56 111.826 29.6 111.922 29.632C112.018 29.648 112.138 29.648 112.282 29.632C112.378 29.632 112.474 29.632 112.57 29.632C112.666 29.632 112.77 29.624 112.882 29.608C112.994 29.608 113.106 29.6 113.218 29.584C113.346 29.568 113.474 29.552 113.602 29.536C113.714 29.536 113.826 29.528 113.938 29.512C114.066 29.496 114.194 29.48 114.322 29.464C114.45 29.448 114.578 29.432 114.706 29.416C114.834 29.4 114.97 29.376 115.114 29.344C115.37 29.328 115.626 29.296 115.882 29.248C116.138 29.2 116.394 29.152 116.65 29.104C116.89 29.072 117.122 29.04 117.346 29.008C117.57 28.96 117.778 28.912 117.97 28.864C118.066 28.864 118.146 28.872 118.21 28.888C118.29 28.904 118.37 28.936 118.45 28.984C118.498 29.048 118.546 29.112 118.594 29.176C118.642 29.24 118.682 29.304 118.714 29.368C118.714 29.464 118.714 29.552 118.714 29.632C118.714 29.696 118.706 29.76 118.69 29.824C118.642 29.92 118.586 29.992 118.522 30.04C118.474 30.088 118.418 30.12 118.354 30.136C118.13 30.216 117.898 30.28 117.658 30.328C117.418 30.376 117.162 30.424 116.89 30.472C116.602 30.52 116.306 30.568 116.002 30.616C115.698 30.664 115.402 30.704 115.114 30.736C114.794 30.784 114.482 30.824 114.178 30.856C113.874 30.888 113.578 30.904 113.29 30.904C112.986 30.936 112.698 30.96 112.426 30.976C112.17 30.976 111.938 30.976 111.73 30.976C111.506 30.976 111.306 30.952 111.13 30.904C110.954 30.856 110.802 30.768 110.674 30.64C110.53 30.544 110.418 30.416 110.338 30.256C110.258 30.096 110.218 29.904 110.218 29.68C110.186 29.472 110.162 29.264 110.146 29.056C110.146 28.848 110.154 28.648 110.17 28.456C110.17 28.264 110.17 28.072 110.17 27.88C110.17 27.672 110.186 27.456 110.218 27.232C110.218 27.136 110.234 27.048 110.266 26.968C110.298 26.888 110.362 26.816 110.458 26.752C110.522 26.704 110.594 26.664 110.674 26.632C110.754 26.6 110.842 26.584 110.938 26.584C111.002 26.584 111.074 26.6 111.154 26.632C111.234 26.664 111.314 26.704 111.394 26.752C111.442 26.832 111.482 26.912 111.514 26.992C111.562 27.072 111.586 27.16 111.586 27.256Z" fill="black"/>
<rect x="17" y="18" width="55" height="55" rx="27.5" fill="#D9D9D9"/>
<path d="M147.662 55.114C147.662 54.982 147.65 54.856 147.626 54.736C147.614 54.616 147.59 54.502 147.554 54.394C147.506 54.298 147.452 54.208 147.392 54.124C147.344 54.028 147.284 53.944 147.212 53.872C147.128 53.812 147.044 53.758 146.96 53.71C146.876 53.65 146.792 53.602 146.708 53.566C146.612 53.53 146.516 53.506 146.42 53.494C146.324 53.47 146.234 53.458 146.15 53.458C146.018 53.458 145.898 53.476 145.79 53.512C145.682 53.548 145.58 53.59 145.484 53.638C145.376 53.71 145.274 53.788 145.178 53.872C145.082 53.944 144.998 54.034 144.926 54.142C144.83 54.274 144.752 54.406 144.692 54.538C144.644 54.67 144.602 54.808 144.566 54.952C144.518 55.096 144.482 55.252 144.458 55.42C144.446 55.576 144.44 55.732 144.44 55.888C144.44 56.02 144.446 56.14 144.458 56.248C144.47 56.356 144.494 56.452 144.53 56.536C144.542 56.632 144.572 56.716 144.62 56.788C144.668 56.86 144.728 56.92 144.8 56.968C144.848 57.04 144.908 57.1 144.98 57.148C145.052 57.184 145.136 57.208 145.232 57.22C145.304 57.256 145.388 57.28 145.484 57.292C145.592 57.304 145.7 57.31 145.808 57.31C145.916 57.31 146.024 57.298 146.132 57.274C146.252 57.25 146.366 57.208 146.474 57.148C146.582 57.112 146.684 57.052 146.78 56.968C146.876 56.884 146.978 56.782 147.086 56.662C147.17 56.554 147.248 56.446 147.32 56.338C147.392 56.218 147.458 56.086 147.518 55.942C147.554 55.822 147.584 55.696 147.608 55.564C147.644 55.42 147.662 55.27 147.662 55.114ZM145.808 58.264C145.616 58.264 145.436 58.252 145.268 58.228C145.112 58.204 144.968 58.162 144.836 58.102C144.692 58.054 144.554 57.988 144.422 57.904C144.302 57.82 144.188 57.724 144.08 57.616C143.972 57.52 143.876 57.412 143.792 57.292C143.708 57.16 143.642 57.022 143.594 56.878C143.534 56.734 143.492 56.584 143.468 56.428C143.444 56.26 143.432 56.08 143.432 55.888C143.432 55.648 143.444 55.42 143.468 55.204C143.504 54.976 143.558 54.754 143.63 54.538C143.678 54.346 143.75 54.16 143.846 53.98C143.954 53.8 144.08 53.626 144.224 53.458C144.344 53.314 144.476 53.188 144.62 53.08C144.764 52.96 144.92 52.852 145.088 52.756C145.244 52.684 145.406 52.624 145.574 52.576C145.754 52.528 145.946 52.504 146.15 52.504C146.33 52.504 146.504 52.522 146.672 52.558C146.84 52.594 147.002 52.642 147.158 52.702C147.302 52.774 147.44 52.852 147.572 52.936C147.704 53.02 147.836 53.116 147.968 53.224C148.076 53.356 148.172 53.494 148.256 53.638C148.34 53.77 148.418 53.908 148.49 54.052C148.538 54.22 148.58 54.394 148.616 54.574C148.652 54.742 148.67 54.922 148.67 55.114C148.67 55.33 148.652 55.534 148.616 55.726C148.58 55.918 148.526 56.104 148.454 56.284C148.382 56.464 148.292 56.644 148.184 56.824C148.076 56.992 147.956 57.154 147.824 57.31C147.68 57.478 147.524 57.622 147.356 57.742C147.2 57.862 147.044 57.958 146.888 58.03C146.708 58.114 146.528 58.174 146.348 58.21C146.168 58.246 145.988 58.264 145.808 58.264ZM151.172 51.46C151.172 51.364 151.178 51.28 151.19 51.208C151.214 51.124 151.25 51.046 151.298 50.974C151.334 50.926 151.376 50.89 151.424 50.866C151.484 50.83 151.562 50.812 151.658 50.812C151.73 50.812 151.796 50.83 151.856 50.866C151.928 50.89 151.994 50.926 152.054 50.974C152.09 51.046 152.12 51.124 152.144 51.208C152.18 51.28 152.198 51.364 152.198 51.46V59.092C152.198 59.2 152.18 59.296 152.144 59.38C152.12 59.464 152.09 59.524 152.054 59.56C151.994 59.62 151.928 59.662 151.856 59.686C151.796 59.698 151.73 59.704 151.658 59.704C151.562 59.704 151.484 59.698 151.424 59.686C151.376 59.662 151.334 59.62 151.298 59.56C151.25 59.524 151.214 59.464 151.19 59.38C151.178 59.296 151.172 59.2 151.172 59.092V51.46ZM159.795 52.558C159.795 52.414 159.771 52.288 159.723 52.18C159.687 52.072 159.633 51.982 159.561 51.91C159.477 51.85 159.381 51.808 159.273 51.784C159.165 51.748 159.039 51.73 158.895 51.73L156.375 52.018C156.291 52.042 156.219 52.066 156.159 52.09C156.111 52.114 156.069 52.144 156.033 52.18C155.997 52.228 155.967 52.282 155.943 52.342C155.931 52.39 155.925 52.45 155.925 52.522V54.52C155.925 54.628 155.931 54.718 155.943 54.79C155.967 54.862 156.009 54.916 156.069 54.952C156.105 55 156.159 55.036 156.231 55.06C156.303 55.072 156.393 55.066 156.501 55.042L158.877 54.88C159.021 54.88 159.147 54.862 159.255 54.826C159.375 54.778 159.477 54.712 159.561 54.628C159.633 54.556 159.687 54.466 159.723 54.358C159.771 54.238 159.795 54.106 159.795 53.962V52.558ZM156.357 51.082L158.877 50.794C159.177 50.758 159.447 50.77 159.687 50.83C159.927 50.89 160.131 50.992 160.299 51.136C160.455 51.292 160.575 51.49 160.659 51.73C160.743 51.958 160.785 52.234 160.785 52.558V53.962C160.785 54.262 160.743 54.526 160.659 54.754C160.575 54.97 160.455 55.15 160.299 55.294C160.131 55.462 159.927 55.588 159.687 55.672C159.459 55.756 159.195 55.804 158.895 55.816L158.517 55.852C158.517 55.852 158.517 55.858 158.517 55.87C158.529 55.87 158.535 55.87 158.535 55.87V58.48L161.991 58.282C162.063 58.282 162.129 58.288 162.189 58.3C162.249 58.312 162.303 58.336 162.351 58.372C162.387 58.42 162.417 58.474 162.441 58.534C162.465 58.594 162.477 58.66 162.477 58.732C162.477 58.816 162.465 58.888 162.441 58.948C162.417 59.008 162.387 59.056 162.351 59.092C162.303 59.14 162.249 59.176 162.189 59.2C162.141 59.212 162.081 59.218 162.009 59.218L154.053 59.668C153.957 59.692 153.879 59.698 153.819 59.686C153.771 59.674 153.729 59.644 153.693 59.596C153.645 59.56 153.609 59.518 153.585 59.47C153.573 59.41 153.567 59.338 153.567 59.254C153.567 59.182 153.573 59.116 153.585 59.056C153.609 58.996 153.645 58.942 153.693 58.894C153.729 58.858 153.771 58.828 153.819 58.804C153.879 58.78 153.951 58.756 154.035 58.732L157.509 58.534V55.924L156.519 55.978C156.243 56.014 156.003 56.014 155.799 55.978C155.607 55.93 155.451 55.84 155.331 55.708C155.199 55.588 155.103 55.432 155.043 55.24C154.983 55.036 154.953 54.796 154.953 54.52V52.522C154.953 52.318 154.977 52.138 155.025 51.982C155.085 51.814 155.175 51.664 155.295 51.532C155.403 51.424 155.541 51.334 155.709 51.262C155.889 51.178 156.105 51.118 156.357 51.082ZM164.827 52.846C164.767 52.87 164.719 52.894 164.683 52.918C164.647 52.93 164.623 52.942 164.611 52.954C164.575 52.99 164.551 53.032 164.539 53.08C164.539 53.116 164.539 53.152 164.539 53.188V54.592L167.887 54.412C167.971 54.412 168.049 54.424 168.121 54.448C168.193 54.46 168.259 54.484 168.319 54.52C168.355 54.568 168.385 54.622 168.409 54.682C168.445 54.742 168.463 54.808 168.463 54.88C168.463 54.964 168.445 55.036 168.409 55.096C168.385 55.156 168.355 55.204 168.319 55.24C168.259 55.288 168.193 55.324 168.121 55.348C168.061 55.36 167.989 55.366 167.905 55.366L164.539 55.546V56.644C164.539 56.752 164.545 56.842 164.557 56.914C164.581 56.986 164.623 57.04 164.683 57.076C164.719 57.136 164.773 57.178 164.845 57.202C164.917 57.214 165.007 57.22 165.115 57.22C165.475 57.22 165.817 57.214 166.141 57.202C166.465 57.178 166.771 57.148 167.059 57.112C167.335 57.076 167.593 57.034 167.833 56.986C168.085 56.926 168.319 56.854 168.535 56.77C168.607 56.734 168.673 56.716 168.733 56.716C168.805 56.716 168.877 56.722 168.949 56.734C168.997 56.77 169.045 56.812 169.093 56.86C169.141 56.896 169.183 56.944 169.219 57.004C169.243 57.088 169.255 57.166 169.255 57.238C169.255 57.298 169.249 57.346 169.237 57.382C169.201 57.442 169.159 57.496 169.111 57.544C169.063 57.58 169.003 57.604 168.931 57.616C168.679 57.724 168.415 57.814 168.139 57.886C167.863 57.946 167.569 57.994 167.257 58.03C166.933 58.09 166.591 58.132 166.231 58.156C165.883 58.168 165.511 58.174 165.115 58.174C164.839 58.174 164.599 58.144 164.395 58.084C164.203 58.024 164.047 57.928 163.927 57.796C163.783 57.676 163.681 57.52 163.621 57.328C163.561 57.136 163.531 56.908 163.531 56.644V53.188C163.531 52.996 163.549 52.828 163.585 52.684C163.621 52.528 163.687 52.396 163.783 52.288C163.855 52.192 163.951 52.114 164.071 52.054C164.191 51.994 164.335 51.952 164.503 51.928L167.887 51.748C167.971 51.748 168.049 51.76 168.121 51.784C168.193 51.796 168.259 51.82 168.319 51.856C168.355 51.904 168.385 51.958 168.409 52.018C168.445 52.078 168.463 52.144 168.463 52.216C168.463 52.3 168.445 52.372 168.409 52.432C168.385 52.492 168.355 52.54 168.319 52.576C168.259 52.624 168.193 52.66 168.121 52.684C168.061 52.696 167.989 52.702 167.905 52.702L164.827 52.846ZM170.983 51.46C170.983 51.364 170.989 51.28 171.001 51.208C171.025 51.124 171.055 51.046 171.091 50.974C171.127 50.926 171.175 50.89 171.235 50.866C171.295 50.83 171.373 50.812 171.469 50.812C171.541 50.812 171.607 50.83 171.667 50.866C171.739 50.89 171.805 50.926 171.865 50.974C171.901 51.046 171.931 51.124 171.955 51.208C171.979 51.28 171.991 51.364 171.991 51.46V59.092C171.991 59.2 171.979 59.296 171.955 59.38C171.931 59.464 171.901 59.524 171.865 59.56C171.805 59.62 171.739 59.662 171.667 59.686C171.607 59.698 171.541 59.704 171.469 59.704C171.373 59.704 171.295 59.698 171.235 59.686C171.175 59.662 171.127 59.62 171.091 59.56C171.055 59.524 171.025 59.464 171.001 59.38C170.989 59.296 170.983 59.2 170.983 59.092V51.46ZM179.516 53.674V52.846L177.68 52.936V55.348L181.784 55.114C181.856 55.114 181.922 55.12 181.982 55.132C182.042 55.144 182.096 55.168 182.144 55.204C182.18 55.252 182.21 55.306 182.234 55.366C182.258 55.426 182.27 55.492 182.27 55.564C182.27 55.648 182.258 55.72 182.234 55.78C182.21 55.84 182.18 55.888 182.144 55.924C182.096 55.972 182.042 56.008 181.982 56.032C181.934 56.044 181.874 56.05 181.802 56.05L173.846 56.5C173.75 56.524 173.672 56.53 173.612 56.518C173.564 56.506 173.522 56.476 173.486 56.428C173.438 56.392 173.402 56.35 173.378 56.302C173.366 56.242 173.36 56.17 173.36 56.086C173.36 56.014 173.366 55.948 173.378 55.888C173.402 55.828 173.438 55.774 173.486 55.726C173.522 55.69 173.564 55.66 173.612 55.636C173.672 55.612 173.744 55.588 173.828 55.564L176.672 55.402V52.99L175.574 53.044C175.466 53.068 175.37 53.074 175.286 53.062C175.202 53.05 175.142 53.02 175.106 52.972C175.046 52.936 175.004 52.894 174.98 52.846C174.956 52.786 174.944 52.714 174.944 52.63C174.944 52.558 174.95 52.492 174.962 52.432C174.986 52.372 175.028 52.318 175.088 52.27C175.124 52.234 175.184 52.204 175.268 52.18C175.352 52.156 175.448 52.132 175.556 52.108L179.516 51.892V51.334C179.516 51.214 179.498 51.106 179.462 51.01C179.426 50.914 179.378 50.83 179.318 50.758C179.246 50.71 179.162 50.668 179.066 50.632C178.97 50.596 178.868 50.578 178.76 50.578L175.106 50.776C174.998 50.8 174.902 50.806 174.818 50.794C174.734 50.782 174.674 50.752 174.638 50.704C174.578 50.668 174.536 50.626 174.512 50.578C174.488 50.518 174.476 50.446 174.476 50.362C174.476 50.29 174.482 50.224 174.494 50.164C174.518 50.104 174.56 50.05 174.62 50.002C174.656 49.966 174.716 49.936 174.8 49.912C174.884 49.888 174.98 49.864 175.088 49.84L178.742 49.642C179.03 49.63 179.282 49.654 179.498 49.714C179.726 49.774 179.918 49.876 180.074 50.02C180.218 50.164 180.326 50.35 180.398 50.578C180.482 50.794 180.524 51.046 180.524 51.334V53.674C180.524 53.782 180.512 53.878 180.488 53.962C180.464 54.046 180.434 54.106 180.398 54.142C180.338 54.202 180.272 54.244 180.2 54.268C180.14 54.28 180.074 54.286 180.002 54.286C179.906 54.286 179.828 54.28 179.768 54.268C179.708 54.244 179.66 54.202 179.624 54.142C179.588 54.106 179.558 54.046 179.534 53.962C179.522 53.878 179.516 53.782 179.516 53.674ZM176.222 57.652C176.198 57.796 176.186 57.94 176.186 58.084C176.186 58.228 176.192 58.366 176.204 58.498C176.204 58.642 176.204 58.774 176.204 58.894C176.204 59.014 176.21 59.128 176.222 59.236C176.222 59.308 176.228 59.368 176.24 59.416C176.264 59.464 176.294 59.5 176.33 59.524C176.354 59.56 176.402 59.59 176.474 59.614C176.546 59.626 176.636 59.626 176.744 59.614C176.816 59.614 176.888 59.614 176.96 59.614C177.032 59.614 177.11 59.608 177.194 59.596C177.278 59.596 177.362 59.59 177.446 59.578C177.53 59.566 177.62 59.554 177.716 59.542C177.8 59.542 177.884 59.536 177.968 59.524C178.052 59.512 178.142 59.5 178.238 59.488C178.322 59.476 178.406 59.464 178.49 59.452C178.586 59.44 178.682 59.422 178.778 59.398C178.958 59.386 179.138 59.362 179.318 59.326C179.51 59.29 179.696 59.254 179.876 59.218C180.044 59.194 180.206 59.17 180.362 59.146C180.53 59.11 180.686 59.074 180.83 59.038C180.902 59.038 180.962 59.044 181.01 59.056C181.07 59.068 181.13 59.092 181.19 59.128C181.226 59.176 181.262 59.224 181.298 59.272C181.334 59.32 181.364 59.368 181.388 59.416C181.388 59.488 181.388 59.554 181.388 59.614C181.388 59.662 181.382 59.71 181.37 59.758C181.334 59.83 181.292 59.884 181.244 59.92C181.208 59.956 181.166 59.98 181.118 59.992C180.95 60.052 180.776 60.1 180.596 60.136C180.416 60.172 180.23 60.208 180.038 60.244C179.822 60.28 179.612 60.316 179.408 60.352C179.204 60.388 178.994 60.418 178.778 60.442C178.55 60.478 178.328 60.508 178.112 60.532C177.896 60.556 177.686 60.568 177.482 60.568C177.266 60.592 177.056 60.61 176.852 60.622C176.66 60.622 176.486 60.622 176.33 60.622C176.162 60.622 176.012 60.604 175.88 60.568C175.748 60.532 175.634 60.466 175.538 60.37C175.43 60.298 175.346 60.202 175.286 60.082C175.226 59.962 175.196 59.818 175.196 59.65C175.172 59.494 175.154 59.332 175.142 59.164C175.142 58.996 175.148 58.822 175.16 58.642C175.16 58.474 175.16 58.306 175.16 58.138C175.16 57.97 175.172 57.802 175.196 57.634C175.196 57.562 175.208 57.496 175.232 57.436C175.256 57.376 175.304 57.322 175.376 57.274C175.424 57.238 175.478 57.208 175.538 57.184C175.598 57.16 175.664 57.148 175.736 57.148C175.784 57.148 175.838 57.16 175.898 57.184C175.958 57.208 176.018 57.238 176.078 57.274C176.114 57.334 176.144 57.394 176.168 57.454C176.204 57.514 176.222 57.58 176.222 57.652ZM186.78 52.252C186.924 52.252 187.062 52.252 187.194 52.252C187.326 52.24 187.458 52.216 187.59 52.18C187.698 52.168 187.812 52.138 187.932 52.09C188.052 52.042 188.166 51.982 188.274 51.91C188.358 51.862 188.436 51.808 188.508 51.748C188.592 51.676 188.664 51.598 188.724 51.514C188.76 51.442 188.79 51.37 188.814 51.298C188.85 51.214 188.868 51.124 188.868 51.028C188.868 50.944 188.856 50.866 188.832 50.794C188.82 50.71 188.796 50.632 188.76 50.56C188.712 50.512 188.658 50.464 188.598 50.416C188.55 50.356 188.49 50.296 188.418 50.236C188.334 50.2 188.244 50.17 188.148 50.146C188.064 50.122 187.974 50.092 187.878 50.056C187.77 50.044 187.656 50.032 187.536 50.02C187.428 49.996 187.314 49.984 187.194 49.984C187.05 49.984 186.918 49.996 186.798 50.02C186.69 50.032 186.582 50.05 186.474 50.074C186.354 50.11 186.24 50.158 186.132 50.218C186.036 50.266 185.946 50.314 185.862 50.362C185.754 50.434 185.664 50.512 185.592 50.596C185.532 50.668 185.484 50.74 185.448 50.812C185.4 50.908 185.364 51.004 185.34 51.1C185.328 51.184 185.322 51.274 185.322 51.37C185.322 51.442 185.328 51.514 185.34 51.586C185.352 51.646 185.376 51.7 185.412 51.748C185.436 51.808 185.472 51.862 185.52 51.91C185.58 51.946 185.646 51.982 185.718 52.018C185.778 52.066 185.844 52.108 185.916 52.144C186 52.168 186.09 52.186 186.186 52.198C186.27 52.222 186.36 52.24 186.456 52.252C186.564 52.252 186.672 52.252 186.78 52.252ZM189.876 51.01C189.876 51.178 189.858 51.334 189.822 51.478C189.786 51.622 189.732 51.754 189.66 51.874C189.576 52.018 189.48 52.15 189.372 52.27C189.264 52.378 189.144 52.48 189.012 52.576C188.856 52.684 188.694 52.78 188.526 52.864C188.358 52.948 188.184 53.008 188.004 53.044C187.812 53.104 187.614 53.146 187.41 53.17C187.206 53.194 186.996 53.206 186.78 53.206C186.588 53.206 186.408 53.2 186.24 53.188C186.072 53.164 185.916 53.128 185.772 53.08C185.616 53.044 185.472 52.996 185.34 52.936C185.22 52.876 185.106 52.798 184.998 52.702C184.866 52.63 184.752 52.546 184.656 52.45C184.572 52.342 184.506 52.234 184.458 52.126C184.398 52.018 184.356 51.904 184.332 51.784C184.308 51.664 184.296 51.532 184.296 51.388C184.296 51.22 184.308 51.058 184.332 50.902C184.368 50.746 184.422 50.596 184.494 50.452C184.554 50.32 184.638 50.194 184.746 50.074C184.854 49.942 184.98 49.816 185.124 49.696C185.256 49.588 185.4 49.498 185.556 49.426C185.712 49.342 185.88 49.264 186.06 49.192C186.216 49.144 186.39 49.108 186.582 49.084C186.786 49.048 186.996 49.03 187.212 49.03C187.404 49.03 187.59 49.048 187.77 49.084C187.962 49.108 188.142 49.138 188.31 49.174C188.466 49.234 188.61 49.294 188.742 49.354C188.886 49.414 189.024 49.48 189.156 49.552C189.264 49.648 189.36 49.75 189.444 49.858C189.54 49.966 189.624 50.074 189.696 50.182C189.744 50.314 189.786 50.452 189.822 50.596C189.858 50.728 189.876 50.866 189.876 51.01ZM183.18 55.564C183.096 55.576 183.024 55.576 182.964 55.564C182.916 55.54 182.874 55.504 182.838 55.456C182.79 55.42 182.754 55.378 182.73 55.33C182.718 55.27 182.712 55.198 182.712 55.114C182.712 55.042 182.718 54.976 182.73 54.916C182.754 54.856 182.79 54.802 182.838 54.754C182.874 54.718 182.916 54.688 182.964 54.664C183.024 54.64 183.096 54.622 183.18 54.61L191.136 54.142C191.208 54.142 191.274 54.148 191.334 54.16C191.394 54.172 191.448 54.196 191.496 54.232C191.532 54.28 191.562 54.334 191.586 54.394C191.61 54.454 191.622 54.52 191.622 54.592C191.622 54.676 191.61 54.748 191.586 54.808C191.562 54.868 191.532 54.916 191.496 54.952C191.448 55 191.394 55.036 191.334 55.06C191.274 55.084 191.208 55.096 191.136 55.096L183.18 55.564ZM185.196 60.316C185.196 60.448 185.214 60.556 185.25 60.64C185.298 60.712 185.376 60.766 185.484 60.802C185.568 60.838 185.676 60.862 185.808 60.874C185.94 60.886 186.09 60.88 186.258 60.856C186.546 60.844 186.852 60.814 187.176 60.766C187.5 60.718 187.842 60.658 188.202 60.586C188.538 60.514 188.862 60.442 189.174 60.37C189.498 60.298 189.804 60.226 190.092 60.154C190.164 60.142 190.224 60.142 190.272 60.154C190.332 60.154 190.392 60.172 190.452 60.208C190.488 60.256 190.524 60.31 190.56 60.37C190.596 60.418 190.626 60.466 190.65 60.514C190.65 60.574 190.65 60.634 190.65 60.694C190.65 60.742 190.644 60.79 190.632 60.838C190.596 60.91 190.554 60.964 190.506 61C190.47 61.036 190.428 61.06 190.38 61.072C190.224 61.132 190.062 61.18 189.894 61.216C189.738 61.264 189.57 61.306 189.39 61.342C189.198 61.39 189.006 61.432 188.814 61.468C188.622 61.504 188.436 61.54 188.256 61.576C188.052 61.612 187.848 61.648 187.644 61.684C187.452 61.72 187.266 61.744 187.086 61.756C186.882 61.792 186.69 61.816 186.51 61.828C186.342 61.852 186.18 61.864 186.024 61.864C185.712 61.888 185.442 61.87 185.214 61.81C184.998 61.75 184.818 61.648 184.674 61.504C184.518 61.372 184.398 61.228 184.314 61.072C184.23 60.916 184.182 60.748 184.17 60.568C184.134 60.268 184.146 60.004 184.206 59.776C184.278 59.536 184.404 59.344 184.584 59.2C184.74 59.068 184.92 58.966 185.124 58.894C185.328 58.81 185.55 58.75 185.79 58.714L187.932 58.498C188.148 58.486 188.34 58.468 188.508 58.444C188.688 58.408 188.844 58.36 188.976 58.3C189.084 58.264 189.168 58.21 189.228 58.138C189.3 58.066 189.336 57.976 189.336 57.868C189.336 57.784 189.318 57.706 189.282 57.634C189.258 57.562 189.222 57.496 189.174 57.436C189.102 57.4 189.018 57.37 188.922 57.346C188.826 57.322 188.706 57.31 188.562 57.31L184.926 57.544C184.83 57.568 184.752 57.574 184.692 57.562C184.644 57.55 184.602 57.52 184.566 57.472C184.518 57.436 184.482 57.388 184.458 57.328C184.446 57.268 184.44 57.196 184.44 57.112C184.44 57.04 184.446 56.974 184.458 56.914C184.482 56.854 184.518 56.8 184.566 56.752C184.602 56.716 184.644 56.692 184.692 56.68C184.752 56.656 184.824 56.632 184.908 56.608L188.418 56.374C188.73 56.362 189.006 56.386 189.246 56.446C189.486 56.494 189.696 56.572 189.876 56.68C190.032 56.812 190.152 56.98 190.236 57.184C190.32 57.376 190.362 57.604 190.362 57.868C190.362 58.144 190.308 58.378 190.2 58.57C190.092 58.75 189.93 58.894 189.714 59.002C189.498 59.122 189.234 59.218 188.922 59.29C188.622 59.362 188.286 59.416 187.914 59.452L186.06 59.65C185.916 59.674 185.79 59.704 185.682 59.74C185.586 59.776 185.502 59.812 185.43 59.848C185.334 59.908 185.268 59.974 185.232 60.046C185.196 60.118 185.184 60.208 185.196 60.316ZM198.071 51.424C198.071 51.712 198.071 52 198.071 52.288C198.083 52.576 198.107 52.864 198.143 53.152C198.143 53.176 198.143 53.2 198.143 53.224C198.143 53.248 198.143 53.272 198.143 53.296C198.143 53.32 198.143 53.344 198.143 53.368C198.155 53.392 198.161 53.416 198.161 53.44L202.247 53.116V51.262C202.247 51.178 202.253 51.1 202.265 51.028C202.289 50.944 202.319 50.866 202.355 50.794C202.391 50.746 202.439 50.71 202.499 50.686C202.559 50.65 202.637 50.632 202.733 50.632C202.805 50.632 202.871 50.65 202.931 50.686C202.991 50.71 203.051 50.746 203.111 50.794C203.147 50.866 203.177 50.944 203.201 51.028C203.225 51.1 203.237 51.184 203.237 51.28V54.574C203.237 54.874 203.195 55.138 203.111 55.366C203.027 55.582 202.907 55.762 202.751 55.906C202.583 56.074 202.379 56.2 202.139 56.284C201.911 56.368 201.647 56.416 201.347 56.428L200.969 56.464C200.969 56.476 200.969 56.482 200.969 56.482C200.969 56.494 200.969 56.5 200.969 56.5C200.981 56.5 200.987 56.5 200.987 56.5V58.66L204.443 58.462C204.515 58.462 204.581 58.468 204.641 58.48C204.701 58.492 204.755 58.516 204.803 58.552C204.839 58.6 204.869 58.654 204.893 58.714C204.917 58.774 204.929 58.84 204.929 58.912C204.929 58.996 204.917 59.068 204.893 59.128C204.869 59.188 204.839 59.236 204.803 59.272C204.755 59.32 204.701 59.356 204.641 59.38C204.593 59.392 204.533 59.398 204.461 59.398L196.505 59.848C196.409 59.872 196.331 59.878 196.271 59.866C196.223 59.854 196.181 59.824 196.145 59.776C196.097 59.74 196.061 59.698 196.037 59.65C196.025 59.59 196.019 59.518 196.019 59.434C196.019 59.362 196.025 59.296 196.037 59.236C196.061 59.176 196.097 59.122 196.145 59.074C196.181 59.038 196.223 59.008 196.271 58.984C196.331 58.96 196.403 58.936 196.487 58.912L199.961 58.714V56.536L199.277 56.59C199.001 56.626 198.755 56.62 198.539 56.572C198.335 56.524 198.161 56.434 198.017 56.302C197.849 56.182 197.717 56.026 197.621 55.834C197.525 55.63 197.459 55.39 197.423 55.114C197.351 54.826 197.291 54.532 197.243 54.232C197.207 53.932 197.183 53.626 197.171 53.314C197.135 53.014 197.111 52.708 197.099 52.396C197.099 52.084 197.099 51.766 197.099 51.442C197.099 51.346 197.105 51.262 197.117 51.19C197.141 51.106 197.171 51.028 197.207 50.956C197.243 50.908 197.291 50.872 197.351 50.848C197.411 50.812 197.489 50.794 197.585 50.794C197.657 50.794 197.723 50.812 197.783 50.848C197.843 50.872 197.897 50.908 197.945 50.956C197.981 51.028 198.011 51.106 198.035 51.19C198.059 51.262 198.071 51.34 198.071 51.424ZM198.269 54.376C198.269 54.484 198.275 54.586 198.287 54.682C198.311 54.766 198.335 54.85 198.359 54.934C198.371 55.078 198.401 55.198 198.449 55.294C198.497 55.378 198.563 55.444 198.647 55.492C198.719 55.564 198.803 55.612 198.899 55.636C198.995 55.66 199.115 55.666 199.259 55.654L201.329 55.492C201.473 55.492 201.599 55.474 201.707 55.438C201.827 55.39 201.929 55.324 202.013 55.24C202.085 55.168 202.139 55.078 202.175 54.97C202.223 54.85 202.247 54.712 202.247 54.556V54.07L198.269 54.376ZM207.152 51.442V53.8C207.152 53.968 207.17 54.106 207.206 54.214C207.242 54.322 207.296 54.412 207.368 54.484C207.44 54.556 207.53 54.61 207.638 54.646C207.746 54.682 207.878 54.7 208.034 54.7C208.262 54.7 208.484 54.7 208.7 54.7C208.928 54.688 209.144 54.664 209.348 54.628C209.54 54.616 209.72 54.592 209.888 54.556C210.068 54.508 210.23 54.454 210.374 54.394C210.446 54.358 210.512 54.34 210.572 54.34C210.644 54.34 210.716 54.346 210.788 54.358C210.836 54.394 210.884 54.436 210.932 54.484C210.98 54.52 211.022 54.568 211.058 54.628C211.082 54.724 211.094 54.808 211.094 54.88C211.094 54.94 211.088 54.988 211.076 55.024C211.04 55.084 210.998 55.138 210.95 55.186C210.902 55.222 210.842 55.246 210.77 55.258C210.578 55.33 210.374 55.396 210.158 55.456C209.954 55.504 209.744 55.54 209.528 55.564C209.288 55.6 209.042 55.624 208.79 55.636C208.55 55.648 208.298 55.654 208.034 55.654C207.71 55.654 207.428 55.618 207.188 55.546C206.948 55.474 206.756 55.354 206.612 55.186C206.444 55.042 206.324 54.856 206.252 54.628C206.18 54.4 206.144 54.13 206.144 53.818V51.46C206.144 51.364 206.15 51.28 206.162 51.208C206.186 51.124 206.216 51.046 206.252 50.974C206.288 50.926 206.336 50.89 206.396 50.866C206.456 50.83 206.534 50.812 206.63 50.812C206.702 50.812 206.768 50.83 206.828 50.866C206.9 50.89 206.966 50.926 207.026 50.974C207.062 51.046 207.092 51.124 207.116 51.208C207.14 51.28 207.152 51.358 207.152 51.442ZM213.56 52.774L215.72 52.342V50.668C215.72 50.572 215.726 50.488 215.738 50.416C215.762 50.332 215.792 50.254 215.828 50.182C215.864 50.134 215.912 50.098 215.972 50.074C216.032 50.038 216.11 50.02 216.206 50.02C216.278 50.02 216.344 50.038 216.404 50.074C216.476 50.098 216.542 50.134 216.602 50.182C216.638 50.254 216.668 50.332 216.692 50.416C216.716 50.488 216.728 50.572 216.728 50.668V55.168C216.728 55.276 216.716 55.372 216.692 55.456C216.668 55.54 216.638 55.6 216.602 55.636C216.542 55.696 216.476 55.738 216.404 55.762C216.344 55.774 216.278 55.78 216.206 55.78C216.11 55.78 216.032 55.774 215.972 55.762C215.912 55.738 215.864 55.696 215.828 55.636C215.792 55.6 215.762 55.54 215.738 55.456C215.726 55.372 215.72 55.276 215.72 55.168V53.296L213.632 53.728L213.722 55.006C213.722 55.114 213.716 55.21 213.704 55.294C213.692 55.378 213.668 55.438 213.632 55.474C213.584 55.534 213.53 55.576 213.47 55.6C213.41 55.624 213.344 55.636 213.272 55.636C213.176 55.636 213.092 55.63 213.02 55.618C212.96 55.594 212.912 55.552 212.876 55.492C212.828 55.456 212.792 55.396 212.768 55.312C212.744 55.228 212.732 55.132 212.732 55.024L212.426 50.83C212.402 50.734 212.396 50.65 212.408 50.578C212.42 50.494 212.45 50.416 212.498 50.344C212.534 50.296 212.582 50.26 212.642 50.236C212.702 50.2 212.78 50.182 212.876 50.182C212.948 50.182 213.014 50.2 213.074 50.236C213.134 50.26 213.194 50.296 213.254 50.344C213.29 50.416 213.32 50.494 213.344 50.578C213.38 50.65 213.404 50.728 213.416 50.812L213.56 52.774ZM209.726 56.878C209.774 56.806 209.828 56.746 209.888 56.698C209.948 56.638 210.014 56.59 210.086 56.554C210.146 56.542 210.212 56.548 210.284 56.572C210.356 56.584 210.428 56.608 210.5 56.644C210.56 56.704 210.608 56.764 210.644 56.824C210.68 56.872 210.704 56.926 210.716 56.986C210.716 57.058 210.698 57.136 210.662 57.22C210.638 57.292 210.602 57.364 210.554 57.436L210.446 57.598L212.318 59.182L213.92 56.878C213.968 56.806 214.022 56.746 214.082 56.698C214.142 56.638 214.208 56.59 214.28 56.554C214.34 56.542 214.406 56.548 214.478 56.572C214.55 56.584 214.622 56.608 214.694 56.644C214.754 56.704 214.802 56.764 214.838 56.824C214.874 56.872 214.898 56.926 214.91 56.986C214.91 57.058 214.892 57.136 214.856 57.22C214.832 57.292 214.796 57.364 214.748 57.436L214.73 57.454L216.692 59.092C216.764 59.164 216.818 59.236 216.854 59.308C216.902 59.38 216.938 59.446 216.962 59.506C216.974 59.578 216.968 59.644 216.944 59.704C216.932 59.764 216.902 59.818 216.854 59.866C216.794 59.938 216.734 59.992 216.674 60.028C216.614 60.064 216.548 60.076 216.476 60.064C216.404 60.064 216.332 60.046 216.26 60.01C216.188 59.974 216.116 59.92 216.044 59.848L214.154 58.282L212.768 60.28C212.696 60.376 212.624 60.454 212.552 60.514C212.492 60.562 212.438 60.592 212.39 60.604C212.318 60.64 212.246 60.652 212.174 60.64C212.114 60.628 212.054 60.592 211.994 60.532C211.922 60.496 211.862 60.448 211.814 60.388C211.778 60.316 211.76 60.244 211.76 60.172C211.748 60.16 211.742 60.142 211.742 60.118C211.742 60.094 211.748 60.064 211.76 60.028C211.748 60.028 211.742 60.028 211.742 60.028C211.742 60.016 211.742 60.01 211.742 60.01L209.852 58.444L208.466 60.442C208.394 60.538 208.322 60.616 208.25 60.676C208.19 60.724 208.136 60.754 208.088 60.766C208.016 60.802 207.944 60.814 207.872 60.802C207.812 60.778 207.752 60.736 207.692 60.676C207.62 60.64 207.56 60.592 207.512 60.532C207.476 60.472 207.458 60.406 207.458 60.334C207.434 60.274 207.44 60.208 207.476 60.136C207.512 60.052 207.566 59.962 207.638 59.866L209.726 56.878ZM221.628 49.372C221.676 49.3 221.73 49.24 221.79 49.192C221.862 49.144 221.934 49.102 222.006 49.066C222.066 49.054 222.132 49.06 222.204 49.084C222.276 49.096 222.348 49.12 222.42 49.156C222.468 49.216 222.51 49.276 222.546 49.336C222.582 49.384 222.606 49.438 222.618 49.498C222.618 49.57 222.6 49.648 222.564 49.732C222.54 49.816 222.504 49.894 222.456 49.966L222.24 50.272L225.012 51.892C225.096 51.952 225.168 52.012 225.228 52.072C225.288 52.132 225.336 52.186 225.372 52.234C225.384 52.306 225.384 52.378 225.372 52.45C225.372 52.51 225.354 52.57 225.318 52.63C225.27 52.702 225.216 52.762 225.156 52.81C225.108 52.858 225.054 52.882 224.994 52.882C224.922 52.906 224.844 52.912 224.76 52.9C224.676 52.876 224.592 52.828 224.508 52.756L221.682 51.082L220.08 53.386C220.008 53.482 219.936 53.56 219.864 53.62C219.804 53.668 219.744 53.698 219.684 53.71C219.612 53.746 219.54 53.758 219.468 53.746C219.408 53.722 219.354 53.68 219.306 53.62C219.234 53.584 219.174 53.536 219.126 53.476C219.09 53.404 219.072 53.332 219.072 53.26C219.048 53.2 219.054 53.134 219.09 53.062C219.126 52.978 219.18 52.888 219.252 52.792L221.628 49.372ZM218.46 55.888C218.364 55.912 218.286 55.918 218.226 55.906C218.178 55.894 218.136 55.864 218.1 55.816C218.052 55.78 218.016 55.738 217.992 55.69C217.98 55.63 217.974 55.558 217.974 55.474C217.974 55.402 217.98 55.336 217.992 55.276C218.016 55.216 218.052 55.162 218.1 55.114C218.136 55.078 218.178 55.048 218.226 55.024C218.286 55 218.358 54.976 218.442 54.952L226.398 54.502C226.47 54.502 226.536 54.508 226.596 54.52C226.656 54.532 226.71 54.556 226.758 54.592C226.794 54.64 226.824 54.694 226.848 54.754C226.872 54.814 226.884 54.88 226.884 54.952C226.884 55.036 226.872 55.108 226.848 55.168C226.824 55.228 226.794 55.276 226.758 55.312C226.71 55.36 226.656 55.396 226.596 55.42C226.548 55.432 226.488 55.438 226.416 55.438L218.46 55.888ZM225.516 57.148V57.814C225.516 57.886 225.51 57.952 225.498 58.012C225.498 58.072 225.498 58.132 225.498 58.192C225.498 58.264 225.498 58.33 225.498 58.39C225.498 58.45 225.498 58.51 225.498 58.57V59.38C225.486 59.524 225.48 59.674 225.48 59.83C225.48 59.974 225.48 60.118 225.48 60.262C225.468 60.334 225.444 60.406 225.408 60.478C225.384 60.55 225.354 60.622 225.318 60.694C225.258 60.79 225.192 60.862 225.12 60.91C225.048 60.958 224.976 60.988 224.904 61C224.844 61.012 224.784 61.024 224.724 61.036C224.676 61.048 224.616 61.06 224.544 61.072C224.472 61.084 224.394 61.096 224.31 61.108C224.238 61.12 224.16 61.126 224.076 61.126C223.896 61.162 223.704 61.192 223.5 61.216C223.308 61.24 223.116 61.258 222.924 61.27C222.816 61.294 222.708 61.312 222.6 61.324C222.504 61.336 222.408 61.342 222.312 61.342C222.216 61.354 222.12 61.366 222.024 61.378C221.928 61.39 221.838 61.396 221.754 61.396C221.562 61.432 221.394 61.456 221.25 61.468C221.106 61.492 220.986 61.504 220.89 61.504C220.674 61.54 220.488 61.534 220.332 61.486C220.176 61.45 220.044 61.366 219.936 61.234C219.816 61.126 219.726 61.006 219.666 60.874C219.618 60.742 219.594 60.592 219.594 60.424C219.582 60.316 219.576 60.202 219.576 60.082C219.576 59.95 219.576 59.818 219.576 59.686V58.966C219.576 58.858 219.576 58.744 219.576 58.624C219.576 58.492 219.582 58.36 219.594 58.228V57.472C219.594 57.4 219.6 57.334 219.612 57.274C219.636 57.214 219.678 57.16 219.738 57.112C219.774 57.076 219.822 57.046 219.882 57.022C219.942 56.998 220.008 56.986 220.08 56.986C220.128 56.986 220.182 56.998 220.242 57.022C220.302 57.046 220.362 57.076 220.422 57.112C220.47 57.16 220.506 57.214 220.53 57.274C220.566 57.322 220.59 57.382 220.602 57.454V58.318L224.49 58.066V57.166C224.49 57.094 224.502 57.028 224.526 56.968C224.55 56.908 224.592 56.854 224.652 56.806C224.688 56.77 224.736 56.74 224.796 56.716C224.856 56.692 224.922 56.68 224.994 56.68C225.042 56.68 225.096 56.692 225.156 56.716C225.216 56.728 225.276 56.752 225.336 56.788C225.384 56.836 225.42 56.89 225.444 56.95C225.48 57.01 225.504 57.076 225.516 57.148ZM220.584 59.272V59.506C220.572 59.638 220.566 59.752 220.566 59.848C220.566 59.944 220.572 60.028 220.584 60.1C220.584 60.196 220.59 60.274 220.602 60.334C220.626 60.382 220.662 60.424 220.71 60.46C220.746 60.496 220.794 60.52 220.854 60.532C220.914 60.544 220.992 60.538 221.088 60.514C221.256 60.502 221.43 60.484 221.61 60.46C221.79 60.436 221.97 60.406 222.15 60.37C222.234 60.37 222.318 60.364 222.402 60.352C222.486 60.34 222.564 60.328 222.636 60.316C222.72 60.304 222.804 60.292 222.888 60.28C222.972 60.268 223.056 60.256 223.14 60.244C223.212 60.244 223.278 60.244 223.338 60.244C223.41 60.232 223.482 60.22 223.554 60.208C223.614 60.196 223.674 60.19 223.734 60.19C223.806 60.178 223.878 60.166 223.95 60.154C224.058 60.154 224.154 60.148 224.238 60.136C224.322 60.124 224.394 60.106 224.454 60.082C224.454 60.034 224.454 59.986 224.454 59.938C224.454 59.878 224.454 59.818 224.454 59.758C224.454 59.698 224.454 59.632 224.454 59.56C224.466 59.488 224.478 59.416 224.49 59.344V59.02L220.584 59.272ZM229.107 52.468V56.806C229.227 56.806 229.365 56.806 229.521 56.806C229.677 56.794 229.845 56.77 230.025 56.734C230.109 56.734 230.193 56.728 230.277 56.716C230.361 56.704 230.451 56.692 230.547 56.68C230.631 56.668 230.715 56.656 230.799 56.644C230.895 56.632 230.991 56.614 231.087 56.59C231.267 56.554 231.441 56.518 231.609 56.482C231.777 56.446 231.951 56.41 232.131 56.374C232.287 56.338 232.437 56.302 232.581 56.266C232.725 56.23 232.863 56.194 232.995 56.158C233.079 56.146 233.157 56.14 233.229 56.14C233.301 56.14 233.367 56.152 233.427 56.176C233.475 56.212 233.517 56.254 233.553 56.302C233.589 56.35 233.619 56.398 233.643 56.446C233.643 56.506 233.637 56.566 233.625 56.626C233.625 56.686 233.619 56.74 233.607 56.788C233.571 56.86 233.529 56.92 233.481 56.968C233.445 57.004 233.391 57.028 233.319 57.04C233.187 57.1 233.043 57.154 232.887 57.202C232.731 57.238 232.557 57.274 232.365 57.31C232.161 57.37 231.957 57.418 231.753 57.454C231.549 57.49 231.345 57.52 231.141 57.544C230.925 57.58 230.709 57.616 230.493 57.652C230.289 57.676 230.091 57.694 229.899 57.706C229.695 57.742 229.515 57.766 229.359 57.778C229.203 57.778 229.071 57.778 228.963 57.778C228.795 57.778 228.651 57.76 228.531 57.724C228.423 57.676 228.345 57.598 228.297 57.49C228.225 57.406 228.171 57.322 228.135 57.238C228.111 57.142 228.099 57.046 228.099 56.95V52.486C228.099 52.402 228.111 52.33 228.135 52.27C228.159 52.198 228.201 52.132 228.261 52.072C228.297 52.036 228.345 52.006 228.405 51.982C228.465 51.958 228.531 51.946 228.603 51.946C228.651 51.946 228.705 51.958 228.765 51.982C228.825 52.006 228.885 52.036 228.945 52.072C228.993 52.132 229.029 52.198 229.053 52.27C229.089 52.33 229.107 52.396 229.107 52.468ZM235.371 51.46C235.371 51.364 235.377 51.28 235.389 51.208C235.413 51.124 235.449 51.046 235.497 50.974C235.533 50.926 235.575 50.89 235.623 50.866C235.683 50.83 235.761 50.812 235.857 50.812C235.929 50.812 235.995 50.83 236.055 50.866C236.127 50.89 236.193 50.926 236.253 50.974C236.289 51.046 236.319 51.124 236.343 51.208C236.379 51.28 236.397 51.364 236.397 51.46V59.092C236.397 59.2 236.379 59.296 236.343 59.38C236.319 59.464 236.289 59.524 236.253 59.56C236.193 59.62 236.127 59.662 236.055 59.686C235.995 59.698 235.929 59.704 235.857 59.704C235.761 59.704 235.683 59.698 235.623 59.686C235.575 59.662 235.533 59.62 235.497 59.56C235.449 59.524 235.413 59.464 235.389 59.38C235.377 59.296 235.371 59.2 235.371 59.092V51.46ZM239.675 53.404C239.615 53.416 239.561 53.434 239.513 53.458C239.477 53.47 239.453 53.488 239.441 53.512C239.405 53.548 239.381 53.59 239.369 53.638C239.357 53.674 239.351 53.71 239.351 53.746C239.351 53.878 239.351 54.016 239.351 54.16C239.351 54.292 239.351 54.424 239.351 54.556C239.351 54.688 239.351 54.826 239.351 54.97C239.363 55.102 239.375 55.24 239.387 55.384C239.387 55.672 239.381 55.954 239.369 56.23C239.357 56.494 239.351 56.746 239.351 56.986C239.579 56.974 239.837 56.95 240.125 56.914C240.425 56.866 240.755 56.806 241.115 56.734C241.451 56.674 241.781 56.608 242.105 56.536C242.429 56.452 242.741 56.362 243.041 56.266C243.113 56.254 243.179 56.254 243.239 56.266C243.299 56.266 243.365 56.278 243.437 56.302C243.485 56.338 243.527 56.38 243.563 56.428C243.599 56.464 243.629 56.506 243.653 56.554C243.665 56.614 243.671 56.674 243.671 56.734C243.671 56.794 243.665 56.848 243.653 56.896C243.617 56.968 243.575 57.028 243.527 57.076C243.479 57.112 243.419 57.136 243.347 57.148C243.203 57.208 243.047 57.262 242.879 57.31C242.723 57.358 242.555 57.4 242.375 57.436C242.183 57.496 241.991 57.544 241.799 57.58C241.607 57.616 241.421 57.652 241.241 57.688C241.049 57.724 240.863 57.76 240.683 57.796C240.503 57.82 240.329 57.838 240.161 57.85C239.981 57.886 239.813 57.91 239.657 57.922C239.501 57.934 239.363 57.94 239.243 57.94C239.075 57.964 238.931 57.958 238.811 57.922C238.703 57.886 238.619 57.832 238.559 57.76C238.487 57.7 238.433 57.622 238.397 57.526C238.373 57.43 238.367 57.316 238.379 57.184C238.379 57.052 238.379 56.92 238.379 56.788C238.379 56.644 238.379 56.494 238.379 56.338C238.379 56.194 238.379 56.05 238.379 55.906C238.391 55.75 238.403 55.588 238.415 55.42C238.415 55.12 238.409 54.82 238.397 54.52C238.385 54.208 238.379 53.908 238.379 53.62C238.355 53.44 238.361 53.29 238.397 53.17C238.445 53.038 238.517 52.924 238.613 52.828C238.685 52.756 238.781 52.696 238.901 52.648C239.033 52.588 239.183 52.54 239.351 52.504L242.303 52.108C242.375 52.108 242.441 52.12 242.501 52.144C242.573 52.156 242.639 52.18 242.699 52.216C242.735 52.264 242.765 52.312 242.789 52.36C242.825 52.408 242.849 52.456 242.861 52.504C242.861 52.576 242.849 52.642 242.825 52.702C242.813 52.75 242.789 52.798 242.753 52.846C242.705 52.906 242.645 52.954 242.573 52.99C242.501 53.026 242.417 53.044 242.321 53.044L239.675 53.404ZM245.993 54.43H248.171C248.243 54.43 248.309 54.442 248.369 54.466C248.429 54.49 248.489 54.52 248.549 54.556C248.585 54.616 248.615 54.676 248.639 54.736C248.663 54.796 248.675 54.862 248.675 54.934C248.675 55.018 248.663 55.09 248.639 55.15C248.615 55.198 248.585 55.24 248.549 55.276C248.489 55.312 248.429 55.342 248.369 55.366C248.309 55.378 248.243 55.384 248.171 55.384H246.065L246.281 58.768C246.281 58.876 246.269 58.972 246.245 59.056C246.233 59.14 246.209 59.2 246.173 59.236C246.125 59.296 246.065 59.338 245.993 59.362C245.933 59.386 245.867 59.398 245.795 59.398C245.711 59.398 245.639 59.392 245.579 59.38C245.519 59.356 245.471 59.314 245.435 59.254C245.375 59.218 245.333 59.158 245.309 59.074C245.285 58.99 245.273 58.894 245.273 58.786L244.823 51.604C244.799 51.508 244.793 51.424 244.805 51.352C244.817 51.268 244.847 51.19 244.895 51.118C244.931 51.07 244.979 51.034 245.039 51.01C245.099 50.974 245.177 50.956 245.273 50.956C245.345 50.956 245.411 50.974 245.471 51.01C245.531 51.034 245.591 51.07 245.651 51.118C245.687 51.19 245.717 51.268 245.741 51.352C245.777 51.424 245.801 51.502 245.813 51.586L245.993 54.43ZM251.161 59.65C251.161 59.758 251.149 59.86 251.125 59.956C251.113 60.04 251.089 60.118 251.053 60.19C251.017 60.286 250.963 60.352 250.891 60.388C250.819 60.424 250.729 60.442 250.621 60.442C250.513 60.442 250.411 60.43 250.315 60.406C250.231 60.382 250.153 60.334 250.081 60.262C249.997 60.214 249.937 60.154 249.901 60.082C249.865 59.998 249.847 59.902 249.847 59.794C249.847 59.686 249.853 59.584 249.865 59.488C249.889 59.392 249.925 59.296 249.973 59.2C249.997 59.116 250.045 59.044 250.117 58.984C250.189 58.924 250.279 58.894 250.387 58.894C250.495 58.894 250.591 58.918 250.675 58.966C250.771 59.014 250.855 59.068 250.927 59.128C250.999 59.2 251.053 59.278 251.089 59.362C251.137 59.446 251.161 59.542 251.161 59.65Z" fill="#929292"/>
<path d="M93.9162 73.6567C93.9162 73.6028 93.9085 73.5451 93.8931 73.4835C93.8854 73.4219 93.8777 73.3603 93.87 73.2987C93.8469 73.2525 93.82 73.2024 93.7892 73.1485C93.7661 73.0946 93.743 73.0407 93.7199 72.9868C93.6814 72.9406 93.639 72.9021 93.5928 72.8713C93.5466 72.8328 93.4966 72.7982 93.4427 72.7674C93.3811 72.7443 93.3156 72.7289 93.2463 72.7212C93.1847 72.7058 93.1193 72.6981 93.05 72.6981C92.9653 72.6981 92.8883 72.7096 92.819 72.7327C92.7497 72.7481 92.6804 72.7712 92.6111 72.802C92.5341 72.8405 92.4609 72.8867 92.3916 72.9406C92.33 72.9868 92.2723 73.0369 92.2184 73.0908C92.1491 73.1601 92.0913 73.2371 92.0451 73.3218C91.9989 73.3988 91.9643 73.4796 91.9412 73.5643C91.9027 73.6567 91.8757 73.7529 91.8603 73.853C91.8526 73.9531 91.8488 74.0571 91.8488 74.1649C91.8488 74.2342 91.8488 74.2996 91.8488 74.3612C91.8565 74.4151 91.8719 74.4652 91.895 74.5114C91.9027 74.5653 91.9219 74.6153 91.9527 74.6615C91.9835 74.7 92.022 74.7347 92.0682 74.7655C92.099 74.8117 92.1337 74.8502 92.1722 74.881C92.2184 74.9041 92.2646 74.9195 92.3108 74.9272C92.357 74.9503 92.4032 74.9657 92.4494 74.9734C92.5033 74.9734 92.561 74.9734 92.6226 74.9734C92.6919 74.9734 92.7651 74.9695 92.8421 74.9618C92.9191 74.9464 92.9961 74.9195 93.0731 74.881C93.1424 74.8579 93.2117 74.8232 93.281 74.777C93.358 74.7308 93.4311 74.6731 93.5004 74.6038C93.5697 74.5499 93.6275 74.4883 93.6737 74.419C93.7276 74.342 93.7738 74.2611 93.8123 74.1764C93.8431 74.1071 93.8662 74.0301 93.8816 73.9454C93.9047 73.853 93.9162 73.7568 93.9162 73.6567ZM92.6226 75.5855C92.5071 75.5855 92.3993 75.5817 92.2992 75.574C92.1991 75.5586 92.1106 75.5316 92.0336 75.4931C91.9412 75.47 91.8565 75.4315 91.7795 75.3776C91.7025 75.3237 91.637 75.2621 91.5831 75.1928C91.5138 75.1389 91.4522 75.0735 91.3983 74.9965C91.3521 74.9195 91.3175 74.8348 91.2944 74.7424C91.2559 74.6654 91.2289 74.5807 91.2136 74.4883C91.2059 74.3882 91.202 74.2804 91.202 74.1649C91.202 74.0032 91.2136 73.853 91.2366 73.7144C91.2597 73.5682 91.2944 73.4296 91.3406 73.2987C91.3868 73.1832 91.4445 73.0715 91.5138 72.9637C91.5831 72.8482 91.664 72.7443 91.7564 72.6519C91.8488 72.5595 91.9412 72.4786 92.0336 72.4093C92.1337 72.34 92.2415 72.2784 92.357 72.2245C92.4571 72.1783 92.5649 72.1437 92.6804 72.1206C92.7959 72.0975 92.9191 72.0859 93.05 72.0859C93.1655 72.0859 93.2733 72.0975 93.3734 72.1206C93.4812 72.1437 93.5813 72.1706 93.6737 72.2014C93.7661 72.2476 93.8508 72.2977 93.9278 72.3516C94.0125 72.4055 94.0895 72.4671 94.1588 72.5364C94.2127 72.6211 94.2627 72.7058 94.3089 72.7905C94.3628 72.8675 94.4128 72.9522 94.459 73.0446C94.4898 73.137 94.5129 73.2371 94.5283 73.3449C94.5514 73.445 94.563 73.5489 94.563 73.6567C94.563 73.7953 94.5476 73.9262 94.5168 74.0494C94.4937 74.1726 94.459 74.2881 94.4128 74.3959C94.3513 74.5114 94.2858 74.623 94.2165 74.7308C94.1472 74.8309 94.0664 74.9272 93.974 75.0196C93.8662 75.1197 93.7584 75.2044 93.6506 75.2737C93.5505 75.343 93.4465 75.4007 93.3387 75.4469C93.2232 75.4931 93.1039 75.5278 92.9807 75.5509C92.8652 75.574 92.7458 75.5855 92.6226 75.5855ZM96.2955 73.5297H97.4851C97.5313 73.5297 97.5736 73.5374 97.6121 73.5528C97.6506 73.5682 97.6891 73.5874 97.7276 73.6105C97.7507 73.6413 97.77 73.6759 97.7854 73.7144C97.8008 73.7529 97.8085 73.7953 97.8085 73.8415C97.8085 73.8954 97.8008 73.9416 97.7854 73.9801C97.77 74.0109 97.7507 74.0378 97.7276 74.0609C97.6891 74.0917 97.6506 74.1148 97.6121 74.1302C97.5736 74.1379 97.5313 74.1418 97.4851 74.1418H96.3301L96.4225 75.701C96.4225 75.7703 96.4187 75.8319 96.411 75.8858C96.4033 75.9397 96.3879 75.9782 96.3648 76.0013C96.334 76.0398 96.2955 76.0668 96.2493 76.0822C96.2108 76.0976 96.1684 76.1053 96.1222 76.1053C96.0606 76.1053 96.0067 76.1014 95.9605 76.0937C95.922 76.0783 95.8912 76.0514 95.8681 76.0129C95.8373 75.9898 95.8142 75.9513 95.7988 75.8974C95.7834 75.8435 95.7757 75.7819 95.7757 75.7126L95.5794 72.2361C95.564 72.1745 95.5601 72.1206 95.5678 72.0744C95.5755 72.0205 95.5948 71.9704 95.6256 71.9242C95.6487 71.8934 95.6795 71.8703 95.718 71.8549C95.7565 71.8318 95.8065 71.8203 95.8681 71.8203C95.9143 71.8203 95.9567 71.8318 95.9952 71.8549C96.0414 71.8703 96.0837 71.8934 96.1222 71.9242C96.1453 71.9704 96.1646 72.0205 96.18 72.0744C96.1954 72.1206 96.2108 72.1706 96.2262 72.2245L96.2955 73.5297ZM93.1886 76.6135C93.1732 76.7059 93.1655 76.7982 93.1655 76.8906C93.1655 76.983 93.1693 77.0716 93.177 77.1563C93.177 77.2487 93.177 77.3334 93.177 77.4104C93.177 77.4874 93.1809 77.5605 93.1886 77.6298C93.1886 77.676 93.1924 77.7145 93.2001 77.7453C93.2155 77.7761 93.2348 77.7992 93.2579 77.8146C93.2733 77.8377 93.3041 77.857 93.3503 77.8724C93.3965 77.8801 93.4542 77.8801 93.5235 77.8724C93.5697 77.8724 93.6159 77.8724 93.6621 77.8724C93.7083 77.8724 93.7584 77.8685 93.8123 77.8608C93.8662 77.8608 93.9201 77.857 93.974 77.8493C94.0356 77.8416 94.0972 77.8339 94.1588 77.8262C94.2127 77.8262 94.2666 77.8223 94.3205 77.8146C94.3821 77.8069 94.4436 77.7992 94.5052 77.7915C94.5668 77.7838 94.6284 77.7761 94.69 77.7684C94.7516 77.7607 94.8171 77.7492 94.8864 77.7338C95.0096 77.7261 95.1328 77.7107 95.256 77.6876C95.3792 77.6645 95.5024 77.6414 95.6256 77.6183C95.7411 77.6029 95.8527 77.5875 95.9605 77.5721C96.0683 77.549 96.1684 77.5259 96.2608 77.5028C96.307 77.5028 96.3455 77.5066 96.3763 77.5143C96.4148 77.522 96.4533 77.5374 96.4918 77.5605C96.5149 77.5913 96.538 77.6221 96.5611 77.6529C96.5842 77.6837 96.6035 77.7145 96.6189 77.7453C96.6189 77.7915 96.6189 77.8339 96.6189 77.8724C96.6189 77.9032 96.615 77.934 96.6073 77.9648C96.5842 78.011 96.5573 78.0456 96.5265 78.0687C96.5034 78.0918 96.4764 78.1072 96.4456 78.1149C96.3378 78.1534 96.2262 78.1842 96.1107 78.2073C95.9952 78.2304 95.872 78.2535 95.7411 78.2766C95.6025 78.2997 95.46 78.3228 95.3137 78.3459C95.1674 78.369 95.025 78.3883 94.8864 78.4037C94.7324 78.4268 94.5822 78.446 94.4359 78.4614C94.2897 78.4768 94.1472 78.4845 94.0086 78.4845C93.8623 78.4999 93.7237 78.5115 93.5928 78.5192C93.4696 78.5192 93.358 78.5192 93.2579 78.5192C93.1501 78.5192 93.0538 78.5076 92.9691 78.4845C92.8844 78.4614 92.8113 78.4191 92.7497 78.3575C92.6804 78.3113 92.6265 78.2497 92.588 78.1727C92.5495 78.0957 92.5302 78.0033 92.5302 77.8955C92.5148 77.7954 92.5033 77.6914 92.4956 77.5836C92.4956 77.4758 92.4994 77.3642 92.5071 77.2487C92.5071 77.1409 92.5071 77.0331 92.5071 76.9253C92.5071 76.8175 92.5148 76.7097 92.5302 76.6019C92.5302 76.5557 92.5379 76.5134 92.5533 76.4749C92.5687 76.4364 92.5995 76.4017 92.6457 76.3709C92.6765 76.3478 92.7112 76.3286 92.7497 76.3132C92.7882 76.2978 92.8305 76.2901 92.8767 76.2901C92.9075 76.2901 92.9422 76.2978 92.9807 76.3132C93.0192 76.3286 93.0577 76.3478 93.0962 76.3709C93.1193 76.4094 93.1385 76.4479 93.1539 76.4864C93.177 76.5249 93.1886 76.5673 93.1886 76.6135ZM101.736 73.2871V76.0706C101.813 76.0706 101.902 76.0706 102.002 76.0706C102.102 76.0629 102.21 76.0475 102.325 76.0244C102.379 76.0244 102.433 76.0206 102.487 76.0129C102.541 76.0052 102.599 75.9975 102.66 75.9898C102.714 75.9821 102.768 75.9744 102.822 75.9667C102.884 75.959 102.945 75.9474 103.007 75.932C103.122 75.9089 103.234 75.8858 103.342 75.8627C103.45 75.8396 103.561 75.8165 103.677 75.7934C103.777 75.7703 103.873 75.7472 103.965 75.7241C104.058 75.701 104.146 75.6779 104.231 75.6548C104.285 75.6471 104.335 75.6433 104.381 75.6433C104.427 75.6433 104.47 75.651 104.508 75.6664C104.539 75.6895 104.566 75.7164 104.589 75.7472C104.612 75.778 104.631 75.8088 104.647 75.8396C104.647 75.8781 104.643 75.9166 104.635 75.9551C104.635 75.9936 104.631 76.0283 104.624 76.0591C104.601 76.1053 104.574 76.1438 104.543 76.1746C104.52 76.1977 104.485 76.2131 104.439 76.2208C104.354 76.2593 104.262 76.2939 104.162 76.3247C104.062 76.3478 103.95 76.3709 103.827 76.394C103.696 76.4325 103.565 76.4633 103.434 76.4864C103.303 76.5095 103.172 76.5288 103.041 76.5442C102.903 76.5673 102.764 76.5904 102.626 76.6135C102.495 76.6289 102.368 76.6404 102.245 76.6481C102.114 76.6712 101.998 76.6866 101.898 76.6943C101.798 76.6943 101.713 76.6943 101.644 76.6943C101.536 76.6943 101.444 76.6828 101.367 76.6597C101.297 76.6289 101.247 76.5788 101.217 76.5095C101.17 76.4556 101.136 76.4017 101.113 76.3478C101.097 76.2862 101.09 76.2246 101.09 76.163V73.2987C101.09 73.2448 101.097 73.1986 101.113 73.1601C101.128 73.1139 101.155 73.0715 101.193 73.033C101.217 73.0099 101.247 72.9907 101.286 72.9753C101.324 72.9599 101.367 72.9522 101.413 72.9522C101.444 72.9522 101.478 72.9599 101.517 72.9753C101.555 72.9907 101.594 73.0099 101.632 73.033C101.663 73.0715 101.686 73.1139 101.702 73.1601C101.725 73.1986 101.736 73.2409 101.736 73.2871ZM105.998 72.6403C105.998 72.5787 106.002 72.5248 106.01 72.4786C106.025 72.4247 106.044 72.3747 106.068 72.3285C106.091 72.2977 106.121 72.2746 106.16 72.2592C106.198 72.2361 106.248 72.2245 106.31 72.2245C106.356 72.2245 106.399 72.2361 106.437 72.2592C106.483 72.2746 106.526 72.2977 106.564 72.3285C106.587 72.3747 106.607 72.4247 106.622 72.4786C106.637 72.5248 106.645 72.5787 106.645 72.6403V77.5374C106.645 77.6067 106.637 77.6683 106.622 77.7222C106.607 77.7761 106.587 77.8146 106.564 77.8377C106.526 77.8762 106.483 77.9032 106.437 77.9186C106.399 77.9263 106.356 77.9301 106.31 77.9301C106.248 77.9301 106.198 77.9263 106.16 77.9186C106.121 77.9032 106.091 77.8762 106.068 77.8377C106.044 77.8146 106.025 77.7761 106.01 77.7222C106.002 77.6683 105.998 77.6067 105.998 77.5374V74.9387L104.012 75.1466C103.95 75.162 103.9 75.1659 103.862 75.1582C103.831 75.1428 103.804 75.1235 103.781 75.1004C103.75 75.0773 103.727 75.0504 103.711 75.0196C103.704 74.9811 103.7 74.9349 103.7 74.881C103.7 74.8348 103.704 74.7924 103.711 74.7539C103.727 74.7154 103.75 74.6769 103.781 74.6384C103.804 74.6153 103.831 74.5961 103.862 74.5807C103.9 74.5653 103.946 74.5537 104 74.546L105.998 74.3266V73.7606L104.012 73.9685C103.95 73.9839 103.9 73.9878 103.862 73.9801C103.831 73.9647 103.804 73.9454 103.781 73.9223C103.75 73.8992 103.727 73.8723 103.711 73.8415C103.704 73.803 103.7 73.7568 103.7 73.7029C103.7 73.6567 103.704 73.6143 103.711 73.5759C103.727 73.5374 103.75 73.4989 103.781 73.4604C103.804 73.4373 103.831 73.418 103.862 73.4026C103.9 73.3872 103.946 73.3757 104 73.368L105.998 73.1485V72.6403ZM112.967 73.5066C112.967 73.4527 112.959 73.3949 112.944 73.3333C112.936 73.2717 112.928 73.2101 112.92 73.1485C112.897 73.0946 112.87 73.0407 112.84 72.9868C112.816 72.9252 112.793 72.8636 112.77 72.802C112.732 72.7558 112.689 72.7173 112.643 72.6865C112.597 72.648 112.547 72.6134 112.493 72.5826C112.431 72.5595 112.366 72.5402 112.297 72.5248C112.235 72.5094 112.17 72.5017 112.1 72.5017C112.016 72.5017 111.939 72.5133 111.869 72.5364C111.8 72.5518 111.731 72.571 111.662 72.5941C111.585 72.6326 111.511 72.6788 111.442 72.7327C111.38 72.7789 111.323 72.829 111.269 72.8829C111.2 72.9522 111.142 73.0253 111.096 73.1023C111.049 73.1793 111.015 73.2525 110.992 73.3218C110.953 73.4065 110.926 73.4912 110.911 73.5759C110.903 73.6605 110.899 73.7491 110.899 73.8415C110.899 73.9108 110.899 73.9801 110.899 74.0494C110.907 74.111 110.922 74.1649 110.945 74.2111C110.953 74.2727 110.972 74.3266 111.003 74.3728C111.034 74.4113 111.072 74.4459 111.119 74.4767C111.149 74.5229 111.184 74.5614 111.223 74.5922C111.269 74.6153 111.315 74.6307 111.361 74.6384C111.407 74.6615 111.454 74.6769 111.5 74.6846C111.554 74.6923 111.611 74.6962 111.673 74.6962C111.742 74.6962 111.816 74.6923 111.893 74.6846C111.97 74.6692 112.047 74.6461 112.124 74.6153C112.193 74.5922 112.262 74.5614 112.331 74.5229C112.408 74.4767 112.482 74.419 112.551 74.3497C112.62 74.2958 112.678 74.238 112.724 74.1764C112.778 74.1071 112.824 74.034 112.863 73.957C112.893 73.8877 112.917 73.8184 112.932 73.7491C112.955 73.6721 112.967 73.5913 112.967 73.5066ZM111.673 75.3083C111.558 75.3083 111.45 75.3006 111.35 75.2852C111.25 75.2698 111.161 75.2429 111.084 75.2044C110.992 75.1813 110.907 75.1428 110.83 75.0889C110.753 75.035 110.687 74.9734 110.634 74.9041C110.564 74.8502 110.503 74.7847 110.449 74.7077C110.403 74.6307 110.368 74.546 110.345 74.4536C110.306 74.3689 110.279 74.2765 110.264 74.1764C110.256 74.0686 110.252 73.957 110.252 73.8415C110.252 73.7029 110.264 73.572 110.287 73.4488C110.31 73.3179 110.345 73.1947 110.391 73.0792C110.437 72.9637 110.495 72.8559 110.564 72.7558C110.634 72.648 110.714 72.5479 110.807 72.4555C110.899 72.3631 110.992 72.2823 111.084 72.213C111.184 72.1437 111.292 72.0821 111.407 72.0282C111.508 71.982 111.615 71.9473 111.731 71.9242C111.846 71.9011 111.97 71.8896 112.1 71.8896C112.216 71.8896 112.324 71.9011 112.424 71.9242C112.532 71.9473 112.632 71.9781 112.724 72.0166C112.816 72.0628 112.901 72.1167 112.978 72.1783C113.063 72.2322 113.14 72.2938 113.209 72.3631C113.263 72.4478 113.313 72.5325 113.359 72.6172C113.413 72.7019 113.463 72.7905 113.509 72.8829C113.517 72.9137 113.525 72.9445 113.533 72.9753C113.54 72.9984 113.544 73.0215 113.544 73.0446C113.552 73.0754 113.56 73.1062 113.567 73.137C113.575 73.1601 113.583 73.1832 113.59 73.2063H113.625L115.461 73.1139V72.0397C115.461 71.9781 115.465 71.9242 115.473 71.878C115.488 71.8241 115.508 71.7741 115.531 71.7279C115.554 71.6971 115.585 71.674 115.623 71.6586C115.662 71.6355 115.712 71.6239 115.773 71.6239C115.819 71.6239 115.862 71.6355 115.9 71.6586C115.946 71.674 115.989 71.6971 116.027 71.7279C116.05 71.7741 116.07 71.8241 116.085 71.878C116.1 71.9242 116.108 71.9781 116.108 72.0397V75.2159C116.108 75.2852 116.1 75.3468 116.085 75.4007C116.07 75.4546 116.05 75.4931 116.027 75.5162C115.989 75.5547 115.946 75.5817 115.9 75.5971C115.862 75.6048 115.819 75.6086 115.773 75.6086C115.712 75.6086 115.662 75.6048 115.623 75.5971C115.585 75.5817 115.554 75.5547 115.531 75.5162C115.508 75.4931 115.488 75.4546 115.473 75.4007C115.465 75.3468 115.461 75.2852 115.461 75.2159V73.726L113.637 73.8184H113.579C113.563 73.8877 113.544 73.957 113.521 74.0263C113.506 74.0879 113.486 74.1456 113.463 74.1995C113.402 74.3073 113.336 74.4113 113.267 74.5114C113.198 74.6038 113.117 74.6885 113.024 74.7655C112.917 74.8579 112.809 74.9387 112.701 75.008C112.601 75.0773 112.497 75.1312 112.389 75.1697C112.274 75.2159 112.154 75.2506 112.031 75.2737C111.916 75.2968 111.796 75.3083 111.673 75.3083ZM116.027 77.2256C116.027 77.3411 116.016 77.4489 115.993 77.549C115.97 77.6414 115.939 77.7338 115.9 77.8262C115.854 77.9263 115.8 78.0225 115.739 78.1149C115.685 78.1996 115.623 78.2805 115.554 78.3575C115.469 78.4422 115.377 78.5153 115.277 78.5769C115.184 78.6385 115.088 78.6847 114.988 78.7155C114.872 78.7617 114.753 78.7925 114.63 78.8079C114.507 78.831 114.376 78.8426 114.237 78.8426C114.106 78.8426 113.983 78.8349 113.868 78.8195C113.76 78.8118 113.66 78.7887 113.567 78.7502C113.467 78.7271 113.375 78.6924 113.29 78.6462C113.213 78.5923 113.148 78.5307 113.094 78.4614C113.024 78.4075 112.963 78.3459 112.909 78.2766C112.855 78.2073 112.816 78.1265 112.793 78.0341C112.755 77.9571 112.728 77.8724 112.713 77.78C112.697 77.6876 112.689 77.5875 112.689 77.4797C112.689 77.3642 112.697 77.2564 112.713 77.1563C112.728 77.0485 112.759 76.9407 112.805 76.8329C112.836 76.7405 112.882 76.6481 112.944 76.5557C113.005 76.4633 113.078 76.3709 113.163 76.2785C113.232 76.2015 113.309 76.1322 113.394 76.0706C113.486 76.0013 113.59 75.9436 113.706 75.8974C113.806 75.8589 113.918 75.8281 114.041 75.805C114.172 75.7819 114.306 75.7703 114.445 75.7703C114.561 75.7703 114.668 75.7819 114.768 75.805C114.876 75.8204 114.98 75.8435 115.08 75.8743C115.173 75.9205 115.257 75.9705 115.334 76.0244C115.419 76.0706 115.5 76.1207 115.577 76.1746C115.646 76.2439 115.708 76.3209 115.762 76.4056C115.816 76.4826 115.866 76.5596 115.912 76.6366C115.943 76.729 115.97 76.8252 115.993 76.9253C116.016 77.0254 116.027 77.1255 116.027 77.2256ZM115.392 77.2256C115.392 77.1717 115.384 77.1178 115.369 77.0639C115.361 77.01 115.35 76.9522 115.334 76.8906C115.311 76.8444 115.28 76.7982 115.242 76.7521C115.211 76.7059 115.18 76.6597 115.15 76.6135C115.103 76.5827 115.053 76.5519 114.999 76.5211C114.953 76.4903 114.903 76.4633 114.849 76.4402C114.788 76.4248 114.722 76.4133 114.653 76.4056C114.584 76.3902 114.514 76.3825 114.445 76.3825C114.353 76.3825 114.268 76.3902 114.191 76.4056C114.114 76.421 114.041 76.4402 113.971 76.4633C113.894 76.4941 113.825 76.5326 113.764 76.5788C113.71 76.6173 113.66 76.6597 113.613 76.7059C113.552 76.7675 113.502 76.829 113.463 76.8906C113.432 76.9522 113.409 77.01 113.394 77.0639C113.371 77.1332 113.352 77.2025 113.336 77.2718C113.329 77.3411 113.325 77.4104 113.325 77.4797C113.325 77.549 113.329 77.6106 113.336 77.6645C113.344 77.7107 113.359 77.7569 113.382 77.8031C113.39 77.857 113.406 77.907 113.429 77.9532C113.459 77.9917 113.498 78.0225 113.544 78.0456C113.575 78.0841 113.613 78.1149 113.66 78.138C113.706 78.1611 113.76 78.1765 113.821 78.1842C113.875 78.2073 113.937 78.2227 114.006 78.2304C114.075 78.2304 114.152 78.2304 114.237 78.2304C114.322 78.2304 114.403 78.2266 114.48 78.2189C114.564 78.2035 114.645 78.1804 114.722 78.1496C114.792 78.1265 114.853 78.0957 114.907 78.0572C114.969 78.0187 115.026 77.9648 115.08 77.8955C115.126 77.8493 115.165 77.7992 115.196 77.7453C115.234 77.6914 115.273 77.6337 115.311 77.5721C115.334 77.5182 115.354 77.4643 115.369 77.4104C115.384 77.3488 115.392 77.2872 115.392 77.2256ZM120.131 75.2159C120.27 74.6538 120.482 74.2265 120.767 73.9339C121.052 73.6413 121.417 73.495 121.864 73.495C122.18 73.495 122.464 73.5836 122.719 73.7606C122.98 73.9377 123.211 74.1918 123.412 74.5229C123.604 74.8694 123.789 75.1235 123.966 75.2852C124.143 75.4392 124.312 75.5162 124.474 75.5162C124.782 75.5162 125.032 75.3699 125.225 75.0773C125.425 74.7847 125.56 74.3343 125.629 73.726C125.629 73.6105 125.66 73.5297 125.722 73.4835C125.791 73.4296 125.887 73.4103 126.01 73.4257C126.103 73.4411 126.168 73.4835 126.207 73.5528C126.253 73.622 126.268 73.7183 126.253 73.8415C126.16 74.6038 125.968 75.1774 125.675 75.5624C125.383 75.9397 124.982 76.1284 124.474 76.1284C124.189 76.1284 123.927 76.0475 123.689 75.8858C123.458 75.7241 123.25 75.47 123.065 75.1235C122.873 74.7924 122.676 74.5422 122.476 74.3728C122.276 74.1957 122.068 74.1071 121.852 74.1071C121.591 74.1071 121.367 74.2111 121.182 74.419C121.005 74.6269 120.871 74.9349 120.778 75.343C120.747 75.4662 120.697 75.5547 120.628 75.6086C120.559 75.6548 120.47 75.6625 120.362 75.6317C120.255 75.6163 120.181 75.574 120.143 75.5047C120.104 75.4354 120.101 75.3391 120.131 75.2159Z" fill="#5DB9D7"/>
<path d="M98.0483 38.8208C98.13 38.4534 99.0155 38.0613 99.2611 37.9097C100.479 37.158 101.706 36.7527 103.113 36.4959C106.749 35.8324 110.576 35.6668 114.052 37.0677C115.559 37.6748 117.123 38.2151 118.294 39.3863C118.715 39.8078 119.733 41.2781 119.312 40.8566" stroke="#5DB9D7" stroke-width="1.44373" stroke-linecap="round"/>
<path d="M119.651 39.8396C120.17 39.3204 120.523 38.6266 121.184 38.2562C122.26 37.6538 124.395 37.858 124.854 39.161C125.397 40.7059 124.781 42.3522 123.157 42.8934" stroke="#5DB9D7" stroke-width="1.44373" stroke-linecap="round"/>
<path d="M92.8455 39.6417C92.7428 38.6147 92.4603 37.8515 93.1596 36.9273C93.7854 36.1004 94.9294 35.9484 95.893 36.0287C96.8511 36.1086 98.1613 36.9917 98.1613 38.0583" stroke="#5DB9D7" stroke-width="1.44373" stroke-linecap="round"/>
<path d="M92.8455 41.9883C92.5655 42.3033 92.3988 42.944 92.2548 43.2952C91.4319 45.3033 90.7811 47.333 90.1813 49.4154C89.2597 52.6147 89 56.2425 89 59.5758C89 60.8359 89.0933 62.0743 89.3896 63.3019C89.4934 63.7321 89.5032 64.1811 89.6221 64.6088C89.7022 64.8972 89.6984 65.1883 89.7917 64.7219" stroke="#5DB9D7" stroke-width="1.44373" stroke-linecap="round"/>
<path d="M122.818 43.458C122.818 43.8109 123.015 44.1572 123.145 44.4759C123.792 46.0638 124.552 47.5427 124.961 49.22C125.925 53.1715 126.008 57.2442 125.074 61.2151C124.748 62.603 124.293 63.9416 123.836 65.2868C123.701 65.6854 123.591 66.082 123.447 66.4744C123.292 66.8934 123.324 66.4592 123.271 66.1917" stroke="#5DB9D7" stroke-width="1.44373" stroke-linecap="round"/>
<path d="M125.864 50.4471C126.583 50.1901 127.448 49.7266 128.229 49.8425C129.011 49.9587 129.109 50.9746 128.913 51.5675C128.556 52.6541 127.483 53.394 126.575 53.9949C126.457 54.0732 125.779 54.6035 125.704 54.5284" stroke="#5DB9D7" stroke-width="1.44373" stroke-linecap="round"/>
<path d="M95.8545 53.4879C96.5615 53.4172 97.2774 53.3152 97.9885 53.2478C98.495 53.1998 100.438 52.6455 100.603 53.5857C100.739 54.3626 100.151 55.0923 99.7312 55.6752C99.4167 56.1124 99.137 56.5801 98.8154 57.009" stroke="#5DB9D7" stroke-width="1.44373" stroke-linecap="round"/>
<path d="M102.417 43.9648C102.009 44.1686 101.585 44.3375 101.172 44.5295C101.144 44.5426 100.043 45.1651 100.256 44.8451" stroke="#5DB9D7" stroke-width="1.44373" stroke-linecap="round"/>
<path d="M115.541 43.9648C116.203 44.3264 118.177 45.4039 117.461 45.1652" stroke="#5DB9D7" stroke-width="1.44373" stroke-linecap="round"/>
<path d="M108.898 45.2451C109.014 45.2596 108.989 45.4164 108.96 45.503C108.801 45.9815 108.16 46.3285 107.698 46.4099C107.159 46.5048 105.55 46.0454 106.097 46.0454" stroke="#5DB9D7" stroke-width="1.44373" stroke-linecap="round"/>
<path d="M109.139 45.0049C109.227 45.8879 110.259 46.5364 111.041 46.6498C111.187 46.671 112.543 46.5691 112.42 46.4453" stroke="#5DB9D7" stroke-width="1.44373" stroke-linecap="round"/>
<path d="M96.0141 44.9251C95.1851 44.5567 95.7251 46.1978 95.8363 46.4323C96.0707 46.9269 96.3232 47.3262 96.9033 47.4459C97.606 47.591 98.4813 47.0658 98.6727 46.3656C99.0014 45.1631 97.0595 44.3162 96.1341 44.565C94.9395 44.8863 95.2663 46.7213 95.9519 47.3525C96.7095 48.0502 98.8178 48.2225 99.184 46.9613C99.5006 45.8708 97.8011 44.9315 96.9033 45.0852C96.0643 45.2288 95.746 46.2981 96.2008 46.9524C97.1087 48.2585 99.3743 46.6346 97.9258 45.672C97.6643 45.4983 96.561 45.1784 96.6765 45.8588C96.7483 46.2817 97.4092 46.7311 97.828 46.5167C98.2454 46.3031 97.8317 45.5911 97.5435 45.4675C96.9731 45.2231 97.51 46.1663 97.6324 46.2767C98.3364 46.9117 98.1341 46.1255 97.7746 46.1255" stroke="#FFD3FB" stroke-width="1.44373" stroke-linecap="round"/>
<path d="M118.901 46.4453C118.372 46.4731 118.171 47.2884 118.243 47.7168C118.434 48.8468 120.124 48.9964 120.804 48.2503C121.585 47.3931 120.277 46.6396 119.551 46.5698C119.048 46.5215 118.611 46.689 118.306 47.0944C117.988 47.5167 117.733 48.3556 118.363 48.6504C119.367 49.1196 121.08 48.3522 121.022 47.1433C120.969 46.0248 119.633 45.7582 118.781 46.143C117.874 46.5532 117.666 47.976 118.826 48.2058C119.83 48.405 121.51 47.1959 120.333 46.2497C119.667 45.7141 118.339 45.8745 118.199 46.8543C118.021 48.0995 119.635 48.2554 120.386 47.6724C121.291 46.9704 119.605 46.1219 118.999 46.7832C118.352 47.4896 120.303 48.0494 120.177 47.2233C120.117 46.8281 119.444 47.1561 119.422 47.4323C119.397 47.7346 120.242 47.4447 120.026 47.0677C119.758 46.5985 118.73 47.0134 118.835 47.5479C118.937 48.0712 119.634 47.8798 119.942 47.7257" stroke="#FFD3FB" stroke-width="1.44373" stroke-linecap="round"/>
<path d="M362.144 27.768C362.144 27.6507 362.133 27.5387 362.112 27.432C362.101 27.3253 362.08 27.224 362.048 27.128C362.005 27.0427 361.957 26.9627 361.904 26.888C361.861 26.8027 361.808 26.728 361.744 26.664C361.669 26.6107 361.595 26.5627 361.52 26.52C361.445 26.4667 361.371 26.424 361.296 26.392C361.211 26.36 361.125 26.3387 361.04 26.328C360.955 26.3067 360.875 26.296 360.8 26.296C360.683 26.296 360.576 26.312 360.48 26.344C360.384 26.376 360.293 26.4133 360.208 26.456C360.112 26.52 360.021 26.5893 359.936 26.664C359.851 26.728 359.776 26.808 359.712 26.904C359.627 27.0213 359.557 27.1387 359.504 27.256C359.461 27.3733 359.424 27.496 359.392 27.624C359.349 27.752 359.317 27.8907 359.296 28.04C359.285 28.1787 359.28 28.3173 359.28 28.456C359.28 28.5733 359.285 28.68 359.296 28.776C359.307 28.872 359.328 28.9573 359.36 29.032C359.371 29.1173 359.397 29.192 359.44 29.256C359.483 29.32 359.536 29.3733 359.6 29.416C359.643 29.48 359.696 29.5333 359.76 29.576C359.824 29.608 359.899 29.6293 359.984 29.64C360.048 29.672 360.123 29.6933 360.208 29.704C360.304 29.7147 360.4 29.72 360.496 29.72C360.592 29.72 360.688 29.7093 360.784 29.688C360.891 29.6667 360.992 29.6293 361.088 29.576C361.184 29.544 361.275 29.4907 361.36 29.416C361.445 29.3413 361.536 29.2507 361.632 29.144C361.707 29.048 361.776 28.952 361.84 28.856C361.904 28.7493 361.963 28.632 362.016 28.504C362.048 28.3973 362.075 28.2853 362.096 28.168C362.128 28.04 362.144 27.9067 362.144 27.768ZM360.496 30.568C360.325 30.568 360.165 30.5573 360.016 30.536C359.877 30.5147 359.749 30.4773 359.632 30.424C359.504 30.3813 359.381 30.3227 359.264 30.248C359.157 30.1733 359.056 30.088 358.96 29.992C358.864 29.9067 358.779 29.8107 358.704 29.704C358.629 29.5867 358.571 29.464 358.528 29.336C358.475 29.208 358.437 29.0747 358.416 28.936C358.395 28.7867 358.384 28.6267 358.384 28.456C358.384 28.2427 358.395 28.04 358.416 27.848C358.448 27.6453 358.496 27.448 358.56 27.256C358.603 27.0853 358.667 26.92 358.752 26.76C358.848 26.6 358.96 26.4453 359.088 26.296C359.195 26.168 359.312 26.056 359.44 25.96C359.568 25.8533 359.707 25.7573 359.856 25.672C359.995 25.608 360.139 25.5547 360.288 25.512C360.448 25.4693 360.619 25.448 360.8 25.448C360.96 25.448 361.115 25.464 361.264 25.496C361.413 25.528 361.557 25.5707 361.696 25.624C361.824 25.688 361.947 25.7573 362.064 25.832C362.181 25.9067 362.299 25.992 362.416 26.088C362.512 26.2053 362.597 26.328 362.672 26.456C362.747 26.5733 362.816 26.696 362.88 26.824C362.901 26.888 362.917 26.9573 362.928 27.032C362.949 27.096 362.965 27.16 362.976 27.224H363.056L365.6 27.08V24.376C365.6 24.2907 365.605 24.216 365.616 24.152C365.637 24.0773 365.664 24.008 365.696 23.944C365.728 23.9013 365.771 23.8693 365.824 23.848C365.877 23.816 365.947 23.8 366.032 23.8C366.096 23.8 366.155 23.816 366.208 23.848C366.272 23.8693 366.331 23.9013 366.384 23.944C366.416 24.008 366.443 24.0773 366.464 24.152C366.485 24.216 366.496 24.2907 366.496 24.376V31.16C366.496 31.256 366.485 31.3413 366.464 31.416C366.443 31.4907 366.416 31.544 366.384 31.576C366.331 31.6293 366.272 31.6667 366.208 31.688C366.155 31.6987 366.096 31.704 366.032 31.704C365.947 31.704 365.877 31.6987 365.824 31.688C365.771 31.6667 365.728 31.6293 365.696 31.576C365.664 31.544 365.637 31.4907 365.616 31.416C365.605 31.3413 365.6 31.256 365.6 31.16V27.928L363.072 28.072H363.024C363.003 28.2 362.976 28.328 362.944 28.456C362.923 28.584 362.891 28.7013 362.848 28.808C362.784 28.968 362.704 29.128 362.608 29.288C362.512 29.4373 362.405 29.5813 362.288 29.72C362.16 29.8693 362.021 29.9973 361.872 30.104C361.733 30.2107 361.595 30.296 361.456 30.36C361.296 30.4347 361.136 30.488 360.976 30.52C360.816 30.552 360.656 30.568 360.496 30.568ZM368.65 26.392C368.554 26.424 368.474 26.4347 368.41 26.424C368.346 26.4133 368.292 26.3867 368.25 26.344C368.196 26.312 368.154 26.28 368.122 26.248C368.09 26.2053 368.074 26.152 368.074 26.088C368.052 26.0453 368.047 25.9973 368.058 25.944C368.079 25.8907 368.106 25.832 368.138 25.768C368.17 25.7253 368.212 25.688 368.266 25.656C368.319 25.624 368.388 25.592 368.474 25.56C368.516 25.56 368.559 25.5547 368.602 25.544C368.655 25.5333 368.703 25.5227 368.746 25.512C368.788 25.5013 368.831 25.4907 368.874 25.48C368.916 25.4693 368.964 25.4587 369.018 25.448C369.05 25.448 369.087 25.448 369.13 25.448C369.172 25.4373 369.215 25.432 369.258 25.432C369.3 25.4213 369.343 25.416 369.386 25.416C369.428 25.4053 369.471 25.3947 369.514 25.384C369.588 25.384 369.663 25.3787 369.738 25.368C369.823 25.3573 369.914 25.3413 370.01 25.32C370.042 25.32 370.079 25.32 370.122 25.32C370.164 25.3093 370.212 25.304 370.266 25.304C370.308 25.2933 370.351 25.288 370.394 25.288C370.447 25.2773 370.5 25.2667 370.554 25.256C370.938 25.224 371.247 25.2507 371.482 25.336C371.716 25.4213 371.882 25.56 371.978 25.752C372.063 25.9653 372.063 26.216 371.978 26.504C371.903 26.792 371.738 27.112 371.482 27.464C371.418 27.56 371.354 27.6507 371.29 27.736C371.226 27.8213 371.167 27.9013 371.114 27.976L373.05 29.272C373.092 29.3147 373.13 29.3627 373.162 29.416C373.194 29.4587 373.215 29.5013 373.226 29.544C373.226 29.608 373.215 29.6667 373.194 29.72C373.183 29.7733 373.167 29.8213 373.146 29.864C373.114 29.9173 373.071 29.96 373.018 29.992C372.975 30.0133 372.932 30.0293 372.89 30.04C372.826 30.0613 372.767 30.0667 372.714 30.056C372.66 30.0453 372.607 30.0133 372.554 29.96L370.602 28.68C370.58 28.712 370.559 28.7387 370.538 28.76C370.527 28.7813 370.516 28.8027 370.506 28.824C370.495 28.8453 370.479 28.8667 370.458 28.888C370.447 28.9093 370.436 28.9253 370.426 28.936C370.372 29 370.319 29.0587 370.266 29.112C370.223 29.1653 370.18 29.2187 370.138 29.272C370.095 29.336 370.047 29.3947 369.994 29.448C369.951 29.5013 369.908 29.5493 369.866 29.592C369.759 29.7093 369.647 29.8267 369.53 29.944C369.423 30.0507 369.316 30.152 369.21 30.248C369.146 30.312 369.082 30.36 369.018 30.392C368.964 30.4133 368.911 30.4187 368.858 30.408C368.794 30.408 368.74 30.4027 368.698 30.392C368.655 30.3707 368.618 30.3387 368.586 30.296C368.543 30.264 368.511 30.2267 368.49 30.184C368.479 30.1307 368.474 30.072 368.474 30.008C368.474 29.9547 368.484 29.9013 368.506 29.848C368.538 29.784 368.586 29.72 368.65 29.656C368.874 29.4213 369.082 29.1973 369.274 28.984C369.476 28.76 369.658 28.5467 369.818 28.344C369.967 28.152 370.122 27.944 370.282 27.72C370.452 27.4853 370.634 27.24 370.826 26.984C370.954 26.8133 371.039 26.664 371.082 26.536C371.135 26.408 371.151 26.3067 371.13 26.232C371.098 26.168 371.039 26.1253 370.954 26.104C370.868 26.0827 370.762 26.072 370.634 26.072C370.538 26.0933 370.442 26.1093 370.346 26.12C370.26 26.12 370.18 26.12 370.106 26.12C370.052 26.1307 370.004 26.1413 369.962 26.152C369.93 26.152 369.892 26.1573 369.85 26.168C369.807 26.1787 369.764 26.1893 369.722 26.2C369.69 26.2 369.658 26.2 369.626 26.2C369.583 26.2107 369.54 26.2213 369.498 26.232C369.466 26.232 369.428 26.2373 369.386 26.248C369.343 26.2587 369.3 26.2693 369.258 26.28C369.226 26.28 369.194 26.28 369.162 26.28C369.076 26.312 368.991 26.3387 368.906 26.36C368.82 26.3707 368.735 26.3813 368.65 26.392ZM377.178 24.648C377.178 24.5627 377.183 24.488 377.194 24.424C377.215 24.3493 377.242 24.28 377.274 24.216C377.306 24.1733 377.348 24.1413 377.402 24.12C377.455 24.088 377.524 24.072 377.61 24.072C377.674 24.072 377.732 24.088 377.786 24.12C377.85 24.1413 377.908 24.1733 377.962 24.216C377.994 24.28 378.02 24.3493 378.042 24.424C378.063 24.488 378.074 24.5627 378.074 24.648V31.16C378.074 31.256 378.063 31.3413 378.042 31.416C378.02 31.4907 377.994 31.544 377.962 31.576C377.908 31.6293 377.85 31.6667 377.786 31.688C377.732 31.6987 377.674 31.704 377.61 31.704C377.524 31.704 377.455 31.6987 377.402 31.688C377.348 31.6667 377.306 31.6293 377.274 31.576C377.242 31.544 377.215 31.4907 377.194 31.416C377.183 31.3413 377.178 31.256 377.178 31.16V24.648ZM372.938 27.848C372.863 27.848 372.799 27.8427 372.746 27.832C372.703 27.8107 372.666 27.7787 372.634 27.736C372.602 27.704 372.575 27.6667 372.554 27.624C372.543 27.5707 372.538 27.5067 372.538 27.432C372.538 27.368 372.543 27.3093 372.554 27.256C372.575 27.2027 372.602 27.1547 372.634 27.112C372.666 27.08 372.703 27.0533 372.746 27.032C372.799 27.0107 372.863 27 372.938 27H374.538L374.394 24.792C374.372 24.7067 374.367 24.632 374.378 24.568C374.399 24.4933 374.431 24.424 374.474 24.36C374.506 24.3173 374.548 24.2853 374.602 24.264C374.655 24.232 374.724 24.216 374.81 24.216C374.874 24.216 374.932 24.232 374.986 24.264C375.039 24.2853 375.092 24.3173 375.146 24.36C375.178 24.424 375.204 24.4933 375.226 24.568C375.247 24.632 375.268 24.7013 375.29 24.776L375.658 30.744C375.658 30.84 375.652 30.9253 375.642 31C375.631 31.0747 375.61 31.128 375.578 31.16C375.535 31.2133 375.482 31.2507 375.418 31.272C375.364 31.2933 375.306 31.304 375.242 31.304C375.167 31.304 375.103 31.2987 375.05 31.288C374.996 31.2667 374.954 31.2293 374.922 31.176C374.868 31.144 374.831 31.0907 374.81 31.016C374.788 30.9413 374.778 30.856 374.778 30.76L374.586 27.848H372.938Z" fill="#929292"/>
<path d="M141 20.5175C141 17.4702 138.53 15 135.483 15C133.633 15 132.001 15.9131 131 17.3086C129.999 15.9131 128.367 15 126.517 15C123.47 15 121 17.4697 121 20.5175C121 20.9491 121.055 21.3673 121.149 21.7705C121.915 26.5303 127.207 31.5519 131 32.9307C134.793 31.5519 140.085 26.5303 140.85 21.771C140.945 21.3679 141 20.9497 141 20.5175Z" fill="#F4ABBA"/>
<path d="M138.504 21.3772C138.504 19.0898 136.651 17.2363 134.364 17.2363C132.976 17.2363 131.751 17.9213 130.999 18.9691C130.248 17.9213 129.023 17.2363 127.635 17.2363C125.348 17.2363 123.494 19.0898 123.494 21.3772C123.494 21.701 123.536 22.0152 123.605 22.3171C124.181 25.8894 128.152 29.659 130.999 30.6934C133.846 29.6585 137.818 25.8894 138.393 22.3177C138.464 22.0152 138.504 21.701 138.504 21.3772Z" fill="#EA596E"/>
<path d="M136.139 22.1943C136.139 20.6282 134.87 19.3584 133.305 19.3584C132.354 19.3584 131.515 19.8275 131 20.5454C130.486 19.8275 129.647 19.3584 128.696 19.3584C127.13 19.3584 125.86 20.6282 125.86 22.1943C125.86 22.4163 125.888 22.631 125.936 22.8379C126.331 25.2846 129.05 27.8655 131 28.5739C132.948 27.865 135.67 25.284 136.063 22.8379C136.112 22.631 136.139 22.4157 136.139 22.1943Z" fill="#DD2E44"/>
</svg>
