<svg width="400" height="451" viewBox="0 0 400 451" fill="none" xmlns="http://www.w3.org/2000/svg">
<rect width="400" height="451" fill="white"/>
<path d="M95.668 32.9C95.668 33.068 95.6493 33.2267 95.612 33.376C95.5933 33.5067 95.556 33.628 95.5 33.74C95.444 33.8893 95.36 33.992 95.248 34.048C95.136 34.104 94.996 34.132 94.828 34.132C94.66 34.132 94.5013 34.1133 94.352 34.076C94.2213 34.0387 94.1 33.964 93.988 33.852C93.8573 33.7773 93.764 33.684 93.708 33.572C93.652 33.4413 93.624 33.292 93.624 33.124C93.624 32.956 93.6333 32.7973 93.652 32.648C93.6893 32.4987 93.7453 32.3493 93.82 32.2C93.8573 32.0693 93.932 31.9573 94.044 31.864C94.156 31.7707 94.296 31.724 94.464 31.724C94.632 31.724 94.7813 31.7613 94.912 31.836C95.0613 31.9107 95.192 31.9947 95.304 32.088C95.416 32.2 95.5 32.3213 95.556 32.452C95.6307 32.5827 95.668 32.732 95.668 32.9ZM101 32.9C101 33.068 100.981 33.2267 100.944 33.376C100.925 33.5067 100.888 33.628 100.832 33.74C100.776 33.8893 100.692 33.992 100.58 34.048C100.468 34.104 100.328 34.132 100.16 34.132C99.992 34.132 99.8334 34.1133 99.684 34.076C99.5534 34.0387 99.432 33.964 99.32 33.852C99.1894 33.7773 99.096 33.684 99.04 33.572C98.984 33.4413 98.956 33.292 98.956 33.124C98.956 32.956 98.9654 32.7973 98.984 32.648C99.0214 32.4987 99.0774 32.3493 99.152 32.2C99.1894 32.0693 99.264 31.9573 99.376 31.864C99.488 31.7707 99.628 31.724 99.796 31.724C99.964 31.724 100.113 31.7613 100.244 31.836C100.393 31.9107 100.524 31.9947 100.636 32.088C100.748 32.2 100.832 32.3213 100.888 32.452C100.963 32.5827 101 32.732 101 32.9ZM106.332 32.9C106.332 33.068 106.313 33.2267 106.276 33.376C106.257 33.5067 106.22 33.628 106.164 33.74C106.108 33.8893 106.024 33.992 105.912 34.048C105.8 34.104 105.66 34.132 105.492 34.132C105.324 34.132 105.165 34.1133 105.016 34.076C104.885 34.0387 104.764 33.964 104.652 33.852C104.521 33.7773 104.428 33.684 104.372 33.572C104.316 33.4413 104.288 33.292 104.288 33.124C104.288 32.956 104.297 32.7973 104.316 32.648C104.353 32.4987 104.409 32.3493 104.484 32.2C104.521 32.0693 104.596 31.9573 104.708 31.864C104.82 31.7707 104.96 31.724 105.128 31.724C105.296 31.724 105.445 31.7613 105.576 31.836C105.725 31.9107 105.856 31.9947 105.968 32.088C106.08 32.2 106.164 32.3213 106.22 32.452C106.295 32.5827 106.332 32.732 106.332 32.9Z" fill="black"/>
<rect x="17" y="25" width="55" height="55" rx="27.5" fill="#D9D9D9"/>
<path d="M94.62 62.5C94.62 62.62 94.6067 62.7333 94.58 62.84C94.5667 62.9333 94.54 63.02 94.5 63.1C94.46 63.2067 94.4 63.28 94.32 63.32C94.24 63.36 94.14 63.38 94.02 63.38C93.9 63.38 93.7867 63.3667 93.68 63.34C93.5867 63.3133 93.5 63.26 93.42 63.18C93.3267 63.1267 93.26 63.06 93.22 62.98C93.18 62.8867 93.16 62.78 93.16 62.66C93.16 62.54 93.1667 62.4267 93.18 62.32C93.2067 62.2133 93.2467 62.1067 93.3 62C93.3267 61.9067 93.38 61.8267 93.46 61.76C93.54 61.6933 93.64 61.66 93.76 61.66C93.88 61.66 93.9867 61.6867 94.08 61.74C94.1867 61.7933 94.28 61.8533 94.36 61.92C94.44 62 94.5 62.0867 94.54 62.18C94.5933 62.2733 94.62 62.38 94.62 62.5ZM98.4286 62.5C98.4286 62.62 98.4153 62.7333 98.3886 62.84C98.3753 62.9333 98.3486 63.02 98.3086 63.1C98.2686 63.2067 98.2086 63.28 98.1286 63.32C98.0486 63.36 97.9486 63.38 97.8286 63.38C97.7086 63.38 97.5953 63.3667 97.4886 63.34C97.3953 63.3133 97.3086 63.26 97.2286 63.18C97.1353 63.1267 97.0686 63.06 97.0286 62.98C96.9886 62.8867 96.9686 62.78 96.9686 62.66C96.9686 62.54 96.9753 62.4267 96.9886 62.32C97.0153 62.2133 97.0553 62.1067 97.1086 62C97.1353 61.9067 97.1886 61.8267 97.2686 61.76C97.3486 61.6933 97.4486 61.66 97.5686 61.66C97.6886 61.66 97.7953 61.6867 97.8886 61.74C97.9953 61.7933 98.0886 61.8533 98.1686 61.92C98.2486 62 98.3086 62.0867 98.3486 62.18C98.4019 62.2733 98.4286 62.38 98.4286 62.5ZM102.237 62.5C102.237 62.62 102.224 62.7333 102.197 62.84C102.184 62.9333 102.157 63.02 102.117 63.1C102.077 63.2067 102.017 63.28 101.937 63.32C101.857 63.36 101.757 63.38 101.637 63.38C101.517 63.38 101.404 63.3667 101.297 63.34C101.204 63.3133 101.117 63.26 101.037 63.18C100.944 63.1267 100.877 63.06 100.837 62.98C100.797 62.8867 100.777 62.78 100.777 62.66C100.777 62.54 100.784 62.4267 100.797 62.32C100.824 62.2133 100.864 62.1067 100.917 62C100.944 61.9067 100.997 61.8267 101.077 61.76C101.157 61.6933 101.257 61.66 101.377 61.66C101.497 61.66 101.604 61.6867 101.697 61.74C101.804 61.7933 101.897 61.8533 101.977 61.92C102.057 62 102.117 62.0867 102.157 62.18C102.211 62.2733 102.237 62.38 102.237 62.5Z" fill="#929292"/>
<path d="M94.62 153.5C94.62 153.62 94.6067 153.733 94.58 153.84C94.5667 153.933 94.54 154.02 94.5 154.1C94.46 154.207 94.4 154.28 94.32 154.32C94.24 154.36 94.14 154.38 94.02 154.38C93.9 154.38 93.7867 154.367 93.68 154.34C93.5867 154.313 93.5 154.26 93.42 154.18C93.3267 154.127 93.26 154.06 93.22 153.98C93.18 153.887 93.16 153.78 93.16 153.66C93.16 153.54 93.1667 153.427 93.18 153.32C93.2067 153.213 93.2467 153.107 93.3 153C93.3267 152.907 93.38 152.827 93.46 152.76C93.54 152.693 93.64 152.66 93.76 152.66C93.88 152.66 93.9867 152.687 94.08 152.74C94.1867 152.793 94.28 152.853 94.36 152.92C94.44 153 94.5 153.087 94.54 153.18C94.5933 153.273 94.62 153.38 94.62 153.5ZM98.4286 153.5C98.4286 153.62 98.4153 153.733 98.3886 153.84C98.3753 153.933 98.3486 154.02 98.3086 154.1C98.2686 154.207 98.2086 154.28 98.1286 154.32C98.0486 154.36 97.9486 154.38 97.8286 154.38C97.7086 154.38 97.5953 154.367 97.4886 154.34C97.3953 154.313 97.3086 154.26 97.2286 154.18C97.1353 154.127 97.0686 154.06 97.0286 153.98C96.9886 153.887 96.9686 153.78 96.9686 153.66C96.9686 153.54 96.9753 153.427 96.9886 153.32C97.0153 153.213 97.0553 153.107 97.1086 153C97.1353 152.907 97.1886 152.827 97.2686 152.76C97.3486 152.693 97.4486 152.66 97.5686 152.66C97.6886 152.66 97.7953 152.687 97.8886 152.74C97.9953 152.793 98.0886 152.853 98.1686 152.92C98.2486 153 98.3086 153.087 98.3486 153.18C98.4019 153.273 98.4286 153.38 98.4286 153.5ZM102.237 153.5C102.237 153.62 102.224 153.733 102.197 153.84C102.184 153.933 102.157 154.02 102.117 154.1C102.077 154.207 102.017 154.28 101.937 154.32C101.857 154.36 101.757 154.38 101.637 154.38C101.517 154.38 101.404 154.367 101.297 154.34C101.204 154.313 101.117 154.26 101.037 154.18C100.944 154.127 100.877 154.06 100.837 153.98C100.797 153.887 100.777 153.78 100.777 153.66C100.777 153.54 100.784 153.427 100.797 153.32C100.824 153.213 100.864 153.107 100.917 153C100.944 152.907 100.997 152.827 101.077 152.76C101.157 152.693 101.257 152.66 101.377 152.66C101.497 152.66 101.604 152.687 101.697 152.74C101.804 152.793 101.897 152.853 101.977 152.92C102.057 153 102.117 153.087 102.157 153.18C102.211 153.273 102.237 153.38 102.237 153.5Z" fill="#929292"/>
<path d="M95.668 123.9C95.668 124.068 95.6493 124.227 95.612 124.376C95.5933 124.507 95.556 124.628 95.5 124.74C95.444 124.889 95.36 124.992 95.248 125.048C95.136 125.104 94.996 125.132 94.828 125.132C94.66 125.132 94.5013 125.113 94.352 125.076C94.2213 125.039 94.1 124.964 93.988 124.852C93.8573 124.777 93.764 124.684 93.708 124.572C93.652 124.441 93.624 124.292 93.624 124.124C93.624 123.956 93.6333 123.797 93.652 123.648C93.6893 123.499 93.7453 123.349 93.82 123.2C93.8573 123.069 93.932 122.957 94.044 122.864C94.156 122.771 94.296 122.724 94.464 122.724C94.632 122.724 94.7813 122.761 94.912 122.836C95.0613 122.911 95.192 122.995 95.304 123.088C95.416 123.2 95.5 123.321 95.556 123.452C95.6307 123.583 95.668 123.732 95.668 123.9ZM101 123.9C101 124.068 100.981 124.227 100.944 124.376C100.925 124.507 100.888 124.628 100.832 124.74C100.776 124.889 100.692 124.992 100.58 125.048C100.468 125.104 100.328 125.132 100.16 125.132C99.992 125.132 99.8334 125.113 99.684 125.076C99.5534 125.039 99.432 124.964 99.32 124.852C99.1894 124.777 99.096 124.684 99.04 124.572C98.984 124.441 98.956 124.292 98.956 124.124C98.956 123.956 98.9654 123.797 98.984 123.648C99.0214 123.499 99.0774 123.349 99.152 123.2C99.1894 123.069 99.264 122.957 99.376 122.864C99.488 122.771 99.628 122.724 99.796 122.724C99.964 122.724 100.113 122.761 100.244 122.836C100.393 122.911 100.524 122.995 100.636 123.088C100.748 123.2 100.832 123.321 100.888 123.452C100.963 123.583 101 123.732 101 123.9ZM106.332 123.9C106.332 124.068 106.313 124.227 106.276 124.376C106.257 124.507 106.22 124.628 106.164 124.74C106.108 124.889 106.024 124.992 105.912 125.048C105.8 125.104 105.66 125.132 105.492 125.132C105.324 125.132 105.165 125.113 105.016 125.076C104.885 125.039 104.764 124.964 104.652 124.852C104.521 124.777 104.428 124.684 104.372 124.572C104.316 124.441 104.288 124.292 104.288 124.124C104.288 123.956 104.297 123.797 104.316 123.648C104.353 123.499 104.409 123.349 104.484 123.2C104.521 123.069 104.596 122.957 104.708 122.864C104.82 122.771 104.96 122.724 105.128 122.724C105.296 122.724 105.445 122.761 105.576 122.836C105.725 122.911 105.856 122.995 105.968 123.088C106.08 123.2 106.164 123.321 106.22 123.452C106.295 123.583 106.332 123.732 106.332 123.9Z" fill="black"/>
<rect x="17" y="116" width="55" height="55" rx="27.5" fill="#D9D9D9"/>
<path d="M95.668 214.9C95.668 215.068 95.6493 215.227 95.612 215.376C95.5933 215.507 95.556 215.628 95.5 215.74C95.444 215.889 95.36 215.992 95.248 216.048C95.136 216.104 94.996 216.132 94.828 216.132C94.66 216.132 94.5013 216.113 94.352 216.076C94.2213 216.039 94.1 215.964 93.988 215.852C93.8573 215.777 93.764 215.684 93.708 215.572C93.652 215.441 93.624 215.292 93.624 215.124C93.624 214.956 93.6333 214.797 93.652 214.648C93.6893 214.499 93.7453 214.349 93.82 214.2C93.8573 214.069 93.932 213.957 94.044 213.864C94.156 213.771 94.296 213.724 94.464 213.724C94.632 213.724 94.7813 213.761 94.912 213.836C95.0613 213.911 95.192 213.995 95.304 214.088C95.416 214.2 95.5 214.321 95.556 214.452C95.6307 214.583 95.668 214.732 95.668 214.9ZM101 214.9C101 215.068 100.981 215.227 100.944 215.376C100.925 215.507 100.888 215.628 100.832 215.74C100.776 215.889 100.692 215.992 100.58 216.048C100.468 216.104 100.328 216.132 100.16 216.132C99.992 216.132 99.8334 216.113 99.684 216.076C99.5534 216.039 99.432 215.964 99.32 215.852C99.1894 215.777 99.096 215.684 99.04 215.572C98.984 215.441 98.956 215.292 98.956 215.124C98.956 214.956 98.9654 214.797 98.984 214.648C99.0214 214.499 99.0774 214.349 99.152 214.2C99.1894 214.069 99.264 213.957 99.376 213.864C99.488 213.771 99.628 213.724 99.796 213.724C99.964 213.724 100.113 213.761 100.244 213.836C100.393 213.911 100.524 213.995 100.636 214.088C100.748 214.2 100.832 214.321 100.888 214.452C100.963 214.583 101 214.732 101 214.9ZM106.332 214.9C106.332 215.068 106.313 215.227 106.276 215.376C106.257 215.507 106.22 215.628 106.164 215.74C106.108 215.889 106.024 215.992 105.912 216.048C105.8 216.104 105.66 216.132 105.492 216.132C105.324 216.132 105.165 216.113 105.016 216.076C104.885 216.039 104.764 215.964 104.652 215.852C104.521 215.777 104.428 215.684 104.372 215.572C104.316 215.441 104.288 215.292 104.288 215.124C104.288 214.956 104.297 214.797 104.316 214.648C104.353 214.499 104.409 214.349 104.484 214.2C104.521 214.069 104.596 213.957 104.708 213.864C104.82 213.771 104.96 213.724 105.128 213.724C105.296 213.724 105.445 213.761 105.576 213.836C105.725 213.911 105.856 213.995 105.968 214.088C106.08 214.2 106.164 214.321 106.22 214.452C106.295 214.583 106.332 214.732 106.332 214.9Z" fill="black"/>
<rect x="17" y="207" width="55" height="55" rx="27.5" fill="#D9D9D9"/>
<path d="M94.62 244.5C94.62 244.62 94.6067 244.733 94.58 244.84C94.5667 244.933 94.54 245.02 94.5 245.1C94.46 245.207 94.4 245.28 94.32 245.32C94.24 245.36 94.14 245.38 94.02 245.38C93.9 245.38 93.7867 245.367 93.68 245.34C93.5867 245.313 93.5 245.26 93.42 245.18C93.3267 245.127 93.26 245.06 93.22 244.98C93.18 244.887 93.16 244.78 93.16 244.66C93.16 244.54 93.1667 244.427 93.18 244.32C93.2067 244.213 93.2467 244.107 93.3 244C93.3267 243.907 93.38 243.827 93.46 243.76C93.54 243.693 93.64 243.66 93.76 243.66C93.88 243.66 93.9867 243.687 94.08 243.74C94.1867 243.793 94.28 243.853 94.36 243.92C94.44 244 94.5 244.087 94.54 244.18C94.5933 244.273 94.62 244.38 94.62 244.5ZM98.4286 244.5C98.4286 244.62 98.4153 244.733 98.3886 244.84C98.3753 244.933 98.3486 245.02 98.3086 245.1C98.2686 245.207 98.2086 245.28 98.1286 245.32C98.0486 245.36 97.9486 245.38 97.8286 245.38C97.7086 245.38 97.5953 245.367 97.4886 245.34C97.3953 245.313 97.3086 245.26 97.2286 245.18C97.1353 245.127 97.0686 245.06 97.0286 244.98C96.9886 244.887 96.9686 244.78 96.9686 244.66C96.9686 244.54 96.9753 244.427 96.9886 244.32C97.0153 244.213 97.0553 244.107 97.1086 244C97.1353 243.907 97.1886 243.827 97.2686 243.76C97.3486 243.693 97.4486 243.66 97.5686 243.66C97.6886 243.66 97.7953 243.687 97.8886 243.74C97.9953 243.793 98.0886 243.853 98.1686 243.92C98.2486 244 98.3086 244.087 98.3486 244.18C98.4019 244.273 98.4286 244.38 98.4286 244.5ZM102.237 244.5C102.237 244.62 102.224 244.733 102.197 244.84C102.184 244.933 102.157 245.02 102.117 245.1C102.077 245.207 102.017 245.28 101.937 245.32C101.857 245.36 101.757 245.38 101.637 245.38C101.517 245.38 101.404 245.367 101.297 245.34C101.204 245.313 101.117 245.26 101.037 245.18C100.944 245.127 100.877 245.06 100.837 244.98C100.797 244.887 100.777 244.78 100.777 244.66C100.777 244.54 100.784 244.427 100.797 244.32C100.824 244.213 100.864 244.107 100.917 244C100.944 243.907 100.997 243.827 101.077 243.76C101.157 243.693 101.257 243.66 101.377 243.66C101.497 243.66 101.604 243.687 101.697 243.74C101.804 243.793 101.897 243.853 101.977 243.92C102.057 244 102.117 244.087 102.157 244.18C102.211 244.273 102.237 244.38 102.237 244.5Z" fill="#929292"/>
<path d="M94.62 335.5C94.62 335.62 94.6067 335.733 94.58 335.84C94.5667 335.933 94.54 336.02 94.5 336.1C94.46 336.207 94.4 336.28 94.32 336.32C94.24 336.36 94.14 336.38 94.02 336.38C93.9 336.38 93.7867 336.367 93.68 336.34C93.5867 336.313 93.5 336.26 93.42 336.18C93.3267 336.127 93.26 336.06 93.22 335.98C93.18 335.887 93.16 335.78 93.16 335.66C93.16 335.54 93.1667 335.427 93.18 335.32C93.2067 335.213 93.2467 335.107 93.3 335C93.3267 334.907 93.38 334.827 93.46 334.76C93.54 334.693 93.64 334.66 93.76 334.66C93.88 334.66 93.9867 334.687 94.08 334.74C94.1867 334.793 94.28 334.853 94.36 334.92C94.44 335 94.5 335.087 94.54 335.18C94.5933 335.273 94.62 335.38 94.62 335.5ZM98.4286 335.5C98.4286 335.62 98.4153 335.733 98.3886 335.84C98.3753 335.933 98.3486 336.02 98.3086 336.1C98.2686 336.207 98.2086 336.28 98.1286 336.32C98.0486 336.36 97.9486 336.38 97.8286 336.38C97.7086 336.38 97.5953 336.367 97.4886 336.34C97.3953 336.313 97.3086 336.26 97.2286 336.18C97.1353 336.127 97.0686 336.06 97.0286 335.98C96.9886 335.887 96.9686 335.78 96.9686 335.66C96.9686 335.54 96.9753 335.427 96.9886 335.32C97.0153 335.213 97.0553 335.107 97.1086 335C97.1353 334.907 97.1886 334.827 97.2686 334.76C97.3486 334.693 97.4486 334.66 97.5686 334.66C97.6886 334.66 97.7953 334.687 97.8886 334.74C97.9953 334.793 98.0886 334.853 98.1686 334.92C98.2486 335 98.3086 335.087 98.3486 335.18C98.4019 335.273 98.4286 335.38 98.4286 335.5ZM102.237 335.5C102.237 335.62 102.224 335.733 102.197 335.84C102.184 335.933 102.157 336.02 102.117 336.1C102.077 336.207 102.017 336.28 101.937 336.32C101.857 336.36 101.757 336.38 101.637 336.38C101.517 336.38 101.404 336.367 101.297 336.34C101.204 336.313 101.117 336.26 101.037 336.18C100.944 336.127 100.877 336.06 100.837 335.98C100.797 335.887 100.777 335.78 100.777 335.66C100.777 335.54 100.784 335.427 100.797 335.32C100.824 335.213 100.864 335.107 100.917 335C100.944 334.907 100.997 334.827 101.077 334.76C101.157 334.693 101.257 334.66 101.377 334.66C101.497 334.66 101.604 334.687 101.697 334.74C101.804 334.793 101.897 334.853 101.977 334.92C102.057 335 102.117 335.087 102.157 335.18C102.211 335.273 102.237 335.38 102.237 335.5Z" fill="#929292"/>
<path d="M94.62 426.5C94.62 426.62 94.6067 426.733 94.58 426.84C94.5667 426.933 94.54 427.02 94.5 427.1C94.46 427.207 94.4 427.28 94.32 427.32C94.24 427.36 94.14 427.38 94.02 427.38C93.9 427.38 93.7867 427.367 93.68 427.34C93.5867 427.313 93.5 427.26 93.42 427.18C93.3267 427.127 93.26 427.06 93.22 426.98C93.18 426.887 93.16 426.78 93.16 426.66C93.16 426.54 93.1667 426.427 93.18 426.32C93.2067 426.213 93.2467 426.107 93.3 426C93.3267 425.907 93.38 425.827 93.46 425.76C93.54 425.693 93.64 425.66 93.76 425.66C93.88 425.66 93.9867 425.687 94.08 425.74C94.1867 425.793 94.28 425.853 94.36 425.92C94.44 426 94.5 426.087 94.54 426.18C94.5933 426.273 94.62 426.38 94.62 426.5ZM98.4286 426.5C98.4286 426.62 98.4153 426.733 98.3886 426.84C98.3753 426.933 98.3486 427.02 98.3086 427.1C98.2686 427.207 98.2086 427.28 98.1286 427.32C98.0486 427.36 97.9486 427.38 97.8286 427.38C97.7086 427.38 97.5953 427.367 97.4886 427.34C97.3953 427.313 97.3086 427.26 97.2286 427.18C97.1353 427.127 97.0686 427.06 97.0286 426.98C96.9886 426.887 96.9686 426.78 96.9686 426.66C96.9686 426.54 96.9753 426.427 96.9886 426.32C97.0153 426.213 97.0553 426.107 97.1086 426C97.1353 425.907 97.1886 425.827 97.2686 425.76C97.3486 425.693 97.4486 425.66 97.5686 425.66C97.6886 425.66 97.7953 425.687 97.8886 425.74C97.9953 425.793 98.0886 425.853 98.1686 425.92C98.2486 426 98.3086 426.087 98.3486 426.18C98.4019 426.273 98.4286 426.38 98.4286 426.5ZM102.237 426.5C102.237 426.62 102.224 426.733 102.197 426.84C102.184 426.933 102.157 427.02 102.117 427.1C102.077 427.207 102.017 427.28 101.937 427.32C101.857 427.36 101.757 427.38 101.637 427.38C101.517 427.38 101.404 427.367 101.297 427.34C101.204 427.313 101.117 427.26 101.037 427.18C100.944 427.127 100.877 427.06 100.837 426.98C100.797 426.887 100.777 426.78 100.777 426.66C100.777 426.54 100.784 426.427 100.797 426.32C100.824 426.213 100.864 426.107 100.917 426C100.944 425.907 100.997 425.827 101.077 425.76C101.157 425.693 101.257 425.66 101.377 425.66C101.497 425.66 101.604 425.687 101.697 425.74C101.804 425.793 101.897 425.853 101.977 425.92C102.057 426 102.117 426.087 102.157 426.18C102.211 426.273 102.237 426.38 102.237 426.5Z" fill="#929292"/>
<path d="M95.668 305.9C95.668 306.068 95.6493 306.227 95.612 306.376C95.5933 306.507 95.556 306.628 95.5 306.74C95.444 306.889 95.36 306.992 95.248 307.048C95.136 307.104 94.996 307.132 94.828 307.132C94.66 307.132 94.5013 307.113 94.352 307.076C94.2213 307.039 94.1 306.964 93.988 306.852C93.8573 306.777 93.764 306.684 93.708 306.572C93.652 306.441 93.624 306.292 93.624 306.124C93.624 305.956 93.6333 305.797 93.652 305.648C93.6893 305.499 93.7453 305.349 93.82 305.2C93.8573 305.069 93.932 304.957 94.044 304.864C94.156 304.771 94.296 304.724 94.464 304.724C94.632 304.724 94.7813 304.761 94.912 304.836C95.0613 304.911 95.192 304.995 95.304 305.088C95.416 305.2 95.5 305.321 95.556 305.452C95.6307 305.583 95.668 305.732 95.668 305.9ZM101 305.9C101 306.068 100.981 306.227 100.944 306.376C100.925 306.507 100.888 306.628 100.832 306.74C100.776 306.889 100.692 306.992 100.58 307.048C100.468 307.104 100.328 307.132 100.16 307.132C99.992 307.132 99.8334 307.113 99.684 307.076C99.5534 307.039 99.432 306.964 99.32 306.852C99.1894 306.777 99.096 306.684 99.04 306.572C98.984 306.441 98.956 306.292 98.956 306.124C98.956 305.956 98.9654 305.797 98.984 305.648C99.0214 305.499 99.0774 305.349 99.152 305.2C99.1894 305.069 99.264 304.957 99.376 304.864C99.488 304.771 99.628 304.724 99.796 304.724C99.964 304.724 100.113 304.761 100.244 304.836C100.393 304.911 100.524 304.995 100.636 305.088C100.748 305.2 100.832 305.321 100.888 305.452C100.963 305.583 101 305.732 101 305.9ZM106.332 305.9C106.332 306.068 106.313 306.227 106.276 306.376C106.257 306.507 106.22 306.628 106.164 306.74C106.108 306.889 106.024 306.992 105.912 307.048C105.8 307.104 105.66 307.132 105.492 307.132C105.324 307.132 105.165 307.113 105.016 307.076C104.885 307.039 104.764 306.964 104.652 306.852C104.521 306.777 104.428 306.684 104.372 306.572C104.316 306.441 104.288 306.292 104.288 306.124C104.288 305.956 104.297 305.797 104.316 305.648C104.353 305.499 104.409 305.349 104.484 305.2C104.521 305.069 104.596 304.957 104.708 304.864C104.82 304.771 104.96 304.724 105.128 304.724C105.296 304.724 105.445 304.761 105.576 304.836C105.725 304.911 105.856 304.995 105.968 305.088C106.08 305.2 106.164 305.321 106.22 305.452C106.295 305.583 106.332 305.732 106.332 305.9Z" fill="black"/>
<path d="M95.668 396.9C95.668 397.068 95.6493 397.227 95.612 397.376C95.5933 397.507 95.556 397.628 95.5 397.74C95.444 397.889 95.36 397.992 95.248 398.048C95.136 398.104 94.996 398.132 94.828 398.132C94.66 398.132 94.5013 398.113 94.352 398.076C94.2213 398.039 94.1 397.964 93.988 397.852C93.8573 397.777 93.764 397.684 93.708 397.572C93.652 397.441 93.624 397.292 93.624 397.124C93.624 396.956 93.6333 396.797 93.652 396.648C93.6893 396.499 93.7453 396.349 93.82 396.2C93.8573 396.069 93.932 395.957 94.044 395.864C94.156 395.771 94.296 395.724 94.464 395.724C94.632 395.724 94.7813 395.761 94.912 395.836C95.0613 395.911 95.192 395.995 95.304 396.088C95.416 396.2 95.5 396.321 95.556 396.452C95.6307 396.583 95.668 396.732 95.668 396.9ZM101 396.9C101 397.068 100.981 397.227 100.944 397.376C100.925 397.507 100.888 397.628 100.832 397.74C100.776 397.889 100.692 397.992 100.58 398.048C100.468 398.104 100.328 398.132 100.16 398.132C99.992 398.132 99.8334 398.113 99.684 398.076C99.5534 398.039 99.432 397.964 99.32 397.852C99.1894 397.777 99.096 397.684 99.04 397.572C98.984 397.441 98.956 397.292 98.956 397.124C98.956 396.956 98.9654 396.797 98.984 396.648C99.0214 396.499 99.0774 396.349 99.152 396.2C99.1894 396.069 99.264 395.957 99.376 395.864C99.488 395.771 99.628 395.724 99.796 395.724C99.964 395.724 100.113 395.761 100.244 395.836C100.393 395.911 100.524 395.995 100.636 396.088C100.748 396.2 100.832 396.321 100.888 396.452C100.963 396.583 101 396.732 101 396.9ZM106.332 396.9C106.332 397.068 106.313 397.227 106.276 397.376C106.257 397.507 106.22 397.628 106.164 397.74C106.108 397.889 106.024 397.992 105.912 398.048C105.8 398.104 105.66 398.132 105.492 398.132C105.324 398.132 105.165 398.113 105.016 398.076C104.885 398.039 104.764 397.964 104.652 397.852C104.521 397.777 104.428 397.684 104.372 397.572C104.316 397.441 104.288 397.292 104.288 397.124C104.288 396.956 104.297 396.797 104.316 396.648C104.353 396.499 104.409 396.349 104.484 396.2C104.521 396.069 104.596 395.957 104.708 395.864C104.82 395.771 104.96 395.724 105.128 395.724C105.296 395.724 105.445 395.761 105.576 395.836C105.725 395.911 105.856 395.995 105.968 396.088C106.08 396.2 106.164 396.321 106.22 396.452C106.295 396.583 106.332 396.732 106.332 396.9Z" fill="black"/>
<rect x="17" y="298" width="55" height="55" rx="27.5" fill="#D9D9D9"/>
<rect x="17" y="389" width="55" height="55" rx="27.5" fill="#D9D9D9"/>
</svg>
