<svg width="107" height="47" viewBox="0 0 107 47" fill="none" xmlns="http://www.w3.org/2000/svg">
<rect x="0.5" y="0.5" width="106" height="46" rx="7.5" fill="white" stroke="black"/>
<path d="M24.392 21.016V28.12C24.84 28.12 25.32 28.0773 25.832 27.992C26.3653 27.9067 26.9413 27.8 27.56 27.672C28.136 27.5653 28.68 27.448 29.192 27.32C29.7253 27.192 30.216 27.064 30.664 26.936C30.8133 26.9147 30.952 26.904 31.08 26.904C31.208 26.904 31.3253 26.9253 31.432 26.968C31.5173 27.032 31.592 27.1067 31.656 27.192C31.72 27.2773 31.7733 27.3627 31.816 27.448C31.816 27.5547 31.8053 27.6613 31.784 27.768C31.784 27.8747 31.7733 27.9707 31.752 28.056C31.688 28.184 31.6133 28.2907 31.528 28.376C31.464 28.44 31.368 28.4827 31.24 28.504C31.0053 28.6107 30.76 28.7067 30.504 28.792C30.248 28.8773 29.96 28.952 29.64 29.016C29.2987 29.1227 28.9573 29.208 28.616 29.272C28.2747 29.336 27.944 29.4 27.624 29.464C27.2613 29.528 26.9093 29.592 26.568 29.656C26.248 29.6987 25.9387 29.7307 25.64 29.752C25.32 29.816 25.032 29.8587 24.776 29.88C24.52 29.88 24.296 29.8587 24.104 29.816C23.8053 29.816 23.5493 29.7733 23.336 29.688C23.144 29.6027 23.0053 29.4747 22.92 29.304C22.792 29.1547 22.7067 29.0053 22.664 28.856C22.6213 28.6853 22.6 28.5147 22.6 28.344V21.048C22.6 20.8987 22.6213 20.7707 22.664 20.664C22.7067 20.536 22.7813 20.4187 22.888 20.312C22.952 20.248 23.0373 20.1947 23.144 20.152C23.2507 20.1093 23.368 20.088 23.496 20.088C23.5813 20.088 23.6773 20.1093 23.784 20.152C23.8907 20.1947 23.9973 20.248 24.104 20.312C24.1893 20.4187 24.2533 20.536 24.296 20.664C24.36 20.7707 24.392 20.888 24.392 21.016ZM35.88 23.736L39.624 22.968V18.296C39.624 18.1253 39.6347 17.976 39.656 17.848C39.6987 17.6987 39.752 17.56 39.816 17.432C39.88 17.3467 39.9653 17.2827 40.072 17.24C40.1787 17.176 40.3173 17.144 40.488 17.144C40.616 17.144 40.7333 17.176 40.84 17.24C40.968 17.2827 41.0853 17.3467 41.192 17.432C41.256 17.56 41.3093 17.6987 41.352 17.848C41.3947 17.976 41.416 18.1253 41.416 18.296V31.32C41.416 31.512 41.3947 31.6827 41.352 31.832C41.3093 31.9813 41.256 32.088 41.192 32.152C41.0853 32.2587 40.968 32.3333 40.84 32.376C40.7333 32.3973 40.616 32.408 40.488 32.408C40.3173 32.408 40.1787 32.3973 40.072 32.376C39.9653 32.3333 39.88 32.2587 39.816 32.152C39.752 32.088 39.6987 31.9813 39.656 31.832C39.6347 31.6827 39.624 31.512 39.624 31.32V24.664L36.008 25.4L36.328 30.488C36.328 30.68 36.3067 30.8507 36.264 31C36.2427 31.1493 36.2 31.256 36.136 31.32C36.0507 31.4267 35.944 31.5013 35.816 31.544C35.7093 31.5867 35.592 31.608 35.464 31.608C35.3147 31.608 35.1867 31.5973 35.08 31.576C34.9733 31.5333 34.888 31.4587 34.824 31.352C34.7173 31.288 34.6427 31.1813 34.6 31.032C34.5787 30.8827 34.568 30.712 34.568 30.52L33.8 18.584C33.7573 18.4133 33.7467 18.264 33.768 18.136C33.7893 17.9867 33.8427 17.848 33.928 17.72C33.992 17.6347 34.0773 17.5707 34.184 17.528C34.2907 17.464 34.4293 17.432 34.6 17.432C34.728 17.432 34.8453 17.464 34.952 17.528C35.0587 17.5707 35.1653 17.6347 35.272 17.72C35.336 17.848 35.3893 17.9867 35.432 18.136C35.4747 18.264 35.5173 18.4027 35.56 18.552L35.88 23.736ZM52.0055 19.288C51.8135 19.352 51.6428 19.3947 51.4935 19.416C51.3442 19.416 51.2268 19.384 51.1415 19.32C51.0348 19.2773 50.9602 19.2133 50.9175 19.128C50.8748 19.0213 50.8535 18.8827 50.8535 18.712C50.8108 18.6053 50.8002 18.5093 50.8215 18.424C50.8428 18.3173 50.9068 18.2107 51.0135 18.104C51.0775 18.04 51.1842 17.976 51.3335 17.912C51.4828 17.8267 51.6535 17.752 51.8455 17.688L54.9175 16.856C55.6428 16.664 56.2828 16.568 56.8375 16.568C57.4135 16.568 57.8935 16.6427 58.2775 16.792C58.6402 16.984 58.9175 17.2613 59.1095 17.624C59.3015 17.9867 59.3975 18.424 59.3975 18.936C59.3975 19.1493 59.3655 19.3627 59.3015 19.576C59.2375 19.7893 59.1415 19.992 59.0135 20.184C58.8855 20.3547 58.7575 20.5253 58.6295 20.696C58.5015 20.8667 58.3735 21.0373 58.2455 21.208L61.0295 23.512C61.1575 23.64 61.2535 23.768 61.3175 23.896C61.4028 24.024 61.4668 24.1413 61.5095 24.248C61.5095 24.376 61.4882 24.504 61.4455 24.632C61.4242 24.76 61.3708 24.8667 61.2855 24.952C61.1788 25.08 61.0722 25.1653 60.9655 25.208C60.8802 25.2507 60.7842 25.2507 60.6775 25.208C60.5495 25.208 60.4215 25.1653 60.2935 25.08C60.1655 24.9947 60.0375 24.888 59.9095 24.76L56.9975 22.392L53.7655 25.432C53.6162 25.5813 53.4775 25.6987 53.3495 25.784C53.2215 25.8693 53.1042 25.912 52.9975 25.912C52.8695 25.9547 52.7522 25.9547 52.6455 25.912C52.5388 25.848 52.4535 25.752 52.3895 25.624C52.2615 25.5387 52.1762 25.4427 52.1335 25.336C52.1122 25.208 52.1228 25.08 52.1655 24.952C52.1655 24.8453 52.2082 24.728 52.2935 24.6C52.3788 24.472 52.4962 24.3333 52.6455 24.184L56.7735 20.312C56.9015 20.184 57.0082 20.0667 57.0935 19.96C57.2002 19.832 57.2962 19.704 57.3815 19.576C57.4455 19.4693 57.4882 19.3627 57.5095 19.256C57.5522 19.1493 57.5735 19.0427 57.5735 18.936C57.5735 18.7867 57.5308 18.6587 57.4455 18.552C57.3602 18.4453 57.2428 18.36 57.0935 18.296C56.9015 18.2747 56.6882 18.264 56.4535 18.264C56.2188 18.264 55.9415 18.296 55.6215 18.36L52.0055 19.288ZM62.2775 21.656C62.1282 21.656 62.0002 21.6453 61.8935 21.624C61.8082 21.5813 61.7335 21.5173 61.6695 21.432C61.5842 21.368 61.5202 21.2933 61.4775 21.208C61.4562 21.1013 61.4455 20.9733 61.4455 20.824C61.4455 20.696 61.4562 20.5787 61.4775 20.472C61.5202 20.3653 61.5842 20.2693 61.6695 20.184C61.7335 20.12 61.8082 20.0667 61.8935 20.024C62.0002 19.9813 62.1282 19.96 62.2775 19.96H65.6055V16.376C65.6055 16.2053 65.6162 16.056 65.6375 15.928C65.6802 15.7787 65.7442 15.64 65.8295 15.512C65.8935 15.4267 65.9682 15.3627 66.0535 15.32C66.1602 15.256 66.2988 15.224 66.4695 15.224C66.5975 15.224 66.7148 15.256 66.8215 15.32C66.9495 15.3627 67.0668 15.4267 67.1735 15.512C67.2375 15.64 67.2908 15.7787 67.3335 15.928C67.3975 16.056 67.4295 16.2053 67.4295 16.376V25.176C67.4295 25.368 67.3975 25.5387 67.3335 25.688C67.2908 25.8373 67.2375 25.944 67.1735 26.008C67.0668 26.1147 66.9495 26.1893 66.8215 26.232C66.7148 26.2533 66.5975 26.264 66.4695 26.264C66.2988 26.264 66.1602 26.2533 66.0535 26.232C65.9682 26.1893 65.8935 26.1147 65.8295 26.008C65.7442 25.944 65.6802 25.8373 65.6375 25.688C65.6162 25.5387 65.6055 25.368 65.6055 25.176V21.656H62.2775ZM67.2055 30.744C67.2055 31.064 67.1735 31.3627 67.1095 31.64C67.0455 31.896 66.9602 32.152 66.8535 32.408C66.7255 32.6853 66.5762 32.952 66.4055 33.208C66.2562 33.4427 66.0855 33.6667 65.8935 33.88C65.6588 34.1147 65.4028 34.3173 65.1255 34.488C64.8695 34.6587 64.6028 34.7867 64.3255 34.872C64.0055 35 63.6748 35.0853 63.3335 35.128C62.9922 35.192 62.6295 35.224 62.2455 35.224C61.8828 35.224 61.5415 35.2027 61.2215 35.16C60.9228 35.1387 60.6455 35.0747 60.3895 34.968C60.1122 34.904 59.8562 34.808 59.6215 34.68C59.4082 34.5307 59.2268 34.36 59.0775 34.168C58.8855 34.0187 58.7148 33.848 58.5655 33.656C58.4162 33.464 58.3095 33.24 58.2455 32.984C58.1388 32.7707 58.0642 32.536 58.0215 32.28C57.9788 32.024 57.9575 31.7467 57.9575 31.448C57.9575 31.128 57.9788 30.8293 58.0215 30.552C58.0642 30.2533 58.1495 29.9547 58.2775 29.656C58.3628 29.4 58.4908 29.144 58.6615 28.888C58.8322 28.632 59.0348 28.376 59.2695 28.12C59.4615 27.9067 59.6748 27.7147 59.9095 27.544C60.1655 27.352 60.4535 27.192 60.7735 27.064C61.0508 26.9573 61.3602 26.872 61.7015 26.808C62.0642 26.744 62.4375 26.712 62.8215 26.712C63.1415 26.712 63.4402 26.744 63.7175 26.808C64.0162 26.8507 64.3042 26.9147 64.5815 27C64.8375 27.128 65.0722 27.2667 65.2855 27.416C65.5202 27.544 65.7442 27.6827 65.9575 27.832C66.1495 28.024 66.3202 28.2373 66.4695 28.472C66.6188 28.6853 66.7575 28.8987 66.8855 29.112C66.9708 29.368 67.0455 29.6347 67.1095 29.912C67.1735 30.1893 67.2055 30.4667 67.2055 30.744ZM65.4455 30.744C65.4455 30.5947 65.4242 30.4453 65.3815 30.296C65.3602 30.1467 65.3282 29.9867 65.2855 29.816C65.2215 29.688 65.1362 29.56 65.0295 29.432C64.9442 29.304 64.8588 29.176 64.7735 29.048C64.6455 28.9627 64.5068 28.8773 64.3575 28.792C64.2295 28.7067 64.0908 28.632 63.9415 28.568C63.7708 28.5253 63.5895 28.4933 63.3975 28.472C63.2055 28.4293 63.0135 28.408 62.8215 28.408C62.5655 28.408 62.3308 28.4293 62.1175 28.472C61.9042 28.5147 61.7015 28.568 61.5095 28.632C61.2962 28.7173 61.1042 28.824 60.9335 28.952C60.7842 29.0587 60.6455 29.176 60.5175 29.304C60.3468 29.4747 60.2082 29.6453 60.1015 29.816C60.0162 29.9867 59.9522 30.1467 59.9095 30.296C59.8455 30.488 59.7922 30.68 59.7495 30.872C59.7282 31.064 59.7175 31.256 59.7175 31.448C59.7175 31.64 59.7282 31.8107 59.7495 31.96C59.7708 32.088 59.8135 32.216 59.8775 32.344C59.8988 32.4933 59.9415 32.632 60.0055 32.76C60.0908 32.8667 60.1975 32.952 60.3255 33.016C60.4108 33.1227 60.5175 33.208 60.6455 33.272C60.7735 33.336 60.9228 33.3787 61.0935 33.4C61.2428 33.464 61.4135 33.5067 61.6055 33.528C61.7975 33.528 62.0108 33.528 62.2455 33.528C62.4802 33.528 62.7042 33.5173 62.9175 33.496C63.1522 33.4533 63.3762 33.3893 63.5895 33.304C63.7815 33.24 63.9522 33.1547 64.1015 33.048C64.2722 32.9413 64.4322 32.792 64.5815 32.6C64.7095 32.472 64.8162 32.3333 64.9015 32.184C65.0082 32.0347 65.1148 31.8747 65.2215 31.704C65.2855 31.5547 65.3388 31.4053 65.3815 31.256C65.4242 31.0853 65.4455 30.9147 65.4455 30.744ZM73.497 17.976C73.497 18.488 73.497 19 73.497 19.512C73.5183 20.024 73.561 20.536 73.625 21.048C73.625 21.0907 73.625 21.1333 73.625 21.176C73.625 21.2187 73.625 21.2613 73.625 21.304C73.625 21.3467 73.625 21.3893 73.625 21.432C73.6463 21.4747 73.657 21.5173 73.657 21.56L80.921 20.984V17.688C80.921 17.5387 80.9317 17.4 80.953 17.272C80.9957 17.1227 81.049 16.984 81.113 16.856C81.177 16.7707 81.2623 16.7067 81.369 16.664C81.4757 16.6 81.6143 16.568 81.785 16.568C81.913 16.568 82.0303 16.6 82.137 16.664C82.2437 16.7067 82.3503 16.7707 82.457 16.856C82.521 16.984 82.5743 17.1227 82.617 17.272C82.6597 17.4 82.681 17.5493 82.681 17.72V23.576C82.681 24.1093 82.6063 24.5787 82.457 24.984C82.3077 25.368 82.0943 25.688 81.817 25.944C81.5183 26.2427 81.1557 26.4667 80.729 26.616C80.3237 26.7653 79.8543 26.8507 79.321 26.872L78.649 26.936C78.649 26.9573 78.649 26.968 78.649 26.968C78.649 26.9893 78.649 27 78.649 27C78.6703 27 78.681 27 78.681 27V30.84L84.825 30.488C84.953 30.488 85.0703 30.4987 85.177 30.52C85.2837 30.5413 85.3797 30.584 85.465 30.648C85.529 30.7333 85.5823 30.8293 85.625 30.936C85.6677 31.0427 85.689 31.16 85.689 31.288C85.689 31.4373 85.6677 31.5653 85.625 31.672C85.5823 31.7787 85.529 31.864 85.465 31.928C85.3797 32.0133 85.2837 32.0773 85.177 32.12C85.0917 32.1413 84.985 32.152 84.857 32.152L70.713 32.952C70.5423 32.9947 70.4037 33.0053 70.297 32.984C70.2117 32.9627 70.137 32.9093 70.073 32.824C69.9877 32.76 69.9237 32.6853 69.881 32.6C69.8597 32.4933 69.849 32.3653 69.849 32.216C69.849 32.088 69.8597 31.9707 69.881 31.864C69.9237 31.7573 69.9877 31.6613 70.073 31.576C70.137 31.512 70.2117 31.4587 70.297 31.416C70.4037 31.3733 70.5317 31.3307 70.681 31.288L76.857 30.936V27.064L75.641 27.16C75.1503 27.224 74.713 27.2133 74.329 27.128C73.9663 27.0427 73.657 26.8827 73.401 26.648C73.1023 26.4347 72.8677 26.1573 72.697 25.816C72.5263 25.4533 72.409 25.0267 72.345 24.536C72.217 24.024 72.1103 23.5013 72.025 22.968C71.961 22.4347 71.9183 21.8907 71.897 21.336C71.833 20.8027 71.7903 20.2587 71.769 19.704C71.769 19.1493 71.769 18.584 71.769 18.008C71.769 17.8373 71.7797 17.688 71.801 17.56C71.8437 17.4107 71.897 17.272 71.961 17.144C72.025 17.0587 72.1103 16.9947 72.217 16.952C72.3237 16.888 72.4623 16.856 72.633 16.856C72.761 16.856 72.8783 16.888 72.985 16.952C73.0917 16.9947 73.1877 17.0587 73.273 17.144C73.337 17.272 73.3903 17.4107 73.433 17.56C73.4757 17.688 73.497 17.8267 73.497 17.976ZM73.849 23.224C73.849 23.416 73.8597 23.5973 73.881 23.768C73.9237 23.9173 73.9663 24.0667 74.009 24.216C74.0303 24.472 74.0837 24.6853 74.169 24.856C74.2543 25.0053 74.3717 25.1227 74.521 25.208C74.649 25.336 74.7983 25.4213 74.969 25.464C75.1397 25.5067 75.353 25.5173 75.609 25.496L79.289 25.208C79.545 25.208 79.769 25.176 79.961 25.112C80.1743 25.0267 80.3557 24.9093 80.505 24.76C80.633 24.632 80.729 24.472 80.793 24.28C80.8783 24.0667 80.921 23.8213 80.921 23.544V22.68L73.849 23.224Z" fill="black"/>
</svg>
