<svg width="400" height="91" viewBox="0 0 400 91" fill="none" xmlns="http://www.w3.org/2000/svg">
<rect width="400" height="91" fill="white"/>
<path d="M98.216 20.08C98.216 19.968 98.2 19.848 98.168 19.72C98.152 19.592 98.136 19.464 98.12 19.336C98.072 19.224 98.016 19.112 97.952 19C97.904 18.872 97.856 18.744 97.808 18.616C97.728 18.52 97.64 18.44 97.544 18.376C97.448 18.296 97.344 18.224 97.232 18.16C97.104 18.112 96.968 18.072 96.824 18.04C96.696 18.008 96.56 17.992 96.416 17.992C96.24 17.992 96.08 18.016 95.936 18.064C95.792 18.096 95.648 18.136 95.504 18.184C95.344 18.264 95.192 18.36 95.048 18.472C94.92 18.568 94.8 18.672 94.688 18.784C94.544 18.928 94.424 19.08 94.328 19.24C94.232 19.4 94.16 19.552 94.112 19.696C94.032 19.872 93.976 20.048 93.944 20.224C93.928 20.4 93.92 20.584 93.92 20.776C93.92 20.92 93.92 21.064 93.92 21.208C93.936 21.336 93.968 21.448 94.016 21.544C94.032 21.672 94.072 21.784 94.136 21.88C94.2 21.96 94.28 22.032 94.376 22.096C94.44 22.192 94.512 22.272 94.592 22.336C94.688 22.384 94.784 22.416 94.88 22.432C94.976 22.48 95.072 22.512 95.168 22.528C95.28 22.544 95.4 22.552 95.528 22.552C95.672 22.552 95.824 22.544 95.984 22.528C96.144 22.496 96.304 22.448 96.464 22.384C96.608 22.336 96.752 22.272 96.896 22.192C97.056 22.096 97.208 21.976 97.352 21.832C97.496 21.72 97.616 21.6 97.712 21.472C97.824 21.328 97.92 21.176 98 21.016C98.064 20.872 98.112 20.728 98.144 20.584C98.192 20.424 98.216 20.256 98.216 20.08ZM95.528 23.824C95.288 23.824 95.064 23.808 94.856 23.776C94.648 23.744 94.464 23.688 94.304 23.608C94.112 23.56 93.936 23.48 93.776 23.368C93.616 23.256 93.48 23.128 93.368 22.984C93.224 22.872 93.096 22.736 92.984 22.576C92.888 22.416 92.816 22.24 92.768 22.048C92.688 21.872 92.632 21.68 92.6 21.472C92.584 21.248 92.576 21.016 92.576 20.776C92.576 20.488 92.6 20.216 92.648 19.96C92.696 19.688 92.768 19.432 92.864 19.192C92.96 18.952 93.08 18.728 93.224 18.52C93.368 18.296 93.536 18.088 93.728 17.896C93.92 17.704 94.112 17.536 94.304 17.392C94.512 17.248 94.736 17.12 94.976 17.008C95.184 16.912 95.408 16.84 95.648 16.792C95.888 16.744 96.144 16.72 96.416 16.72C96.656 16.72 96.88 16.744 97.088 16.792C97.312 16.84 97.52 16.904 97.712 16.984C97.904 17.08 98.08 17.192 98.24 17.32C98.416 17.432 98.576 17.56 98.72 17.704C98.832 17.88 98.936 18.056 99.032 18.232C99.144 18.408 99.248 18.592 99.344 18.784C99.36 18.848 99.376 18.912 99.392 18.976C99.408 19.024 99.416 19.072 99.416 19.12C99.432 19.184 99.448 19.248 99.464 19.312C99.48 19.36 99.496 19.408 99.512 19.456H99.584L103.4 19.264V17.032C103.4 16.904 103.408 16.792 103.424 16.696C103.456 16.584 103.496 16.48 103.544 16.384C103.592 16.32 103.656 16.272 103.736 16.24C103.816 16.192 103.92 16.168 104.048 16.168C104.144 16.168 104.232 16.192 104.312 16.24C104.408 16.272 104.496 16.32 104.576 16.384C104.624 16.48 104.664 16.584 104.696 16.696C104.728 16.792 104.744 16.904 104.744 17.032V23.632C104.744 23.776 104.728 23.904 104.696 24.016C104.664 24.128 104.624 24.208 104.576 24.256C104.496 24.336 104.408 24.392 104.312 24.424C104.232 24.44 104.144 24.448 104.048 24.448C103.92 24.448 103.816 24.44 103.736 24.424C103.656 24.392 103.592 24.336 103.544 24.256C103.496 24.208 103.456 24.128 103.424 24.016C103.408 23.904 103.4 23.776 103.4 23.632V20.536L99.608 20.728H99.488C99.456 20.872 99.416 21.016 99.368 21.16C99.336 21.288 99.296 21.408 99.248 21.52C99.12 21.744 98.984 21.96 98.84 22.168C98.696 22.36 98.528 22.536 98.336 22.696C98.112 22.888 97.888 23.056 97.664 23.2C97.456 23.344 97.24 23.456 97.016 23.536C96.776 23.632 96.528 23.704 96.272 23.752C96.032 23.8 95.784 23.824 95.528 23.824ZM96.872 26.536C96.872 26.328 96.896 26.16 96.944 26.032C97.008 25.888 97.104 25.776 97.232 25.696C97.328 25.648 97.44 25.608 97.568 25.576C97.712 25.528 97.864 25.488 98.024 25.456C98.136 25.456 98.288 25.456 98.48 25.456C98.672 25.44 98.904 25.416 99.176 25.384C99.304 25.384 99.432 25.384 99.56 25.384C99.704 25.368 99.84 25.36 99.968 25.36C100.112 25.344 100.256 25.336 100.4 25.336C100.544 25.32 100.688 25.304 100.832 25.288C101.12 25.288 101.4 25.28 101.672 25.264C101.944 25.248 102.224 25.224 102.512 25.192C102.768 25.192 102.992 25.184 103.184 25.168C103.392 25.152 103.568 25.128 103.712 25.096C103.872 25.096 104.016 25.12 104.144 25.168C104.288 25.216 104.408 25.288 104.504 25.384C104.584 25.496 104.648 25.616 104.696 25.744C104.744 25.856 104.768 25.976 104.768 26.104V26.944C104.752 27.088 104.736 27.232 104.72 27.376C104.72 27.52 104.72 27.656 104.72 27.784V28.648C104.704 28.792 104.696 28.936 104.696 29.08C104.696 29.224 104.704 29.368 104.72 29.512C104.704 29.608 104.672 29.704 104.624 29.8C104.592 29.896 104.552 29.992 104.504 30.088C104.424 30.216 104.336 30.312 104.24 30.376C104.144 30.44 104.048 30.48 103.952 30.496C103.872 30.512 103.792 30.528 103.712 30.544C103.648 30.56 103.568 30.576 103.472 30.592C103.376 30.608 103.272 30.624 103.16 30.64C103.064 30.656 102.96 30.664 102.848 30.664C102.608 30.712 102.352 30.752 102.08 30.784C101.824 30.816 101.568 30.84 101.312 30.856C101.168 30.888 101.024 30.912 100.88 30.928C100.752 30.944 100.624 30.96 100.496 30.976C100.368 30.992 100.24 31.008 100.112 31.024C99.984 31.04 99.864 31.048 99.752 31.048C99.496 31.096 99.272 31.128 99.08 31.144C98.888 31.176 98.728 31.192 98.6 31.192C98.312 31.24 98.064 31.232 97.856 31.168C97.648 31.12 97.472 31.008 97.328 30.832C97.168 30.688 97.048 30.528 96.968 30.352C96.904 30.176 96.872 29.976 96.872 29.752C96.856 29.608 96.848 29.464 96.848 29.32C96.848 29.176 96.848 29.032 96.848 28.888V28.168C96.848 28.056 96.848 27.944 96.848 27.832C96.848 27.704 96.856 27.568 96.872 27.424V26.536ZM98.216 26.752C98.2 26.88 98.192 27 98.192 27.112C98.192 27.208 98.192 27.304 98.192 27.4C98.176 27.528 98.168 27.648 98.168 27.76C98.168 27.856 98.168 27.952 98.168 28.048V28.672C98.168 28.8 98.168 28.92 98.168 29.032C98.168 29.128 98.176 29.224 98.192 29.32C98.192 29.448 98.2 29.552 98.216 29.632C98.248 29.696 98.296 29.752 98.36 29.8C98.408 29.848 98.472 29.88 98.552 29.896C98.632 29.912 98.736 29.904 98.864 29.872C99.088 29.856 99.32 29.832 99.56 29.8C99.8 29.768 100.04 29.728 100.28 29.68C100.392 29.68 100.504 29.672 100.616 29.656C100.728 29.64 100.832 29.624 100.928 29.608C101.04 29.592 101.152 29.576 101.264 29.56C101.376 29.544 101.488 29.528 101.6 29.512C101.792 29.496 101.976 29.48 102.152 29.464C102.328 29.432 102.504 29.4 102.68 29.368C102.824 29.368 102.952 29.36 103.064 29.344C103.176 29.328 103.272 29.304 103.352 29.272C103.352 29.016 103.36 28.752 103.376 28.48C103.392 28.208 103.4 27.928 103.4 27.64V26.368C103.176 26.384 102.952 26.4 102.728 26.416C102.504 26.432 102.272 26.44 102.032 26.44C101.904 26.456 101.776 26.472 101.648 26.488C101.52 26.504 101.4 26.512 101.288 26.512C101.16 26.528 101.04 26.544 100.928 26.56C100.816 26.56 100.704 26.56 100.592 26.56C100.464 26.576 100.336 26.592 100.208 26.608C100.096 26.624 99.984 26.632 99.872 26.632C99.76 26.648 99.648 26.664 99.536 26.68C99.44 26.68 99.344 26.68 99.248 26.68C99.024 26.712 98.824 26.736 98.648 26.752C98.472 26.752 98.328 26.752 98.216 26.752ZM110.303 27.424C109.919 27.456 109.583 27.44 109.295 27.376C109.007 27.296 108.767 27.168 108.575 26.992C108.351 26.848 108.167 26.648 108.023 26.392C107.895 26.136 107.807 25.824 107.759 25.456C107.679 25.104 107.615 24.728 107.567 24.328C107.519 23.912 107.487 23.472 107.471 23.008C107.423 22.576 107.391 22.112 107.375 21.616C107.375 21.104 107.375 20.568 107.375 20.008C107.375 19.88 107.383 19.768 107.399 19.672C107.431 19.56 107.479 19.456 107.543 19.36C107.591 19.296 107.647 19.248 107.711 19.216C107.791 19.168 107.895 19.144 108.023 19.144C108.119 19.144 108.207 19.168 108.287 19.216C108.383 19.248 108.471 19.296 108.551 19.36C108.599 19.456 108.639 19.56 108.671 19.672C108.703 19.768 108.719 19.872 108.719 19.984C108.719 20.512 108.719 21.016 108.719 21.496C108.735 21.96 108.767 22.408 108.815 22.84C108.831 23.304 108.855 23.744 108.887 24.16C108.935 24.56 108.999 24.952 109.079 25.336C109.079 25.496 109.103 25.632 109.151 25.744C109.215 25.856 109.295 25.936 109.391 25.984C109.471 26.064 109.567 26.12 109.679 26.152C109.807 26.168 109.951 26.176 110.111 26.176L112.799 25.984C112.847 25.984 112.895 25.976 112.943 25.96C113.007 25.944 113.063 25.912 113.111 25.864C113.127 25.848 113.143 25.816 113.159 25.768C113.191 25.704 113.207 25.632 113.207 25.552V21.328C113.207 21.28 113.191 21.232 113.159 21.184C113.143 21.12 113.127 21.064 113.111 21.016C113.063 21 113.007 20.984 112.943 20.968C112.895 20.936 112.847 20.92 112.799 20.92H109.943C109.831 20.92 109.735 20.912 109.655 20.896C109.591 20.864 109.535 20.824 109.487 20.776C109.439 20.728 109.399 20.672 109.367 20.608C109.351 20.528 109.343 20.432 109.343 20.32C109.343 20.224 109.351 20.136 109.367 20.056C109.399 19.976 109.439 19.896 109.487 19.816C109.535 19.768 109.591 19.728 109.655 19.696C109.735 19.664 109.831 19.648 109.943 19.648H112.799C113.087 19.648 113.335 19.688 113.543 19.768C113.767 19.832 113.959 19.936 114.119 20.08C114.263 20.224 114.375 20.408 114.455 20.632C114.535 20.84 114.575 21.072 114.575 21.328V25.36C114.575 25.68 114.535 25.952 114.455 26.176C114.391 26.4 114.295 26.584 114.167 26.728C114.023 26.904 113.855 27.032 113.663 27.112C113.487 27.192 113.279 27.232 113.039 27.232L110.303 27.424ZM118.535 22.216H121.463C121.559 22.216 121.647 22.232 121.727 22.264C121.807 22.296 121.879 22.336 121.943 22.384C121.991 22.464 122.031 22.544 122.063 22.624C122.095 22.704 122.111 22.792 122.111 22.888C122.111 23 122.095 23.096 122.063 23.176C122.031 23.24 121.991 23.296 121.943 23.344C121.879 23.392 121.807 23.432 121.727 23.464C121.647 23.48 121.559 23.488 121.463 23.488H118.631L118.919 28.024C118.919 28.168 118.911 28.296 118.895 28.408C118.879 28.52 118.847 28.6 118.799 28.648C118.735 28.728 118.655 28.784 118.559 28.816C118.479 28.848 118.391 28.864 118.295 28.864C118.183 28.864 118.087 28.856 118.007 28.84C117.927 28.808 117.863 28.752 117.815 28.672C117.735 28.624 117.679 28.544 117.647 28.432C117.615 28.32 117.599 28.192 117.599 28.048L116.975 18.472C116.943 18.344 116.935 18.232 116.951 18.136C116.983 18.024 117.031 17.92 117.095 17.824C117.143 17.76 117.207 17.712 117.287 17.68C117.367 17.632 117.471 17.608 117.599 17.608C117.695 17.608 117.783 17.632 117.863 17.68C117.943 17.712 118.023 17.76 118.103 17.824C118.151 17.92 118.191 18.024 118.223 18.136C118.255 18.232 118.287 18.336 118.319 18.448L118.535 22.216Z" fill="black"/>
<rect x="17" y="18" width="55" height="55" rx="27.5" fill="#D9D9D9"/>
<path d="M92.504 47.966C92.42 47.966 92.348 47.96 92.288 47.948C92.24 47.924 92.198 47.888 92.162 47.84C92.126 47.804 92.096 47.762 92.072 47.714C92.06 47.654 92.054 47.582 92.054 47.498C92.054 47.426 92.06 47.36 92.072 47.3C92.096 47.24 92.126 47.186 92.162 47.138C92.198 47.102 92.24 47.072 92.288 47.048C92.348 47.024 92.42 47.012 92.504 47.012H95.204C95.528 47.012 95.81 47.048 96.05 47.12C96.29 47.18 96.5 47.264 96.68 47.372C96.836 47.504 96.956 47.66 97.04 47.84C97.124 48.02 97.166 48.224 97.166 48.452C97.166 48.572 97.148 48.686 97.112 48.794C97.088 48.89 97.046 48.986 96.986 49.082L99.254 49.784C99.362 49.82 99.452 49.862 99.524 49.91C99.596 49.958 99.656 50.006 99.704 50.054C99.74 50.126 99.764 50.198 99.776 50.27C99.788 50.342 99.788 50.414 99.776 50.486C99.752 50.57 99.716 50.636 99.668 50.684C99.632 50.732 99.584 50.762 99.524 50.774C99.452 50.81 99.368 50.822 99.272 50.81C99.188 50.798 99.092 50.768 98.984 50.72L96.212 49.838C96.116 49.91 96.014 49.976 95.906 50.036C95.81 50.084 95.708 50.132 95.6 50.18L93.818 51.026C93.71 51.086 93.608 51.128 93.512 51.152C93.428 51.164 93.35 51.158 93.278 51.134C93.206 51.134 93.14 51.11 93.08 51.062C93.032 51.014 93.002 50.954 92.99 50.882C92.954 50.81 92.936 50.738 92.936 50.666C92.936 50.594 92.954 50.522 92.99 50.45C93.014 50.39 93.062 50.336 93.134 50.288C93.206 50.228 93.296 50.168 93.404 50.108L95.348 49.226C95.468 49.178 95.576 49.124 95.672 49.064C95.78 49.004 95.87 48.938 95.942 48.866C96.014 48.806 96.068 48.74 96.104 48.668C96.14 48.596 96.158 48.524 96.158 48.452C96.158 48.38 96.134 48.314 96.086 48.254C96.05 48.194 95.996 48.14 95.924 48.092C95.828 48.056 95.72 48.026 95.6 48.002C95.48 47.978 95.348 47.966 95.204 47.966H92.504ZM95.762 52.574V51.296C95.762 51.2 95.768 51.116 95.78 51.044C95.804 50.96 95.84 50.882 95.888 50.81C95.924 50.762 95.972 50.726 96.032 50.702C96.092 50.666 96.17 50.648 96.266 50.648C96.338 50.648 96.404 50.666 96.464 50.702C96.524 50.726 96.584 50.762 96.644 50.81C96.68 50.882 96.71 50.96 96.734 51.044C96.77 51.116 96.788 51.2 96.788 51.296V52.52L100.55 52.304C100.622 52.304 100.688 52.31 100.748 52.322C100.808 52.334 100.862 52.358 100.91 52.394C100.946 52.442 100.976 52.496 101 52.556C101.024 52.616 101.036 52.682 101.036 52.754C101.036 52.838 101.024 52.91 101 52.97C100.976 53.03 100.946 53.078 100.91 53.114C100.862 53.162 100.808 53.198 100.748 53.222C100.7 53.234 100.64 53.24 100.568 53.24L92.612 53.69C92.516 53.714 92.438 53.72 92.378 53.708C92.33 53.696 92.288 53.666 92.252 53.618C92.204 53.582 92.168 53.534 92.144 53.474C92.132 53.414 92.126 53.342 92.126 53.258C92.126 53.186 92.132 53.12 92.144 53.06C92.168 53 92.204 52.946 92.252 52.898C92.288 52.862 92.33 52.838 92.378 52.826C92.438 52.802 92.51 52.778 92.594 52.754L95.762 52.574ZM95.222 55.238C95.126 55.262 95.048 55.268 94.988 55.256C94.94 55.244 94.898 55.214 94.862 55.166C94.814 55.13 94.778 55.088 94.754 55.04C94.742 54.98 94.736 54.908 94.736 54.824C94.736 54.752 94.742 54.692 94.754 54.644C94.778 54.584 94.814 54.536 94.862 54.5C94.898 54.464 94.94 54.44 94.988 54.428C95.048 54.404 95.12 54.386 95.204 54.374L99.074 54.122C99.146 54.122 99.212 54.134 99.272 54.158C99.332 54.17 99.386 54.194 99.434 54.23C99.47 54.278 99.5 54.332 99.524 54.392C99.548 54.44 99.56 54.5 99.56 54.572C99.56 54.644 99.548 54.71 99.524 54.77C99.5 54.818 99.47 54.86 99.434 54.896C99.386 54.932 99.332 54.962 99.272 54.986C99.224 54.998 99.164 55.004 99.092 55.004L95.222 55.238ZM99.434 58.694C99.434 58.586 99.404 58.49 99.344 58.406C99.296 58.322 99.23 58.244 99.146 58.172C99.038 58.124 98.906 58.082 98.75 58.046C98.606 58.01 98.444 57.992 98.264 57.992C98.048 57.992 97.85 58.004 97.67 58.028C97.502 58.04 97.346 58.052 97.202 58.064C97.046 58.1 96.908 58.142 96.788 58.19C96.668 58.226 96.566 58.268 96.482 58.316C96.374 58.376 96.284 58.436 96.212 58.496C96.14 58.556 96.086 58.61 96.05 58.658C96.002 58.73 95.966 58.802 95.942 58.874C95.93 58.934 95.924 59 95.924 59.072C95.924 59.204 95.948 59.318 95.996 59.414C96.044 59.51 96.122 59.582 96.23 59.63C96.326 59.702 96.452 59.75 96.608 59.774C96.776 59.798 96.968 59.81 97.184 59.81C97.352 59.81 97.514 59.804 97.67 59.792C97.826 59.78 97.976 59.756 98.12 59.72C98.252 59.708 98.378 59.678 98.498 59.63C98.618 59.594 98.732 59.54 98.84 59.468C98.924 59.42 99.002 59.36 99.074 59.288C99.158 59.228 99.23 59.162 99.29 59.09C99.326 59.042 99.356 58.982 99.38 58.91C99.416 58.838 99.434 58.766 99.434 58.694ZM97.184 60.764C96.788 60.764 96.446 60.728 96.158 60.656C95.882 60.596 95.654 60.494 95.474 60.35C95.282 60.218 95.138 60.044 95.042 59.828C94.958 59.612 94.916 59.36 94.916 59.072C94.916 58.928 94.934 58.79 94.97 58.658C95.006 58.526 95.06 58.394 95.132 58.262C95.204 58.154 95.294 58.046 95.402 57.938C95.51 57.83 95.636 57.722 95.78 57.614C95.924 57.53 96.08 57.452 96.248 57.38C96.428 57.308 96.626 57.242 96.842 57.182C97.034 57.146 97.25 57.116 97.49 57.092C97.73 57.056 97.988 57.038 98.264 57.038C98.624 57.038 98.936 57.074 99.2 57.146C99.476 57.218 99.71 57.32 99.902 57.452C100.082 57.596 100.22 57.776 100.316 57.992C100.412 58.196 100.46 58.43 100.46 58.694C100.46 58.838 100.442 58.976 100.406 59.108C100.37 59.24 100.316 59.36 100.244 59.468C100.16 59.6 100.064 59.72 99.956 59.828C99.848 59.936 99.722 60.038 99.578 60.134C99.434 60.242 99.272 60.338 99.092 60.422C98.924 60.506 98.744 60.566 98.552 60.602C98.336 60.662 98.114 60.704 97.886 60.728C97.67 60.752 97.436 60.764 97.184 60.764ZM94.124 56.768C94.028 56.792 93.95 56.798 93.89 56.786C93.842 56.774 93.8 56.75 93.764 56.714C93.716 56.678 93.68 56.636 93.656 56.588C93.644 56.528 93.638 56.462 93.638 56.39C93.638 56.318 93.644 56.258 93.656 56.21C93.68 56.15 93.716 56.096 93.764 56.048C93.8 56.012 93.842 55.982 93.89 55.958C93.95 55.934 94.022 55.916 94.106 55.904L100.568 55.526C100.64 55.526 100.706 55.532 100.766 55.544C100.826 55.556 100.886 55.58 100.946 55.616C100.982 55.652 101.012 55.7 101.036 55.76C101.06 55.808 101.072 55.868 101.072 55.94C101.072 56.012 101.06 56.078 101.036 56.138C101.012 56.198 100.982 56.246 100.946 56.282C100.886 56.33 100.826 56.366 100.766 56.39C100.718 56.402 100.658 56.408 100.586 56.408L94.124 56.768ZM106.014 52.88C106.014 52.796 106.002 52.706 105.978 52.61C105.966 52.514 105.954 52.412 105.942 52.304C105.918 52.268 105.894 52.226 105.87 52.178C105.858 52.13 105.84 52.082 105.816 52.034C105.804 51.986 105.786 51.938 105.762 51.89C105.738 51.842 105.72 51.794 105.708 51.746C105.648 51.674 105.582 51.608 105.51 51.548C105.438 51.488 105.36 51.428 105.276 51.368C105.18 51.332 105.078 51.302 104.97 51.278C104.874 51.242 104.772 51.224 104.664 51.224C104.532 51.224 104.412 51.242 104.304 51.278C104.196 51.314 104.088 51.356 103.98 51.404C103.86 51.476 103.746 51.554 103.638 51.638C103.542 51.722 103.452 51.818 103.368 51.926C103.26 52.058 103.17 52.19 103.098 52.322C103.026 52.442 102.972 52.574 102.936 52.718C102.876 52.862 102.834 53.018 102.81 53.186C102.798 53.342 102.792 53.504 102.792 53.672C102.792 53.804 102.792 53.924 102.792 54.032C102.804 54.128 102.828 54.218 102.864 54.302C102.876 54.398 102.906 54.482 102.954 54.554C103.002 54.626 103.062 54.686 103.134 54.734C103.182 54.806 103.236 54.866 103.296 54.914C103.368 54.962 103.44 54.992 103.512 55.004C103.584 55.04 103.656 55.064 103.728 55.076C103.812 55.076 103.902 55.076 103.998 55.076C104.106 55.076 104.22 55.064 104.34 55.04C104.46 55.016 104.58 54.974 104.7 54.914C104.808 54.878 104.916 54.818 105.024 54.734C105.144 54.65 105.258 54.548 105.366 54.428C105.474 54.32 105.564 54.212 105.636 54.104C105.72 53.984 105.792 53.852 105.852 53.708C105.9 53.588 105.936 53.462 105.96 53.33C105.996 53.186 106.014 53.036 106.014 52.88ZM103.998 56.03C103.818 56.03 103.65 56.018 103.494 55.994C103.338 55.97 103.2 55.928 103.08 55.868C102.936 55.832 102.804 55.772 102.684 55.688C102.564 55.604 102.462 55.508 102.378 55.4C102.27 55.292 102.174 55.178 102.09 55.058C102.018 54.926 101.964 54.788 101.928 54.644C101.868 54.5 101.826 54.35 101.802 54.194C101.79 54.026 101.784 53.852 101.784 53.672C101.784 53.42 101.802 53.186 101.838 52.97C101.874 52.742 101.928 52.52 102 52.304C102.072 52.112 102.162 51.926 102.27 51.746C102.378 51.566 102.504 51.392 102.648 51.224C102.792 51.08 102.936 50.954 103.08 50.846C103.236 50.726 103.404 50.618 103.584 50.522C103.74 50.45 103.908 50.39 104.088 50.342C104.268 50.294 104.46 50.27 104.664 50.27C104.844 50.27 105.012 50.288 105.168 50.324C105.336 50.36 105.492 50.408 105.636 50.468C105.78 50.54 105.912 50.63 106.032 50.738C106.164 50.834 106.284 50.942 106.392 51.062C106.476 51.206 106.554 51.35 106.626 51.494C106.71 51.626 106.788 51.764 106.86 51.908C106.908 52.064 106.944 52.226 106.968 52.394C107.004 52.55 107.022 52.712 107.022 52.88C107.022 53.096 106.998 53.3 106.95 53.492C106.914 53.684 106.86 53.87 106.788 54.05C106.692 54.23 106.59 54.41 106.482 54.59C106.374 54.758 106.248 54.92 106.104 55.076C105.936 55.244 105.768 55.388 105.6 55.508C105.444 55.628 105.282 55.724 105.114 55.796C104.934 55.88 104.748 55.94 104.556 55.976C104.376 56.012 104.19 56.03 103.998 56.03ZM109.704 52.43H111.882C111.954 52.43 112.02 52.442 112.08 52.466C112.14 52.49 112.2 52.52 112.26 52.556C112.296 52.616 112.326 52.676 112.35 52.736C112.374 52.796 112.386 52.862 112.386 52.934C112.386 53.018 112.374 53.09 112.35 53.15C112.326 53.198 112.296 53.24 112.26 53.276C112.2 53.312 112.14 53.342 112.08 53.366C112.02 53.378 111.954 53.384 111.882 53.384H109.776L109.992 56.768C109.992 56.876 109.98 56.972 109.956 57.056C109.944 57.14 109.92 57.2 109.884 57.236C109.836 57.296 109.776 57.338 109.704 57.362C109.644 57.386 109.578 57.398 109.506 57.398C109.422 57.398 109.35 57.392 109.29 57.38C109.23 57.356 109.182 57.314 109.146 57.254C109.086 57.218 109.044 57.158 109.02 57.074C108.996 56.99 108.984 56.894 108.984 56.786L108.534 49.604C108.51 49.508 108.504 49.424 108.516 49.352C108.528 49.268 108.558 49.19 108.606 49.118C108.642 49.07 108.69 49.034 108.75 49.01C108.81 48.974 108.888 48.956 108.984 48.956C109.056 48.956 109.122 48.974 109.182 49.01C109.242 49.034 109.302 49.07 109.362 49.118C109.398 49.19 109.428 49.268 109.452 49.352C109.488 49.424 109.512 49.502 109.524 49.586L109.704 52.43ZM116.708 50.63C116.852 50.63 116.99 50.624 117.122 50.612C117.254 50.6 117.386 50.576 117.518 50.54C117.626 50.516 117.74 50.48 117.86 50.432C117.98 50.372 118.094 50.306 118.202 50.234C118.286 50.174 118.364 50.108 118.436 50.036C118.52 49.964 118.592 49.88 118.652 49.784C118.688 49.712 118.718 49.634 118.742 49.55C118.778 49.466 118.796 49.37 118.796 49.262C118.796 49.178 118.784 49.094 118.76 49.01C118.748 48.926 118.724 48.842 118.688 48.758C118.64 48.686 118.586 48.62 118.526 48.56C118.478 48.488 118.418 48.422 118.346 48.362C118.262 48.326 118.172 48.29 118.076 48.254C117.992 48.206 117.902 48.164 117.806 48.128C117.698 48.116 117.584 48.104 117.464 48.092C117.356 48.068 117.242 48.056 117.122 48.056C116.978 48.056 116.846 48.068 116.726 48.092C116.618 48.104 116.51 48.128 116.402 48.164C116.282 48.212 116.168 48.266 116.06 48.326C115.964 48.374 115.874 48.428 115.79 48.488C115.682 48.572 115.592 48.656 115.52 48.74C115.46 48.824 115.412 48.908 115.376 48.992C115.328 49.1 115.292 49.202 115.268 49.298C115.256 49.394 115.25 49.49 115.25 49.586C115.25 49.67 115.256 49.748 115.268 49.82C115.28 49.892 115.304 49.958 115.34 50.018C115.364 50.09 115.4 50.156 115.448 50.216C115.508 50.264 115.574 50.306 115.646 50.342C115.706 50.402 115.772 50.45 115.844 50.486C115.928 50.522 116.018 50.546 116.114 50.558C116.198 50.594 116.288 50.618 116.384 50.63C116.492 50.63 116.6 50.63 116.708 50.63ZM119.804 49.244C119.804 49.412 119.786 49.574 119.75 49.73C119.714 49.874 119.66 50.012 119.588 50.144C119.516 50.276 119.426 50.402 119.318 50.522C119.222 50.63 119.12 50.738 119.012 50.846C119.048 50.906 119.072 50.972 119.084 51.044C119.108 51.116 119.12 51.194 119.12 51.278V52.916L121.064 52.808C121.136 52.808 121.202 52.814 121.262 52.826C121.322 52.838 121.376 52.862 121.424 52.898C121.46 52.946 121.49 53 121.514 53.06C121.538 53.12 121.55 53.186 121.55 53.258C121.55 53.342 121.538 53.414 121.514 53.474C121.49 53.534 121.46 53.582 121.424 53.618C121.376 53.666 121.322 53.702 121.262 53.726C121.214 53.738 121.154 53.744 121.082 53.744L113.126 54.194C113.03 54.218 112.952 54.224 112.892 54.212C112.844 54.2 112.802 54.17 112.766 54.122C112.718 54.086 112.682 54.044 112.658 53.996C112.646 53.936 112.64 53.864 112.64 53.78C112.64 53.708 112.646 53.642 112.658 53.582C112.682 53.522 112.718 53.468 112.766 53.42C112.802 53.384 112.844 53.354 112.892 53.33C112.952 53.306 113.024 53.282 113.108 53.258L115.07 53.15V51.44C115.07 51.404 115.07 51.362 115.07 51.314C115.07 51.254 115.082 51.206 115.106 51.17C115.07 51.158 115.034 51.14 114.998 51.116C114.974 51.092 114.95 51.062 114.926 51.026C114.794 50.942 114.68 50.852 114.584 50.756C114.5 50.648 114.434 50.528 114.386 50.396C114.326 50.288 114.284 50.168 114.26 50.036C114.236 49.904 114.224 49.76 114.224 49.604C114.224 49.424 114.236 49.256 114.26 49.1C114.296 48.932 114.35 48.776 114.422 48.632C114.482 48.488 114.566 48.356 114.674 48.236C114.782 48.104 114.908 47.972 115.052 47.84C115.184 47.732 115.328 47.636 115.484 47.552C115.64 47.456 115.808 47.372 115.988 47.3C116.144 47.24 116.318 47.192 116.51 47.156C116.714 47.12 116.924 47.102 117.14 47.102C117.332 47.102 117.518 47.12 117.698 47.156C117.89 47.18 118.07 47.21 118.238 47.246C118.394 47.306 118.538 47.372 118.67 47.444C118.814 47.516 118.952 47.594 119.084 47.678C119.192 47.786 119.288 47.9 119.372 48.02C119.468 48.128 119.552 48.242 119.624 48.362C119.672 48.506 119.714 48.65 119.75 48.794C119.786 48.938 119.804 49.088 119.804 49.244ZM118.094 51.35L117.932 51.404C117.74 51.476 117.542 51.524 117.338 51.548C117.134 51.572 116.924 51.584 116.708 51.584C116.6 51.584 116.492 51.584 116.384 51.584C116.276 51.572 116.18 51.56 116.096 51.548V53.096L118.094 52.988V51.35ZM119.102 57.146C119.102 57.11 119.096 57.08 119.084 57.056C119.084 57.02 119.078 56.984 119.066 56.948C119.066 56.912 119.06 56.876 119.048 56.84C119.036 56.804 119.03 56.768 119.03 56.732C119.006 56.708 118.982 56.684 118.958 56.66C118.946 56.624 118.928 56.594 118.904 56.57C118.892 56.546 118.874 56.522 118.85 56.498C118.826 56.462 118.808 56.426 118.796 56.39C118.736 56.354 118.67 56.318 118.598 56.282C118.526 56.246 118.448 56.21 118.364 56.174C118.256 56.162 118.148 56.15 118.04 56.138C117.932 56.114 117.818 56.102 117.698 56.102C117.554 56.102 117.416 56.114 117.284 56.138C117.164 56.15 117.056 56.168 116.96 56.192C116.852 56.228 116.75 56.27 116.654 56.318C116.57 56.366 116.498 56.414 116.438 56.462C116.366 56.534 116.3 56.606 116.24 56.678C116.192 56.75 116.156 56.822 116.132 56.894C116.096 56.978 116.066 57.062 116.042 57.146C116.03 57.218 116.024 57.29 116.024 57.362C116.024 57.458 116.024 57.542 116.024 57.614C116.036 57.674 116.06 57.728 116.096 57.776C116.108 57.848 116.132 57.908 116.168 57.956C116.216 57.992 116.276 58.028 116.348 58.064C116.396 58.124 116.45 58.172 116.51 58.208C116.582 58.232 116.666 58.244 116.762 58.244C116.834 58.268 116.918 58.286 117.014 58.298C117.11 58.298 117.212 58.298 117.32 58.298C117.44 58.298 117.56 58.298 117.68 58.298C117.812 58.286 117.932 58.262 118.04 58.226C118.148 58.214 118.244 58.184 118.328 58.136C118.424 58.088 118.52 58.028 118.616 57.956C118.688 57.908 118.748 57.854 118.796 57.794C118.856 57.722 118.916 57.65 118.976 57.578C119.012 57.518 119.042 57.452 119.066 57.38C119.09 57.308 119.102 57.23 119.102 57.146ZM117.32 59.252C117.116 59.252 116.93 59.24 116.762 59.216C116.606 59.204 116.462 59.174 116.33 59.126C116.186 59.09 116.048 59.042 115.916 58.982C115.796 58.922 115.694 58.844 115.61 58.748C115.502 58.676 115.406 58.592 115.322 58.496C115.25 58.4 115.196 58.286 115.16 58.154C115.1 58.046 115.058 57.926 115.034 57.794C115.022 57.662 115.016 57.518 115.016 57.362C115.016 57.218 115.028 57.08 115.052 56.948C115.076 56.804 115.124 56.66 115.196 56.516C115.244 56.396 115.31 56.276 115.394 56.156C115.478 56.024 115.586 55.904 115.718 55.796C115.826 55.7 115.946 55.616 116.078 55.544C116.21 55.46 116.366 55.382 116.546 55.31C116.702 55.262 116.876 55.226 117.068 55.202C117.272 55.166 117.482 55.148 117.698 55.148C117.878 55.148 118.046 55.166 118.202 55.202C118.37 55.226 118.532 55.256 118.688 55.292C118.832 55.352 118.964 55.418 119.084 55.49C119.216 55.55 119.336 55.616 119.444 55.688C119.552 55.784 119.642 55.886 119.714 55.994C119.798 56.102 119.876 56.21 119.948 56.318C119.996 56.45 120.032 56.588 120.056 56.732C120.092 56.864 120.11 57.002 120.11 57.146C120.11 57.314 120.092 57.47 120.056 57.614C120.02 57.758 119.966 57.89 119.894 58.01C119.822 58.142 119.732 58.268 119.624 58.388C119.528 58.496 119.42 58.592 119.3 58.676C119.156 58.784 119.006 58.874 118.85 58.946C118.694 59.018 118.544 59.072 118.4 59.108C118.232 59.168 118.058 59.204 117.878 59.216C117.698 59.24 117.512 59.252 117.32 59.252Z" fill="#929292"/>
<path d="M144 20.2523C144 17.3515 141.53 15 138.483 15C136.633 15 135.001 15.8692 134 17.1977C132.999 15.8692 131.367 15 129.517 15C126.47 15 124 17.351 124 20.2523C124 20.6632 124.055 21.0614 124.149 21.4451C124.915 25.9762 130.207 30.7565 134 32.069C137.793 30.7565 143.085 25.9762 143.85 21.4457C143.945 21.0619 144 20.6638 144 20.2523Z" fill="#DD2E44"/>
<path d="M131 60C134.866 60 138 56.866 138 53C138 49.134 134.866 46 131 46C127.134 46 124 49.134 124 53C124 56.866 127.134 60 131 60Z" fill="#FFCC4D"/>
<path d="M130.222 52.5942C130.059 52.5942 129.907 52.4912 129.853 52.3282C129.774 52.0953 129.457 51.4276 129.055 51.4276C128.642 51.4276 128.321 52.1381 128.258 52.3282C128.19 52.5316 127.971 52.6425 127.766 52.574C127.562 52.5064 127.452 52.2859 127.52 52.0821C127.568 51.9355 128.027 50.6494 129.056 50.6494C130.084 50.6494 130.542 51.9355 130.591 52.0821C130.659 52.2859 130.549 52.5064 130.346 52.574C130.304 52.588 130.263 52.5942 130.222 52.5942ZM134.111 52.5942C133.948 52.5942 133.796 52.4912 133.742 52.3282C133.663 52.0953 133.346 51.4276 132.944 51.4276C132.531 51.4276 132.209 52.1381 132.146 52.3282C132.078 52.5316 131.86 52.6425 131.654 52.574C131.451 52.5064 131.34 52.2859 131.408 52.0821C131.457 51.9355 131.915 50.6494 132.944 50.6494C133.972 50.6494 134.43 51.9355 134.479 52.0821C134.547 52.2859 134.437 52.5064 134.233 52.574C134.193 52.588 134.152 52.5942 134.111 52.5942ZM134.63 54.046C134.561 53.9834 134.457 53.9795 134.383 54.0347C134.368 54.046 132.858 55.1625 131 55.1625C129.146 55.1625 127.631 54.046 127.616 54.0347C127.542 53.9795 127.439 53.9841 127.369 54.046C127.301 54.1082 127.285 54.2109 127.333 54.2902C127.383 54.3738 128.584 56.3291 131 56.3291C133.415 56.3291 134.617 54.3738 134.666 54.2902C134.714 54.2105 134.699 54.1086 134.63 54.046Z" fill="#664500"/>
<path d="M132.256 47.535C132.256 47.6283 132.267 47.7186 132.288 47.8057C132.453 48.8335 133.596 49.9177 134.415 50.2156C135.062 49.9803 135.91 49.2527 136.32 48.4505C135.507 47.5016 134.446 46.7728 133.236 46.3652C132.679 46.4652 132.256 46.9493 132.256 47.535ZM129.344 57.3082C129.367 57.2141 129.379 57.1161 129.379 57.015C129.379 56.3021 128.802 55.7242 128.089 55.7242C127.656 55.7242 127.274 55.9377 127.04 56.2644C126.806 55.9381 126.424 55.7242 125.991 55.7242C125.508 55.7242 125.092 55.9922 124.871 56.3846C125.58 57.666 126.679 58.7012 128.009 59.33C128.645 58.8046 129.226 58.044 129.344 57.3082ZM137.339 55.972C137.23 55.6025 136.891 55.3315 136.486 55.3315C136.186 55.3315 135.922 55.4792 135.76 55.7056C135.597 55.4792 135.333 55.3315 135.033 55.3315C134.539 55.3315 134.139 55.7316 134.139 56.2255C134.139 56.2955 134.148 56.3632 134.163 56.4285C134.283 57.1693 135.076 57.9436 135.683 58.2022C136.374 57.58 136.94 56.8228 137.339 55.972Z" fill="#FFAC33"/>
<path d="M137.076 47.2712C137.076 46.6132 136.543 46.0801 135.885 46.0801C135.486 46.0801 135.133 46.2772 134.917 46.5786C134.701 46.2772 134.349 46.0801 133.949 46.0801C133.291 46.0801 132.758 46.6132 132.758 47.2712C132.758 47.3646 132.77 47.4548 132.79 47.5419C132.956 48.5697 134.098 49.654 134.917 49.9519C135.736 49.654 136.879 48.5697 137.044 47.5423C137.065 47.4548 137.076 47.3646 137.076 47.2712ZM128.747 57.0475C128.747 56.3347 128.17 55.7568 127.457 55.7568C127.024 55.7568 126.642 55.9703 126.408 56.297C126.174 55.9703 125.792 55.7568 125.359 55.7568C124.646 55.7568 124.068 56.3347 124.068 57.0475C124.068 57.1486 124.081 57.2462 124.103 57.3407C124.282 58.4541 125.52 59.629 126.408 59.9517C127.295 59.6294 128.533 58.4545 128.712 57.3411C128.735 57.2462 128.747 57.1482 128.747 57.0475ZM137.98 56.1605C137.98 55.6666 137.58 55.2664 137.086 55.2664C136.786 55.2664 136.521 55.4142 136.359 55.6405C136.197 55.4142 135.933 55.2664 135.633 55.2664C135.139 55.2664 134.739 55.6666 134.739 56.1605C134.739 56.2305 134.748 56.2981 134.763 56.3635C134.887 57.1346 135.744 57.9486 136.359 58.1718C136.974 57.9486 137.832 57.1346 137.955 56.3635C137.971 56.2981 137.98 56.2305 137.98 56.1605Z" fill="#DD2E44"/>
</svg>
