<svg width="400" height="760" viewBox="0 0 400 760" fill="none" xmlns="http://www.w3.org/2000/svg">
<rect width="400" height="760" fill="#90ABD3"/>
<path d="M171.288 30.44C171.288 30.2907 171.267 30.1307 171.224 29.96C171.203 29.7893 171.181 29.6187 171.16 29.448C171.096 29.2987 171.021 29.1493 170.936 29C170.872 28.8293 170.808 28.6587 170.744 28.488C170.637 28.36 170.52 28.2533 170.392 28.168C170.264 28.0613 170.125 27.9653 169.976 27.88C169.805 27.816 169.624 27.7627 169.432 27.72C169.261 27.6773 169.08 27.656 168.888 27.656C168.653 27.656 168.44 27.688 168.248 27.752C168.056 27.7947 167.864 27.848 167.672 27.912C167.459 28.0187 167.256 28.1467 167.064 28.296C166.893 28.424 166.733 28.5627 166.584 28.712C166.392 28.904 166.232 29.1067 166.104 29.32C165.976 29.5333 165.88 29.736 165.816 29.928C165.709 30.1627 165.635 30.3973 165.592 30.632C165.571 30.8667 165.56 31.112 165.56 31.368C165.56 31.56 165.56 31.752 165.56 31.944C165.581 32.1147 165.624 32.264 165.688 32.392C165.709 32.5627 165.763 32.712 165.848 32.84C165.933 32.9467 166.04 33.0427 166.168 33.128C166.253 33.256 166.349 33.3627 166.456 33.448C166.584 33.512 166.712 33.5547 166.84 33.576C166.968 33.64 167.096 33.6827 167.224 33.704C167.373 33.7253 167.533 33.736 167.704 33.736C167.896 33.736 168.099 33.7253 168.312 33.704C168.525 33.6613 168.739 33.5973 168.952 33.512C169.144 33.448 169.336 33.3627 169.528 33.256C169.741 33.128 169.944 32.968 170.136 32.776C170.328 32.6267 170.488 32.4667 170.616 32.296C170.765 32.104 170.893 31.9013 171 31.688C171.085 31.496 171.149 31.304 171.192 31.112C171.256 30.8987 171.288 30.6747 171.288 30.44ZM167.704 35.432C167.384 35.432 167.085 35.4107 166.808 35.368C166.531 35.3253 166.285 35.2507 166.072 35.144C165.816 35.08 165.581 34.9733 165.368 34.824C165.155 34.6747 164.973 34.504 164.824 34.312C164.632 34.1627 164.461 33.9813 164.312 33.768C164.184 33.5547 164.088 33.32 164.024 33.064C163.917 32.8293 163.843 32.5733 163.8 32.296C163.779 31.9973 163.768 31.688 163.768 31.368C163.768 30.984 163.8 30.6213 163.864 30.28C163.928 29.9173 164.024 29.576 164.152 29.256C164.28 28.936 164.44 28.6373 164.632 28.36C164.824 28.0613 165.048 27.784 165.304 27.528C165.56 27.272 165.816 27.048 166.072 26.856C166.349 26.664 166.648 26.4933 166.968 26.344C167.245 26.216 167.544 26.12 167.864 26.056C168.184 25.992 168.525 25.96 168.888 25.96C169.208 25.96 169.507 25.992 169.784 26.056C170.083 26.12 170.36 26.2053 170.616 26.312C170.872 26.44 171.107 26.5893 171.32 26.76C171.555 26.9093 171.768 27.08 171.96 27.272C172.109 27.5067 172.248 27.7413 172.376 27.976C172.525 28.2107 172.664 28.456 172.792 28.712C172.813 28.7973 172.835 28.8827 172.856 28.968C172.877 29.032 172.888 29.096 172.888 29.16C172.909 29.2453 172.931 29.3307 172.952 29.416C172.973 29.48 172.995 29.544 173.016 29.608H173.112L178.2 29.352V26.376C178.2 26.2053 178.211 26.056 178.232 25.928C178.275 25.7787 178.328 25.64 178.392 25.512C178.456 25.4267 178.541 25.3627 178.648 25.32C178.755 25.256 178.893 25.224 179.064 25.224C179.192 25.224 179.309 25.256 179.416 25.32C179.544 25.3627 179.661 25.4267 179.768 25.512C179.832 25.64 179.885 25.7787 179.928 25.928C179.971 26.056 179.992 26.2053 179.992 26.376V35.176C179.992 35.368 179.971 35.5387 179.928 35.688C179.885 35.8373 179.832 35.944 179.768 36.008C179.661 36.1147 179.544 36.1893 179.416 36.232C179.309 36.2533 179.192 36.264 179.064 36.264C178.893 36.264 178.755 36.2533 178.648 36.232C178.541 36.1893 178.456 36.1147 178.392 36.008C178.328 35.944 178.275 35.8373 178.232 35.688C178.211 35.5387 178.2 35.368 178.2 35.176V31.048L173.144 31.304H172.984C172.941 31.496 172.888 31.688 172.824 31.88C172.781 32.0507 172.728 32.2107 172.664 32.36C172.493 32.6587 172.312 32.9467 172.12 33.224C171.928 33.48 171.704 33.7147 171.448 33.928C171.149 34.184 170.851 34.408 170.552 34.6C170.275 34.792 169.987 34.9413 169.688 35.048C169.368 35.176 169.037 35.272 168.696 35.336C168.376 35.4 168.045 35.432 167.704 35.432ZM169.496 39.048C169.496 38.7707 169.528 38.5467 169.592 38.376C169.677 38.184 169.805 38.0347 169.976 37.928C170.104 37.864 170.253 37.8107 170.424 37.768C170.616 37.704 170.819 37.6507 171.032 37.608C171.181 37.608 171.384 37.608 171.64 37.608C171.896 37.5867 172.205 37.5547 172.568 37.512C172.739 37.512 172.909 37.512 173.08 37.512C173.272 37.4907 173.453 37.48 173.624 37.48C173.816 37.4587 174.008 37.448 174.2 37.448C174.392 37.4267 174.584 37.4053 174.776 37.384C175.16 37.384 175.533 37.3733 175.896 37.352C176.259 37.3307 176.632 37.2987 177.016 37.256C177.357 37.256 177.656 37.2453 177.912 37.224C178.189 37.2027 178.424 37.1707 178.616 37.128C178.829 37.128 179.021 37.16 179.192 37.224C179.384 37.288 179.544 37.384 179.672 37.512C179.779 37.6613 179.864 37.8213 179.928 37.992C179.992 38.1413 180.024 38.3013 180.024 38.472V39.592C180.003 39.784 179.981 39.976 179.96 40.168C179.96 40.36 179.96 40.5413 179.96 40.712V41.864C179.939 42.056 179.928 42.248 179.928 42.44C179.928 42.632 179.939 42.824 179.96 43.016C179.939 43.144 179.896 43.272 179.832 43.4C179.789 43.528 179.736 43.656 179.672 43.784C179.565 43.9547 179.448 44.0827 179.32 44.168C179.192 44.2533 179.064 44.3067 178.936 44.328C178.829 44.3493 178.723 44.3707 178.616 44.392C178.531 44.4133 178.424 44.4347 178.296 44.456C178.168 44.4773 178.029 44.4987 177.88 44.52C177.752 44.5413 177.613 44.552 177.464 44.552C177.144 44.616 176.803 44.6693 176.44 44.712C176.099 44.7547 175.757 44.7867 175.416 44.808C175.224 44.8507 175.032 44.8827 174.84 44.904C174.669 44.9253 174.499 44.9467 174.328 44.968C174.157 44.9893 173.987 45.0107 173.816 45.032C173.645 45.0533 173.485 45.064 173.336 45.064C172.995 45.128 172.696 45.1707 172.44 45.192C172.184 45.2347 171.971 45.256 171.8 45.256C171.416 45.32 171.085 45.3093 170.808 45.224C170.531 45.16 170.296 45.0107 170.104 44.776C169.891 44.584 169.731 44.3707 169.624 44.136C169.539 43.9013 169.496 43.6347 169.496 43.336C169.475 43.144 169.464 42.952 169.464 42.76C169.464 42.568 169.464 42.376 169.464 42.184V41.224C169.464 41.0747 169.464 40.9253 169.464 40.776C169.464 40.6053 169.475 40.424 169.496 40.232V39.048ZM171.288 39.336C171.267 39.5067 171.256 39.6667 171.256 39.816C171.256 39.944 171.256 40.072 171.256 40.2C171.235 40.3707 171.224 40.5307 171.224 40.68C171.224 40.808 171.224 40.936 171.224 41.064V41.896C171.224 42.0667 171.224 42.2267 171.224 42.376C171.224 42.504 171.235 42.632 171.256 42.76C171.256 42.9307 171.267 43.0693 171.288 43.176C171.331 43.2613 171.395 43.336 171.48 43.4C171.544 43.464 171.629 43.5067 171.736 43.528C171.843 43.5493 171.981 43.5387 172.152 43.496C172.451 43.4747 172.76 43.4427 173.08 43.4C173.4 43.3573 173.72 43.304 174.04 43.24C174.189 43.24 174.339 43.2293 174.488 43.208C174.637 43.1867 174.776 43.1653 174.904 43.144C175.053 43.1227 175.203 43.1013 175.352 43.08C175.501 43.0587 175.651 43.0373 175.8 43.016C176.056 42.9947 176.301 42.9733 176.536 42.952C176.771 42.9093 177.005 42.8667 177.24 42.824C177.432 42.824 177.603 42.8133 177.752 42.792C177.901 42.7707 178.029 42.7387 178.136 42.696C178.136 42.3547 178.147 42.0027 178.168 41.64C178.189 41.2773 178.2 40.904 178.2 40.52V38.824C177.901 38.8453 177.603 38.8667 177.304 38.888C177.005 38.9093 176.696 38.92 176.376 38.92C176.205 38.9413 176.035 38.9627 175.864 38.984C175.693 39.0053 175.533 39.016 175.384 39.016C175.213 39.0373 175.053 39.0587 174.904 39.08C174.755 39.08 174.605 39.08 174.456 39.08C174.285 39.1013 174.115 39.1227 173.944 39.144C173.795 39.1653 173.645 39.176 173.496 39.176C173.347 39.1973 173.197 39.2187 173.048 39.24C172.92 39.24 172.792 39.24 172.664 39.24C172.365 39.2827 172.099 39.3147 171.864 39.336C171.629 39.336 171.437 39.336 171.288 39.336ZM187.404 40.232C186.892 40.2747 186.444 40.2533 186.06 40.168C185.676 40.0613 185.356 39.8907 185.1 39.656C184.801 39.464 184.556 39.1973 184.364 38.856C184.193 38.5147 184.076 38.0987 184.012 37.608C183.905 37.1387 183.82 36.6373 183.756 36.104C183.692 35.5493 183.649 34.9627 183.628 34.344C183.564 33.768 183.521 33.1493 183.5 32.488C183.5 31.8053 183.5 31.0907 183.5 30.344C183.5 30.1733 183.51 30.024 183.532 29.896C183.574 29.7467 183.638 29.608 183.724 29.48C183.788 29.3947 183.862 29.3307 183.948 29.288C184.054 29.224 184.193 29.192 184.364 29.192C184.492 29.192 184.609 29.224 184.716 29.288C184.844 29.3307 184.961 29.3947 185.068 29.48C185.132 29.608 185.185 29.7467 185.228 29.896C185.27 30.024 185.292 30.1627 185.292 30.312C185.292 31.016 185.292 31.688 185.292 32.328C185.313 32.9467 185.356 33.544 185.42 34.12C185.441 34.7387 185.473 35.3253 185.516 35.88C185.58 36.4133 185.665 36.936 185.772 37.448C185.772 37.6613 185.804 37.8427 185.868 37.992C185.953 38.1413 186.06 38.248 186.188 38.312C186.294 38.4187 186.422 38.4933 186.572 38.536C186.742 38.5573 186.934 38.568 187.148 38.568L190.732 38.312C190.796 38.312 190.86 38.3013 190.924 38.28C191.009 38.2587 191.084 38.216 191.148 38.152C191.169 38.1307 191.19 38.088 191.212 38.024C191.254 37.9387 191.276 37.8427 191.276 37.736V32.104C191.276 32.04 191.254 31.976 191.212 31.912C191.19 31.8267 191.169 31.752 191.148 31.688C191.084 31.6667 191.009 31.6453 190.924 31.624C190.86 31.5813 190.796 31.56 190.732 31.56H186.924C186.774 31.56 186.646 31.5493 186.54 31.528C186.454 31.4853 186.38 31.432 186.316 31.368C186.252 31.304 186.198 31.2293 186.156 31.144C186.134 31.0373 186.124 30.9093 186.124 30.76C186.124 30.632 186.134 30.5147 186.156 30.408C186.198 30.3013 186.252 30.1947 186.316 30.088C186.38 30.024 186.454 29.9707 186.54 29.928C186.646 29.8853 186.774 29.864 186.924 29.864H190.732C191.116 29.864 191.446 29.9173 191.724 30.024C192.022 30.1093 192.278 30.248 192.492 30.44C192.684 30.632 192.833 30.8773 192.94 31.176C193.046 31.4533 193.1 31.7627 193.1 32.104V37.48C193.1 37.9067 193.046 38.2693 192.94 38.568C192.854 38.8667 192.726 39.112 192.556 39.304C192.364 39.5387 192.14 39.7093 191.884 39.816C191.649 39.9227 191.372 39.976 191.052 39.976L187.404 40.232ZM198.38 33.288H202.284C202.412 33.288 202.529 33.3093 202.636 33.352C202.742 33.3947 202.838 33.448 202.924 33.512C202.988 33.6187 203.041 33.7253 203.084 33.832C203.126 33.9387 203.148 34.056 203.148 34.184C203.148 34.3333 203.126 34.4613 203.084 34.568C203.041 34.6533 202.988 34.728 202.924 34.792C202.838 34.856 202.742 34.9093 202.636 34.952C202.529 34.9733 202.412 34.984 202.284 34.984H198.508L198.892 41.032C198.892 41.224 198.881 41.3947 198.86 41.544C198.838 41.6933 198.796 41.8 198.732 41.864C198.646 41.9707 198.54 42.0453 198.412 42.088C198.305 42.1307 198.188 42.152 198.06 42.152C197.91 42.152 197.782 42.1413 197.676 42.12C197.569 42.0773 197.484 42.0027 197.42 41.896C197.313 41.832 197.238 41.7253 197.196 41.576C197.153 41.4267 197.132 41.256 197.132 41.064L196.3 28.296C196.257 28.1253 196.246 27.976 196.268 27.848C196.31 27.6987 196.374 27.56 196.46 27.432C196.524 27.3467 196.609 27.2827 196.716 27.24C196.822 27.176 196.961 27.144 197.132 27.144C197.26 27.144 197.377 27.176 197.484 27.24C197.59 27.2827 197.697 27.3467 197.804 27.432C197.868 27.56 197.921 27.6987 197.964 27.848C198.006 27.976 198.049 28.1147 198.092 28.264L198.38 33.288Z" fill="white"/>
<rect x="276" y="75" width="95" height="44" rx="5" fill="white"/>
<rect x="32" y="138" width="52" height="44" rx="5" fill="white"/>
<path d="M18.6068 168.441C17.726 168.123 17.726 166.877 18.6068 166.559L32.6606 161.488C33.3124 161.253 34 161.736 34 162.429V172.571C34 173.264 33.3124 173.747 32.6606 173.512L18.6068 168.441Z" fill="white"/>
<path d="M382.393 108.441C383.274 108.123 383.274 106.877 382.393 106.559L368.339 101.488C367.688 101.253 367 101.736 367 102.429V112.571C367 113.264 367.688 113.747 368.339 113.512L382.393 108.441Z" fill="white"/>
<path d="M299 96.48C299 96.72 298.98 96.9467 298.94 97.16C298.9 97.36 298.84 97.5467 298.76 97.72C298.667 97.92 298.56 98.1 298.44 98.26C298.32 98.42 298.187 98.5667 298.04 98.7C297.88 98.86 297.707 99 297.52 99.12C297.347 99.2267 297.16 99.3133 296.96 99.38C296.907 99.4067 296.853 99.4333 296.8 99.46C296.747 99.4733 296.7 99.48 296.66 99.48V102.2L300.5 101.98C300.58 101.98 300.653 101.987 300.72 102C300.787 102.013 300.847 102.04 300.9 102.08C300.94 102.133 300.973 102.193 301 102.26C301.027 102.327 301.04 102.4 301.04 102.48C301.04 102.573 301.027 102.653 301 102.72C300.973 102.787 300.94 102.84 300.9 102.88C300.847 102.933 300.787 102.973 300.72 103C300.667 103.013 300.6 103.02 300.52 103.02L291.68 103.52C291.573 103.547 291.487 103.553 291.42 103.54C291.367 103.527 291.32 103.493 291.28 103.44C291.227 103.4 291.187 103.353 291.16 103.3C291.147 103.233 291.14 103.153 291.14 103.06C291.14 102.98 291.147 102.907 291.16 102.84C291.187 102.773 291.227 102.713 291.28 102.66C291.32 102.62 291.367 102.587 291.42 102.56C291.487 102.533 291.567 102.507 291.66 102.48L295.52 102.26V99.6C295.333 99.6 295.16 99.5867 295 99.56C294.853 99.5333 294.713 99.4867 294.58 99.42C294.42 99.3667 294.267 99.2933 294.12 99.2C293.987 99.1067 293.86 99 293.74 98.88C293.62 98.76 293.513 98.6333 293.42 98.5C293.327 98.3667 293.253 98.22 293.2 98.06C293.12 97.9133 293.067 97.7533 293.04 97.58C293.013 97.4067 293 97.22 293 97.02C293 96.78 293.013 96.5533 293.04 96.34C293.08 96.1133 293.14 95.9 293.22 95.7C293.287 95.5133 293.373 95.3333 293.48 95.16C293.6 94.9733 293.74 94.8 293.9 94.64C294.033 94.4933 294.18 94.36 294.34 94.24C294.513 94.12 294.7 94.02 294.9 93.94C295.073 93.86 295.26 93.8 295.46 93.76C295.673 93.72 295.9 93.7 296.14 93.7C296.353 93.7 296.553 93.72 296.74 93.76C296.94 93.8 297.133 93.8467 297.32 93.9C297.48 93.98 297.633 94.0667 297.78 94.16C297.94 94.24 298.093 94.3333 298.24 94.44C298.347 94.5733 298.447 94.7133 298.54 94.86C298.633 95.0067 298.72 95.16 298.8 95.32C298.853 95.5067 298.9 95.7 298.94 95.9C298.98 96.0867 299 96.28 299 96.48ZM295.64 98.54C295.8 98.54 295.947 98.5333 296.08 98.52C296.227 98.4933 296.373 98.4533 296.52 98.4C296.64 98.36 296.76 98.3067 296.88 98.24C297.013 98.1733 297.14 98.0867 297.26 97.98C297.353 97.8867 297.433 97.7867 297.5 97.68C297.58 97.56 297.653 97.4333 297.72 97.3C297.76 97.18 297.793 97.0533 297.82 96.92C297.847 96.7867 297.86 96.64 297.86 96.48C297.86 96.3467 297.847 96.22 297.82 96.1C297.807 95.98 297.787 95.86 297.76 95.74C297.72 95.6467 297.667 95.5533 297.6 95.46C297.547 95.3667 297.493 95.2733 297.44 95.18C297.36 95.1267 297.267 95.0733 297.16 95.02C297.067 94.9533 296.973 94.9 296.88 94.86C296.76 94.8333 296.64 94.8133 296.52 94.8C296.4 94.7733 296.273 94.76 296.14 94.76C295.98 94.76 295.833 94.78 295.7 94.82C295.58 94.8467 295.46 94.88 295.34 94.92C295.207 94.9867 295.08 95.06 294.96 95.14C294.853 95.2067 294.76 95.2867 294.68 95.38C294.573 95.5 294.487 95.6267 294.42 95.76C294.353 95.8933 294.3 96.02 294.26 96.14C294.207 96.2867 294.167 96.4333 294.14 96.58C294.127 96.7133 294.12 96.86 294.12 97.02C294.12 97.14 294.127 97.2533 294.14 97.36C294.153 97.4667 294.18 97.56 294.22 97.64C294.233 97.7467 294.267 97.84 294.32 97.92C294.373 98 294.44 98.0733 294.52 98.14C294.6 98.22 294.68 98.2933 294.76 98.36C294.84 98.4133 294.933 98.4467 295.04 98.46C295.12 98.5 295.207 98.5267 295.3 98.54C295.407 98.54 295.52 98.54 295.64 98.54ZM303.911 92.5V94.38C303.911 94.5667 303.931 94.72 303.971 94.84C304.011 94.96 304.071 95.06 304.151 95.14C304.231 95.22 304.331 95.28 304.451 95.32C304.571 95.36 304.717 95.38 304.891 95.38C305.251 95.38 305.611 95.3667 305.971 95.34C306.331 95.3133 306.697 95.2667 307.071 95.2C307.431 95.1467 307.784 95.0733 308.131 94.98C308.477 94.8867 308.831 94.7667 309.191 94.62C309.271 94.58 309.344 94.56 309.411 94.56C309.491 94.56 309.571 94.5667 309.651 94.58C309.704 94.62 309.757 94.6667 309.811 94.72C309.877 94.76 309.931 94.8133 309.971 94.88C309.997 94.9733 310.011 95.06 310.011 95.14C310.011 95.2067 310.004 95.2667 309.991 95.32C309.951 95.3867 309.904 95.44 309.851 95.48C309.797 95.52 309.731 95.5467 309.651 95.56C309.251 95.72 308.851 95.8533 308.451 95.96C308.051 96.0667 307.657 96.1533 307.271 96.22C306.871 96.3 306.471 96.36 306.071 96.4C305.684 96.4267 305.291 96.44 304.891 96.44C304.531 96.44 304.217 96.4 303.951 96.32C303.684 96.24 303.471 96.1067 303.311 95.92C303.124 95.76 302.991 95.5533 302.911 95.3C302.831 95.0467 302.791 94.7467 302.791 94.4V92.52C302.791 92.4133 302.797 92.32 302.811 92.24C302.837 92.1467 302.871 92.06 302.911 91.98C302.951 91.9267 303.004 91.8867 303.071 91.86C303.137 91.82 303.224 91.8 303.331 91.8C303.411 91.8 303.484 91.82 303.551 91.86C303.631 91.8867 303.704 91.9267 303.771 91.98C303.811 92.06 303.844 92.1467 303.871 92.24C303.897 92.32 303.911 92.4067 303.911 92.5ZM302.051 98.96C301.957 98.9733 301.877 98.9733 301.811 98.96C301.757 98.9333 301.711 98.8933 301.671 98.84C301.617 98.8 301.577 98.7533 301.551 98.7C301.537 98.6333 301.531 98.5533 301.531 98.46C301.531 98.38 301.537 98.3067 301.551 98.24C301.577 98.1733 301.617 98.1133 301.671 98.06C301.711 98.02 301.757 97.9867 301.811 97.96C301.877 97.9333 301.957 97.9133 302.051 97.9L310.891 97.38C310.971 97.38 311.044 97.3867 311.111 97.4C311.177 97.4133 311.237 97.44 311.291 97.48C311.331 97.5333 311.364 97.5933 311.391 97.66C311.417 97.7267 311.431 97.8 311.431 97.88C311.431 97.9733 311.417 98.0533 311.391 98.12C311.364 98.1867 311.331 98.24 311.291 98.28C311.237 98.3333 311.177 98.3733 311.111 98.4C311.044 98.4267 310.971 98.44 310.891 98.44L302.051 98.96ZM304.291 104.24C304.291 104.387 304.311 104.507 304.351 104.6C304.404 104.68 304.491 104.74 304.611 104.78C304.704 104.82 304.824 104.847 304.971 104.86C305.117 104.873 305.284 104.867 305.471 104.84C305.791 104.827 306.131 104.793 306.491 104.74C306.851 104.687 307.231 104.62 307.631 104.54C308.004 104.46 308.364 104.38 308.711 104.3C309.071 104.22 309.411 104.14 309.731 104.06C309.811 104.047 309.877 104.047 309.931 104.06C309.997 104.06 310.064 104.08 310.131 104.12C310.171 104.173 310.211 104.233 310.251 104.3C310.291 104.353 310.324 104.407 310.351 104.46C310.351 104.527 310.351 104.593 310.351 104.66C310.351 104.713 310.344 104.767 310.331 104.82C310.291 104.9 310.244 104.96 310.191 105C310.151 105.04 310.104 105.067 310.051 105.08C309.877 105.147 309.697 105.2 309.511 105.24C309.337 105.293 309.151 105.34 308.951 105.38C308.737 105.433 308.524 105.48 308.311 105.52C308.097 105.56 307.891 105.6 307.691 105.64C307.464 105.68 307.237 105.72 307.011 105.76C306.797 105.8 306.591 105.827 306.391 105.84C306.164 105.88 305.951 105.907 305.751 105.92C305.564 105.947 305.384 105.96 305.211 105.96C304.864 105.987 304.564 105.967 304.311 105.9C304.071 105.833 303.871 105.72 303.711 105.56C303.537 105.413 303.404 105.253 303.311 105.08C303.217 104.907 303.164 104.72 303.151 104.52C303.111 104.187 303.124 103.893 303.191 103.64C303.271 103.373 303.411 103.16 303.611 103C303.784 102.853 303.984 102.74 304.211 102.66C304.437 102.567 304.684 102.5 304.951 102.46L307.331 102.22C307.571 102.207 307.784 102.187 307.971 102.16C308.171 102.12 308.344 102.067 308.491 102C308.611 101.96 308.704 101.9 308.771 101.82C308.851 101.74 308.891 101.64 308.891 101.52C308.891 101.427 308.871 101.34 308.831 101.26C308.804 101.18 308.764 101.107 308.711 101.04C308.631 101 308.537 100.967 308.431 100.94C308.324 100.913 308.191 100.9 308.031 100.9L303.991 101.16C303.884 101.187 303.797 101.193 303.731 101.18C303.677 101.167 303.631 101.133 303.591 101.08C303.537 101.04 303.497 100.987 303.471 100.92C303.457 100.853 303.451 100.773 303.451 100.68C303.451 100.6 303.457 100.527 303.471 100.46C303.497 100.393 303.537 100.333 303.591 100.28C303.631 100.24 303.677 100.213 303.731 100.2C303.797 100.173 303.877 100.147 303.971 100.12L307.871 99.86C308.217 99.8467 308.524 99.8733 308.791 99.94C309.057 99.9933 309.291 100.08 309.491 100.2C309.664 100.347 309.797 100.533 309.891 100.76C309.984 100.973 310.031 101.227 310.031 101.52C310.031 101.827 309.971 102.087 309.851 102.3C309.731 102.5 309.551 102.66 309.311 102.78C309.071 102.913 308.777 103.02 308.431 103.1C308.097 103.18 307.724 103.24 307.311 103.28L305.251 103.5C305.091 103.527 304.951 103.56 304.831 103.6C304.724 103.64 304.631 103.68 304.551 103.72C304.444 103.787 304.371 103.86 304.331 103.94C304.291 104.02 304.277 104.12 304.291 104.24ZM317.096 96.74C316.976 96.78 316.876 96.7933 316.796 96.78C316.716 96.7667 316.649 96.7333 316.596 96.68C316.529 96.64 316.476 96.6 316.436 96.56C316.396 96.5067 316.376 96.44 316.376 96.36C316.349 96.3067 316.342 96.2467 316.356 96.18C316.382 96.1133 316.416 96.04 316.456 95.96C316.496 95.9067 316.549 95.86 316.616 95.82C316.682 95.78 316.769 95.74 316.876 95.7C316.929 95.7 316.982 95.6933 317.036 95.68C317.102 95.6667 317.169 95.6533 317.236 95.64C317.289 95.6267 317.342 95.6133 317.396 95.6C317.462 95.5867 317.529 95.5733 317.596 95.56C317.702 95.56 317.809 95.5533 317.916 95.54C318.036 95.5267 318.156 95.5067 318.276 95.48C318.329 95.48 318.382 95.48 318.436 95.48C318.489 95.4667 318.549 95.46 318.616 95.46C318.669 95.4467 318.722 95.44 318.776 95.44C318.842 95.4267 318.909 95.4133 318.976 95.4C319.029 95.4 319.082 95.4 319.136 95.4C319.189 95.3867 319.249 95.38 319.316 95.38C319.369 95.3667 319.422 95.36 319.476 95.36C319.542 95.3467 319.609 95.3333 319.676 95.32C320.156 95.28 320.542 95.3133 320.836 95.42C321.129 95.5267 321.336 95.7 321.456 95.94C321.562 96.2067 321.562 96.52 321.456 96.88C321.362 97.24 321.156 97.64 320.836 98.08C320.796 98.1467 320.756 98.2067 320.716 98.26C320.676 98.3133 320.636 98.3667 320.596 98.42C320.556 98.4733 320.516 98.5267 320.476 98.58C320.449 98.6333 320.416 98.68 320.376 98.72L322.796 100.34C322.849 100.393 322.896 100.453 322.936 100.52C322.976 100.573 323.002 100.627 323.016 100.68C323.016 100.76 323.002 100.833 322.976 100.9C322.962 100.967 322.942 101.027 322.916 101.08C322.876 101.147 322.822 101.2 322.756 101.24C322.702 101.267 322.649 101.287 322.596 101.3C322.516 101.327 322.442 101.333 322.376 101.32C322.309 101.307 322.242 101.267 322.176 101.2L319.696 99.58C319.642 99.6333 319.589 99.6933 319.536 99.76C319.496 99.8133 319.456 99.86 319.416 99.9C319.176 100.18 318.916 100.46 318.636 100.74C318.369 101.02 318.089 101.293 317.796 101.56C317.716 101.64 317.636 101.7 317.556 101.74C317.489 101.767 317.422 101.773 317.356 101.76C317.276 101.76 317.209 101.753 317.156 101.74C317.102 101.713 317.056 101.673 317.016 101.62C316.962 101.58 316.922 101.533 316.896 101.48C316.882 101.413 316.876 101.34 316.876 101.26C316.876 101.193 316.889 101.127 316.916 101.06C316.956 100.98 317.016 100.9 317.096 100.82C317.162 100.753 317.229 100.687 317.296 100.62C317.362 100.553 317.429 100.48 317.496 100.4C317.562 100.333 317.629 100.267 317.696 100.2C317.762 100.133 317.836 100.06 317.916 99.98C318.036 99.86 318.156 99.7333 318.276 99.6C318.396 99.4667 318.516 99.3267 318.636 99.18C318.689 99.1267 318.742 99.0667 318.796 99C318.862 98.9333 318.922 98.86 318.976 98.78C319.029 98.7133 319.082 98.6467 319.136 98.58C319.202 98.5133 319.269 98.44 319.336 98.36C319.389 98.3067 319.442 98.2467 319.496 98.18C319.549 98.1 319.602 98.0267 319.656 97.96C319.709 97.88 319.762 97.8 319.816 97.72C319.882 97.64 319.949 97.56 320.016 97.48C320.176 97.2667 320.282 97.08 320.336 96.92C320.402 96.76 320.422 96.6333 320.396 96.54C320.356 96.46 320.282 96.4067 320.176 96.38C320.069 96.3533 319.936 96.34 319.776 96.34C319.536 96.3667 319.302 96.3933 319.076 96.42C318.849 96.4467 318.636 96.4733 318.436 96.5C318.209 96.54 317.982 96.58 317.756 96.62C317.542 96.66 317.322 96.7 317.096 96.74ZM325.656 93.72C325.656 93.6133 325.662 93.52 325.676 93.44C325.702 93.3467 325.742 93.26 325.796 93.18C325.836 93.1267 325.882 93.0867 325.936 93.06C326.002 93.02 326.089 93 326.196 93C326.276 93 326.349 93.02 326.416 93.06C326.496 93.0867 326.569 93.1267 326.636 93.18C326.676 93.26 326.709 93.3467 326.736 93.44C326.776 93.52 326.796 93.6133 326.796 93.72V103.22C326.796 103.34 326.776 103.447 326.736 103.54C326.709 103.633 326.676 103.7 326.636 103.74C326.569 103.807 326.496 103.853 326.416 103.88C326.349 103.893 326.276 103.9 326.196 103.9C326.089 103.9 326.002 103.893 325.936 103.88C325.882 103.853 325.836 103.807 325.796 103.74C325.742 103.7 325.702 103.633 325.676 103.54C325.662 103.447 325.656 103.34 325.656 103.22V98.46H323.176C323.082 98.46 323.002 98.4533 322.936 98.44C322.882 98.4133 322.836 98.38 322.796 98.34C322.742 98.3 322.702 98.2533 322.676 98.2C322.662 98.1333 322.656 98.0533 322.656 97.96C322.656 97.88 322.662 97.8067 322.676 97.74C322.702 97.6733 322.742 97.6067 322.796 97.54C322.836 97.5 322.882 97.4667 322.936 97.44C323.002 97.4133 323.082 97.4 323.176 97.4H325.656V93.72ZM330.288 94.24V97.6C330.288 97.72 330.295 97.8267 330.308 97.92C330.335 98 330.381 98.06 330.448 98.1C330.488 98.1667 330.548 98.2133 330.628 98.24C330.708 98.2533 330.808 98.26 330.928 98.26C331.248 98.26 331.555 98.2533 331.848 98.24C332.141 98.2133 332.428 98.18 332.708 98.14C332.961 98.1 333.215 98.0533 333.468 98C333.721 97.9333 333.968 97.8467 334.208 97.74C334.288 97.7133 334.368 97.7 334.448 97.7C334.528 97.7 334.608 97.7067 334.688 97.72C334.741 97.76 334.788 97.8067 334.828 97.86C334.881 97.9 334.928 97.9533 334.968 98.02C334.995 98.1133 335.008 98.2 335.008 98.28C335.008 98.3467 335.001 98.4 334.988 98.44C334.948 98.5067 334.901 98.5667 334.848 98.62C334.795 98.66 334.728 98.6867 334.648 98.7C334.368 98.82 334.081 98.92 333.788 99C333.508 99.0667 333.221 99.12 332.928 99.16C332.608 99.2267 332.281 99.2733 331.948 99.3C331.615 99.3133 331.275 99.32 330.928 99.32C330.621 99.32 330.355 99.2867 330.128 99.22C329.915 99.1533 329.741 99.0467 329.608 98.9C329.448 98.7667 329.335 98.5933 329.268 98.38C329.201 98.1667 329.168 97.9133 329.168 97.62V94.26C329.168 94.1533 329.175 94.06 329.188 93.98C329.215 93.8867 329.248 93.8 329.288 93.72C329.328 93.6667 329.381 93.6267 329.448 93.6C329.515 93.56 329.601 93.54 329.708 93.54C329.788 93.54 329.861 93.56 329.928 93.6C330.008 93.6267 330.081 93.6667 330.148 93.72C330.188 93.8 330.221 93.8867 330.248 93.98C330.275 94.06 330.288 94.1467 330.288 94.24ZM334.388 97C334.281 97.0267 334.195 97.0333 334.128 97.02C334.075 97.0067 334.028 96.9733 333.988 96.92C333.948 96.88 333.915 96.8333 333.888 96.78C333.875 96.7133 333.868 96.6333 333.868 96.54C333.868 96.46 333.875 96.3867 333.888 96.32C333.915 96.2533 333.948 96.1933 333.988 96.14C334.028 96.1 334.075 96.0667 334.128 96.04C334.195 96.0133 334.275 95.9867 334.368 95.96L337.668 95.62V94.8L334.388 95.14C334.281 95.1667 334.195 95.1733 334.128 95.16C334.075 95.1333 334.028 95.1 333.988 95.06C333.948 95.02 333.915 94.9733 333.888 94.92C333.875 94.8533 333.868 94.7733 333.868 94.68C333.868 94.6 333.875 94.5267 333.888 94.46C333.915 94.3933 333.948 94.3267 333.988 94.26C334.028 94.22 334.075 94.1867 334.128 94.16C334.195 94.1333 334.275 94.1133 334.368 94.1L337.668 93.74V93.16C337.668 93.0533 337.675 92.96 337.688 92.88C337.715 92.7867 337.748 92.7 337.788 92.62C337.828 92.5667 337.881 92.5267 337.948 92.5C338.015 92.46 338.101 92.44 338.208 92.44C338.288 92.44 338.361 92.46 338.428 92.5C338.508 92.5267 338.581 92.5667 338.648 92.62C338.688 92.7 338.721 92.7867 338.748 92.88C338.775 92.96 338.788 93.0533 338.788 93.16V98.66C338.788 98.78 338.775 98.8867 338.748 98.98C338.721 99.0733 338.688 99.14 338.648 99.18C338.581 99.2467 338.508 99.2933 338.428 99.32C338.361 99.3333 338.288 99.34 338.208 99.34C338.101 99.34 338.015 99.3333 337.948 99.32C337.881 99.2933 337.828 99.2467 337.788 99.18C337.748 99.14 337.715 99.0733 337.688 98.98C337.675 98.8867 337.668 98.78 337.668 98.66V96.68L334.388 97ZM337.488 101.42C337.488 101.34 337.475 101.273 337.448 101.22C337.435 101.167 337.408 101.12 337.368 101.08C337.315 101.053 337.255 101.033 337.188 101.02C337.135 100.993 337.068 100.98 336.988 100.98L331.028 101.92C330.908 101.96 330.801 101.98 330.708 101.98C330.615 101.967 330.548 101.94 330.508 101.9C330.441 101.873 330.395 101.833 330.368 101.78C330.341 101.713 330.328 101.633 330.328 101.54C330.328 101.46 330.335 101.387 330.348 101.32C330.375 101.253 330.421 101.187 330.488 101.12C330.528 101.08 330.595 101.04 330.688 101C330.781 100.96 330.888 100.92 331.008 100.88L336.968 99.94C337.221 99.9 337.448 99.9067 337.648 99.96C337.861 100 338.041 100.08 338.188 100.2C338.321 100.333 338.421 100.5 338.488 100.7C338.568 100.9 338.608 101.14 338.608 101.42V103.56C338.608 103.68 338.595 103.787 338.568 103.88C338.541 103.973 338.508 104.04 338.468 104.08C338.401 104.147 338.328 104.193 338.248 104.22C338.181 104.233 338.108 104.24 338.028 104.24C337.921 104.24 337.835 104.233 337.768 104.22C337.701 104.193 337.648 104.147 337.608 104.08C337.568 104.04 337.535 103.973 337.508 103.88C337.495 103.787 337.488 103.68 337.488 103.56V101.42ZM344.86 96.04C344.993 96.04 345.127 96.0333 345.26 96.02C345.393 96.0067 345.52 95.98 345.64 95.94C345.76 95.9133 345.873 95.8733 345.98 95.82C346.087 95.7533 346.193 95.68 346.3 95.6C346.38 95.5333 346.453 95.46 346.52 95.38C346.6 95.3 346.667 95.2067 346.72 95.1C346.76 95.02 346.793 94.9333 346.82 94.84C346.847 94.7467 346.86 94.64 346.86 94.52C346.86 94.4267 346.847 94.3333 346.82 94.24C346.807 94.1467 346.78 94.0533 346.74 93.96C346.7 93.88 346.653 93.8067 346.6 93.74C346.547 93.66 346.493 93.5867 346.44 93.52C346.36 93.48 346.273 93.44 346.18 93.4C346.087 93.3467 346 93.3 345.92 93.26C345.813 93.2467 345.707 93.2333 345.6 93.22C345.507 93.1933 345.4 93.18 345.28 93.18C345.133 93.18 345 93.1933 344.88 93.22C344.76 93.2333 344.653 93.26 344.56 93.3C344.44 93.3533 344.333 93.4133 344.24 93.48C344.147 93.5333 344.06 93.5933 343.98 93.66C343.873 93.7533 343.787 93.8467 343.72 93.94C343.667 94.0333 343.62 94.1267 343.58 94.22C343.54 94.34 343.507 94.4533 343.48 94.56C343.467 94.6667 343.46 94.7733 343.46 94.88C343.46 94.9733 343.46 95.06 343.46 95.14C343.473 95.22 343.5 95.2933 343.54 95.36C343.553 95.44 343.587 95.5133 343.64 95.58C343.693 95.6333 343.76 95.68 343.84 95.72C343.893 95.7867 343.953 95.84 344.02 95.88C344.1 95.92 344.187 95.9467 344.28 95.96C344.36 96 344.447 96.0267 344.54 96.04C344.633 96.04 344.74 96.04 344.86 96.04ZM348 94.5C348 94.6867 347.98 94.8667 347.94 95.04C347.9 95.2 347.84 95.3533 347.76 95.5C347.68 95.66 347.58 95.8133 347.46 95.96C347.353 96.0933 347.233 96.22 347.1 96.34C346.94 96.4733 346.773 96.5867 346.6 96.68C346.427 96.7733 346.253 96.8467 346.08 96.9C345.88 96.98 345.673 97.0333 345.46 97.06C345.26 97.0867 345.053 97.1 344.84 97.1C344.64 97.1 344.453 97.0933 344.28 97.08C344.12 97.0533 343.973 97.0067 343.84 96.94C343.68 96.9 343.533 96.8467 343.4 96.78C343.267 96.7 343.147 96.6 343.04 96.48C342.92 96.3867 342.813 96.2867 342.72 96.18C342.627 96.06 342.553 95.9267 342.5 95.78C342.433 95.66 342.387 95.5267 342.36 95.38C342.333 95.2333 342.32 95.0733 342.32 94.9C342.32 94.7 342.333 94.5133 342.36 94.34C342.4 94.1533 342.46 93.98 342.54 93.82C342.593 93.66 342.673 93.5133 342.78 93.38C342.887 93.2333 343.02 93.0867 343.18 92.94C343.3 92.82 343.44 92.7133 343.6 92.62C343.76 92.5133 343.933 92.42 344.12 92.34C344.28 92.2733 344.46 92.22 344.66 92.18C344.86 92.14 345.073 92.12 345.3 92.12C345.5 92.12 345.693 92.14 345.88 92.18C346.067 92.2067 346.247 92.24 346.42 92.28C346.58 92.3467 346.727 92.42 346.86 92.5C347.007 92.58 347.14 92.6667 347.26 92.76C347.38 92.88 347.48 93.0067 347.56 93.14C347.653 93.26 347.74 93.3867 347.82 93.52C347.873 93.68 347.913 93.84 347.94 94C347.98 94.16 348 94.3267 348 94.5ZM340.84 100C340.733 100.027 340.647 100.033 340.58 100.02C340.527 100.007 340.48 99.9733 340.44 99.92C340.387 99.88 340.347 99.8333 340.32 99.78C340.307 99.7133 340.3 99.6333 340.3 99.54C340.3 99.46 340.307 99.3867 340.32 99.32C340.347 99.2533 340.387 99.1933 340.44 99.14C340.48 99.1 340.527 99.0667 340.58 99.04C340.647 99.0133 340.727 98.9867 340.82 98.96L349.66 98.46C349.74 98.46 349.813 98.4667 349.88 98.48C349.947 98.4933 350.007 98.52 350.06 98.56C350.1 98.6133 350.133 98.6733 350.16 98.74C350.187 98.8067 350.2 98.88 350.2 98.96C350.2 99.0533 350.187 99.1333 350.16 99.2C350.133 99.2667 350.1 99.32 350.06 99.36C350.007 99.4133 349.947 99.4533 349.88 99.48C349.827 99.4933 349.76 99.5 349.68 99.5L340.84 100ZM343.48 101.28C343.453 101.44 343.44 101.6 343.44 101.76C343.44 101.92 343.447 102.073 343.46 102.22C343.46 102.38 343.46 102.527 343.46 102.66C343.46 102.793 343.467 102.92 343.48 103.04C343.48 103.12 343.487 103.187 343.5 103.24C343.527 103.293 343.56 103.333 343.6 103.36C343.627 103.4 343.68 103.433 343.76 103.46C343.84 103.473 343.94 103.473 344.06 103.46C344.14 103.46 344.22 103.46 344.3 103.46C344.38 103.46 344.467 103.453 344.56 103.44C344.653 103.44 344.747 103.433 344.84 103.42C344.933 103.407 345.033 103.393 345.14 103.38C345.233 103.38 345.327 103.373 345.42 103.36C345.513 103.347 345.613 103.333 345.72 103.32C345.813 103.307 345.907 103.293 346 103.28C346.107 103.267 346.213 103.247 346.32 103.22C346.52 103.207 346.72 103.18 346.92 103.14C347.133 103.1 347.34 103.06 347.54 103.02C347.727 102.993 347.907 102.967 348.08 102.94C348.267 102.9 348.44 102.86 348.6 102.82C348.68 102.82 348.747 102.827 348.8 102.84C348.867 102.853 348.933 102.88 349 102.92C349.04 102.973 349.08 103.027 349.12 103.08C349.16 103.133 349.193 103.187 349.22 103.24C349.22 103.32 349.22 103.393 349.22 103.46C349.22 103.513 349.213 103.567 349.2 103.62C349.16 103.7 349.113 103.76 349.06 103.8C349.02 103.84 348.973 103.867 348.92 103.88C348.733 103.947 348.54 104 348.34 104.04C348.14 104.08 347.933 104.12 347.72 104.16C347.48 104.2 347.247 104.24 347.02 104.28C346.793 104.32 346.56 104.353 346.32 104.38C346.067 104.42 345.82 104.453 345.58 104.48C345.34 104.507 345.107 104.52 344.88 104.52C344.64 104.547 344.407 104.567 344.18 104.58C343.967 104.58 343.773 104.58 343.6 104.58C343.413 104.58 343.247 104.56 343.1 104.52C342.953 104.48 342.827 104.407 342.72 104.3C342.6 104.22 342.507 104.113 342.44 103.98C342.373 103.847 342.34 103.687 342.34 103.5C342.313 103.327 342.293 103.147 342.28 102.96C342.28 102.773 342.287 102.58 342.3 102.38C342.3 102.193 342.3 102.007 342.3 101.82C342.3 101.633 342.313 101.447 342.34 101.26C342.34 101.18 342.353 101.107 342.38 101.04C342.407 100.973 342.46 100.913 342.54 100.86C342.593 100.82 342.653 100.787 342.72 100.76C342.787 100.733 342.86 100.72 342.94 100.72C342.993 100.72 343.053 100.733 343.12 100.76C343.187 100.787 343.253 100.82 343.32 100.86C343.36 100.927 343.393 100.993 343.42 101.06C343.46 101.127 343.48 101.2 343.48 101.28ZM354.231 102.96C354.231 103.067 354.197 103.18 354.131 103.3C354.064 103.42 353.977 103.54 353.871 103.66C353.751 103.807 353.611 103.913 353.451 103.98C353.304 104.033 353.137 104.06 352.951 104.06C352.657 104.06 352.437 104.013 352.291 103.92C352.157 103.813 352.091 103.653 352.091 103.44C352.091 103.32 352.124 103.2 352.191 103.08C352.257 102.947 352.371 102.813 352.531 102.68C352.651 102.573 352.791 102.487 352.951 102.42C353.124 102.353 353.311 102.32 353.511 102.32C353.737 102.32 353.911 102.38 354.031 102.5C354.164 102.607 354.231 102.76 354.231 102.96ZM355.051 95C355.051 94.5067 354.937 94.1333 354.711 93.88C354.484 93.6267 354.151 93.5 353.711 93.5C353.444 93.5 353.177 93.6 352.911 93.8C352.644 94 352.377 94.3 352.111 94.7C352.017 94.82 351.911 94.8933 351.791 94.92C351.684 94.9333 351.571 94.8867 351.451 94.78C351.304 94.7 351.224 94.5933 351.211 94.46C351.197 94.3267 351.257 94.16 351.391 93.96C351.684 93.4667 352.024 93.0933 352.411 92.84C352.797 92.5733 353.231 92.44 353.711 92.44C354.524 92.44 355.137 92.66 355.551 93.1C355.977 93.5267 356.191 94.16 356.191 95C356.191 95.4 356.057 95.78 355.791 96.14C355.524 96.4867 355.144 96.82 354.651 97.14C354.131 97.46 353.751 97.8 353.511 98.16C353.271 98.5067 353.151 98.86 353.151 99.22C353.151 99.34 353.171 99.4733 353.211 99.62C353.264 99.7667 353.357 99.92 353.491 100.08C353.597 100.24 353.651 100.38 353.651 100.5C353.651 100.62 353.591 100.72 353.471 100.8C353.311 100.92 353.157 100.967 353.011 100.94C352.864 100.913 352.724 100.82 352.591 100.66C352.391 100.447 352.244 100.227 352.151 100C352.057 99.76 352.011 99.5 352.011 99.22C352.011 98.6867 352.137 98.2067 352.391 97.78C352.644 97.3533 353.031 96.98 353.551 96.66C354.044 96.3533 354.417 96.06 354.671 95.78C354.924 95.5 355.051 95.24 355.051 95Z" fill="black"/>
<rect x="288" y="334" width="87" height="44" rx="5" fill="white"/>
<path d="M386.393 367.441C387.274 367.123 387.274 365.877 386.393 365.559L372.339 360.488C371.688 360.253 371 360.736 371 361.429V371.571C371 372.264 371.688 372.747 372.339 372.512L386.393 367.441Z" fill="white"/>
<path d="M304.56 351.74C304.467 351.74 304.387 351.733 304.32 351.72C304.267 351.693 304.22 351.653 304.18 351.6C304.14 351.56 304.107 351.513 304.08 351.46C304.067 351.393 304.06 351.313 304.06 351.22C304.06 351.14 304.067 351.067 304.08 351C304.107 350.933 304.14 350.873 304.18 350.82C304.22 350.78 304.267 350.747 304.32 350.72C304.387 350.693 304.467 350.68 304.56 350.68H307.56C307.92 350.68 308.233 350.72 308.5 350.8C308.767 350.867 309 350.96 309.2 351.08C309.373 351.227 309.507 351.4 309.6 351.6C309.693 351.8 309.74 352.027 309.74 352.28C309.74 352.413 309.72 352.54 309.68 352.66C309.653 352.767 309.607 352.873 309.54 352.98L312.06 353.76C312.18 353.8 312.28 353.847 312.36 353.9C312.44 353.953 312.507 354.007 312.56 354.06C312.6 354.14 312.627 354.22 312.64 354.3C312.653 354.38 312.653 354.46 312.64 354.54C312.613 354.633 312.573 354.707 312.52 354.76C312.48 354.813 312.427 354.847 312.36 354.86C312.28 354.9 312.187 354.913 312.08 354.9C311.987 354.887 311.88 354.853 311.76 354.8L308.68 353.82C308.573 353.9 308.46 353.973 308.34 354.04C308.233 354.093 308.12 354.147 308 354.2L306.02 355.14C305.9 355.207 305.787 355.253 305.68 355.28C305.587 355.293 305.5 355.287 305.42 355.26C305.34 355.26 305.267 355.233 305.2 355.18C305.147 355.127 305.113 355.06 305.1 354.98C305.06 354.9 305.04 354.82 305.04 354.74C305.04 354.66 305.06 354.58 305.1 354.5C305.127 354.433 305.18 354.373 305.26 354.32C305.34 354.253 305.44 354.187 305.56 354.12L307.72 353.14C307.853 353.087 307.973 353.027 308.08 352.96C308.2 352.893 308.3 352.82 308.38 352.74C308.46 352.673 308.52 352.6 308.56 352.52C308.6 352.44 308.62 352.36 308.62 352.28C308.62 352.2 308.593 352.127 308.54 352.06C308.5 351.993 308.44 351.933 308.36 351.88C308.253 351.84 308.133 351.807 308 351.78C307.867 351.753 307.72 351.74 307.56 351.74H304.56ZM308.18 356.86V355.44C308.18 355.333 308.187 355.24 308.2 355.16C308.227 355.067 308.267 354.98 308.32 354.9C308.36 354.847 308.413 354.807 308.48 354.78C308.547 354.74 308.633 354.72 308.74 354.72C308.82 354.72 308.893 354.74 308.96 354.78C309.027 354.807 309.093 354.847 309.16 354.9C309.2 354.98 309.233 355.067 309.26 355.16C309.3 355.24 309.32 355.333 309.32 355.44V356.8L313.5 356.56C313.58 356.56 313.653 356.567 313.72 356.58C313.787 356.593 313.847 356.62 313.9 356.66C313.94 356.713 313.973 356.773 314 356.84C314.027 356.907 314.04 356.98 314.04 357.06C314.04 357.153 314.027 357.233 314 357.3C313.973 357.367 313.94 357.42 313.9 357.46C313.847 357.513 313.787 357.553 313.72 357.58C313.667 357.593 313.6 357.6 313.52 357.6L304.68 358.1C304.573 358.127 304.487 358.133 304.42 358.12C304.367 358.107 304.32 358.073 304.28 358.02C304.227 357.98 304.187 357.927 304.16 357.86C304.147 357.793 304.14 357.713 304.14 357.62C304.14 357.54 304.147 357.467 304.16 357.4C304.187 357.333 304.227 357.273 304.28 357.22C304.32 357.18 304.367 357.153 304.42 357.14C304.487 357.113 304.567 357.087 304.66 357.06L308.18 356.86ZM307.58 359.82C307.473 359.847 307.387 359.853 307.32 359.84C307.267 359.827 307.22 359.793 307.18 359.74C307.127 359.7 307.087 359.653 307.06 359.6C307.047 359.533 307.04 359.453 307.04 359.36C307.04 359.28 307.047 359.213 307.06 359.16C307.087 359.093 307.127 359.04 307.18 359C307.22 358.96 307.267 358.933 307.32 358.92C307.387 358.893 307.467 358.873 307.56 358.86L311.86 358.58C311.94 358.58 312.013 358.593 312.08 358.62C312.147 358.633 312.207 358.66 312.26 358.7C312.3 358.753 312.333 358.813 312.36 358.88C312.387 358.933 312.4 359 312.4 359.08C312.4 359.16 312.387 359.233 312.36 359.3C312.333 359.353 312.3 359.4 312.26 359.44C312.207 359.48 312.147 359.513 312.08 359.54C312.027 359.553 311.96 359.56 311.88 359.56L307.58 359.82ZM312.26 363.66C312.26 363.54 312.227 363.433 312.16 363.34C312.107 363.247 312.033 363.16 311.94 363.08C311.82 363.027 311.673 362.98 311.5 362.94C311.34 362.9 311.16 362.88 310.96 362.88C310.72 362.88 310.5 362.893 310.3 362.92C310.113 362.933 309.94 362.947 309.78 362.96C309.607 363 309.453 363.047 309.32 363.1C309.187 363.14 309.073 363.187 308.98 363.24C308.86 363.307 308.76 363.373 308.68 363.44C308.6 363.507 308.54 363.567 308.5 363.62C308.447 363.7 308.407 363.78 308.38 363.86C308.367 363.927 308.36 364 308.36 364.08C308.36 364.227 308.387 364.353 308.44 364.46C308.493 364.567 308.58 364.647 308.7 364.7C308.807 364.78 308.947 364.833 309.12 364.86C309.307 364.887 309.52 364.9 309.76 364.9C309.947 364.9 310.127 364.893 310.3 364.88C310.473 364.867 310.64 364.84 310.8 364.8C310.947 364.787 311.087 364.753 311.22 364.7C311.353 364.66 311.48 364.6 311.6 364.52C311.693 364.467 311.78 364.4 311.86 364.32C311.953 364.253 312.033 364.18 312.1 364.1C312.14 364.047 312.173 363.98 312.2 363.9C312.24 363.82 312.26 363.74 312.26 363.66ZM309.76 365.96C309.32 365.96 308.94 365.92 308.62 365.84C308.313 365.773 308.06 365.66 307.86 365.5C307.647 365.353 307.487 365.16 307.38 364.92C307.287 364.68 307.24 364.4 307.24 364.08C307.24 363.92 307.26 363.767 307.3 363.62C307.34 363.473 307.4 363.327 307.48 363.18C307.56 363.06 307.66 362.94 307.78 362.82C307.9 362.7 308.04 362.58 308.2 362.46C308.36 362.367 308.533 362.28 308.72 362.2C308.92 362.12 309.14 362.047 309.38 361.98C309.593 361.94 309.833 361.907 310.1 361.88C310.367 361.84 310.653 361.82 310.96 361.82C311.36 361.82 311.707 361.86 312 361.94C312.307 362.02 312.567 362.133 312.78 362.28C312.98 362.44 313.133 362.64 313.24 362.88C313.347 363.107 313.4 363.367 313.4 363.66C313.4 363.82 313.38 363.973 313.34 364.12C313.3 364.267 313.24 364.4 313.16 364.52C313.067 364.667 312.96 364.8 312.84 364.92C312.72 365.04 312.58 365.153 312.42 365.26C312.26 365.38 312.08 365.487 311.88 365.58C311.693 365.673 311.493 365.74 311.28 365.78C311.04 365.847 310.793 365.893 310.54 365.92C310.3 365.947 310.04 365.96 309.76 365.96ZM306.36 361.52C306.253 361.547 306.167 361.553 306.1 361.54C306.047 361.527 306 361.5 305.96 361.46C305.907 361.42 305.867 361.373 305.84 361.32C305.827 361.253 305.82 361.18 305.82 361.1C305.82 361.02 305.827 360.953 305.84 360.9C305.867 360.833 305.907 360.773 305.96 360.72C306 360.68 306.047 360.647 306.1 360.62C306.167 360.593 306.247 360.573 306.34 360.56L313.52 360.14C313.6 360.14 313.673 360.147 313.74 360.16C313.807 360.173 313.873 360.2 313.94 360.24C313.98 360.28 314.013 360.333 314.04 360.4C314.067 360.453 314.08 360.52 314.08 360.6C314.08 360.68 314.067 360.753 314.04 360.82C314.013 360.887 313.98 360.94 313.94 360.98C313.873 361.033 313.807 361.073 313.74 361.1C313.687 361.113 313.62 361.12 313.54 361.12L306.36 361.52ZM319.571 357.2C319.571 357.107 319.557 357.007 319.531 356.9C319.517 356.793 319.504 356.68 319.491 356.56C319.464 356.52 319.437 356.473 319.411 356.42C319.397 356.367 319.377 356.313 319.351 356.26C319.337 356.207 319.317 356.153 319.291 356.1C319.264 356.047 319.244 355.993 319.231 355.94C319.164 355.86 319.091 355.787 319.011 355.72C318.931 355.653 318.844 355.587 318.751 355.52C318.644 355.48 318.531 355.447 318.411 355.42C318.304 355.38 318.191 355.36 318.071 355.36C317.924 355.36 317.791 355.38 317.671 355.42C317.551 355.46 317.431 355.507 317.311 355.56C317.177 355.64 317.051 355.727 316.931 355.82C316.824 355.913 316.724 356.02 316.631 356.14C316.511 356.287 316.411 356.433 316.331 356.58C316.251 356.713 316.191 356.86 316.151 357.02C316.084 357.18 316.037 357.353 316.011 357.54C315.997 357.713 315.991 357.893 315.991 358.08C315.991 358.227 315.991 358.36 315.991 358.48C316.004 358.587 316.031 358.687 316.071 358.78C316.084 358.887 316.117 358.98 316.171 359.06C316.224 359.14 316.291 359.207 316.371 359.26C316.424 359.34 316.484 359.407 316.551 359.46C316.631 359.513 316.711 359.547 316.791 359.56C316.871 359.6 316.951 359.627 317.031 359.64C317.124 359.64 317.224 359.64 317.331 359.64C317.451 359.64 317.577 359.627 317.711 359.6C317.844 359.573 317.977 359.527 318.111 359.46C318.231 359.42 318.351 359.353 318.471 359.26C318.604 359.167 318.731 359.053 318.851 358.92C318.971 358.8 319.071 358.68 319.151 358.56C319.244 358.427 319.324 358.28 319.391 358.12C319.444 357.987 319.484 357.847 319.511 357.7C319.551 357.54 319.571 357.373 319.571 357.2ZM317.331 360.7C317.131 360.7 316.944 360.687 316.771 360.66C316.597 360.633 316.444 360.587 316.311 360.52C316.151 360.48 316.004 360.413 315.871 360.32C315.737 360.227 315.624 360.12 315.531 360C315.411 359.88 315.304 359.753 315.211 359.62C315.131 359.473 315.071 359.32 315.031 359.16C314.964 359 314.917 358.833 314.891 358.66C314.877 358.473 314.871 358.28 314.871 358.08C314.871 357.8 314.891 357.54 314.931 357.3C314.971 357.047 315.031 356.8 315.111 356.56C315.191 356.347 315.291 356.14 315.411 355.94C315.531 355.74 315.671 355.547 315.831 355.36C315.991 355.2 316.151 355.06 316.311 354.94C316.484 354.807 316.671 354.687 316.871 354.58C317.044 354.5 317.231 354.433 317.431 354.38C317.631 354.327 317.844 354.3 318.071 354.3C318.271 354.3 318.457 354.32 318.631 354.36C318.817 354.4 318.991 354.453 319.151 354.52C319.311 354.6 319.457 354.7 319.591 354.82C319.737 354.927 319.871 355.047 319.991 355.18C320.084 355.34 320.171 355.5 320.251 355.66C320.344 355.807 320.431 355.96 320.511 356.12C320.564 356.293 320.604 356.473 320.631 356.66C320.671 356.833 320.691 357.013 320.691 357.2C320.691 357.44 320.664 357.667 320.611 357.88C320.571 358.093 320.511 358.3 320.431 358.5C320.324 358.7 320.211 358.9 320.091 359.1C319.971 359.287 319.831 359.467 319.671 359.64C319.484 359.827 319.297 359.987 319.111 360.12C318.937 360.253 318.757 360.36 318.571 360.44C318.371 360.533 318.164 360.6 317.951 360.64C317.751 360.68 317.544 360.7 317.331 360.7ZM323.671 356.7H326.091C326.171 356.7 326.244 356.713 326.311 356.74C326.377 356.767 326.444 356.8 326.511 356.84C326.551 356.907 326.584 356.973 326.611 357.04C326.637 357.107 326.651 357.18 326.651 357.26C326.651 357.353 326.637 357.433 326.611 357.5C326.584 357.553 326.551 357.6 326.511 357.64C326.444 357.68 326.377 357.713 326.311 357.74C326.244 357.753 326.171 357.76 326.091 357.76H323.751L323.991 361.52C323.991 361.64 323.977 361.747 323.951 361.84C323.937 361.933 323.911 362 323.871 362.04C323.817 362.107 323.751 362.153 323.671 362.18C323.604 362.207 323.531 362.22 323.451 362.22C323.357 362.22 323.277 362.213 323.211 362.2C323.144 362.173 323.091 362.127 323.051 362.06C322.984 362.02 322.937 361.953 322.911 361.86C322.884 361.767 322.871 361.66 322.871 361.54L322.371 353.56C322.344 353.453 322.337 353.36 322.351 353.28C322.364 353.187 322.397 353.1 322.451 353.02C322.491 352.967 322.544 352.927 322.611 352.9C322.677 352.86 322.764 352.84 322.871 352.84C322.951 352.84 323.024 352.86 323.091 352.9C323.157 352.927 323.224 352.967 323.291 353.02C323.331 353.1 323.364 353.187 323.391 353.28C323.431 353.36 323.457 353.447 323.471 353.54L323.671 356.7ZM331.453 354.7C331.613 354.7 331.766 354.693 331.913 354.68C332.06 354.667 332.206 354.64 332.353 354.6C332.473 354.573 332.6 354.533 332.733 354.48C332.866 354.413 332.993 354.34 333.113 354.26C333.206 354.193 333.293 354.12 333.373 354.04C333.466 353.96 333.546 353.867 333.613 353.76C333.653 353.68 333.686 353.593 333.713 353.5C333.753 353.407 333.773 353.3 333.773 353.18C333.773 353.087 333.76 352.993 333.733 352.9C333.72 352.807 333.693 352.713 333.653 352.62C333.6 352.54 333.54 352.467 333.473 352.4C333.42 352.32 333.353 352.247 333.273 352.18C333.18 352.14 333.08 352.1 332.973 352.06C332.88 352.007 332.78 351.96 332.673 351.92C332.553 351.907 332.426 351.893 332.293 351.88C332.173 351.853 332.046 351.84 331.913 351.84C331.753 351.84 331.606 351.853 331.473 351.88C331.353 351.893 331.233 351.92 331.113 351.96C330.98 352.013 330.853 352.073 330.733 352.14C330.626 352.193 330.526 352.253 330.433 352.32C330.313 352.413 330.213 352.507 330.133 352.6C330.066 352.693 330.013 352.787 329.973 352.88C329.92 353 329.88 353.113 329.853 353.22C329.84 353.327 329.833 353.433 329.833 353.54C329.833 353.633 329.84 353.72 329.853 353.8C329.866 353.88 329.893 353.953 329.933 354.02C329.96 354.1 330 354.173 330.053 354.24C330.12 354.293 330.193 354.34 330.273 354.38C330.34 354.447 330.413 354.5 330.493 354.54C330.586 354.58 330.686 354.607 330.793 354.62C330.886 354.66 330.986 354.687 331.093 354.7C331.213 354.7 331.333 354.7 331.453 354.7ZM334.893 353.16C334.893 353.347 334.873 353.527 334.833 353.7C334.793 353.86 334.733 354.013 334.653 354.16C334.573 354.307 334.473 354.447 334.353 354.58C334.246 354.7 334.133 354.82 334.013 354.94C334.053 355.007 334.08 355.08 334.093 355.16C334.12 355.24 334.133 355.327 334.133 355.42V357.24L336.293 357.12C336.373 357.12 336.446 357.127 336.513 357.14C336.58 357.153 336.64 357.18 336.693 357.22C336.733 357.273 336.766 357.333 336.793 357.4C336.82 357.467 336.833 357.54 336.833 357.62C336.833 357.713 336.82 357.793 336.793 357.86C336.766 357.927 336.733 357.98 336.693 358.02C336.64 358.073 336.58 358.113 336.513 358.14C336.46 358.153 336.393 358.16 336.313 358.16L327.473 358.66C327.366 358.687 327.28 358.693 327.213 358.68C327.16 358.667 327.113 358.633 327.073 358.58C327.02 358.54 326.98 358.493 326.953 358.44C326.94 358.373 326.933 358.293 326.933 358.2C326.933 358.12 326.94 358.047 326.953 357.98C326.98 357.913 327.02 357.853 327.073 357.8C327.113 357.76 327.16 357.727 327.213 357.7C327.28 357.673 327.36 357.647 327.453 357.62L329.633 357.5V355.6C329.633 355.56 329.633 355.513 329.633 355.46C329.633 355.393 329.646 355.34 329.673 355.3C329.633 355.287 329.593 355.267 329.553 355.24C329.526 355.213 329.5 355.18 329.473 355.14C329.326 355.047 329.2 354.947 329.093 354.84C329 354.72 328.926 354.587 328.873 354.44C328.806 354.32 328.76 354.187 328.733 354.04C328.706 353.893 328.693 353.733 328.693 353.56C328.693 353.36 328.706 353.173 328.733 353C328.773 352.813 328.833 352.64 328.913 352.48C328.98 352.32 329.073 352.173 329.193 352.04C329.313 351.893 329.453 351.747 329.613 351.6C329.76 351.48 329.92 351.373 330.093 351.28C330.266 351.173 330.453 351.08 330.653 351C330.826 350.933 331.02 350.88 331.233 350.84C331.46 350.8 331.693 350.78 331.933 350.78C332.146 350.78 332.353 350.8 332.553 350.84C332.766 350.867 332.966 350.9 333.153 350.94C333.326 351.007 333.486 351.08 333.633 351.16C333.793 351.24 333.946 351.327 334.093 351.42C334.213 351.54 334.32 351.667 334.413 351.8C334.52 351.92 334.613 352.047 334.693 352.18C334.746 352.34 334.793 352.5 334.833 352.66C334.873 352.82 334.893 352.987 334.893 353.16ZM332.993 355.5L332.813 355.56C332.6 355.64 332.38 355.693 332.153 355.72C331.926 355.747 331.693 355.76 331.453 355.76C331.333 355.76 331.213 355.76 331.093 355.76C330.973 355.747 330.866 355.733 330.773 355.72V357.44L332.993 357.32V355.5ZM334.113 361.94C334.113 361.9 334.106 361.867 334.093 361.84C334.093 361.8 334.086 361.76 334.073 361.72C334.073 361.68 334.066 361.64 334.053 361.6C334.04 361.56 334.033 361.52 334.033 361.48C334.006 361.453 333.98 361.427 333.953 361.4C333.94 361.36 333.92 361.327 333.893 361.3C333.88 361.273 333.86 361.247 333.833 361.22C333.806 361.18 333.786 361.14 333.773 361.1C333.706 361.06 333.633 361.02 333.553 360.98C333.473 360.94 333.386 360.9 333.293 360.86C333.173 360.847 333.053 360.833 332.933 360.82C332.813 360.793 332.686 360.78 332.553 360.78C332.393 360.78 332.24 360.793 332.093 360.82C331.96 360.833 331.84 360.853 331.733 360.88C331.613 360.92 331.5 360.967 331.393 361.02C331.3 361.073 331.22 361.127 331.153 361.18C331.073 361.26 331 361.34 330.933 361.42C330.88 361.5 330.84 361.58 330.813 361.66C330.773 361.753 330.74 361.847 330.713 361.94C330.7 362.02 330.693 362.1 330.693 362.18C330.693 362.287 330.693 362.38 330.693 362.46C330.706 362.527 330.733 362.587 330.773 362.64C330.786 362.72 330.813 362.787 330.853 362.84C330.906 362.88 330.973 362.92 331.053 362.96C331.106 363.027 331.166 363.08 331.233 363.12C331.313 363.147 331.406 363.16 331.513 363.16C331.593 363.187 331.686 363.207 331.793 363.22C331.9 363.22 332.013 363.22 332.133 363.22C332.266 363.22 332.4 363.22 332.533 363.22C332.68 363.207 332.813 363.18 332.933 363.14C333.053 363.127 333.16 363.093 333.253 363.04C333.36 362.987 333.466 362.92 333.573 362.84C333.653 362.787 333.72 362.727 333.773 362.66C333.84 362.58 333.906 362.5 333.973 362.42C334.013 362.353 334.046 362.28 334.073 362.2C334.1 362.12 334.113 362.033 334.113 361.94ZM332.133 364.28C331.906 364.28 331.7 364.267 331.513 364.24C331.34 364.227 331.18 364.193 331.033 364.14C330.873 364.1 330.72 364.047 330.573 363.98C330.44 363.913 330.326 363.827 330.233 363.72C330.113 363.64 330.006 363.547 329.913 363.44C329.833 363.333 329.773 363.207 329.733 363.06C329.666 362.94 329.62 362.807 329.593 362.66C329.58 362.513 329.573 362.353 329.573 362.18C329.573 362.02 329.586 361.867 329.613 361.72C329.64 361.56 329.693 361.4 329.773 361.24C329.826 361.107 329.9 360.973 329.993 360.84C330.086 360.693 330.206 360.56 330.353 360.44C330.473 360.333 330.606 360.24 330.753 360.16C330.9 360.067 331.073 359.98 331.273 359.9C331.446 359.847 331.64 359.807 331.853 359.78C332.08 359.74 332.313 359.72 332.553 359.72C332.753 359.72 332.94 359.74 333.113 359.78C333.3 359.807 333.48 359.84 333.653 359.88C333.813 359.947 333.96 360.02 334.093 360.1C334.24 360.167 334.373 360.24 334.493 360.32C334.613 360.427 334.713 360.54 334.793 360.66C334.886 360.78 334.973 360.9 335.053 361.02C335.106 361.167 335.146 361.32 335.173 361.48C335.213 361.627 335.233 361.78 335.233 361.94C335.233 362.127 335.213 362.3 335.173 362.46C335.133 362.62 335.073 362.767 334.993 362.9C334.913 363.047 334.813 363.187 334.693 363.32C334.586 363.44 334.466 363.547 334.333 363.64C334.173 363.76 334.006 363.86 333.833 363.94C333.66 364.02 333.493 364.08 333.333 364.12C333.146 364.187 332.953 364.227 332.753 364.24C332.553 364.267 332.346 364.28 332.133 364.28Z" fill="black"/>
<rect x="31" y="692" width="339" height="39" rx="17" fill="white"/>
<path d="M340 720.4H360V700.4H340V720.4Z" fill="black"/>
<path d="M47.28 157.98C47.1867 157.98 47.1067 157.973 47.04 157.96C46.9867 157.933 46.94 157.893 46.9 157.84C46.8467 157.8 46.8067 157.753 46.78 157.7C46.7667 157.633 46.76 157.553 46.76 157.46C46.76 157.38 46.7667 157.307 46.78 157.24C46.8067 157.173 46.8467 157.113 46.9 157.06C46.94 157.02 46.9867 156.987 47.04 156.96C47.1067 156.933 47.1867 156.92 47.28 156.92H50.9C50.98 156.92 51.0533 156.933 51.12 156.96C51.1867 156.987 51.2533 157.02 51.32 157.06C51.36 157.113 51.3933 157.173 51.42 157.24C51.4467 157.307 51.46 157.38 51.46 157.46C51.46 157.553 51.4467 157.633 51.42 157.7C51.3933 157.753 51.36 157.8 51.32 157.84C51.2533 157.893 51.1867 157.933 51.12 157.96C51.0533 157.973 50.98 157.98 50.9 157.98H47.28ZM46.96 160.74C46.8533 160.767 46.76 160.773 46.68 160.76C46.6 160.747 46.5333 160.713 46.48 160.66C46.4133 160.62 46.36 160.573 46.32 160.52C46.28 160.467 46.26 160.4 46.26 160.32C46.2467 160.267 46.2467 160.207 46.26 160.14C46.2867 160.073 46.3267 160 46.38 159.92C46.42 159.867 46.4733 159.82 46.54 159.78C46.62 159.727 46.72 159.687 46.84 159.66C47 159.647 47.1467 159.633 47.28 159.62C47.4267 159.593 47.5733 159.567 47.72 159.54C47.84 159.527 47.96 159.513 48.08 159.5C48.2133 159.473 48.3467 159.447 48.48 159.42C48.6 159.407 48.72 159.393 48.84 159.38C48.9733 159.353 49.1133 159.327 49.26 159.3C49.3133 159.3 49.3733 159.3 49.44 159.3C49.52 159.287 49.6 159.273 49.68 159.26C49.7467 159.26 49.82 159.253 49.9 159.24C49.98 159.227 50.0667 159.213 50.16 159.2C50.4933 159.173 50.7867 159.18 51.04 159.22C51.2933 159.247 51.5 159.307 51.66 159.4C51.7933 159.507 51.9 159.627 51.98 159.76C52.06 159.893 52.1133 160.04 52.14 160.2C52.14 160.373 52.1133 160.553 52.06 160.74C52.02 160.913 51.9533 161.087 51.86 161.26C51.74 161.46 51.6133 161.647 51.48 161.82C51.36 161.98 51.22 162.127 51.06 162.26C51.0333 162.287 51.0067 162.313 50.98 162.34C50.9667 162.353 50.9533 162.367 50.94 162.38C50.9133 162.393 50.8867 162.413 50.86 162.44C50.8467 162.453 50.8333 162.467 50.82 162.48L52.82 163.96C52.9 164.027 52.96 164.093 53 164.16C53.04 164.227 53.0667 164.293 53.08 164.36C53.08 164.44 53.0733 164.52 53.06 164.6C53.0467 164.667 53.02 164.72 52.98 164.76C52.94 164.827 52.8933 164.88 52.84 164.92C52.7867 164.96 52.7267 164.98 52.66 164.98C52.58 165.007 52.5 165.007 52.42 164.98C52.3533 164.953 52.28 164.907 52.2 164.84L50 163.2C49.96 163.24 49.9133 163.273 49.86 163.3C49.82 163.327 49.78 163.36 49.74 163.4C49.7 163.427 49.66 163.46 49.62 163.5C49.58 163.527 49.54 163.553 49.5 163.58C49.22 163.82 48.94 164.04 48.66 164.24C48.38 164.44 48.1 164.627 47.82 164.8C47.7267 164.867 47.64 164.913 47.56 164.94C47.48 164.953 47.4067 164.947 47.34 164.92C47.26 164.92 47.1867 164.907 47.12 164.88C47.0667 164.84 47.02 164.787 46.98 164.72C46.94 164.68 46.9067 164.627 46.88 164.56C46.8667 164.493 46.8667 164.42 46.88 164.34C46.88 164.287 46.9 164.227 46.94 164.16C46.9933 164.093 47.06 164.027 47.14 163.96C47.4333 163.76 47.72 163.56 48 163.36C48.28 163.16 48.56 162.96 48.84 162.76C49.0933 162.56 49.3467 162.353 49.6 162.14C49.8667 161.913 50.1333 161.68 50.4 161.44C50.5867 161.267 50.7267 161.107 50.82 160.96C50.9267 160.8 50.98 160.653 50.98 160.52C50.9667 160.4 50.9067 160.32 50.8 160.28C50.6933 160.227 50.54 160.207 50.34 160.22C50.06 160.26 49.7867 160.3 49.52 160.34C49.2533 160.38 48.9933 160.413 48.74 160.44C48.46 160.48 48.1733 160.527 47.88 160.58C47.5867 160.633 47.28 160.687 46.96 160.74ZM55.1 157.4C55.1 157.293 55.1067 157.2 55.12 157.12C55.1467 157.027 55.18 156.94 55.22 156.86C55.26 156.807 55.3133 156.767 55.38 156.74C55.4467 156.7 55.5333 156.68 55.64 156.68C55.72 156.68 55.7933 156.7 55.86 156.74C55.94 156.767 56.0133 156.807 56.08 156.86C56.12 156.94 56.1533 157.027 56.18 157.12C56.2067 157.2 56.22 157.293 56.22 157.4V165.88C56.22 166 56.2067 166.107 56.18 166.2C56.1533 166.293 56.12 166.36 56.08 166.4C56.0133 166.467 55.94 166.513 55.86 166.54C55.7933 166.553 55.72 166.56 55.64 166.56C55.5333 166.56 55.4467 166.553 55.38 166.54C55.3133 166.513 55.26 166.467 55.22 166.4C55.18 166.36 55.1467 166.293 55.12 166.2C55.1067 166.107 55.1 166 55.1 165.88V157.4ZM62.5016 158.66C62.5016 158.5 62.4749 158.36 62.4216 158.24C62.3682 158.107 62.2949 157.993 62.2016 157.9C62.0949 157.82 61.9682 157.76 61.8216 157.72C61.6749 157.667 61.5082 157.64 61.3216 157.64H58.9416C58.8216 157.64 58.7149 157.633 58.6216 157.62C58.5282 157.593 58.4616 157.553 58.4216 157.5C58.3549 157.46 58.3082 157.413 58.2816 157.36C58.2682 157.293 58.2616 157.213 58.2616 157.12C58.2616 157.04 58.2682 156.967 58.2816 156.9C58.3082 156.833 58.3549 156.773 58.4216 156.72C58.4616 156.68 58.5282 156.647 58.6216 156.62C58.7149 156.593 58.8216 156.58 58.9416 156.58H61.3216C61.6949 156.58 62.0216 156.627 62.3016 156.72C62.5949 156.813 62.8416 156.94 63.0416 157.1C63.2282 157.287 63.3682 157.513 63.4616 157.78C63.5682 158.033 63.6216 158.327 63.6216 158.66C63.6216 158.82 63.6016 158.987 63.5616 159.16C63.5216 159.333 63.4749 159.513 63.4216 159.7C63.3416 159.9 63.2482 160.107 63.1416 160.32C63.0482 160.52 62.9416 160.727 62.8216 160.94L62.0216 162.36C61.9549 162.453 61.8882 162.527 61.8216 162.58C61.7682 162.633 61.7149 162.667 61.6616 162.68C61.5816 162.72 61.5082 162.733 61.4416 162.72C61.3882 162.707 61.3349 162.673 61.2816 162.62C61.2016 162.58 61.1349 162.533 61.0816 162.48C61.0416 162.413 61.0216 162.34 61.0216 162.26C60.9949 162.18 60.9949 162.093 61.0216 162C61.0616 161.907 61.1216 161.8 61.2016 161.68L61.9416 160.34H58.6016C58.4816 160.34 58.3749 160.333 58.2816 160.32C58.1882 160.293 58.1216 160.253 58.0816 160.2C58.0149 160.16 57.9682 160.113 57.9416 160.06C57.9282 159.993 57.9216 159.913 57.9216 159.82C57.9216 159.74 57.9282 159.667 57.9416 159.6C57.9682 159.533 58.0149 159.473 58.0816 159.42C58.1216 159.38 58.1882 159.347 58.2816 159.32C58.3749 159.293 58.4816 159.28 58.6016 159.28H62.4216C62.4482 159.187 62.4682 159.087 62.4816 158.98C62.4949 158.873 62.5016 158.767 62.5016 158.66ZM66.6816 156.52C66.6816 156.413 66.6882 156.32 66.7016 156.24C66.7282 156.147 66.7682 156.06 66.8216 155.98C66.8616 155.927 66.9082 155.887 66.9616 155.86C67.0282 155.82 67.1149 155.8 67.2216 155.8C67.3016 155.8 67.3749 155.82 67.4416 155.86C67.5216 155.887 67.5949 155.927 67.6616 155.98C67.7016 156.06 67.7349 156.147 67.7616 156.24C67.8016 156.32 67.8216 156.413 67.8216 156.52V162.88C67.8216 163 67.8016 163.107 67.7616 163.2C67.7349 163.293 67.7016 163.36 67.6616 163.4C67.5949 163.467 67.5216 163.513 67.4416 163.54C67.3749 163.553 67.3016 163.56 67.2216 163.56C67.1149 163.56 67.0282 163.553 66.9616 163.54C66.9082 163.513 66.8616 163.467 66.8216 163.4C66.7682 163.36 66.7282 163.293 66.7016 163.2C66.6882 163.107 66.6816 163 66.6816 162.88V156.52ZM62.1216 164.68C62.0949 164.84 62.0816 165 62.0816 165.16C62.0816 165.32 62.0882 165.473 62.1016 165.62C62.1016 165.78 62.1016 165.927 62.1016 166.06C62.1016 166.193 62.1082 166.32 62.1216 166.44C62.1216 166.52 62.1282 166.587 62.1416 166.64C62.1682 166.693 62.2016 166.733 62.2416 166.76C62.2682 166.8 62.3216 166.833 62.4016 166.86C62.4816 166.873 62.5816 166.873 62.7016 166.86C63.0216 166.86 63.3616 166.84 63.7216 166.8C64.0816 166.76 64.4682 166.7 64.8816 166.62C65.2816 166.567 65.6616 166.507 66.0216 166.44C66.3816 166.373 66.7216 166.3 67.0416 166.22C67.1216 166.22 67.1882 166.227 67.2416 166.24C67.3082 166.253 67.3749 166.28 67.4416 166.32C67.4816 166.373 67.5216 166.427 67.5616 166.48C67.6016 166.533 67.6349 166.587 67.6616 166.64C67.6616 166.72 67.6616 166.793 67.6616 166.86C67.6616 166.913 67.6549 166.967 67.6416 167.02C67.6016 167.1 67.5549 167.16 67.5016 167.2C67.4616 167.24 67.4149 167.267 67.3616 167.28C67.1749 167.347 66.9816 167.4 66.7816 167.44C66.5949 167.48 66.4016 167.52 66.2016 167.56C65.9749 167.6 65.7482 167.64 65.5216 167.68C65.2949 167.72 65.0749 167.753 64.8616 167.78C64.6216 167.82 64.3816 167.853 64.1416 167.88C63.9149 167.907 63.6949 167.92 63.4816 167.92C63.2416 167.947 63.0149 167.967 62.8016 167.98C62.6016 167.98 62.4149 167.98 62.2416 167.98C62.0549 167.98 61.8882 167.96 61.7416 167.92C61.5949 167.88 61.4682 167.807 61.3616 167.7C61.2416 167.62 61.1482 167.513 61.0816 167.38C61.0149 167.247 60.9816 167.087 60.9816 166.9C60.9549 166.727 60.9349 166.547 60.9216 166.36C60.9216 166.173 60.9282 165.98 60.9416 165.78C60.9416 165.593 60.9416 165.407 60.9416 165.22C60.9416 165.033 60.9549 164.847 60.9816 164.66C60.9816 164.58 60.9949 164.507 61.0216 164.44C61.0482 164.373 61.1016 164.313 61.1816 164.26C61.2349 164.22 61.2949 164.187 61.3616 164.16C61.4282 164.133 61.5016 164.12 61.5816 164.12C61.6349 164.12 61.6949 164.133 61.7616 164.16C61.8282 164.187 61.8949 164.22 61.9616 164.26C62.0016 164.327 62.0349 164.393 62.0616 164.46C62.1016 164.527 62.1216 164.6 62.1216 164.68Z" fill="black"/>
<rect x="242" y="196" width="131" height="125" rx="5" fill="white"/>
<path d="M274.181 224.933C274.181 220.483 273.82 216.333 279.1 214.848C281.836 214.078 284.07 214.615 285.632 217.28C286.255 218.342 287.372 220.596 286.48 221.489" stroke="#5DB9D7" stroke-width="3" stroke-linecap="round"/>
<path d="M324.359 223.457C324.359 220.963 327.305 218.72 329.279 217.663C332.643 215.86 334.794 216.892 337.314 219.412C338.669 220.767 339.663 222.508 339.61 224.441C339.591 225.118 338.828 227.884 339.118 227.884" stroke="#5DB9D7" stroke-width="3" stroke-linecap="round"/>
<path d="M271.722 231.327C270.956 232.189 270.706 233.599 270.383 234.661C268.569 240.636 267.005 246.28 266.693 252.535C266.118 264.107 267.381 275.229 272.597 285.659C273.357 287.181 283.893 303.771 284.021 303.643" stroke="#5DB9D7" stroke-width="3" stroke-linecap="round"/>
<path d="M340.102 231.819C340.187 232.591 340.758 233.388 341.195 234.006C343.576 237.373 345.227 241.019 346.879 244.774C349.968 251.794 351.374 259.732 352.892 267.239C354.364 274.516 355.352 296.801 355.352 289.376" stroke="#5DB9D7" stroke-width="3" stroke-linecap="round"/>
<path d="M286.142 306.63C286.707 306.693 287.147 307.112 287.808 307.169C289.145 307.283 290.136 306.604 290.87 305.527C292.461 303.194 294.22 303.088 296.873 302.832C298.97 302.63 300.954 302.804 303.048 302.869C306.141 302.964 309.21 302.749 312.297 302.673C318.315 302.524 324.484 303.137 330.477 302.538C332.798 302.306 335.173 302.36 337.473 301.999C339.452 301.688 341.496 301.534 343.5 301.558C345.753 301.584 346.883 303.866 349.001 304.302C353.221 305.171 355.163 299.327 355.163 296.045" stroke="#5DB9D7" stroke-width="3" stroke-linecap="round"/>
<path d="M265.099 250.99C265.018 250.342 263.288 250.431 262.927 250.404C261.998 250.334 258.643 249.181 258.51 250.77C258.291 253.403 261.068 255.646 262.707 257.285C262.967 257.546 266.182 260.974 266.419 260.499" stroke="#5DB9D7" stroke-width="3" stroke-linecap="round"/>
<path d="M340.322 253.542C340.303 252.207 340.414 245.964 338.663 246.022C336.345 246.097 334.781 249.652 333.819 251.327C333.772 251.41 332.799 252.971 333.176 252.583" stroke="#5DB9D7" stroke-width="3" stroke-linecap="round"/>
<path d="M283.059 233.03C284.813 233.518 286.358 234.474 287.96 235.319C288.704 235.712 289.78 235.875 288.635 236.464C287.296 237.152 285.872 237.85 284.438 238.313C284.146 238.407 283.435 238.577 284.115 238.577" stroke="#5DB9D7" stroke-width="3" stroke-linecap="round"/>
<path d="M318.715 232.502C317.69 232.502 316.704 233.064 315.78 233.441C314.53 233.951 311.759 234.31 313.374 235.833C314.8 237.177 316.609 237.739 318.334 238.577C318.871 238.838 319.507 239.443 319.507 238.577" stroke="#5DB9D7" stroke-width="3" stroke-linecap="round"/>
<path d="M289.662 227.747C290.54 228.625 291.397 229.633 292.303 230.388" stroke="#5DB9D7" stroke-width="3" stroke-linecap="round"/>
<path d="M312.641 225.898C312.426 226.97 310.599 229.165 309.735 229.596" stroke="#5DB9D7" stroke-width="3" stroke-linecap="round"/>
<path d="M296.001 240.954C296.001 242.195 296.185 243.211 297.82 242.348C298.782 241.841 299.207 240.904 299.816 240.074C300.225 239.517 300.301 239.959 300.697 240.323C301.785 241.325 303.97 242.748 305.568 242.216C305.807 242.136 307.417 241.189 306.83 241.482" stroke="#5DB9D7" stroke-width="3" stroke-linecap="round"/>
<path d="M289.926 219.824C289.968 219.489 291.631 218.794 291.907 218.635C293.153 217.918 294.546 217.767 295.854 217.182C299.106 215.728 303.065 215.598 306.566 215.598C310.038 215.598 313.895 215.361 317.131 216.859C317.707 217.127 322.533 218.971 321.885 219.295" stroke="#5DB9D7" stroke-width="3" stroke-linecap="round"/>
<path d="M298.192 242.32C298.192 244.402 301.307 249.658 303.821 248.401C304.604 248.009 305.089 247.158 305.253 246.34C305.336 245.922 305.718 243.646 305.203 243.903" stroke="#5DB9D7" stroke-width="3" stroke-linecap="round"/>
<path d="M255.453 208.175C257.72 209.918 259.716 211.986 261.735 214.004C262.129 214.399 263.686 215.411 262.463 215.411" stroke="#5DB9D7" stroke-width="3" stroke-linecap="round"/>
<path d="M252.061 221.742C254.314 221.742 256.526 222.22 258.757 222.496C258.776 222.498 261.387 222.619 260.427 223.099" stroke="#5DB9D7" stroke-width="3" stroke-linecap="round"/>
<path d="M275.635 238.868C275.447 238.7 275.287 238.641 275.03 238.677C273.89 238.84 274.86 240.949 275.075 241.376C276.037 243.282 278.084 244.122 279.956 242.764C281.763 241.454 280.506 238.08 278.949 237.076C276.375 235.417 272.075 243.285 277.594 243.615C281.61 243.855 282.46 238.386 278.501 238.106C275.649 237.905 275.145 242.631 277.616 242.126C279.426 241.756 278.927 238.136 277.135 238.644C274.689 239.338 278.463 242.976 278.579 240.648C278.658 239.078 276.207 238.813 277.449 240.883" stroke="#FFD3FB" stroke-width="3" stroke-linecap="round"/>
<path d="M324.204 237.86C322.532 238.48 322.329 241.368 323.241 242.708C323.993 243.813 325.743 243.83 326.88 243.503C328.371 243.075 329.142 241.893 329.32 240.391C329.636 237.735 326.821 236.397 324.461 236.83C321.759 237.326 322.416 241.139 324.181 242.294C329.212 245.585 331.626 235.615 325.592 237.39C323.528 237.997 322.362 240.843 324.652 242.07C325.906 242.742 328.727 241.269 327.496 239.764C326.775 238.882 324.771 238.909 324.585 240.211C324.401 241.495 326.414 242.943 327.059 241.454C327.431 240.596 326.052 239.202 325.357 240.043C324.491 241.092 326.409 242.031 326.555 240.749C326.836 238.29 321.231 237.764 322.121 241.689C322.465 243.202 324.177 244.141 325.57 243.257C325.827 243.093 326.68 242.524 326.219 242.294" stroke="#FFD3FB" stroke-width="3" stroke-linecap="round"/>
<path d="M355.45 279.776C356.414 279.864 357.151 280.613 357.927 281.109C358.826 281.683 360.073 282.121 360.736 283.004C361.294 283.749 359.247 285.808 358.695 286.3C357.749 287.146 356.913 287.772 355.758 288.384" stroke="#5DB9D7" stroke-width="3" stroke-linecap="round"/>
<path d="M228 27.4619C228 23.8931 225.036 21 221.38 21C219.16 21 217.202 22.0694 216 23.7038C214.798 22.0694 212.84 21 210.621 21C206.964 21 204 23.8924 204 27.4619C204 27.9675 204.066 28.4573 204.178 28.9294C205.098 34.5041 211.448 40.3852 216 42C220.551 40.3852 226.902 34.5041 227.82 28.9301C227.934 28.458 228 27.9681 228 27.4619Z" fill="#DD2E44"/>
<path d="M346.5 364C350.09 364 353 361.09 353 357.5C353 353.91 350.09 351 346.5 351C342.91 351 340 353.91 340 357.5C340 361.09 342.91 364 346.5 364Z" fill="#FFCC4D"/>
<path d="M345.778 357.123C345.626 357.123 345.486 357.028 345.435 356.876C345.362 356.66 345.067 356.04 344.694 356.04C344.311 356.04 344.013 356.7 343.954 356.876C343.891 357.065 343.687 357.168 343.497 357.105C343.308 357.042 343.206 356.837 343.269 356.648C343.314 356.512 343.74 355.317 344.695 355.317C345.65 355.317 346.075 356.512 346.121 356.648C346.184 356.837 346.082 357.042 345.893 357.105C345.854 357.118 345.816 357.123 345.778 357.123ZM349.389 357.123C349.238 357.123 349.097 357.028 349.046 356.876C348.973 356.66 348.679 356.04 348.305 356.04C347.922 356.04 347.623 356.7 347.564 356.876C347.501 357.065 347.299 357.168 347.108 357.105C346.919 357.042 346.816 356.837 346.879 356.648C346.925 356.512 347.35 355.317 348.305 355.317C349.26 355.317 349.686 356.512 349.731 356.648C349.794 356.837 349.692 357.042 349.503 357.105C349.465 357.118 349.427 357.123 349.389 357.123ZM349.871 358.471C349.807 358.413 349.711 358.41 349.642 358.461C349.628 358.471 348.225 359.508 346.5 359.508C344.779 359.508 343.372 358.471 343.358 358.461C343.289 358.41 343.193 358.414 343.129 358.471C343.065 358.529 343.051 358.624 343.095 358.698C343.142 358.776 344.257 360.591 346.5 360.591C348.743 360.591 349.859 358.776 349.905 358.698C349.949 358.624 349.935 358.529 349.871 358.471Z" fill="#664500"/>
<path d="M347.666 352.425C347.666 352.512 347.677 352.596 347.695 352.676C347.849 353.631 348.91 354.638 349.671 354.914C350.272 354.696 351.059 354.02 351.439 353.275C350.685 352.394 349.699 351.717 348.576 351.339C348.059 351.432 347.666 351.881 347.666 352.425ZM344.962 361.5C344.983 361.413 344.995 361.322 344.995 361.228C344.995 360.566 344.458 360.029 343.796 360.029C343.395 360.029 343.04 360.228 342.823 360.531C342.605 360.228 342.251 360.029 341.849 360.029C341.4 360.029 341.014 360.278 340.809 360.643C341.467 361.832 342.488 362.794 343.722 363.378C344.313 362.89 344.853 362.183 344.962 361.5ZM352.386 360.259C352.284 359.916 351.97 359.665 351.594 359.665C351.315 359.665 351.07 359.802 350.919 360.012C350.769 359.802 350.523 359.665 350.245 359.665C349.786 359.665 349.415 360.036 349.415 360.495C349.415 360.56 349.423 360.623 349.437 360.683C349.548 361.371 350.285 362.09 350.849 362.33C351.49 361.753 352.015 361.05 352.386 360.259Z" fill="#FFAC33"/>
<path d="M352.142 352.18C352.142 351.569 351.647 351.074 351.036 351.074C350.665 351.074 350.338 351.257 350.137 351.537C349.937 351.257 349.609 351.074 349.239 351.074C348.628 351.074 348.133 351.569 348.133 352.18C348.133 352.267 348.143 352.351 348.162 352.432C348.316 353.386 349.377 354.393 350.137 354.669C350.898 354.393 351.959 353.386 352.112 352.432C352.131 352.351 352.142 352.267 352.142 352.18ZM344.408 361.258C344.408 360.596 343.872 360.06 343.21 360.06C342.808 360.06 342.454 360.258 342.236 360.561C342.019 360.258 341.664 360.06 341.262 360.06C340.6 360.06 340.063 360.596 340.063 361.258C340.063 361.352 340.075 361.443 340.096 361.531C340.262 362.564 341.412 363.655 342.236 363.955C343.06 363.656 344.209 362.565 344.376 361.531C344.396 361.443 344.408 361.352 344.408 361.258ZM352.981 360.435C352.981 359.976 352.61 359.604 352.151 359.604C351.873 359.604 351.627 359.742 351.476 359.952C351.326 359.742 351.08 359.604 350.802 359.604C350.343 359.604 349.972 359.976 349.972 360.435C349.972 360.5 349.98 360.562 349.994 360.623C350.109 361.339 350.905 362.095 351.476 362.302C352.047 362.095 352.844 361.339 352.958 360.623C352.973 360.562 352.981 360.5 352.981 360.435Z" fill="#DD2E44"/>
</svg>
