<svg width="400" height="91" viewBox="0 0 400 91" fill="none" xmlns="http://www.w3.org/2000/svg">
<rect width="400" height="91" fill="white"/>
<path d="M98.144 19.312C98.144 19.264 98.128 19.216 98.096 19.168C98.08 19.12 98.064 19.072 98.048 19.024C98 19.008 97.952 18.992 97.904 18.976C97.856 18.96 97.808 18.952 97.76 18.952L94.688 19.288C94.608 19.32 94.544 19.352 94.496 19.384C94.448 19.4 94.416 19.424 94.4 19.456C94.352 19.504 94.32 19.56 94.304 19.624C94.304 19.672 94.304 19.72 94.304 19.768V22.408C94.304 22.552 94.312 22.672 94.328 22.768C94.36 22.848 94.416 22.912 94.496 22.96C94.544 23.04 94.616 23.096 94.712 23.128C94.808 23.144 94.928 23.136 95.072 23.104L97.736 22.888C97.784 22.888 97.832 22.888 97.88 22.888C97.944 22.872 98 22.84 98.048 22.792C98.064 22.776 98.08 22.744 98.096 22.696C98.128 22.648 98.144 22.584 98.144 22.504V19.312ZM94.664 18.04L97.736 17.704C98.008 17.688 98.248 17.712 98.456 17.776C98.68 17.824 98.872 17.912 99.032 18.04C99.176 18.184 99.28 18.36 99.344 18.568C99.424 18.776 99.464 19.024 99.464 19.312V22.504C99.464 22.776 99.424 23.008 99.344 23.2C99.28 23.392 99.176 23.552 99.032 23.68C98.872 23.824 98.68 23.936 98.456 24.016C98.248 24.096 98.016 24.144 97.76 24.16L95.096 24.352C94.728 24.4 94.408 24.392 94.136 24.328C93.88 24.264 93.672 24.144 93.512 23.968C93.32 23.824 93.184 23.624 93.104 23.368C93.024 23.096 92.984 22.776 92.984 22.408V19.768C92.984 19.528 93.016 19.304 93.08 19.096C93.144 18.888 93.248 18.712 93.392 18.568C93.52 18.424 93.688 18.312 93.896 18.232C94.12 18.152 94.376 18.088 94.664 18.04ZM102.92 17.224C102.92 17.096 102.928 16.984 102.944 16.888C102.976 16.776 103.016 16.672 103.064 16.576C103.112 16.512 103.176 16.464 103.256 16.432C103.336 16.384 103.44 16.36 103.568 16.36C103.664 16.36 103.752 16.384 103.832 16.432C103.928 16.464 104.016 16.512 104.096 16.576C104.144 16.672 104.184 16.776 104.216 16.888C104.248 16.984 104.264 17.096 104.264 17.224V24.856C104.264 25 104.248 25.128 104.216 25.24C104.184 25.352 104.144 25.432 104.096 25.48C104.016 25.56 103.928 25.616 103.832 25.648C103.752 25.664 103.664 25.672 103.568 25.672C103.44 25.672 103.336 25.664 103.256 25.648C103.176 25.616 103.112 25.56 103.064 25.48C103.016 25.432 102.976 25.352 102.944 25.24C102.928 25.128 102.92 25 102.92 24.856V17.224ZM97.424 27.016C97.392 27.208 97.376 27.4 97.376 27.592C97.376 27.784 97.384 27.968 97.4 28.144C97.4 28.336 97.4 28.512 97.4 28.672C97.4 28.832 97.408 28.984 97.424 29.128C97.424 29.224 97.432 29.304 97.448 29.368C97.48 29.432 97.52 29.48 97.568 29.512C97.6 29.56 97.664 29.6 97.76 29.632C97.856 29.648 97.976 29.648 98.12 29.632C98.504 29.632 98.912 29.608 99.344 29.56C99.776 29.512 100.24 29.44 100.736 29.344C101.216 29.28 101.672 29.208 102.104 29.128C102.536 29.048 102.944 28.96 103.328 28.864C103.424 28.864 103.504 28.872 103.568 28.888C103.648 28.904 103.728 28.936 103.808 28.984C103.856 29.048 103.904 29.112 103.952 29.176C104 29.24 104.04 29.304 104.072 29.368C104.072 29.464 104.072 29.552 104.072 29.632C104.072 29.696 104.064 29.76 104.048 29.824C104 29.92 103.944 29.992 103.88 30.04C103.832 30.088 103.776 30.12 103.712 30.136C103.488 30.216 103.256 30.28 103.016 30.328C102.792 30.376 102.56 30.424 102.32 30.472C102.048 30.52 101.776 30.568 101.504 30.616C101.232 30.664 100.968 30.704 100.712 30.736C100.424 30.784 100.136 30.824 99.848 30.856C99.576 30.888 99.312 30.904 99.056 30.904C98.768 30.936 98.496 30.96 98.24 30.976C98 30.976 97.776 30.976 97.568 30.976C97.344 30.976 97.144 30.952 96.968 30.904C96.792 30.856 96.64 30.768 96.512 30.64C96.368 30.544 96.256 30.416 96.176 30.256C96.096 30.096 96.056 29.904 96.056 29.68C96.024 29.472 96 29.256 95.984 29.032C95.984 28.808 95.992 28.576 96.008 28.336C96.008 28.112 96.008 27.888 96.008 27.664C96.008 27.44 96.024 27.216 96.056 26.992C96.056 26.896 96.072 26.808 96.104 26.728C96.136 26.648 96.2 26.576 96.296 26.512C96.36 26.464 96.432 26.424 96.512 26.392C96.592 26.36 96.68 26.344 96.776 26.344C96.84 26.344 96.912 26.36 96.992 26.392C97.072 26.424 97.152 26.464 97.232 26.512C97.28 26.592 97.32 26.672 97.352 26.752C97.4 26.832 97.424 26.92 97.424 27.016ZM109.114 15.04L114.61 14.752C114.706 14.752 114.794 14.76 114.874 14.776C114.954 14.792 115.034 14.824 115.114 14.872C115.162 14.92 115.202 14.984 115.234 15.064C115.266 15.144 115.282 15.232 115.282 15.328C115.282 15.44 115.266 15.536 115.234 15.616C115.202 15.696 115.162 15.76 115.114 15.808C115.034 15.888 114.954 15.944 114.874 15.976C114.81 15.992 114.73 16 114.634 16L109.546 16.288C109.466 16.304 109.402 16.328 109.354 16.36C109.306 16.376 109.274 16.392 109.258 16.408C109.21 16.456 109.178 16.512 109.162 16.576C109.162 16.624 109.162 16.672 109.162 16.72V18.28C109.162 18.488 109.186 18.664 109.234 18.808C109.282 18.952 109.354 19.072 109.45 19.168C109.546 19.264 109.666 19.336 109.81 19.384C109.954 19.432 110.13 19.456 110.338 19.456C110.786 19.456 111.218 19.448 111.634 19.432C112.066 19.4 112.49 19.352 112.906 19.288C113.29 19.24 113.666 19.176 114.034 19.096C114.402 19 114.754 18.88 115.09 18.736C115.186 18.688 115.282 18.664 115.378 18.664C115.474 18.664 115.562 18.672 115.642 18.688C115.706 18.736 115.77 18.792 115.834 18.856C115.898 18.92 115.954 18.992 116.002 19.072C116.034 19.184 116.05 19.288 116.05 19.384C116.05 19.464 116.042 19.528 116.026 19.576C115.978 19.656 115.922 19.728 115.858 19.792C115.794 19.84 115.714 19.872 115.618 19.888C115.234 20.032 114.834 20.16 114.418 20.272C114.002 20.384 113.578 20.464 113.146 20.512C112.698 20.592 112.234 20.648 111.754 20.68C111.29 20.712 110.818 20.728 110.338 20.728C109.906 20.728 109.522 20.68 109.186 20.584C108.866 20.488 108.61 20.328 108.418 20.104C108.194 19.912 108.034 19.664 107.938 19.36C107.842 19.056 107.794 18.696 107.794 18.28V16.72C107.794 16.464 107.818 16.24 107.866 16.048C107.914 15.84 108.002 15.664 108.13 15.52C108.226 15.392 108.354 15.288 108.514 15.208C108.674 15.128 108.874 15.072 109.114 15.04ZM106.714 23.752C106.602 23.768 106.506 23.768 106.426 23.752C106.362 23.72 106.306 23.672 106.258 23.608C106.194 23.56 106.146 23.504 106.114 23.44C106.098 23.36 106.09 23.264 106.09 23.152C106.09 23.056 106.098 22.968 106.114 22.888C106.146 22.808 106.194 22.736 106.258 22.672C106.306 22.624 106.362 22.584 106.426 22.552C106.506 22.52 106.602 22.496 106.714 22.48L117.322 21.856C117.418 21.856 117.506 21.864 117.586 21.88C117.666 21.896 117.738 21.928 117.802 21.976C117.85 22.04 117.89 22.112 117.922 22.192C117.954 22.272 117.97 22.36 117.97 22.456C117.97 22.568 117.954 22.664 117.922 22.744C117.89 22.824 117.85 22.888 117.802 22.936C117.738 23 117.666 23.048 117.586 23.08C117.506 23.112 117.418 23.128 117.322 23.128L106.714 23.752ZM109.402 30.088C109.402 30.264 109.426 30.408 109.474 30.52C109.538 30.616 109.642 30.688 109.786 30.736C109.898 30.784 110.042 30.816 110.218 30.832C110.394 30.848 110.594 30.84 110.818 30.808C111.202 30.792 111.61 30.752 112.042 30.688C112.474 30.624 112.93 30.544 113.41 30.448C113.858 30.352 114.29 30.256 114.706 30.16C115.138 30.064 115.546 29.968 115.93 29.872C116.026 29.856 116.106 29.856 116.17 29.872C116.25 29.872 116.33 29.896 116.41 29.944C116.458 30.008 116.506 30.08 116.554 30.16C116.602 30.224 116.642 30.288 116.674 30.352C116.674 30.432 116.674 30.512 116.674 30.592C116.674 30.656 116.666 30.72 116.65 30.784C116.602 30.88 116.546 30.952 116.482 31C116.434 31.048 116.378 31.08 116.314 31.096C116.106 31.176 115.89 31.24 115.666 31.288C115.458 31.352 115.234 31.408 114.994 31.456C114.738 31.52 114.482 31.576 114.226 31.624C113.97 31.672 113.722 31.72 113.482 31.768C113.21 31.816 112.938 31.864 112.666 31.912C112.41 31.96 112.162 31.992 111.922 32.008C111.65 32.056 111.394 32.088 111.154 32.104C110.93 32.136 110.714 32.152 110.506 32.152C110.09 32.184 109.73 32.16 109.426 32.08C109.138 32 108.898 31.864 108.706 31.672C108.498 31.496 108.338 31.304 108.226 31.096C108.114 30.888 108.05 30.664 108.034 30.424C107.986 30.024 108.002 29.672 108.082 29.368C108.178 29.048 108.346 28.792 108.586 28.6C108.794 28.424 109.034 28.288 109.306 28.192C109.578 28.08 109.874 28 110.194 27.952L113.05 27.664C113.338 27.648 113.594 27.624 113.818 27.592C114.058 27.544 114.266 27.48 114.442 27.4C114.586 27.352 114.698 27.28 114.778 27.184C114.874 27.088 114.922 26.968 114.922 26.824C114.922 26.712 114.898 26.608 114.85 26.512C114.818 26.416 114.77 26.328 114.706 26.248C114.61 26.2 114.498 26.16 114.37 26.128C114.242 26.096 114.082 26.08 113.89 26.08L109.042 26.392C108.914 26.424 108.81 26.432 108.73 26.416C108.666 26.4 108.61 26.36 108.562 26.296C108.498 26.248 108.45 26.184 108.418 26.104C108.402 26.024 108.394 25.928 108.394 25.816C108.394 25.72 108.402 25.632 108.418 25.552C108.45 25.472 108.498 25.4 108.562 25.336C108.61 25.288 108.666 25.256 108.73 25.24C108.81 25.208 108.906 25.176 109.018 25.144L113.698 24.832C114.114 24.816 114.482 24.848 114.802 24.928C115.122 24.992 115.402 25.096 115.642 25.24C115.85 25.416 116.01 25.64 116.122 25.912C116.234 26.168 116.29 26.472 116.29 26.824C116.29 27.192 116.218 27.504 116.074 27.76C115.93 28 115.714 28.192 115.426 28.336C115.138 28.496 114.786 28.624 114.37 28.72C113.97 28.816 113.522 28.888 113.026 28.936L110.554 29.2C110.362 29.232 110.194 29.272 110.05 29.32C109.922 29.368 109.81 29.416 109.714 29.464C109.586 29.544 109.498 29.632 109.45 29.728C109.402 29.824 109.386 29.944 109.402 30.088ZM123.383 19.096C123.831 19.096 124.215 19.144 124.535 19.24C124.871 19.336 125.143 19.48 125.351 19.672C125.543 19.864 125.687 20.104 125.783 20.392C125.879 20.68 125.927 21 125.927 21.352C125.895 21.736 125.823 22.064 125.711 22.336C125.599 22.592 125.447 22.8 125.255 22.96C125.031 23.136 124.743 23.304 124.391 23.464C124.039 23.608 123.623 23.752 123.143 23.896L121.919 24.208C121.727 24.272 121.543 24.352 121.367 24.448C121.207 24.528 121.055 24.624 120.911 24.736C120.767 24.88 120.655 25.024 120.575 25.168C120.511 25.312 120.495 25.464 120.527 25.624C120.527 25.816 120.559 25.992 120.623 26.152C120.687 26.296 120.791 26.416 120.935 26.512C121.047 26.624 121.199 26.704 121.391 26.752C121.583 26.8 121.823 26.824 122.111 26.824C122.495 26.824 122.847 26.816 123.167 26.8C123.487 26.768 123.791 26.728 124.079 26.68C124.335 26.648 124.615 26.584 124.919 26.488C125.239 26.392 125.567 26.272 125.903 26.128C125.999 26.08 126.087 26.056 126.167 26.056C126.247 26.04 126.335 26.04 126.431 26.056C126.495 26.104 126.559 26.16 126.623 26.224C126.687 26.272 126.743 26.344 126.791 26.44C126.807 26.536 126.815 26.632 126.815 26.728C126.815 26.808 126.799 26.88 126.767 26.944C126.719 27.024 126.655 27.096 126.575 27.16C126.495 27.208 126.407 27.256 126.311 27.304C125.943 27.464 125.591 27.6 125.255 27.712C124.919 27.808 124.607 27.88 124.319 27.928C123.999 27.992 123.655 28.04 123.287 28.072C122.919 28.088 122.527 28.096 122.111 28.096C121.599 28.096 121.159 28.04 120.791 27.928C120.439 27.816 120.151 27.64 119.927 27.4C119.687 27.176 119.503 26.92 119.375 26.632C119.247 26.328 119.183 25.992 119.183 25.624C119.151 25.24 119.183 24.904 119.279 24.616C119.375 24.328 119.527 24.088 119.735 23.896C119.927 23.72 120.175 23.56 120.479 23.416C120.783 23.272 121.151 23.136 121.583 23.008L122.783 22.696C123.071 22.632 123.319 22.552 123.527 22.456C123.751 22.36 123.943 22.264 124.103 22.168C124.247 22.088 124.351 21.984 124.415 21.856C124.495 21.712 124.543 21.544 124.559 21.352C124.559 21.208 124.535 21.08 124.487 20.968C124.439 20.84 124.383 20.728 124.319 20.632C124.223 20.552 124.095 20.488 123.935 20.44C123.791 20.392 123.607 20.368 123.383 20.368C123.063 20.368 122.759 20.384 122.471 20.416C122.183 20.432 121.911 20.464 121.655 20.512C121.383 20.56 121.127 20.616 120.887 20.68C120.647 20.744 120.423 20.808 120.215 20.872C120.087 20.92 119.975 20.952 119.879 20.968C119.799 20.984 119.735 20.968 119.687 20.92C119.607 20.904 119.543 20.864 119.495 20.8C119.463 20.72 119.439 20.632 119.423 20.536C119.375 20.44 119.351 20.352 119.351 20.272C119.351 20.192 119.375 20.104 119.423 20.008C119.471 19.944 119.543 19.88 119.639 19.816C119.735 19.752 119.855 19.688 119.999 19.624C120.207 19.56 120.439 19.496 120.695 19.432C120.951 19.368 121.223 19.304 121.511 19.24C121.799 19.192 122.095 19.16 122.399 19.144C122.719 19.112 123.047 19.096 123.383 19.096ZM129.359 18.688C129.359 18.56 129.367 18.448 129.383 18.352C129.415 18.24 129.463 18.136 129.527 18.04C129.575 17.976 129.631 17.928 129.695 17.896C129.775 17.848 129.879 17.824 130.007 17.824C130.103 17.824 130.191 17.848 130.271 17.896C130.367 17.928 130.455 17.976 130.535 18.04C130.583 18.136 130.623 18.24 130.655 18.352C130.703 18.448 130.727 18.56 130.727 18.688V27.64C130.727 27.784 130.703 27.912 130.655 28.024C130.623 28.136 130.583 28.216 130.535 28.264C130.455 28.344 130.367 28.4 130.271 28.432C130.191 28.448 130.103 28.456 130.007 28.456C129.879 28.456 129.775 28.448 129.695 28.432C129.631 28.4 129.575 28.344 129.527 28.264C129.463 28.216 129.415 28.136 129.383 28.024C129.367 27.912 129.359 27.784 129.359 27.64V23.464L126.791 23.632C126.663 23.664 126.559 23.672 126.479 23.656C126.415 23.64 126.359 23.6 126.311 23.536C126.263 23.488 126.223 23.424 126.191 23.344C126.175 23.264 126.167 23.168 126.167 23.056C126.167 22.96 126.175 22.872 126.191 22.792C126.223 22.712 126.263 22.64 126.311 22.576C126.359 22.528 126.415 22.496 126.479 22.48C126.559 22.448 126.655 22.416 126.767 22.384L129.359 22.216V18.688ZM132.767 18.472C132.767 18.344 132.775 18.232 132.791 18.136C132.823 18.024 132.863 17.92 132.911 17.824C132.959 17.76 133.023 17.712 133.103 17.68C133.183 17.632 133.287 17.608 133.415 17.608C133.511 17.608 133.599 17.632 133.679 17.68C133.775 17.712 133.863 17.76 133.943 17.824C133.991 17.92 134.031 18.024 134.063 18.136C134.095 18.232 134.111 18.344 134.111 18.472V28.24C134.111 28.384 134.095 28.512 134.063 28.624C134.031 28.736 133.991 28.816 133.943 28.864C133.863 28.944 133.775 29 133.679 29.032C133.599 29.048 133.511 29.056 133.415 29.056C133.287 29.056 133.183 29.048 133.103 29.032C133.023 29 132.959 28.944 132.911 28.864C132.863 28.816 132.823 28.736 132.791 28.624C132.775 28.512 132.767 28.384 132.767 28.24V18.472Z" fill="black"/>
<rect x="17" y="18" width="55" height="55" rx="27.5" fill="#D9D9D9"/>
<path d="M93.908 46.468V50.806C94.028 50.806 94.166 50.806 94.322 50.806C94.478 50.794 94.646 50.77 94.826 50.734C94.91 50.734 94.994 50.728 95.078 50.716C95.162 50.704 95.252 50.692 95.348 50.68C95.432 50.668 95.516 50.656 95.6 50.644C95.696 50.632 95.792 50.614 95.888 50.59C96.068 50.554 96.242 50.518 96.41 50.482C96.578 50.446 96.752 50.41 96.932 50.374C97.088 50.338 97.238 50.302 97.382 50.266C97.526 50.23 97.664 50.194 97.796 50.158C97.88 50.146 97.958 50.14 98.03 50.14C98.102 50.14 98.168 50.152 98.228 50.176C98.276 50.212 98.318 50.254 98.354 50.302C98.39 50.35 98.42 50.398 98.444 50.446C98.444 50.506 98.438 50.566 98.426 50.626C98.426 50.686 98.42 50.74 98.408 50.788C98.372 50.86 98.33 50.92 98.282 50.968C98.246 51.004 98.192 51.028 98.12 51.04C97.988 51.1 97.844 51.154 97.688 51.202C97.532 51.238 97.358 51.274 97.166 51.31C96.962 51.37 96.758 51.418 96.554 51.454C96.35 51.49 96.146 51.52 95.942 51.544C95.726 51.58 95.51 51.616 95.294 51.652C95.09 51.676 94.892 51.694 94.7 51.706C94.496 51.742 94.316 51.766 94.16 51.778C94.004 51.778 93.872 51.778 93.764 51.778C93.596 51.778 93.452 51.76 93.332 51.724C93.224 51.676 93.146 51.598 93.098 51.49C93.026 51.406 92.972 51.322 92.936 51.238C92.912 51.142 92.9 51.046 92.9 50.95V46.486C92.9 46.402 92.912 46.33 92.936 46.27C92.96 46.198 93.002 46.132 93.062 46.072C93.098 46.036 93.146 46.006 93.206 45.982C93.266 45.958 93.332 45.946 93.404 45.946C93.452 45.946 93.506 45.958 93.566 45.982C93.626 46.006 93.686 46.036 93.746 46.072C93.794 46.132 93.83 46.198 93.854 46.27C93.89 46.33 93.908 46.396 93.908 46.468ZM100.55 45.46C100.55 45.364 100.556 45.28 100.568 45.208C100.592 45.124 100.622 45.046 100.658 44.974C100.694 44.926 100.742 44.89 100.802 44.866C100.862 44.83 100.94 44.812 101.036 44.812C101.108 44.812 101.174 44.83 101.234 44.866C101.306 44.89 101.372 44.926 101.432 44.974C101.468 45.046 101.498 45.124 101.522 45.208C101.546 45.28 101.558 45.364 101.558 45.46V53.092C101.558 53.2 101.546 53.296 101.522 53.38C101.498 53.464 101.468 53.524 101.432 53.56C101.372 53.62 101.306 53.662 101.234 53.686C101.174 53.698 101.108 53.704 101.036 53.704C100.94 53.704 100.862 53.698 100.802 53.686C100.742 53.662 100.694 53.62 100.658 53.56C100.622 53.524 100.592 53.464 100.568 53.38C100.556 53.296 100.55 53.2 100.55 53.092V48.394L97.292 48.736C97.196 48.76 97.118 48.766 97.058 48.754C97.01 48.742 96.968 48.712 96.932 48.664C96.884 48.628 96.848 48.586 96.824 48.538C96.812 48.478 96.806 48.406 96.806 48.322C96.806 48.25 96.812 48.184 96.824 48.124C96.848 48.064 96.884 48.01 96.932 47.962C96.968 47.926 97.01 47.896 97.058 47.872C97.118 47.848 97.19 47.824 97.274 47.8L100.55 47.44V45.46ZM105.385 52.12C105.205 52.12 105.043 52.114 104.899 52.102C104.755 52.078 104.623 52.036 104.503 51.976C104.359 51.94 104.227 51.88 104.107 51.796C103.999 51.712 103.903 51.616 103.819 51.508C103.711 51.424 103.621 51.328 103.549 51.22C103.477 51.1 103.423 50.968 103.387 50.824C103.327 50.704 103.285 50.572 103.261 50.428C103.249 50.272 103.243 50.104 103.243 49.924C103.243 49.696 103.261 49.474 103.297 49.258C103.333 49.042 103.387 48.826 103.459 48.61C103.519 48.418 103.603 48.232 103.711 48.052C103.819 47.872 103.951 47.698 104.107 47.53C104.227 47.374 104.359 47.236 104.503 47.116C104.659 46.996 104.827 46.888 105.007 46.792C105.163 46.72 105.331 46.666 105.511 46.63C105.691 46.582 105.883 46.558 106.087 46.558C106.243 46.558 106.393 46.576 106.537 46.612C106.693 46.636 106.843 46.672 106.987 46.72C107.107 46.78 107.221 46.846 107.329 46.918C107.437 46.99 107.545 47.068 107.653 47.152C107.725 47.26 107.797 47.38 107.869 47.512C107.941 47.632 108.007 47.758 108.067 47.89C108.067 47.926 108.073 47.962 108.085 47.998C108.097 48.034 108.109 48.064 108.121 48.088L110.605 47.854L110.461 45.46C110.437 45.364 110.431 45.28 110.443 45.208C110.467 45.124 110.503 45.046 110.551 44.974C110.587 44.926 110.635 44.89 110.695 44.866C110.755 44.83 110.833 44.812 110.929 44.812C111.001 44.812 111.067 44.83 111.127 44.866C111.187 44.89 111.247 44.926 111.307 44.974C111.343 45.046 111.373 45.124 111.397 45.208C111.421 45.28 111.445 45.358 111.469 45.442L111.865 51.544C111.865 51.652 111.853 51.748 111.829 51.832C111.817 51.916 111.793 51.976 111.757 52.012C111.709 52.072 111.649 52.114 111.577 52.138C111.517 52.162 111.451 52.174 111.379 52.174C111.295 52.174 111.223 52.168 111.163 52.156C111.103 52.132 111.055 52.09 111.019 52.03C110.959 51.994 110.917 51.934 110.893 51.85C110.869 51.766 110.857 51.67 110.857 51.562L110.677 48.808L108.193 49.024C108.193 49.204 108.169 49.372 108.121 49.528C108.085 49.684 108.049 49.834 108.013 49.978C107.941 50.17 107.857 50.356 107.761 50.536C107.665 50.716 107.557 50.89 107.437 51.058C107.305 51.238 107.161 51.4 107.005 51.544C106.861 51.676 106.705 51.778 106.537 51.85C106.357 51.946 106.171 52.018 105.979 52.066C105.787 52.102 105.589 52.12 105.385 52.12ZM107.239 48.826C107.239 48.718 107.227 48.616 107.203 48.52C107.191 48.412 107.173 48.31 107.149 48.214C107.113 48.142 107.071 48.07 107.023 47.998C106.987 47.926 106.951 47.854 106.915 47.782C106.855 47.746 106.795 47.71 106.735 47.674C106.675 47.626 106.615 47.584 106.555 47.548C106.483 47.536 106.405 47.524 106.321 47.512C106.237 47.488 106.159 47.476 106.087 47.476C105.955 47.476 105.829 47.494 105.709 47.53C105.601 47.554 105.493 47.59 105.385 47.638C105.265 47.71 105.151 47.788 105.043 47.872C104.947 47.944 104.857 48.034 104.773 48.142C104.665 48.25 104.575 48.37 104.503 48.502C104.443 48.634 104.395 48.772 104.359 48.916C104.299 49.084 104.257 49.252 104.233 49.42C104.221 49.576 104.215 49.744 104.215 49.924C104.215 50.032 104.221 50.134 104.233 50.23C104.245 50.314 104.269 50.392 104.305 50.464C104.317 50.56 104.341 50.644 104.377 50.716C104.425 50.776 104.485 50.83 104.557 50.878C104.605 50.95 104.659 51.01 104.719 51.058C104.791 51.094 104.863 51.118 104.935 51.13C104.995 51.166 105.061 51.19 105.133 51.202C105.205 51.202 105.289 51.202 105.385 51.202C105.505 51.202 105.625 51.19 105.745 51.166C105.865 51.142 105.985 51.094 106.105 51.022C106.213 50.974 106.315 50.902 106.411 50.806C106.507 50.698 106.603 50.572 106.699 50.428C106.783 50.308 106.855 50.182 106.915 50.05C106.987 49.918 107.053 49.78 107.113 49.636C107.149 49.504 107.179 49.372 107.203 49.24C107.227 49.108 107.239 48.97 107.239 48.826ZM113.593 45.532C113.593 45.436 113.599 45.352 113.611 45.28C113.635 45.196 113.665 45.118 113.701 45.046C113.737 44.998 113.785 44.962 113.845 44.938C113.905 44.902 113.983 44.884 114.079 44.884C114.151 44.884 114.217 44.902 114.277 44.938C114.349 44.962 114.415 44.998 114.475 45.046C114.511 45.118 114.541 45.196 114.565 45.28C114.589 45.352 114.601 45.436 114.601 45.532V52.858C114.601 52.966 114.589 53.062 114.565 53.146C114.541 53.23 114.511 53.29 114.475 53.326C114.415 53.386 114.349 53.428 114.277 53.452C114.217 53.464 114.151 53.47 114.079 53.47C113.983 53.47 113.905 53.464 113.845 53.452C113.785 53.428 113.737 53.386 113.701 53.326C113.665 53.29 113.635 53.23 113.611 53.146C113.599 53.062 113.593 52.966 113.593 52.858V45.532ZM116.738 48.088C116.654 48.112 116.582 48.118 116.522 48.106C116.462 48.094 116.414 48.058 116.378 47.998C116.318 47.962 116.276 47.92 116.252 47.872C116.228 47.824 116.216 47.764 116.216 47.692C116.192 47.644 116.186 47.596 116.198 47.548C116.222 47.488 116.252 47.422 116.288 47.35C116.312 47.302 116.348 47.26 116.396 47.224C116.456 47.188 116.534 47.158 116.63 47.134C116.834 47.098 117.05 47.068 117.278 47.044C117.506 47.02 117.746 46.99 117.998 46.954C118.238 46.942 118.478 46.93 118.718 46.918C118.958 46.894 119.198 46.882 119.438 46.882C119.666 46.894 119.87 46.924 120.05 46.972C120.242 47.02 120.41 47.08 120.554 47.152C120.686 47.248 120.794 47.35 120.878 47.458C120.974 47.566 121.052 47.686 121.112 47.818C121.148 47.962 121.166 48.112 121.166 48.268C121.178 48.412 121.166 48.556 121.13 48.7L123.038 48.466L122.858 45.766C122.834 45.67 122.828 45.586 122.84 45.514C122.864 45.43 122.9 45.352 122.948 45.28C122.984 45.232 123.032 45.196 123.092 45.172C123.152 45.136 123.23 45.118 123.326 45.118C123.398 45.118 123.464 45.136 123.524 45.172C123.584 45.196 123.644 45.232 123.704 45.28C123.74 45.352 123.77 45.43 123.794 45.514C123.818 45.586 123.842 45.664 123.866 45.748L124.28 52.462C124.28 52.57 124.274 52.666 124.262 52.75C124.25 52.834 124.226 52.894 124.19 52.93C124.142 52.99 124.082 53.032 124.01 53.056C123.95 53.08 123.884 53.092 123.812 53.092C123.728 53.092 123.656 53.086 123.596 53.074C123.536 53.05 123.488 53.008 123.452 52.948C123.392 52.912 123.35 52.852 123.326 52.768C123.302 52.684 123.29 52.588 123.29 52.48L123.092 49.42L120.734 49.69H120.698C120.686 49.702 120.674 49.714 120.662 49.726C120.662 49.726 120.662 49.732 120.662 49.744C120.662 49.756 120.656 49.768 120.644 49.78C120.5 49.984 120.35 50.188 120.194 50.392C120.05 50.596 119.894 50.806 119.726 51.022C119.63 51.142 119.534 51.256 119.438 51.364C119.354 51.472 119.27 51.574 119.186 51.67C119.102 51.766 119.018 51.862 118.934 51.958C118.862 52.054 118.79 52.144 118.718 52.228C118.646 52.3 118.58 52.354 118.52 52.39C118.46 52.414 118.4 52.426 118.34 52.426C118.268 52.426 118.196 52.42 118.124 52.408C118.064 52.384 118.01 52.348 117.962 52.3C117.902 52.264 117.854 52.222 117.818 52.174C117.794 52.114 117.782 52.048 117.782 51.976C117.758 51.928 117.752 51.874 117.764 51.814C117.788 51.742 117.836 51.67 117.908 51.598C118.052 51.43 118.208 51.25 118.376 51.058C118.556 50.854 118.736 50.644 118.916 50.428C119.084 50.212 119.24 50.008 119.384 49.816C119.54 49.612 119.69 49.414 119.834 49.222C119.942 49.066 120.026 48.91 120.086 48.754C120.146 48.598 120.176 48.442 120.176 48.286C120.164 48.142 120.092 48.034 119.96 47.962C119.84 47.878 119.654 47.836 119.402 47.836C119.162 47.836 118.934 47.848 118.718 47.872C118.502 47.884 118.286 47.896 118.07 47.908C117.962 47.932 117.848 47.95 117.728 47.962C117.62 47.974 117.512 47.986 117.404 47.998C117.296 48.01 117.182 48.028 117.062 48.052C116.954 48.064 116.846 48.076 116.738 48.088ZM125.99 45.604C125.99 45.508 125.996 45.424 126.008 45.352C126.032 45.268 126.062 45.19 126.098 45.118C126.134 45.07 126.182 45.034 126.242 45.01C126.302 44.974 126.38 44.956 126.476 44.956C126.548 44.956 126.614 44.974 126.674 45.01C126.746 45.034 126.812 45.07 126.872 45.118C126.908 45.19 126.938 45.268 126.962 45.352C126.986 45.424 126.998 45.508 126.998 45.604V52.93C126.998 53.038 126.986 53.134 126.962 53.218C126.938 53.302 126.908 53.362 126.872 53.398C126.812 53.458 126.746 53.5 126.674 53.524C126.614 53.536 126.548 53.542 126.476 53.542C126.38 53.542 126.302 53.536 126.242 53.524C126.182 53.5 126.134 53.458 126.098 53.398C126.062 53.362 126.032 53.302 126.008 53.218C125.996 53.134 125.99 53.038 125.99 52.93V45.604ZM136.703 46.09C136.751 46.018 136.805 45.964 136.865 45.928C136.937 45.88 137.009 45.844 137.081 45.82C137.141 45.82 137.201 45.832 137.261 45.856C137.321 45.868 137.381 45.892 137.441 45.928C137.477 45.976 137.507 46.03 137.531 46.09C137.567 46.138 137.597 46.198 137.621 46.27C137.621 46.342 137.609 46.42 137.585 46.504C137.561 46.576 137.525 46.648 137.477 46.72L135.965 48.79L138.449 50.788C138.509 50.848 138.557 50.908 138.593 50.968C138.629 51.028 138.659 51.094 138.683 51.166C138.683 51.25 138.677 51.328 138.665 51.4C138.653 51.46 138.629 51.508 138.593 51.544C138.557 51.604 138.509 51.652 138.449 51.688C138.401 51.724 138.347 51.742 138.287 51.742C138.215 51.766 138.137 51.766 138.053 51.742C137.969 51.706 137.891 51.652 137.819 51.58L135.353 49.618L133.697 51.868C133.637 51.94 133.577 52 133.517 52.048C133.457 52.084 133.391 52.102 133.319 52.102C133.247 52.126 133.175 52.132 133.103 52.12C133.043 52.096 132.989 52.066 132.941 52.03C132.881 51.994 132.833 51.952 132.797 51.904C132.761 51.844 132.743 51.778 132.743 51.706C132.719 51.646 132.719 51.58 132.743 51.508C132.767 51.436 132.815 51.352 132.887 51.256L136.703 46.09ZM141.509 48.412H143.705C143.777 48.412 143.843 48.424 143.903 48.448C143.963 48.472 144.017 48.502 144.065 48.538C144.101 48.598 144.131 48.658 144.155 48.718C144.179 48.778 144.191 48.844 144.191 48.916C144.191 49 144.179 49.072 144.155 49.132C144.131 49.18 144.101 49.222 144.065 49.258C144.017 49.294 143.963 49.324 143.903 49.348C143.843 49.36 143.777 49.366 143.705 49.366H141.581L141.833 52.75C141.833 52.858 141.821 52.954 141.797 53.038C141.785 53.122 141.761 53.182 141.725 53.218C141.677 53.278 141.617 53.32 141.545 53.344C141.485 53.368 141.419 53.38 141.347 53.38C141.263 53.38 141.191 53.374 141.131 53.362C141.071 53.338 141.023 53.296 140.987 53.236C140.927 53.2 140.885 53.14 140.861 53.056C140.837 52.972 140.825 52.876 140.825 52.768L140.303 45.622C140.279 45.526 140.273 45.442 140.285 45.37C140.297 45.286 140.327 45.208 140.375 45.136C140.411 45.088 140.459 45.052 140.519 45.028C140.579 44.992 140.657 44.974 140.753 44.974C140.825 44.974 140.891 44.992 140.951 45.028C141.011 45.052 141.071 45.088 141.131 45.136C141.167 45.208 141.197 45.286 141.221 45.37C141.257 45.442 141.281 45.52 141.293 45.604L141.509 48.412ZM147.933 43.948C148.269 43.948 148.569 43.984 148.833 44.056C149.097 44.116 149.319 44.2 149.499 44.308C149.667 44.44 149.793 44.602 149.877 44.794C149.973 44.986 150.021 45.214 150.021 45.478C150.021 45.754 149.967 45.994 149.859 46.198C149.763 46.402 149.625 46.564 149.445 46.684C149.241 46.828 148.995 46.948 148.707 47.044C148.419 47.14 148.089 47.224 147.717 47.296L146.799 47.476C146.631 47.512 146.487 47.554 146.367 47.602C146.247 47.638 146.145 47.674 146.061 47.71C145.965 47.77 145.893 47.836 145.845 47.908C145.809 47.98 145.791 48.07 145.791 48.178C145.791 48.322 145.809 48.442 145.845 48.538C145.893 48.634 145.971 48.7 146.079 48.736C146.163 48.784 146.277 48.82 146.421 48.844C146.577 48.856 146.763 48.862 146.979 48.862C147.267 48.862 147.543 48.856 147.807 48.844C148.083 48.82 148.359 48.778 148.635 48.718C148.887 48.682 149.145 48.622 149.409 48.538C149.673 48.454 149.931 48.358 150.183 48.25C150.255 48.214 150.321 48.196 150.381 48.196C150.441 48.196 150.507 48.202 150.579 48.214C150.627 48.25 150.675 48.292 150.723 48.34C150.771 48.376 150.813 48.43 150.849 48.502C150.861 48.574 150.867 48.646 150.867 48.718C150.867 48.778 150.855 48.832 150.831 48.88C150.795 48.94 150.747 48.994 150.687 49.042C150.627 49.078 150.561 49.108 150.489 49.132C150.213 49.264 149.937 49.372 149.661 49.456C149.385 49.54 149.103 49.606 148.815 49.654C148.515 49.714 148.209 49.756 147.897 49.78C147.597 49.804 147.291 49.816 146.979 49.816C146.595 49.816 146.265 49.786 145.989 49.726C145.725 49.666 145.503 49.57 145.323 49.438C145.143 49.33 145.005 49.174 144.909 48.97C144.825 48.754 144.783 48.49 144.783 48.178C144.783 47.926 144.819 47.704 144.891 47.512C144.963 47.32 145.071 47.164 145.215 47.044C145.359 46.936 145.545 46.846 145.773 46.774C146.001 46.69 146.277 46.618 146.601 46.558L147.537 46.378C147.753 46.342 147.945 46.3 148.113 46.252C148.293 46.192 148.455 46.126 148.599 46.054C148.719 45.994 148.815 45.916 148.887 45.82C148.959 45.724 148.995 45.61 148.995 45.478C148.995 45.37 148.971 45.28 148.923 45.208C148.875 45.136 148.809 45.076 148.725 45.028C148.629 44.992 148.515 44.962 148.383 44.938C148.251 44.914 148.101 44.902 147.933 44.902C147.693 44.902 147.465 44.914 147.249 44.938C147.033 44.95 146.829 44.974 146.637 45.01C146.433 45.046 146.241 45.088 146.061 45.136C145.881 45.184 145.713 45.232 145.557 45.28C145.461 45.316 145.377 45.34 145.305 45.352C145.245 45.364 145.197 45.352 145.161 45.316C145.101 45.304 145.053 45.274 145.017 45.226C144.993 45.166 144.975 45.1 144.963 45.028C144.927 44.956 144.909 44.89 144.909 44.83C144.909 44.77 144.927 44.704 144.963 44.632C144.999 44.584 145.053 44.536 145.125 44.488C145.197 44.44 145.287 44.392 145.395 44.344C145.551 44.296 145.725 44.248 145.917 44.2C146.109 44.152 146.313 44.104 146.529 44.056C146.745 44.02 146.967 43.996 147.195 43.984C147.435 43.96 147.681 43.948 147.933 43.948ZM153.315 46.432H155.187C155.259 46.432 155.325 46.444 155.385 46.468C155.445 46.492 155.499 46.522 155.547 46.558C155.583 46.606 155.613 46.66 155.637 46.72C155.661 46.78 155.673 46.846 155.673 46.918C155.673 47.002 155.661 47.074 155.637 47.134C155.613 47.182 155.583 47.224 155.547 47.26C155.499 47.308 155.445 47.344 155.385 47.368C155.325 47.38 155.259 47.386 155.187 47.386H153.369L153.477 49.456C153.477 49.564 153.471 49.66 153.459 49.744C153.459 49.828 153.441 49.888 153.405 49.924C153.357 49.984 153.297 50.026 153.225 50.05C153.165 50.074 153.099 50.086 153.027 50.086C152.931 50.086 152.847 50.08 152.775 50.068C152.715 50.044 152.667 50.002 152.631 49.942C152.583 49.906 152.547 49.846 152.523 49.762C152.499 49.678 152.487 49.582 152.487 49.474L152.217 44.524C152.193 44.428 152.187 44.344 152.199 44.272C152.211 44.188 152.241 44.11 152.289 44.038C152.325 43.99 152.367 43.954 152.415 43.93C152.475 43.894 152.553 43.876 152.649 43.876C152.721 43.876 152.787 43.894 152.847 43.93C152.919 43.954 152.985 43.99 153.045 44.038C153.081 44.11 153.111 44.188 153.135 44.272C153.159 44.344 153.183 44.422 153.207 44.506L153.315 46.432ZM153.225 52.678C153.225 52.858 153.207 53.026 153.171 53.182C153.135 53.326 153.087 53.47 153.027 53.614C152.955 53.77 152.871 53.914 152.775 54.046C152.691 54.178 152.595 54.298 152.487 54.406C152.355 54.538 152.211 54.652 152.055 54.748C151.911 54.832 151.761 54.898 151.605 54.946C151.425 55.018 151.239 55.066 151.047 55.09C150.867 55.114 150.669 55.126 150.453 55.126C150.249 55.126 150.057 55.114 149.877 55.09C149.709 55.078 149.553 55.042 149.409 54.982C149.253 54.946 149.109 54.898 148.977 54.838C148.857 54.766 148.749 54.676 148.653 54.568C148.545 54.484 148.449 54.388 148.365 54.28C148.281 54.172 148.221 54.052 148.185 53.92C148.125 53.812 148.083 53.686 148.059 53.542C148.047 53.398 148.041 53.242 148.041 53.074C148.041 52.894 148.053 52.726 148.077 52.57C148.101 52.402 148.149 52.234 148.221 52.066C148.269 51.922 148.335 51.784 148.419 51.652C148.515 51.508 148.629 51.37 148.761 51.238C148.869 51.13 148.995 51.028 149.139 50.932C149.283 50.836 149.445 50.752 149.625 50.68C149.781 50.62 149.955 50.572 150.147 50.536C150.351 50.5 150.561 50.482 150.777 50.482C150.957 50.482 151.125 50.5 151.281 50.536C151.449 50.56 151.605 50.596 151.749 50.644C151.893 50.704 152.025 50.77 152.145 50.842C152.277 50.914 152.409 50.992 152.541 51.076C152.649 51.184 152.739 51.298 152.811 51.418C152.895 51.538 152.973 51.658 153.045 51.778C153.093 51.922 153.135 52.072 153.171 52.228C153.207 52.372 153.225 52.522 153.225 52.678ZM152.235 52.678C152.235 52.594 152.223 52.51 152.199 52.426C152.187 52.342 152.169 52.258 152.145 52.174C152.109 52.102 152.067 52.036 152.019 51.976C151.971 51.904 151.923 51.832 151.875 51.76C151.803 51.712 151.725 51.67 151.641 51.634C151.557 51.586 151.473 51.544 151.389 51.508C151.293 51.496 151.191 51.484 151.083 51.472C150.987 51.448 150.885 51.436 150.777 51.436C150.633 51.436 150.495 51.448 150.363 51.472C150.243 51.496 150.129 51.526 150.021 51.562C149.913 51.622 149.811 51.682 149.715 51.742C149.631 51.79 149.553 51.85 149.481 51.922C149.385 52.006 149.307 52.096 149.247 52.192C149.199 52.276 149.157 52.36 149.121 52.444C149.085 52.552 149.055 52.66 149.031 52.768C149.019 52.864 149.013 52.966 149.013 53.074C149.013 53.182 149.019 53.278 149.031 53.362C149.043 53.434 149.067 53.506 149.103 53.578C149.115 53.65 149.145 53.716 149.193 53.776C149.241 53.836 149.301 53.884 149.373 53.92C149.421 53.98 149.481 54.028 149.553 54.064C149.625 54.088 149.709 54.106 149.805 54.118C149.889 54.142 149.985 54.16 150.093 54.172C150.201 54.172 150.321 54.172 150.453 54.172C150.573 54.172 150.693 54.166 150.813 54.154C150.945 54.13 151.071 54.1 151.191 54.064C151.299 54.04 151.395 53.998 151.479 53.938C151.575 53.878 151.671 53.8 151.767 53.704C151.839 53.632 151.899 53.554 151.947 53.47C152.007 53.386 152.061 53.296 152.109 53.2C152.145 53.128 152.175 53.05 152.199 52.966C152.223 52.87 152.235 52.774 152.235 52.678ZM160.558 49.114C160.558 48.982 160.546 48.856 160.522 48.736C160.51 48.616 160.486 48.502 160.45 48.394C160.402 48.298 160.348 48.208 160.288 48.124C160.24 48.028 160.18 47.944 160.108 47.872C160.024 47.812 159.94 47.758 159.856 47.71C159.772 47.65 159.688 47.602 159.604 47.566C159.508 47.53 159.412 47.506 159.316 47.494C159.22 47.47 159.13 47.458 159.046 47.458C158.914 47.458 158.794 47.476 158.686 47.512C158.578 47.548 158.476 47.59 158.38 47.638C158.272 47.71 158.17 47.788 158.074 47.872C157.978 47.944 157.894 48.034 157.822 48.142C157.726 48.274 157.648 48.406 157.588 48.538C157.54 48.67 157.498 48.808 157.462 48.952C157.414 49.096 157.378 49.252 157.354 49.42C157.342 49.576 157.336 49.732 157.336 49.888C157.336 50.02 157.342 50.14 157.354 50.248C157.366 50.356 157.39 50.452 157.426 50.536C157.438 50.632 157.468 50.716 157.516 50.788C157.564 50.86 157.624 50.92 157.696 50.968C157.744 51.04 157.804 51.1 157.876 51.148C157.948 51.184 158.032 51.208 158.128 51.22C158.2 51.256 158.284 51.28 158.38 51.292C158.488 51.304 158.596 51.31 158.704 51.31C158.812 51.31 158.92 51.298 159.028 51.274C159.148 51.25 159.262 51.208 159.37 51.148C159.478 51.112 159.58 51.052 159.676 50.968C159.772 50.884 159.874 50.782 159.982 50.662C160.066 50.554 160.144 50.446 160.216 50.338C160.288 50.218 160.354 50.086 160.414 49.942C160.45 49.822 160.48 49.696 160.504 49.564C160.54 49.42 160.558 49.27 160.558 49.114ZM158.704 52.264C158.512 52.264 158.332 52.252 158.164 52.228C158.008 52.204 157.864 52.162 157.732 52.102C157.588 52.054 157.45 51.988 157.318 51.904C157.198 51.82 157.084 51.724 156.976 51.616C156.868 51.52 156.772 51.412 156.688 51.292C156.604 51.16 156.538 51.022 156.49 50.878C156.43 50.734 156.388 50.584 156.364 50.428C156.34 50.26 156.328 50.08 156.328 49.888C156.328 49.648 156.34 49.42 156.364 49.204C156.4 48.976 156.454 48.754 156.526 48.538C156.574 48.346 156.646 48.16 156.742 47.98C156.85 47.8 156.976 47.626 157.12 47.458C157.24 47.314 157.372 47.188 157.516 47.08C157.66 46.96 157.816 46.852 157.984 46.756C158.14 46.684 158.302 46.624 158.47 46.576C158.65 46.528 158.842 46.504 159.046 46.504C159.226 46.504 159.4 46.522 159.568 46.558C159.736 46.594 159.898 46.642 160.054 46.702C160.198 46.774 160.336 46.852 160.468 46.936C160.6 47.02 160.732 47.116 160.864 47.224C160.972 47.356 161.068 47.494 161.152 47.638C161.236 47.77 161.314 47.908 161.386 48.052C161.434 48.22 161.476 48.394 161.512 48.574C161.548 48.742 161.566 48.922 161.566 49.114C161.566 49.33 161.548 49.534 161.512 49.726C161.476 49.918 161.422 50.104 161.35 50.284C161.278 50.464 161.188 50.644 161.08 50.824C160.972 50.992 160.852 51.154 160.72 51.31C160.576 51.478 160.42 51.622 160.252 51.742C160.096 51.862 159.94 51.958 159.784 52.03C159.604 52.114 159.424 52.174 159.244 52.21C159.064 52.246 158.884 52.264 158.704 52.264ZM164.068 45.46C164.068 45.364 164.074 45.28 164.086 45.208C164.11 45.124 164.146 45.046 164.194 44.974C164.23 44.926 164.272 44.89 164.32 44.866C164.38 44.83 164.458 44.812 164.554 44.812C164.626 44.812 164.692 44.83 164.752 44.866C164.824 44.89 164.89 44.926 164.95 44.974C164.986 45.046 165.016 45.124 165.04 45.208C165.076 45.28 165.094 45.364 165.094 45.46V53.092C165.094 53.2 165.076 53.296 165.04 53.38C165.016 53.464 164.986 53.524 164.95 53.56C164.89 53.62 164.824 53.662 164.752 53.686C164.692 53.698 164.626 53.704 164.554 53.704C164.458 53.704 164.38 53.698 164.32 53.686C164.272 53.662 164.23 53.62 164.194 53.56C164.146 53.524 164.11 53.464 164.086 53.38C164.074 53.296 164.068 53.2 164.068 53.092V45.46ZM174.955 46.81C174.955 46.726 174.943 46.636 174.919 46.54C174.907 46.444 174.895 46.348 174.883 46.252C174.847 46.168 174.805 46.084 174.757 46C174.721 45.904 174.685 45.808 174.649 45.712C174.589 45.64 174.523 45.58 174.451 45.532C174.379 45.472 174.301 45.418 174.217 45.37C174.121 45.334 174.019 45.304 173.911 45.28C173.815 45.256 173.713 45.244 173.605 45.244C173.473 45.244 173.353 45.262 173.245 45.298C173.137 45.322 173.029 45.352 172.921 45.388C172.801 45.448 172.687 45.52 172.579 45.604C172.483 45.676 172.393 45.754 172.309 45.838C172.201 45.946 172.111 46.06 172.039 46.18C171.967 46.3 171.913 46.414 171.877 46.522C171.817 46.654 171.775 46.786 171.751 46.918C171.739 47.05 171.733 47.188 171.733 47.332C171.733 47.44 171.733 47.548 171.733 47.656C171.745 47.752 171.769 47.836 171.805 47.908C171.817 48.004 171.847 48.088 171.895 48.16C171.943 48.22 172.003 48.274 172.075 48.322C172.123 48.394 172.177 48.454 172.237 48.502C172.309 48.538 172.381 48.562 172.453 48.574C172.525 48.61 172.597 48.634 172.669 48.646C172.753 48.658 172.843 48.664 172.939 48.664C173.047 48.664 173.161 48.658 173.281 48.646C173.401 48.622 173.521 48.586 173.641 48.538C173.749 48.502 173.857 48.454 173.965 48.394C174.085 48.322 174.199 48.232 174.307 48.124C174.415 48.04 174.505 47.95 174.577 47.854C174.661 47.746 174.733 47.632 174.793 47.512C174.841 47.404 174.877 47.296 174.901 47.188C174.937 47.068 174.955 46.942 174.955 46.81ZM172.939 49.618C172.759 49.618 172.591 49.606 172.435 49.582C172.279 49.558 172.141 49.516 172.021 49.456C171.877 49.42 171.745 49.36 171.625 49.276C171.505 49.192 171.403 49.096 171.319 48.988C171.211 48.904 171.115 48.802 171.031 48.682C170.959 48.562 170.905 48.43 170.869 48.286C170.809 48.154 170.767 48.01 170.743 47.854C170.731 47.686 170.725 47.512 170.725 47.332C170.725 47.116 170.743 46.912 170.779 46.72C170.815 46.516 170.869 46.324 170.941 46.144C171.013 45.964 171.103 45.796 171.211 45.64C171.319 45.472 171.445 45.316 171.589 45.172C171.733 45.028 171.877 44.902 172.021 44.794C172.177 44.686 172.345 44.59 172.525 44.506C172.681 44.434 172.849 44.38 173.029 44.344C173.209 44.308 173.401 44.29 173.605 44.29C173.785 44.29 173.953 44.308 174.109 44.344C174.277 44.38 174.433 44.428 174.577 44.488C174.721 44.56 174.853 44.644 174.973 44.74C175.105 44.824 175.225 44.92 175.333 45.028C175.417 45.16 175.495 45.292 175.567 45.424C175.651 45.556 175.729 45.694 175.801 45.838C175.849 45.994 175.885 46.156 175.909 46.324C175.945 46.48 175.963 46.642 175.963 46.81C175.963 47.014 175.939 47.206 175.891 47.386C175.855 47.566 175.801 47.734 175.729 47.89C175.633 48.058 175.531 48.22 175.423 48.376C175.315 48.52 175.189 48.652 175.045 48.772C174.877 48.916 174.709 49.042 174.541 49.15C174.385 49.258 174.223 49.342 174.055 49.402C173.875 49.474 173.689 49.528 173.497 49.564C173.317 49.6 173.131 49.618 172.939 49.618ZM178.465 44.524C178.465 44.428 178.471 44.344 178.483 44.272C178.507 44.188 178.543 44.11 178.591 44.038C178.627 43.99 178.669 43.954 178.717 43.93C178.777 43.894 178.855 43.876 178.951 43.876C179.023 43.876 179.089 43.894 179.149 43.93C179.221 43.954 179.287 43.99 179.347 44.038C179.383 44.11 179.413 44.188 179.437 44.272C179.473 44.344 179.491 44.428 179.491 44.524V49.474C179.491 49.582 179.473 49.678 179.437 49.762C179.413 49.846 179.383 49.906 179.347 49.942C179.287 50.002 179.221 50.044 179.149 50.068C179.089 50.08 179.023 50.086 178.951 50.086C178.855 50.086 178.777 50.08 178.717 50.068C178.669 50.044 178.627 50.002 178.591 49.942C178.543 49.906 178.507 49.846 178.483 49.762C178.471 49.678 178.465 49.582 178.465 49.474V44.524ZM173.713 51.022C173.761 50.95 173.815 50.89 173.875 50.842C173.935 50.782 174.001 50.734 174.073 50.698C174.121 50.686 174.181 50.692 174.253 50.716C174.325 50.728 174.397 50.752 174.469 50.788C174.541 50.848 174.595 50.908 174.631 50.968C174.667 51.028 174.691 51.088 174.703 51.148C174.703 51.22 174.685 51.298 174.649 51.382C174.625 51.454 174.589 51.526 174.541 51.598L174.361 51.832L176.035 53.254L177.601 51.022C177.649 50.95 177.703 50.89 177.763 50.842C177.823 50.782 177.889 50.734 177.961 50.698C178.009 50.686 178.069 50.692 178.141 50.716C178.213 50.728 178.285 50.752 178.357 50.788C178.429 50.848 178.483 50.908 178.519 50.968C178.555 51.028 178.579 51.088 178.591 51.148C178.591 51.22 178.573 51.298 178.537 51.382C178.513 51.454 178.477 51.526 178.429 51.598L178.357 51.688L180.211 53.236C180.283 53.308 180.337 53.38 180.373 53.452C180.421 53.524 180.457 53.59 180.481 53.65C180.493 53.722 180.487 53.794 180.463 53.866C180.451 53.926 180.421 53.98 180.373 54.028C180.313 54.1 180.253 54.154 180.193 54.19C180.133 54.214 180.067 54.226 179.995 54.226C179.923 54.226 179.851 54.208 179.779 54.172C179.707 54.136 179.635 54.082 179.563 54.01L177.781 52.516L176.431 54.442C176.359 54.538 176.293 54.616 176.233 54.676C176.173 54.724 176.113 54.754 176.053 54.766C175.981 54.802 175.909 54.814 175.837 54.802C175.777 54.778 175.723 54.736 175.675 54.676C175.603 54.64 175.543 54.592 175.495 54.532C175.459 54.472 175.441 54.406 175.441 54.334C175.429 54.298 175.423 54.262 175.423 54.226C175.423 54.178 175.435 54.13 175.459 54.082L173.785 52.678L172.435 54.586C172.363 54.682 172.297 54.76 172.237 54.82C172.177 54.868 172.117 54.898 172.057 54.91C171.985 54.946 171.913 54.958 171.841 54.946C171.781 54.922 171.727 54.88 171.679 54.82C171.607 54.784 171.547 54.736 171.499 54.676C171.463 54.616 171.445 54.55 171.445 54.478C171.421 54.418 171.421 54.352 171.445 54.28C171.481 54.208 171.535 54.124 171.607 54.028L173.713 51.022ZM181.904 44.956C181.808 44.98 181.724 44.986 181.652 44.974C181.58 44.962 181.526 44.932 181.49 44.884C181.43 44.848 181.382 44.806 181.346 44.758C181.322 44.71 181.31 44.65 181.31 44.578C181.286 44.53 181.28 44.476 181.292 44.416C181.316 44.356 181.346 44.29 181.382 44.218C181.418 44.17 181.466 44.128 181.526 44.092C181.586 44.056 181.664 44.026 181.76 44.002C181.94 43.978 182.12 43.954 182.3 43.93C182.492 43.906 182.696 43.882 182.912 43.858C183.008 43.858 183.104 43.858 183.2 43.858C183.296 43.846 183.392 43.834 183.488 43.822C183.584 43.81 183.674 43.804 183.758 43.804C183.854 43.792 183.95 43.78 184.046 43.768C184.31 43.768 184.55 43.786 184.766 43.822C184.982 43.846 185.162 43.894 185.306 43.966C185.45 44.05 185.564 44.146 185.648 44.254C185.744 44.35 185.816 44.458 185.864 44.578C185.9 44.722 185.918 44.866 185.918 45.01C185.918 45.154 185.9 45.298 185.864 45.442C185.816 45.61 185.756 45.772 185.684 45.928C185.612 46.072 185.534 46.216 185.45 46.36C185.318 46.564 185.174 46.768 185.018 46.972C184.874 47.164 184.718 47.356 184.55 47.548C184.37 47.764 184.19 47.962 184.01 48.142C183.842 48.322 183.674 48.484 183.506 48.628C183.434 48.7 183.362 48.748 183.29 48.772C183.23 48.796 183.17 48.802 183.11 48.79C183.038 48.79 182.972 48.784 182.912 48.772C182.852 48.748 182.804 48.712 182.768 48.664C182.708 48.628 182.666 48.586 182.642 48.538C182.618 48.478 182.606 48.412 182.606 48.34C182.594 48.28 182.6 48.22 182.624 48.16C182.66 48.088 182.714 48.016 182.786 47.944C182.822 47.908 182.858 47.872 182.894 47.836C182.93 47.788 182.972 47.74 183.02 47.692C183.056 47.644 183.098 47.602 183.146 47.566C183.194 47.518 183.242 47.464 183.29 47.404C183.326 47.368 183.362 47.326 183.398 47.278C183.446 47.23 183.494 47.182 183.542 47.134C183.59 47.098 183.632 47.056 183.668 47.008C183.716 46.96 183.764 46.906 183.812 46.846C183.884 46.762 183.962 46.672 184.046 46.576C184.13 46.48 184.214 46.378 184.298 46.27C184.37 46.186 184.436 46.096 184.496 46C184.556 45.892 184.622 45.784 184.694 45.676C184.778 45.52 184.832 45.382 184.856 45.262C184.88 45.142 184.868 45.034 184.82 44.938C184.76 44.866 184.658 44.812 184.514 44.776C184.37 44.74 184.19 44.722 183.974 44.722C183.794 44.734 183.62 44.752 183.452 44.776C183.284 44.788 183.116 44.8 182.948 44.812C182.768 44.848 182.588 44.878 182.408 44.902C182.228 44.926 182.06 44.944 181.904 44.956ZM188.906 43.75C188.906 43.654 188.912 43.57 188.924 43.498C188.948 43.414 188.984 43.336 189.032 43.264C189.068 43.216 189.11 43.18 189.158 43.156C189.218 43.12 189.296 43.102 189.392 43.102C189.464 43.102 189.53 43.12 189.59 43.156C189.662 43.18 189.728 43.216 189.788 43.264C189.824 43.336 189.854 43.414 189.878 43.498C189.914 43.57 189.932 43.654 189.932 43.75V48.25C189.932 48.358 189.914 48.454 189.878 48.538C189.854 48.622 189.824 48.682 189.788 48.718C189.728 48.778 189.662 48.82 189.59 48.844C189.53 48.856 189.464 48.862 189.392 48.862C189.296 48.862 189.218 48.856 189.158 48.844C189.11 48.82 189.068 48.778 189.032 48.718C188.984 48.682 188.948 48.622 188.924 48.538C188.912 48.454 188.906 48.358 188.906 48.25V43.75ZM184.604 53.542C184.604 53.674 184.622 53.782 184.658 53.866C184.706 53.95 184.784 54.01 184.892 54.046C184.976 54.106 185.084 54.142 185.216 54.154C185.348 54.166 185.498 54.16 185.666 54.136C185.954 54.124 186.26 54.094 186.584 54.046C186.908 53.998 187.25 53.938 187.61 53.866C187.946 53.794 188.27 53.722 188.582 53.65C188.906 53.578 189.212 53.506 189.5 53.434C189.572 53.422 189.632 53.422 189.68 53.434C189.74 53.434 189.8 53.452 189.86 53.488C189.896 53.536 189.932 53.59 189.968 53.65C190.004 53.698 190.034 53.746 190.058 53.794C190.058 53.854 190.058 53.914 190.058 53.974C190.058 54.022 190.052 54.07 190.04 54.118C190.004 54.19 189.962 54.244 189.914 54.28C189.878 54.316 189.836 54.34 189.788 54.352C189.632 54.412 189.47 54.466 189.302 54.514C189.146 54.55 188.978 54.586 188.798 54.622C188.606 54.67 188.414 54.712 188.222 54.748C188.03 54.784 187.844 54.82 187.664 54.856C187.46 54.892 187.256 54.928 187.052 54.964C186.86 55 186.674 55.024 186.494 55.036C186.29 55.072 186.098 55.096 185.918 55.108C185.75 55.132 185.588 55.144 185.432 55.144C185.12 55.168 184.85 55.144 184.622 55.072C184.406 55.012 184.226 54.904 184.082 54.748C183.926 54.604 183.806 54.454 183.722 54.298C183.638 54.142 183.59 53.974 183.578 53.794C183.542 53.494 183.554 53.23 183.614 53.002C183.686 52.762 183.812 52.564 183.992 52.408C184.148 52.264 184.328 52.15 184.532 52.066C184.736 51.982 184.958 51.922 185.198 51.886L187.214 51.67C187.43 51.658 187.634 51.628 187.826 51.58C188.018 51.532 188.186 51.472 188.33 51.4C188.462 51.34 188.564 51.268 188.636 51.184C188.708 51.088 188.744 50.98 188.744 50.86C188.744 50.776 188.72 50.698 188.672 50.626C188.636 50.554 188.582 50.488 188.51 50.428C188.426 50.392 188.33 50.362 188.222 50.338C188.114 50.314 187.988 50.302 187.844 50.302L184.334 50.536C184.238 50.56 184.16 50.566 184.1 50.554C184.052 50.542 184.01 50.512 183.974 50.464C183.926 50.428 183.89 50.38 183.866 50.32C183.854 50.26 183.848 50.188 183.848 50.104C183.848 50.032 183.854 49.966 183.866 49.906C183.89 49.846 183.926 49.792 183.974 49.744C184.01 49.708 184.052 49.684 184.1 49.672C184.16 49.648 184.232 49.624 184.316 49.6L187.826 49.366C188.138 49.354 188.414 49.378 188.654 49.438C188.894 49.486 189.104 49.564 189.284 49.672C189.44 49.804 189.56 49.972 189.644 50.176C189.728 50.368 189.77 50.596 189.77 50.86C189.77 51.136 189.716 51.376 189.608 51.58C189.5 51.784 189.338 51.952 189.122 52.084C188.906 52.228 188.642 52.348 188.33 52.444C188.03 52.528 187.694 52.588 187.322 52.624L185.468 52.822C185.324 52.846 185.198 52.876 185.09 52.912C184.994 52.948 184.91 52.99 184.838 53.038C184.742 53.11 184.676 53.188 184.64 53.272C184.604 53.344 184.592 53.434 184.604 53.542ZM201.107 46.36V49.258C201.107 49.738 201.047 50.158 200.927 50.518C200.819 50.878 200.657 51.172 200.441 51.4C200.201 51.652 199.913 51.844 199.577 51.976C199.241 52.108 198.857 52.18 198.425 52.192L198.083 52.21C197.795 52.234 197.537 52.222 197.309 52.174C197.093 52.114 196.913 52.018 196.769 51.886C196.601 51.778 196.463 51.628 196.355 51.436C196.259 51.244 196.193 51.016 196.157 50.752C196.097 50.488 196.049 50.2 196.013 49.888C195.977 49.576 195.953 49.24 195.941 48.88C195.905 48.532 195.881 48.16 195.869 47.764C195.869 47.368 195.869 46.948 195.869 46.504C195.869 46.408 195.875 46.324 195.887 46.252C195.911 46.168 195.947 46.09 195.995 46.018C196.031 45.97 196.073 45.934 196.121 45.91C196.181 45.874 196.259 45.856 196.355 45.856C196.427 45.856 196.493 45.874 196.553 45.91C196.625 45.934 196.691 45.97 196.751 46.018C196.787 46.09 196.817 46.168 196.841 46.252C196.865 46.324 196.877 46.402 196.877 46.486C196.877 46.906 196.877 47.308 196.877 47.692C196.889 48.064 196.913 48.418 196.949 48.754C196.949 48.79 196.949 48.82 196.949 48.844C196.949 48.868 196.955 48.892 196.967 48.916L200.099 48.7V46.342C200.099 46.258 200.105 46.18 200.117 46.108C200.141 46.024 200.171 45.946 200.207 45.874C200.243 45.826 200.291 45.79 200.351 45.766C200.411 45.73 200.489 45.712 200.585 45.712C200.657 45.712 200.723 45.73 200.783 45.766C200.855 45.79 200.921 45.826 200.981 45.874C201.017 45.946 201.047 46.024 201.071 46.108C201.095 46.18 201.107 46.264 201.107 46.36ZM197.021 49.87C197.033 50.014 197.045 50.152 197.057 50.284C197.081 50.416 197.111 50.542 197.147 50.662C197.147 50.782 197.165 50.884 197.201 50.968C197.249 51.052 197.309 51.112 197.381 51.148C197.441 51.208 197.513 51.25 197.597 51.274C197.693 51.286 197.801 51.292 197.921 51.292L198.263 51.274C198.563 51.274 198.827 51.232 199.055 51.148C199.283 51.064 199.481 50.938 199.649 50.77C199.769 50.65 199.865 50.5 199.937 50.32C200.009 50.128 200.057 49.906 200.081 49.654L197.021 49.87ZM204.239 48.412H206.435C206.507 48.412 206.573 48.424 206.633 48.448C206.693 48.472 206.747 48.502 206.795 48.538C206.831 48.598 206.861 48.658 206.885 48.718C206.909 48.778 206.921 48.844 206.921 48.916C206.921 49 206.909 49.072 206.885 49.132C206.861 49.18 206.831 49.222 206.795 49.258C206.747 49.294 206.693 49.324 206.633 49.348C206.573 49.36 206.507 49.366 206.435 49.366H204.311L204.527 52.768C204.527 52.876 204.521 52.972 204.509 53.056C204.497 53.14 204.473 53.2 204.437 53.236C204.389 53.296 204.329 53.338 204.257 53.362C204.197 53.386 204.131 53.398 204.059 53.398C203.975 53.398 203.903 53.392 203.843 53.38C203.783 53.356 203.735 53.314 203.699 53.254C203.639 53.218 203.597 53.158 203.573 53.074C203.549 52.99 203.537 52.894 203.537 52.786L203.069 45.604C203.045 45.508 203.039 45.424 203.051 45.352C203.075 45.268 203.111 45.19 203.159 45.118C203.195 45.07 203.243 45.034 203.303 45.01C203.363 44.974 203.441 44.956 203.537 44.956C203.609 44.956 203.675 44.974 203.735 45.01C203.795 45.034 203.855 45.07 203.915 45.118C203.951 45.19 203.981 45.268 204.005 45.352C204.029 45.424 204.053 45.502 204.077 45.586L204.239 48.412ZM210.933 43.336C211.269 43.336 211.569 43.366 211.833 43.426C212.097 43.486 212.319 43.57 212.499 43.678C212.667 43.798 212.793 43.948 212.877 44.128C212.973 44.308 213.021 44.524 213.021 44.776C213.021 45.028 212.967 45.244 212.859 45.424C212.763 45.604 212.625 45.742 212.445 45.838C212.241 45.946 211.995 46.042 211.707 46.126C211.419 46.21 211.089 46.288 210.717 46.36L209.799 46.54C209.631 46.576 209.487 46.618 209.367 46.666C209.247 46.702 209.145 46.738 209.061 46.774C208.965 46.834 208.893 46.9 208.845 46.972C208.809 47.044 208.791 47.134 208.791 47.242C208.791 47.35 208.809 47.44 208.845 47.512C208.893 47.584 208.971 47.632 209.079 47.656C209.163 47.692 209.277 47.722 209.421 47.746C209.577 47.758 209.763 47.764 209.979 47.764C210.267 47.764 210.543 47.758 210.807 47.746C211.083 47.722 211.359 47.68 211.635 47.62C211.887 47.584 212.145 47.524 212.409 47.44C212.673 47.356 212.931 47.26 213.183 47.152C213.255 47.116 213.321 47.098 213.381 47.098C213.441 47.098 213.507 47.104 213.579 47.116C213.627 47.152 213.675 47.194 213.723 47.242C213.771 47.278 213.813 47.332 213.849 47.404C213.861 47.476 213.867 47.548 213.867 47.62C213.867 47.68 213.855 47.734 213.831 47.782C213.795 47.842 213.747 47.896 213.687 47.944C213.627 47.98 213.561 48.01 213.489 48.034C213.213 48.166 212.937 48.274 212.661 48.358C212.385 48.442 212.103 48.508 211.815 48.556C211.515 48.616 211.209 48.658 210.897 48.682C210.597 48.706 210.291 48.718 209.979 48.718C209.595 48.718 209.265 48.694 208.989 48.646C208.725 48.586 208.503 48.49 208.323 48.358C208.143 48.25 208.005 48.1 207.909 47.908C207.825 47.716 207.783 47.494 207.783 47.242C207.783 47.026 207.819 46.834 207.891 46.666C207.963 46.486 208.071 46.324 208.215 46.18C208.359 46.06 208.545 45.952 208.773 45.856C209.001 45.76 209.277 45.682 209.601 45.622L210.537 45.442C210.753 45.406 210.945 45.37 211.113 45.334C211.293 45.298 211.455 45.256 211.599 45.208C211.719 45.172 211.815 45.118 211.887 45.046C211.959 44.974 211.995 44.884 211.995 44.776C211.995 44.692 211.971 44.614 211.923 44.542C211.875 44.47 211.809 44.416 211.725 44.38C211.629 44.356 211.515 44.338 211.383 44.326C211.251 44.302 211.101 44.29 210.933 44.29C210.693 44.29 210.465 44.302 210.249 44.326C210.033 44.338 209.829 44.362 209.637 44.398C209.433 44.434 209.241 44.476 209.061 44.524C208.881 44.572 208.713 44.62 208.557 44.668C208.461 44.704 208.377 44.728 208.305 44.74C208.245 44.752 208.197 44.74 208.161 44.704C208.101 44.692 208.053 44.662 208.017 44.614C207.993 44.554 207.975 44.488 207.963 44.416C207.927 44.344 207.909 44.278 207.909 44.218C207.909 44.158 207.927 44.092 207.963 44.02C207.999 43.972 208.053 43.924 208.125 43.876C208.197 43.828 208.287 43.78 208.395 43.732C208.551 43.684 208.725 43.636 208.917 43.588C209.109 43.54 209.313 43.492 209.529 43.444C209.745 43.408 209.967 43.384 210.195 43.372C210.435 43.348 210.681 43.336 210.933 43.336ZM216.333 45.658H218.187C218.259 45.658 218.325 45.67 218.385 45.694C218.445 45.718 218.499 45.748 218.547 45.784C218.583 45.844 218.613 45.904 218.637 45.964C218.661 46.024 218.673 46.09 218.673 46.162C218.673 46.246 218.661 46.318 218.637 46.378C218.613 46.426 218.583 46.468 218.547 46.504C218.499 46.54 218.445 46.57 218.385 46.594C218.325 46.606 218.259 46.612 218.187 46.612H216.405L216.513 48.232C216.513 48.34 216.507 48.436 216.495 48.52C216.483 48.604 216.459 48.664 216.423 48.7C216.375 48.76 216.315 48.802 216.243 48.826C216.183 48.85 216.117 48.862 216.045 48.862C215.949 48.862 215.871 48.856 215.811 48.844C215.751 48.82 215.703 48.778 215.667 48.718C215.607 48.682 215.565 48.622 215.541 48.538C215.529 48.454 215.523 48.358 215.523 48.25L215.217 43.75C215.193 43.654 215.187 43.57 215.199 43.498C215.211 43.414 215.241 43.336 215.289 43.264C215.325 43.216 215.367 43.18 215.415 43.156C215.475 43.12 215.553 43.102 215.649 43.102C215.721 43.102 215.787 43.12 215.847 43.156C215.919 43.18 215.985 43.216 216.045 43.264C216.081 43.336 216.111 43.414 216.135 43.498C216.159 43.57 216.183 43.648 216.207 43.732L216.333 45.658ZM211.329 53.722C211.329 53.854 211.347 53.962 211.383 54.046C211.431 54.13 211.509 54.19 211.617 54.226C211.701 54.286 211.809 54.322 211.941 54.334C212.073 54.346 212.223 54.34 212.391 54.316C212.679 54.304 212.985 54.274 213.309 54.226C213.633 54.178 213.975 54.118 214.335 54.046C214.671 53.974 214.995 53.902 215.307 53.83C215.631 53.758 215.937 53.686 216.225 53.614C216.297 53.602 216.357 53.602 216.405 53.614C216.465 53.614 216.525 53.632 216.585 53.668C216.621 53.716 216.657 53.77 216.693 53.83C216.729 53.878 216.759 53.926 216.783 53.974C216.783 54.034 216.783 54.094 216.783 54.154C216.783 54.202 216.777 54.25 216.765 54.298C216.729 54.37 216.687 54.424 216.639 54.46C216.603 54.496 216.561 54.52 216.513 54.532C216.357 54.592 216.195 54.646 216.027 54.694C215.871 54.73 215.703 54.766 215.523 54.802C215.331 54.85 215.139 54.892 214.947 54.928C214.755 54.964 214.569 55 214.389 55.036C214.185 55.072 213.981 55.108 213.777 55.144C213.585 55.18 213.399 55.204 213.219 55.216C213.015 55.252 212.823 55.276 212.643 55.288C212.475 55.312 212.313 55.324 212.157 55.324C211.845 55.348 211.575 55.324 211.347 55.252C211.131 55.192 210.951 55.084 210.807 54.928C210.651 54.784 210.531 54.634 210.447 54.478C210.363 54.322 210.315 54.154 210.303 53.974C210.267 53.674 210.279 53.41 210.339 53.182C210.411 52.942 210.537 52.744 210.717 52.588C210.873 52.444 211.053 52.33 211.257 52.246C211.461 52.162 211.683 52.102 211.923 52.066L213.939 51.85C214.155 51.838 214.359 51.808 214.551 51.76C214.743 51.712 214.911 51.652 215.055 51.58C215.187 51.52 215.289 51.448 215.361 51.364C215.433 51.268 215.469 51.16 215.469 51.04C215.469 50.956 215.445 50.878 215.397 50.806C215.361 50.734 215.307 50.668 215.235 50.608C215.151 50.572 215.055 50.542 214.947 50.518C214.839 50.494 214.713 50.482 214.569 50.482L211.059 50.716C210.963 50.74 210.885 50.746 210.825 50.734C210.777 50.722 210.735 50.692 210.699 50.644C210.651 50.608 210.615 50.56 210.591 50.5C210.579 50.44 210.573 50.368 210.573 50.284C210.573 50.212 210.579 50.146 210.591 50.086C210.615 50.026 210.651 49.972 210.699 49.924C210.735 49.888 210.777 49.864 210.825 49.852C210.885 49.828 210.957 49.804 211.041 49.78L214.551 49.546C214.863 49.534 215.139 49.558 215.379 49.618C215.619 49.666 215.829 49.744 216.009 49.852C216.165 49.984 216.285 50.152 216.369 50.356C216.453 50.548 216.495 50.776 216.495 51.04C216.495 51.316 216.441 51.556 216.333 51.76C216.225 51.964 216.063 52.132 215.847 52.264C215.631 52.408 215.367 52.528 215.055 52.624C214.755 52.708 214.419 52.768 214.047 52.804L212.193 53.002C212.049 53.026 211.923 53.056 211.815 53.092C211.719 53.128 211.635 53.17 211.563 53.218C211.467 53.29 211.401 53.368 211.365 53.452C211.329 53.524 211.317 53.614 211.329 53.722ZM219.886 48.088C219.802 48.112 219.73 48.118 219.67 48.106C219.61 48.094 219.562 48.058 219.526 47.998C219.466 47.962 219.424 47.92 219.4 47.872C219.376 47.824 219.364 47.764 219.364 47.692C219.34 47.644 219.334 47.596 219.346 47.548C219.37 47.488 219.4 47.422 219.436 47.35C219.46 47.302 219.496 47.26 219.544 47.224C219.604 47.188 219.682 47.158 219.778 47.134C219.982 47.098 220.198 47.068 220.426 47.044C220.654 47.02 220.894 46.99 221.146 46.954C221.386 46.942 221.626 46.93 221.866 46.918C222.106 46.894 222.346 46.882 222.586 46.882C222.814 46.894 223.018 46.924 223.198 46.972C223.39 47.02 223.558 47.08 223.702 47.152C223.834 47.248 223.942 47.35 224.026 47.458C224.122 47.566 224.2 47.686 224.26 47.818C224.296 47.962 224.314 48.112 224.314 48.268C224.326 48.412 224.314 48.556 224.278 48.7L226.186 48.466L226.006 45.766C225.982 45.67 225.976 45.586 225.988 45.514C226.012 45.43 226.048 45.352 226.096 45.28C226.132 45.232 226.18 45.196 226.24 45.172C226.3 45.136 226.378 45.118 226.474 45.118C226.546 45.118 226.612 45.136 226.672 45.172C226.732 45.196 226.792 45.232 226.852 45.28C226.888 45.352 226.918 45.43 226.942 45.514C226.966 45.586 226.99 45.664 227.014 45.748L227.428 52.462C227.428 52.57 227.422 52.666 227.41 52.75C227.398 52.834 227.374 52.894 227.338 52.93C227.29 52.99 227.23 53.032 227.158 53.056C227.098 53.08 227.032 53.092 226.96 53.092C226.876 53.092 226.804 53.086 226.744 53.074C226.684 53.05 226.636 53.008 226.6 52.948C226.54 52.912 226.498 52.852 226.474 52.768C226.45 52.684 226.438 52.588 226.438 52.48L226.24 49.42L223.882 49.69H223.846C223.834 49.702 223.822 49.714 223.81 49.726C223.81 49.726 223.81 49.732 223.81 49.744C223.81 49.756 223.804 49.768 223.792 49.78C223.648 49.984 223.498 50.188 223.342 50.392C223.198 50.596 223.042 50.806 222.874 51.022C222.778 51.142 222.682 51.256 222.586 51.364C222.502 51.472 222.418 51.574 222.334 51.67C222.25 51.766 222.166 51.862 222.082 51.958C222.01 52.054 221.938 52.144 221.866 52.228C221.794 52.3 221.728 52.354 221.668 52.39C221.608 52.414 221.548 52.426 221.488 52.426C221.416 52.426 221.344 52.42 221.272 52.408C221.212 52.384 221.158 52.348 221.11 52.3C221.05 52.264 221.002 52.222 220.966 52.174C220.942 52.114 220.93 52.048 220.93 51.976C220.906 51.928 220.9 51.874 220.912 51.814C220.936 51.742 220.984 51.67 221.056 51.598C221.2 51.43 221.356 51.25 221.524 51.058C221.704 50.854 221.884 50.644 222.064 50.428C222.232 50.212 222.388 50.008 222.532 49.816C222.688 49.612 222.838 49.414 222.982 49.222C223.09 49.066 223.174 48.91 223.234 48.754C223.294 48.598 223.324 48.442 223.324 48.286C223.312 48.142 223.24 48.034 223.108 47.962C222.988 47.878 222.802 47.836 222.55 47.836C222.31 47.836 222.082 47.848 221.866 47.872C221.65 47.884 221.434 47.896 221.218 47.908C221.11 47.932 220.996 47.95 220.876 47.962C220.768 47.974 220.66 47.986 220.552 47.998C220.444 48.01 220.33 48.028 220.21 48.052C220.102 48.064 219.994 48.076 219.886 48.088ZM229.138 45.604C229.138 45.508 229.144 45.424 229.156 45.352C229.18 45.268 229.21 45.19 229.246 45.118C229.282 45.07 229.33 45.034 229.39 45.01C229.45 44.974 229.528 44.956 229.624 44.956C229.696 44.956 229.762 44.974 229.822 45.01C229.894 45.034 229.96 45.07 230.02 45.118C230.056 45.19 230.086 45.268 230.11 45.352C230.134 45.424 230.146 45.508 230.146 45.604V52.93C230.146 53.038 230.134 53.134 230.11 53.218C230.086 53.302 230.056 53.362 230.02 53.398C229.96 53.458 229.894 53.5 229.822 53.524C229.762 53.536 229.696 53.542 229.624 53.542C229.528 53.542 229.45 53.536 229.39 53.524C229.33 53.5 229.282 53.458 229.246 53.398C229.21 53.362 229.18 53.302 229.156 53.218C229.144 53.134 229.138 53.038 229.138 52.93V45.604ZM94.358 74.65C94.358 74.758 94.346 74.86 94.322 74.956C94.31 75.04 94.286 75.118 94.25 75.19C94.214 75.286 94.16 75.352 94.088 75.388C94.016 75.424 93.926 75.442 93.818 75.442C93.71 75.442 93.608 75.43 93.512 75.406C93.428 75.382 93.35 75.334 93.278 75.262C93.194 75.214 93.134 75.154 93.098 75.082C93.062 74.998 93.044 74.902 93.044 74.794C93.044 74.686 93.05 74.584 93.062 74.488C93.086 74.392 93.122 74.296 93.17 74.2C93.194 74.116 93.242 74.044 93.314 73.984C93.386 73.924 93.476 73.894 93.584 73.894C93.692 73.894 93.788 73.918 93.872 73.966C93.968 74.014 94.052 74.068 94.124 74.128C94.196 74.2 94.25 74.278 94.286 74.362C94.334 74.446 94.358 74.542 94.358 74.65ZM97.7857 74.65C97.7857 74.758 97.7737 74.86 97.7497 74.956C97.7377 75.04 97.7137 75.118 97.6777 75.19C97.6417 75.286 97.5877 75.352 97.5157 75.388C97.4437 75.424 97.3537 75.442 97.2457 75.442C97.1377 75.442 97.0357 75.43 96.9397 75.406C96.8557 75.382 96.7777 75.334 96.7057 75.262C96.6217 75.214 96.5617 75.154 96.5257 75.082C96.4897 74.998 96.4717 74.902 96.4717 74.794C96.4717 74.686 96.4777 74.584 96.4897 74.488C96.5137 74.392 96.5497 74.296 96.5977 74.2C96.6217 74.116 96.6697 74.044 96.7417 73.984C96.8137 73.924 96.9037 73.894 97.0117 73.894C97.1197 73.894 97.2157 73.918 97.2997 73.966C97.3957 74.014 97.4797 74.068 97.5517 74.128C97.6237 74.2 97.6777 74.278 97.7137 74.362C97.7617 74.446 97.7857 74.542 97.7857 74.65ZM101.213 74.65C101.213 74.758 101.201 74.86 101.177 74.956C101.165 75.04 101.141 75.118 101.105 75.19C101.069 75.286 101.015 75.352 100.943 75.388C100.871 75.424 100.781 75.442 100.673 75.442C100.565 75.442 100.463 75.43 100.367 75.406C100.283 75.382 100.205 75.334 100.133 75.262C100.049 75.214 99.9895 75.154 99.9535 75.082C99.9175 74.998 99.8995 74.902 99.8995 74.794C99.8995 74.686 99.9055 74.584 99.9175 74.488C99.9415 74.392 99.9775 74.296 100.025 74.2C100.049 74.116 100.097 74.044 100.169 73.984C100.241 73.924 100.331 73.894 100.439 73.894C100.547 73.894 100.643 73.918 100.727 73.966C100.823 74.014 100.907 74.068 100.979 74.128C101.051 74.2 101.105 74.278 101.141 74.362C101.189 74.446 101.213 74.542 101.213 74.65Z" fill="#929292"/>
<circle cx="45" cy="43" r="11" fill="white"/>
<ellipse cx="45" cy="67" rx="17" ry="15" fill="white"/>
<path d="M352.4 18.184C352.4 18.376 352.384 18.5573 352.352 18.728C352.32 18.888 352.272 19.0373 352.208 19.176C352.133 19.336 352.048 19.48 351.952 19.608C351.856 19.736 351.749 19.8533 351.632 19.96C351.504 20.088 351.365 20.2 351.216 20.296C351.077 20.3813 350.928 20.4507 350.768 20.504C350.725 20.5253 350.683 20.5467 350.64 20.568C350.597 20.5787 350.56 20.584 350.528 20.584V22.76L353.6 22.584C353.664 22.584 353.723 22.5893 353.776 22.6C353.829 22.6107 353.877 22.632 353.92 22.664C353.952 22.7067 353.979 22.7547 354 22.808C354.021 22.8613 354.032 22.92 354.032 22.984C354.032 23.0587 354.021 23.1227 354 23.176C353.979 23.2293 353.952 23.272 353.92 23.304C353.877 23.3467 353.829 23.3787 353.776 23.4C353.733 23.4107 353.68 23.416 353.616 23.416L346.544 23.816C346.459 23.8373 346.389 23.8427 346.336 23.832C346.293 23.8213 346.256 23.7947 346.224 23.752C346.181 23.72 346.149 23.6827 346.128 23.64C346.117 23.5867 346.112 23.5227 346.112 23.448C346.112 23.384 346.117 23.3253 346.128 23.272C346.149 23.2187 346.181 23.1707 346.224 23.128C346.256 23.096 346.293 23.0693 346.336 23.048C346.389 23.0267 346.453 23.0053 346.528 22.984L349.616 22.808V20.68C349.467 20.68 349.328 20.6693 349.2 20.648C349.083 20.6267 348.971 20.5893 348.864 20.536C348.736 20.4933 348.613 20.4347 348.496 20.36C348.389 20.2853 348.288 20.2 348.192 20.104C348.096 20.008 348.011 19.9067 347.936 19.8C347.861 19.6933 347.803 19.576 347.76 19.448C347.696 19.3307 347.653 19.2027 347.632 19.064C347.611 18.9253 347.6 18.776 347.6 18.616C347.6 18.424 347.611 18.2427 347.632 18.072C347.664 17.8907 347.712 17.72 347.776 17.56C347.829 17.4107 347.899 17.2667 347.984 17.128C348.08 16.9787 348.192 16.84 348.32 16.712C348.427 16.5947 348.544 16.488 348.672 16.392C348.811 16.296 348.96 16.216 349.12 16.152C349.259 16.088 349.408 16.04 349.568 16.008C349.739 15.976 349.92 15.96 350.112 15.96C350.283 15.96 350.443 15.976 350.592 16.008C350.752 16.04 350.907 16.0773 351.056 16.12C351.184 16.184 351.307 16.2533 351.424 16.328C351.552 16.392 351.675 16.4667 351.792 16.552C351.877 16.6587 351.957 16.7707 352.032 16.888C352.107 17.0053 352.176 17.128 352.24 17.256C352.283 17.4053 352.32 17.56 352.352 17.72C352.384 17.8693 352.4 18.024 352.4 18.184ZM349.712 19.832C349.84 19.832 349.957 19.8267 350.064 19.816C350.181 19.7947 350.299 19.7627 350.416 19.72C350.512 19.688 350.608 19.6453 350.704 19.592C350.811 19.5387 350.912 19.4693 351.008 19.384C351.083 19.3093 351.147 19.2293 351.2 19.144C351.264 19.048 351.323 18.9467 351.376 18.84C351.408 18.744 351.435 18.6427 351.456 18.536C351.477 18.4293 351.488 18.312 351.488 18.184C351.488 18.0773 351.477 17.976 351.456 17.88C351.445 17.784 351.429 17.688 351.408 17.592C351.376 17.5173 351.333 17.4427 351.28 17.368C351.237 17.2933 351.195 17.2187 351.152 17.144C351.088 17.1013 351.013 17.0587 350.928 17.016C350.853 16.9627 350.779 16.92 350.704 16.888C350.608 16.8667 350.512 16.8507 350.416 16.84C350.32 16.8187 350.219 16.808 350.112 16.808C349.984 16.808 349.867 16.824 349.76 16.856C349.664 16.8773 349.568 16.904 349.472 16.936C349.365 16.9893 349.264 17.048 349.168 17.112C349.083 17.1653 349.008 17.2293 348.944 17.304C348.859 17.4 348.789 17.5013 348.736 17.608C348.683 17.7147 348.64 17.816 348.608 17.912C348.565 18.0293 348.533 18.1467 348.512 18.264C348.501 18.3707 348.496 18.488 348.496 18.616C348.496 18.712 348.501 18.8027 348.512 18.888C348.523 18.9733 348.544 19.048 348.576 19.112C348.587 19.1973 348.613 19.272 348.656 19.336C348.699 19.4 348.752 19.4587 348.816 19.512C348.88 19.576 348.944 19.6347 349.008 19.688C349.072 19.7307 349.147 19.7573 349.232 19.768C349.296 19.8 349.365 19.8213 349.44 19.832C349.525 19.832 349.616 19.832 349.712 19.832ZM355.097 17.272C355.001 17.304 354.915 17.32 354.84 17.32C354.766 17.32 354.707 17.304 354.665 17.272C354.611 17.2507 354.574 17.2133 354.553 17.16C354.531 17.1067 354.521 17.0373 354.521 16.952C354.499 16.8987 354.494 16.8507 354.505 16.808C354.515 16.7547 354.547 16.7013 354.601 16.648C354.633 16.616 354.686 16.5893 354.761 16.568C354.835 16.536 354.921 16.504 355.017 16.472L356.825 16.136C357.145 16.072 357.422 16.0507 357.657 16.072C357.902 16.0827 358.115 16.136 358.297 16.232C358.457 16.328 358.579 16.4613 358.665 16.632C358.75 16.8027 358.793 17.0053 358.793 17.24C358.793 17.368 358.777 17.4907 358.745 17.608C358.713 17.7147 358.665 17.8213 358.601 17.928C358.558 17.992 358.51 18.056 358.457 18.12C358.414 18.184 358.366 18.2427 358.312 18.296L359.609 19.416C359.673 19.48 359.726 19.544 359.769 19.608C359.811 19.672 359.843 19.7307 359.865 19.784C359.865 19.848 359.854 19.912 359.833 19.976C359.822 20.04 359.795 20.0933 359.753 20.136C359.699 20.2 359.646 20.2427 359.593 20.264C359.55 20.2853 359.502 20.2853 359.449 20.264C359.385 20.264 359.315 20.2427 359.241 20.2C359.177 20.1573 359.113 20.104 359.049 20.04L357.689 18.888L355.897 20.632C355.811 20.696 355.731 20.7493 355.657 20.792C355.593 20.824 355.534 20.84 355.481 20.84C355.417 20.8613 355.358 20.8613 355.305 20.84C355.262 20.8187 355.225 20.776 355.193 20.712C355.129 20.6693 355.086 20.6213 355.065 20.568C355.043 20.504 355.043 20.44 355.065 20.376C355.065 20.312 355.086 20.248 355.129 20.184C355.182 20.12 355.251 20.056 355.337 19.992L357.481 17.928C357.545 17.8853 357.598 17.8373 357.641 17.784C357.694 17.72 357.742 17.656 357.785 17.592C357.817 17.5387 357.838 17.4853 357.849 17.432C357.87 17.368 357.881 17.304 357.881 17.24C357.881 17.1653 357.865 17.1013 357.833 17.048C357.801 16.9947 357.758 16.952 357.705 16.92C357.641 16.8987 357.561 16.888 357.465 16.888C357.379 16.8773 357.283 16.8773 357.177 16.888L355.097 17.272ZM360.233 18.6C360.158 18.6 360.094 18.5947 360.041 18.584C359.998 18.5627 359.961 18.5307 359.929 18.488C359.886 18.456 359.854 18.4187 359.833 18.376C359.822 18.3227 359.817 18.2587 359.817 18.184C359.817 18.12 359.822 18.0613 359.833 18.008C359.854 17.9547 359.886 17.9067 359.929 17.864C359.961 17.832 359.998 17.8053 360.041 17.784C360.094 17.7627 360.158 17.752 360.233 17.752H361.897V15.816C361.897 15.7307 361.902 15.656 361.913 15.592C361.934 15.5173 361.966 15.448 362.009 15.384C362.041 15.3413 362.078 15.3093 362.121 15.288C362.174 15.256 362.243 15.24 362.329 15.24C362.393 15.24 362.451 15.256 362.505 15.288C362.569 15.3093 362.627 15.3413 362.681 15.384C362.713 15.448 362.739 15.5173 362.76 15.592C362.793 15.656 362.809 15.7307 362.809 15.816V20.904C362.809 21 362.793 21.0853 362.76 21.16C362.739 21.2347 362.713 21.288 362.681 21.32C362.627 21.3733 362.569 21.4107 362.505 21.432C362.451 21.4427 362.393 21.448 362.329 21.448C362.243 21.448 362.174 21.4427 362.121 21.432C362.078 21.4107 362.041 21.3733 362.009 21.32C361.966 21.288 361.934 21.2347 361.913 21.16C361.902 21.0853 361.897 21 361.897 20.904V18.6H360.233ZM358.089 22.504C358.078 22.568 358.073 22.632 358.073 22.696C358.073 22.76 358.073 22.8133 358.073 22.856C358.062 22.92 358.057 22.9787 358.057 23.032C358.057 23.0853 358.057 23.1333 358.057 23.176C358.057 23.2293 358.057 23.2827 358.057 23.336C358.057 23.3787 358.062 23.4213 358.073 23.464C358.073 23.5173 358.073 23.5707 358.073 23.624C358.073 23.6667 358.078 23.7093 358.089 23.752C358.089 23.816 358.094 23.8693 358.105 23.912C358.126 23.9547 358.153 23.9867 358.185 24.008C358.206 24.04 358.249 24.0667 358.312 24.088C358.377 24.0987 358.457 24.0987 358.553 24.088C358.617 24.088 358.681 24.088 358.745 24.088C358.809 24.088 358.878 24.0827 358.953 24.072C359.027 24.072 359.102 24.0667 359.177 24.056C359.262 24.0453 359.347 24.0347 359.433 24.024C359.507 24.024 359.582 24.0187 359.657 24.008C359.742 23.9973 359.827 23.9867 359.913 23.976C359.998 23.9653 360.083 23.9547 360.169 23.944C360.254 23.9333 360.345 23.9173 360.441 23.896C360.611 23.8853 360.782 23.864 360.953 23.832C361.123 23.8 361.294 23.768 361.465 23.736C361.625 23.7147 361.779 23.6933 361.929 23.672C362.078 23.64 362.217 23.608 362.345 23.576C362.409 23.576 362.462 23.5813 362.505 23.592C362.558 23.6027 362.611 23.624 362.665 23.656C362.697 23.6987 362.729 23.7413 362.76 23.784C362.793 23.8267 362.819 23.8693 362.841 23.912C362.841 23.976 362.841 24.0347 362.841 24.088C362.841 24.1307 362.835 24.1733 362.825 24.216C362.793 24.28 362.755 24.328 362.713 24.36C362.681 24.392 362.643 24.4133 362.601 24.424C362.451 24.4773 362.297 24.52 362.137 24.552C361.977 24.584 361.806 24.616 361.625 24.648C361.433 24.68 361.235 24.712 361.033 24.744C360.83 24.776 360.633 24.8027 360.441 24.824C360.227 24.856 360.019 24.8827 359.817 24.904C359.614 24.9253 359.417 24.936 359.225 24.936C359.022 24.9573 358.83 24.9733 358.649 24.984C358.478 24.984 358.323 24.984 358.185 24.984C358.035 24.984 357.902 24.968 357.785 24.936C357.667 24.904 357.566 24.8453 357.481 24.76C357.385 24.696 357.31 24.6107 357.257 24.504C357.203 24.3973 357.177 24.2693 357.177 24.12C357.155 23.9813 357.139 23.8427 357.129 23.704C357.129 23.5653 357.134 23.432 357.145 23.304C357.145 23.176 357.145 23.048 357.145 22.92C357.145 22.7813 357.155 22.6373 357.177 22.488C357.177 22.424 357.187 22.3653 357.209 22.312C357.23 22.2587 357.273 22.2107 357.337 22.168C357.379 22.136 357.427 22.1093 357.481 22.088C357.534 22.0667 357.593 22.056 357.657 22.056C357.699 22.056 357.747 22.0667 357.801 22.088C357.854 22.1093 357.907 22.136 357.961 22.168C357.993 22.2213 358.019 22.2747 358.041 22.328C358.073 22.3813 358.089 22.44 358.089 22.504ZM371.646 18.088C371.646 17.9493 371.614 17.816 371.55 17.688C371.486 17.5493 371.39 17.4213 371.262 17.304C371.123 17.208 370.963 17.1333 370.782 17.08C370.611 17.0267 370.414 17 370.19 17C369.955 17 369.753 17.032 369.582 17.096C369.422 17.1493 369.299 17.2347 369.214 17.352C369.118 17.48 369.049 17.6187 369.006 17.768C368.963 17.9067 368.942 18.0613 368.942 18.232C368.942 18.424 368.963 18.5893 369.006 18.728C369.059 18.856 369.15 18.9627 369.278 19.048C369.385 19.144 369.523 19.2133 369.694 19.256C369.875 19.288 370.089 19.304 370.334 19.304C370.547 19.304 370.734 19.2827 370.894 19.24C371.065 19.1973 371.209 19.1173 371.326 19C371.433 18.904 371.513 18.7813 371.566 18.632C371.619 18.4827 371.646 18.3013 371.646 18.088ZM368.99 19.784C368.926 19.752 368.862 19.7147 368.798 19.672C368.734 19.6293 368.67 19.576 368.606 19.512C368.414 19.352 368.27 19.1653 368.174 18.952C368.078 18.7387 368.03 18.4987 368.03 18.232C368.03 17.944 368.078 17.6773 368.174 17.432C368.27 17.1867 368.414 16.9573 368.606 16.744C368.798 16.552 369.022 16.408 369.278 16.312C369.545 16.2053 369.849 16.152 370.19 16.152C370.553 16.152 370.878 16.2053 371.166 16.312C371.454 16.4187 371.71 16.568 371.934 16.76C372.126 16.9627 372.275 17.176 372.382 17.4C372.499 17.624 372.558 17.8533 372.558 18.088C372.558 18.4187 372.505 18.7067 372.398 18.952C372.302 19.1867 372.169 19.384 371.998 19.544C371.945 19.5867 371.891 19.624 371.838 19.656C371.795 19.688 371.753 19.7147 371.71 19.736C371.774 19.768 371.838 19.8107 371.902 19.864C371.966 19.9067 372.03 19.9547 372.094 20.008C372.286 20.2 372.43 20.4187 372.526 20.664C372.633 20.8987 372.686 21.16 372.686 21.448C372.686 21.768 372.633 22.0613 372.526 22.328C372.43 22.584 372.297 22.8187 372.126 23.032C371.934 23.2667 371.699 23.4373 371.422 23.544C371.145 23.6507 370.825 23.704 370.462 23.704C370.078 23.704 369.742 23.656 369.454 23.56C369.166 23.464 368.926 23.3093 368.734 23.096C368.542 22.904 368.398 22.6853 368.302 22.44C368.217 22.184 368.174 21.9013 368.174 21.592C368.174 21.272 368.217 20.984 368.302 20.728C368.387 20.4613 368.526 20.2267 368.718 20.024C368.761 19.9813 368.803 19.9387 368.846 19.896C368.899 19.8533 368.947 19.816 368.99 19.784ZM371.79 21.448C371.79 21.2667 371.758 21.1013 371.694 20.952C371.63 20.792 371.539 20.648 371.422 20.52C371.294 20.392 371.139 20.3013 370.958 20.248C370.777 20.184 370.569 20.152 370.334 20.152C370.121 20.152 369.934 20.184 369.774 20.248C369.614 20.3013 369.486 20.392 369.39 20.52C369.273 20.648 369.187 20.8027 369.134 20.984C369.091 21.1653 369.07 21.368 369.07 21.592C369.07 21.784 369.091 21.96 369.134 22.12C369.187 22.28 369.278 22.4133 369.406 22.52C369.523 22.648 369.667 22.7387 369.838 22.792C370.019 22.8347 370.227 22.856 370.462 22.856C370.686 22.856 370.878 22.8293 371.038 22.776C371.198 22.712 371.337 22.6 371.454 22.44C371.561 22.312 371.641 22.1627 371.694 21.992C371.758 21.8213 371.79 21.64 371.79 21.448ZM375.409 21.496C375.409 21.592 375.398 21.6827 375.377 21.768C375.366 21.8427 375.345 21.912 375.312 21.976C375.281 22.0507 375.233 22.104 375.169 22.136C375.105 22.168 375.025 22.184 374.929 22.184C374.833 22.184 374.742 22.1787 374.657 22.168C374.582 22.1467 374.513 22.104 374.449 22.04C374.374 21.9973 374.321 21.944 374.289 21.88C374.257 21.8053 374.241 21.72 374.241 21.624C374.241 21.528 374.246 21.4373 374.257 21.352C374.278 21.256 374.31 21.1653 374.353 21.08C374.374 21.0053 374.417 20.9467 374.481 20.904C374.545 20.8507 374.625 20.824 374.721 20.824C374.817 20.824 374.902 20.8453 374.977 20.888C375.062 20.92 375.137 20.9627 375.201 21.016C375.265 21.0907 375.313 21.1653 375.345 21.24C375.387 21.3147 375.409 21.4 375.409 21.496ZM375.409 18.088C375.409 18.184 375.398 18.2747 375.377 18.36C375.366 18.4347 375.345 18.504 375.312 18.568C375.281 18.6533 375.233 18.712 375.169 18.744C375.105 18.776 375.025 18.792 374.929 18.792C374.833 18.792 374.742 18.7813 374.657 18.76C374.582 18.7387 374.513 18.696 374.449 18.632C374.374 18.5893 374.321 18.536 374.289 18.472C374.257 18.3973 374.241 18.312 374.241 18.216C374.241 18.12 374.246 18.0293 374.257 17.944C374.278 17.8587 374.31 17.7733 374.353 17.688C374.374 17.6133 374.417 17.5493 374.481 17.496C374.545 17.4427 374.625 17.416 374.721 17.416C374.817 17.416 374.902 17.4373 374.977 17.48C375.062 17.5227 375.137 17.5707 375.201 17.624C375.265 17.688 375.313 17.7573 375.345 17.832C375.387 17.9067 375.409 17.992 375.409 18.088ZM381.239 19.432C381.399 19.464 381.559 19.512 381.719 19.576C381.89 19.6293 382.061 19.704 382.231 19.8C382.583 19.992 382.829 20.232 382.967 20.52C383.117 20.808 383.154 21.1493 383.079 21.544C382.994 21.9813 382.839 22.3493 382.615 22.648C382.391 22.9467 382.098 23.1813 381.735 23.352C381.351 23.5333 380.925 23.6507 380.455 23.704C379.997 23.7467 379.49 23.7147 378.935 23.608C378.626 23.544 378.333 23.448 378.055 23.32C377.778 23.192 377.517 23.0213 377.271 22.808C377.111 22.6907 377.021 22.568 376.999 22.44C376.978 22.312 377.021 22.184 377.127 22.056C377.223 21.96 377.325 21.9173 377.431 21.928C377.549 21.9387 377.677 22.008 377.815 22.136C377.986 22.3067 378.178 22.4507 378.391 22.568C378.605 22.6747 378.834 22.744 379.079 22.776C379.517 22.84 379.911 22.8613 380.263 22.84C380.615 22.8187 380.935 22.7333 381.223 22.584C381.49 22.456 381.709 22.2907 381.879 22.088C382.05 21.8853 382.162 21.6453 382.215 21.368C382.226 21.1973 382.183 21.032 382.087 20.872C382.002 20.7013 381.858 20.5467 381.655 20.408C381.431 20.28 381.186 20.2 380.919 20.168C380.663 20.136 380.375 20.136 380.055 20.168L378.759 20.424C378.589 20.4453 378.455 20.4293 378.359 20.376C378.263 20.3227 378.215 20.2267 378.215 20.088C378.162 19.928 378.162 19.8053 378.215 19.72C378.269 19.6347 378.375 19.576 378.535 19.544L379.671 19.352V19.336C379.831 19.3147 379.975 19.2773 380.103 19.224C380.242 19.16 380.37 19.08 380.487 18.984C380.605 18.888 380.701 18.7813 380.775 18.664C380.85 18.536 380.903 18.3973 380.935 18.248C380.946 18.12 380.941 17.9973 380.919 17.88C380.898 17.752 380.85 17.6347 380.775 17.528C380.69 17.432 380.578 17.3467 380.439 17.272C380.301 17.1973 380.135 17.1387 379.943 17.096C379.655 17.064 379.346 17.112 379.015 17.24C378.695 17.3573 378.349 17.56 377.975 17.848C377.847 17.9653 377.73 18.0187 377.623 18.008C377.527 17.9973 377.447 17.9333 377.383 17.816C377.287 17.6987 377.266 17.576 377.319 17.448C377.373 17.3093 377.495 17.176 377.687 17.048C378.125 16.728 378.541 16.504 378.935 16.376C379.33 16.2373 379.709 16.2 380.071 16.264C380.37 16.328 380.637 16.424 380.871 16.552C381.106 16.68 381.303 16.84 381.463 17.032C381.613 17.2347 381.719 17.4533 381.783 17.688C381.847 17.912 381.853 18.152 381.799 18.408C381.767 18.6 381.703 18.776 381.607 18.936C381.511 19.096 381.389 19.256 381.239 19.416V19.432ZM385.283 19.176C385.272 19.2507 385.267 19.3253 385.267 19.4C385.278 19.464 385.304 19.5333 385.347 19.608C385.379 19.704 385.384 19.7893 385.363 19.864C385.352 19.928 385.32 19.9867 385.267 20.04C385.203 20.104 385.128 20.1413 385.043 20.152C384.968 20.152 384.888 20.1307 384.803 20.088C384.664 20.024 384.558 19.9493 384.483 19.864C384.408 19.768 384.387 19.656 384.419 19.528C384.483 18.664 384.696 18.008 385.059 17.56C385.422 17.112 385.928 16.888 386.579 16.888C387.272 16.888 387.795 17.112 388.147 17.56C388.499 18.008 388.675 18.664 388.675 19.528C388.675 20.136 388.531 20.696 388.243 21.208C387.966 21.72 387.56 22.184 387.027 22.6C387.379 22.568 387.758 22.5413 388.163 22.52C388.568 22.4987 388.99 22.488 389.427 22.488C389.566 22.488 389.672 22.5253 389.747 22.6C389.822 22.6747 389.859 22.7813 389.859 22.92C389.859 23.0587 389.822 23.1653 389.747 23.24C389.672 23.304 389.571 23.336 389.443 23.336C388.643 23.336 387.875 23.3733 387.139 23.448C386.414 23.512 385.71 23.6133 385.027 23.752C384.942 23.7733 384.872 23.768 384.819 23.736C384.766 23.6933 384.723 23.6347 384.691 23.56C384.616 23.432 384.606 23.3147 384.659 23.208C384.723 23.1013 384.846 23 385.027 22.904C385.934 22.456 386.616 21.9493 387.075 21.384C387.544 20.8187 387.779 20.2 387.779 19.528C387.779 18.9413 387.672 18.4987 387.459 18.2C387.256 17.8907 386.963 17.736 386.579 17.736C386.238 17.736 385.96 17.8587 385.747 18.104C385.534 18.3493 385.379 18.7067 385.283 19.176Z" fill="#929292"/>
<path d="M245 49.5C245 53.0898 242.09 56 238.5 56C234.91 56 232 53.0898 232 49.5C232 45.9102 234.91 43 238.5 43C242.09 43 245 45.9102 245 49.5Z" fill="#FFCC4D"/>
<path d="M234.528 51.3054C235.525 51.3054 236.333 50.4971 236.333 49.4999C236.333 48.5027 235.525 47.6943 234.528 47.6943C233.531 47.6943 232.722 48.5027 232.722 49.4999C232.722 50.4971 233.531 51.3054 234.528 51.3054Z" fill="#FF7892"/>
<path d="M242.472 51.3054C243.469 51.3054 244.278 50.4971 244.278 49.4999C244.278 48.5027 243.469 47.6943 242.472 47.6943C241.475 47.6943 240.667 48.5027 240.667 49.4999C240.667 50.4971 241.475 51.3054 242.472 51.3054Z" fill="#FF7892"/>
<path d="M241.871 50.8109C241.807 50.7528 241.711 50.7492 241.642 50.8004C241.628 50.8109 240.225 51.8477 238.5 51.8477C236.779 51.8477 235.372 50.8109 235.358 50.8004C235.289 50.7492 235.193 50.7535 235.129 50.8109C235.065 50.8687 235.051 50.964 235.095 51.0377C235.142 51.1153 236.257 52.931 238.5 52.931C240.743 52.931 241.859 51.1153 241.905 51.0377C241.949 50.9637 241.935 50.8687 241.871 50.8109ZM234.889 48.4171C234.834 48.4171 234.779 48.4048 234.727 48.3788C234.549 48.2896 234.477 48.0726 234.566 47.8942C234.585 47.8567 235.042 46.9727 236.333 46.9727C237.625 46.9727 238.082 47.857 238.101 47.8946C238.19 48.073 238.118 48.29 237.939 48.3792C237.762 48.4677 237.547 48.3969 237.457 48.2217C237.441 48.1929 237.157 47.6949 236.333 47.6949C235.497 47.6949 235.214 48.2124 235.212 48.2174C235.149 48.3442 235.021 48.4171 234.889 48.4171ZM242.111 48.4171C241.979 48.4171 241.851 48.3442 241.788 48.2174C241.779 48.2008 241.497 47.6949 240.667 47.6949C239.836 47.6949 239.554 48.2008 239.543 48.2221C239.449 48.3958 239.233 48.464 239.057 48.3738C238.882 48.2828 238.811 48.0708 238.899 47.8942C238.918 47.857 239.375 46.9727 240.667 46.9727C241.958 46.9727 242.416 47.857 242.434 47.8946C242.523 48.073 242.451 48.29 242.273 48.3792C242.221 48.4048 242.166 48.4171 242.111 48.4171Z" fill="#664500"/>
</svg>
